<svg id="Layer_1" data-name="Layer 1" xmlns="http://www.w3.org/2000/svg" viewBox="0 0 1200 1200" width="1200" height="1200">
    <title>logo</title>
    <rect width="100%" height="100%" fill="#000000"/>
    <g style="fill:#ffffff;" transform="matrix(2.5163179,0,0,2.5163179,52.619154,358.54672)">
        <path d="M288.4,25.76c-10.92-7.56-26-11.76-26-11.76s-6.72,22.68-6.72,42c0,.72,0,1.44,0,2.16s0,1.44,0,2.16c0,19.32,6.72,42,6.72,42s15.12-4.2,26-11.76c11.88-8.22,20.16-21.84,20.16-21.84V47.6S300.28,34,288.4,25.76Z"
              transform="translate(-104.28 -14)"/>
        <path d="M321.16,46.76a46.43,46.43,0,0,0-7.56.84v21a34.49,34.49,0,0,0,15.13,0v-21A46.63,46.63,0,0,0,321.16,46.76Z"
              transform="translate(-104.28 -14)"/>
        <path d="M353.09,26.05c10.92-7.56,26-11.76,26-11.76s6.72,22.68,6.72,42c0,.72,0,1.44,0,2.16s0,1.44,0,2.16c0,19.32-6.72,42-6.72,42s-15.12-4.2-26-11.77C341.2,82.64,332.93,69,332.93,69V47.9S341.2,34.28,353.09,26.05Z"
              transform="translate(-104.28 -14)"/>
        <path d="M111,121.59h-6.7V120h16.78l12,39.68,12-39.68h16.29v1.61h-6.7v50.57h6.7v1.62h-22v-1.62h6.69V123l-15.32,50.82h-2L112.83,122.4v49.76h6.7v1.62H104.28v-1.62H111Z"
              transform="translate(-104.28 -14)"/>
        <path d="M198.32,172.16a7.39,7.39,0,0,1-5.56,2.42c-3.95,0-6.29-2.17-6.78-6.29a11.91,11.91,0,0,1-10.48,6.29c-5.08,0-8.55-3.06-8.55-7.5,0-4,2.58-7.1,7.34-9,3-1.13,6.29-1.69,11.69-1.78v-5.56c0-4.6-.16-5.41-1-6.45a6,6,0,0,0-4.35-1.62c-2.91,0-6.13,1.78-6.13,3.39,0,.32.08.48.4.89a3.43,3.43,0,0,1-2.18,6,3.36,3.36,0,0,1-3.46-3.55c0-4.28,6-8.07,12.66-8.07,3.95,0,7.58,1.29,9.52,3.39,1.77,1.85,1.85,2.26,1.85,9.36v8.87c0,7.66,0,7.66.32,8.39a1.21,1.21,0,0,0,1.38,1c.8,0,1-.09,2.42-1.3ZM186,157.65c-4.27.16-6.29.64-8.22,1.85a6.77,6.77,0,0,0-3.63,6.13c0,3.39,1.77,5.41,4.84,5.41a6.43,6.43,0,0,0,5.72-3.63c.89-1.54,1.29-4,1.29-8.15Z"
              transform="translate(-104.28 -14)"/>
        <path d="M207.51,143.69h-5.4v-1.61h12.66v4.19a11.77,11.77,0,0,1,10.09-5c3.3,0,6.53,1.21,8.3,3.15s2.26,3.87,2.26,9.84v17.9h5.33v1.62H223.32v-1.62h4.84V159.74c0-9.6-.32-12.5-1.53-14.11a4.86,4.86,0,0,0-3.95-1.94,7.58,7.58,0,0,0-5.89,3.23c-1.61,2.26-2,5.72-2,15.65v9.59h4.84v1.62h-17.5v-1.62h5.4Z"
              transform="translate(-104.28 -14)"/>
        <path d="M285.75,173.78h-1.21l-2.74-3.87c-4.6,3.22-8.63,4.67-13.31,4.67-12.59,0-23-12.42-23-27.58s10.73-27.83,23.71-27.83a20.92,20.92,0,0,1,12.59,4.6l2.74-3.79h1.21v14.19h-1.21c-2.1-8.38-7.5-13.14-15-13.14-5.17,0-9.2,2.18-11.38,6.13-1.69,3.22-2.5,10.16-2.5,21.94,0,11.05.65,15.81,2.58,18.63,2.1,3.14,6.05,5,10.65,5,7.18,0,12.34-4.68,15.65-14.2h1.21Z"
              transform="translate(-104.28 -14)"/>
        <path d="M324.86,158.13a16.34,16.34,0,1,1-16.37-16.86C317.68,141.27,324.86,148.69,324.86,158.13Zm-23.15-11.62c-.8,1.62-.88,2.75-.88,11.38,0,9.35.08,10.24,1.29,12,1.29,1.93,3.3,2.82,6.45,2.82,3.31,0,5.56-1.13,6.77-3.47.81-1.53.89-2.74.89-11.21,0-9.44-.08-10.41-1.29-12.1-1.29-1.94-3.31-2.82-6.53-2.82S302.92,144.26,301.71,146.51Z"
              transform="translate(-104.28 -14)"/>
        <path d="M362,172.16a7.39,7.39,0,0,1-5.56,2.42c-4,0-6.3-2.17-6.78-6.29a11.91,11.91,0,0,1-10.49,6.29c-5.08,0-8.54-3.06-8.54-7.5,0-4,2.58-7.1,7.33-9,3-1.13,6.3-1.69,11.7-1.78v-5.56c0-4.6-.16-5.41-1.05-6.45a6,6,0,0,0-4.35-1.62c-2.91,0-6.13,1.78-6.13,3.39,0,.32.08.48.4.89a3.43,3.43,0,0,1-2.18,6,3.37,3.37,0,0,1-3.47-3.55c0-4.28,6-8.07,12.67-8.07,4,0,7.58,1.29,9.51,3.39,1.78,1.85,1.86,2.26,1.86,9.36v8.87c0,7.66,0,7.66.32,8.39a1.2,1.2,0,0,0,1.37,1c.81,0,1-.09,2.42-1.3ZM349.7,157.65c-4.27.16-6.29.64-8.23,1.85a6.77,6.77,0,0,0-3.63,6.13c0,3.39,1.78,5.41,4.84,5.41a6.44,6.44,0,0,0,5.73-3.63c.89-1.54,1.29-4,1.29-8.15Z"
              transform="translate(-104.28 -14)"/>
        <path d="M395,163.53c-2.83,7.59-7,11.05-13.23,11.05-8.31,0-15.49-7.66-15.49-16.45,0-9.11,7.42-16.86,16.21-16.86,6.13,0,11.3,3.79,11.3,8.31,0,2.5-1.54,4.19-3.79,4.19a3.6,3.6,0,0,1-3.63-3.79,6,6,0,0,1,1.61-3.79c.24-.24.32-.32.32-.56,0-1.21-2.9-2.5-5.56-2.5-2.91,0-5.08,1.13-6.29,3.3-1,2-1.62,6.7-1.62,13.88,0,5.89.41,8.22,1.7,9.92a7.09,7.09,0,0,0,5.72,2.5c5,0,8.71-3.23,10.73-9.2Z"
              transform="translate(-104.28 -14)"/>
        <path d="M402.53,121.59h-5.41V120h12.66v27.83a12.82,12.82,0,0,1,11.86-6.54c3.63,0,6.7,1,8.31,3,1.37,1.69,1.69,3.06,1.69,8.71v19.19H437v1.62H419.54v-1.62h4.84V153c0-5.57-.16-6.46-.88-7.58a5,5,0,0,0-4.2-1.78,8.82,8.82,0,0,0-8.22,5.73c-1,2.42-1.3,5.16-1.3,11.13v11.69h4.84v1.62h-17.5v-1.62h5.41Z"
              transform="translate(-104.28 -14)"/>
        <path d="M446.16,143.69h-5.41v-1.61h12.67v30.08h5.32v1.62h-18v-1.62h5.41ZM454,125.63a4.52,4.52,0,0,1-4.52,4.59,4.43,4.43,0,0,1-4.43-4.68,4.34,4.34,0,0,1,4.43-4.51A4.53,4.53,0,0,1,454,125.63Z"
              transform="translate(-104.28 -14)"/>
        <path d="M467.93,143.69h-5.4v-1.61h12.66v4.19a11.75,11.75,0,0,1,10.08-5c3.31,0,6.54,1.21,8.31,3.15s2.26,3.87,2.26,9.84v17.9h5.32v1.62H483.74v-1.62h4.84V159.74c0-9.6-.32-12.5-1.53-14.11a4.86,4.86,0,0,0-3.95-1.94,7.58,7.58,0,0,0-5.89,3.23c-1.62,2.26-2,5.72-2,15.65v9.59H480v1.62h-17.5v-1.62h5.4Z"
              transform="translate(-104.28 -14)"/>
        <path d="M527.45,172c3.47,0,4.92.33,6.53,1.37,1.94,1.38,3,3.88,3,7.18,0,9-6.94,15.17-17,15.17-8.07,0-14.52-4.36-14.52-9.68,0-3.23,2.34-5.81,6.37-7.1-3.87-1.05-6.05-3.55-6.05-7.1s2.34-7,7.1-10.08c-3.47-2.74-5-5.57-5-9.2,0-6.37,5.49-11.29,12.74-11.29a13,13,0,0,1,9.2,3.31c2.26-2.42,3.87-3.31,5.81-3.31a3.49,3.49,0,0,1,3.71,3.63A2.93,2.93,0,0,1,536.4,148a2.59,2.59,0,0,1-2.74-2.42c-.16-.89-.4-1.29-.89-1.29s-.88.24-1.85,1.29a11.62,11.62,0,0,1,2.5,7.18c0,6.61-5.32,11.13-13.07,11.13a13,13,0,0,1-6-1.29c-3.54,2.25-5.4,4.51-5.4,6.61,0,2.26,1.37,3,5.48,3,.81,0,.81,0,6.3-.08.32-.08,2-.08,4.35-.08Zm-17.1,13.23c0,5,3.95,8.47,9.84,8.47,8.07,0,14.28-4.92,14.28-11.37,0-2.5-1.21-3.39-4.52-3.39-.32,0-1.85,0-3.87.08-1.61.08-7.5.16-8.47.16a27.07,27.07,0,0,1-4.52-.24A8.48,8.48,0,0,0,510.35,185.23Zm5.89-40c-.57,1.29-.73,4-.73,9.36,0,5.89,1.13,7.58,5,7.58,2,0,3.47-.64,4.28-2,.73-1.21,1-3.15,1-8.39,0-4.84-.16-6.29-.89-7.26-.73-1.13-2-1.61-4.28-1.61S516.8,143.61,516.24,145.22Z"
              transform="translate(-104.28 -14)"/>
        <path d="M149.19,190.65h-1.95v-.47h5.2c2.89,0,4.05.24,5.25,1.09a3.26,3.26,0,0,1,1.43,2.7c0,1.91-1.39,3.15-4.07,3.7,3,.25,4.73,1.71,4.73,4.09a3.75,3.75,0,0,1-1.65,3.08c-1.1.8-2.28,1-5.27,1h-5.62v-.47h1.95Zm2.52,6.8c.78,0,1,0,1.29,0,2.52,0,3.56-1,3.56-3.34a3.69,3.69,0,0,0-1-2.83c-.61-.52-1.32-.66-3.22-.66h-.66Zm1.41,8c1.58,0,2.28-.17,2.85-.66a3.82,3.82,0,0,0,1-3c0-2.82-1-3.81-3.89-3.81-.35,0-.75,0-1.36,0v7.46Z"
              transform="translate(-104.28 -14)"/>
        <path d="M173,198.44l-4.56-7.79h-1.2v-.47h6.09v.47h-2l3.63,6.19a4.92,4.92,0,0,1,.33.66l3.69-6.85H176.6v-.47h4.59v.47h-1.63l-3.29,6.19-.26.5a7.21,7.21,0,0,0-.31.68l-.07.16a2.56,2.56,0,0,1-.14.26v7h2.19v.47h-6.89v-.47H173Z"
              transform="translate(-104.28 -14)"/>
        <path d="M204.05,190.65h-2v-.47h5.2c2.9,0,4.05.24,5.25,1.09A3.24,3.24,0,0,1,214,194c0,1.91-1.39,3.15-4.07,3.7,3,.25,4.72,1.71,4.72,4.09a3.74,3.74,0,0,1-1.64,3.08c-1.11.8-2.28,1-5.27,1h-5.63v-.47h2Zm2.51,6.8c.78,0,1,0,1.3,0,2.52,0,3.55-1,3.55-3.34a3.69,3.69,0,0,0-1-2.83c-.62-.52-1.32-.66-3.23-.66h-.66Zm1.42,8c1.57,0,2.28-.17,2.84-.66a3.79,3.79,0,0,0,1-3c0-2.82-1-3.81-3.88-3.81-.35,0-.75,0-1.37,0v7.46Z"
              transform="translate(-104.28 -14)"/>
        <path d="M225.64,190.65h-1.95v-.47H235l.17,4.31h-.31c-.73-3.18-1.74-4-4.87-3.84h-1.81v7.06c2.94,0,3.39-.35,3.43-2.92h.31v6.48h-.31a4.89,4.89,0,0,0-.37-2.17c-.33-.68-.94-.94-2.31-.94h-.75v7.25h3c2.49.16,3.34-.71,4.35-4.43h.31l-.45,4.9H223.69v-.47h1.95Z"
              transform="translate(-104.28 -14)"/>
        <path d="M246.6,190.65h-1.95v-.47h5.46c3.1,0,4,.14,5,.8a3.14,3.14,0,0,1,1.6,2.8c0,2.14-1.83,3.6-4.8,3.79a5,5,0,0,1,3.65,2.1,4.82,4.82,0,0,1,.68,2.79v.5c0,.33,0,.59,0,.66,0,1.2.38,1.81,1.08,1.81a2.29,2.29,0,0,0,.92-.26l.17.42a4.31,4.31,0,0,1-1.7.38,3.14,3.14,0,0,1-2.75-1.6,6.11,6.11,0,0,1-.52-3.08,4.21,4.21,0,0,0-.61-2.64c-.54-.65-1.3-.89-3-.89h-.73v7.65h1.95v.47h-6.42v-.47h1.95Zm3.36,6.59c1.68,0,2.45-.14,3.06-.59a3.25,3.25,0,0,0,1.06-2.73,3.21,3.21,0,0,0-1.06-2.65c-.63-.5-1.24-.62-3-.62h-.94v6.59Z"
              transform="translate(-104.28 -14)"/>
        <path d="M269.06,190.65h-1.95v-.47H272l4.56,6.9c1.53,2.33,1.93,3,2.64,4.19V190.65h-2v-.47h4.47v.47h-2v15.23h-.54l-9.62-14.78v14.31h2v.47h-4.47v-.47h1.95Z"
              transform="translate(-104.28 -14)"/>
        <path d="M292.52,200.82,291,205.41h2v.47h-3.81v-.47h1.13l5.32-15.23h.71l5.05,15.23h1.68v.47h-6.38v-.47h2l-1.56-4.59Zm2.37-7-2.21,6.52h4.4Z"
              transform="translate(-104.28 -14)"/>
        <path d="M312.86,190.65h-1.95v-.47h5.37c3.43,0,4.61.31,6.07,1.56a7.89,7.89,0,0,1,2.73,6.18,8.13,8.13,0,0,1-3.23,6.76c-1.32,1-2.37,1.2-5.36,1.2h-5.58v-.47h1.95Zm3.6,14.76a7.75,7.75,0,0,0,3.09-.33,3.31,3.31,0,0,0,2.11-2.24,19.55,19.55,0,0,0,.43-5.13c0-3.46-.26-4.84-1.13-5.81a3.87,3.87,0,0,0-2.45-1.18,21.1,21.1,0,0,0-2.19-.07h-.94v14.76Z"
              transform="translate(-104.28 -14)"/>
        <path d="M335.56,190.65h-1.95v-.47h11.3l.16,4.31h-.31c-.72-3.18-1.74-4-4.87-3.84h-1.81v7.06c2.94,0,3.39-.35,3.44-2.92h.3v6.48h-.3a4.84,4.84,0,0,0-.38-2.17c-.33-.68-.94-.94-2.31-.94h-.75v7.25h3c2.49.16,3.34-.71,4.35-4.43h.31l-.45,4.9H333.61v-.47h1.95Z"
              transform="translate(-104.28 -14)"/>
        <path d="M359.42,190.65h-.8c-1.56,0-2,.14-2.73,1a7.41,7.41,0,0,0-1.44,3.51h-.35l.16-5h12.85l.17,5h-.36a7.71,7.71,0,0,0-1.41-3.51c-.73-.85-1.18-1-2.73-1H362v14.76h2.19v.47h-7v-.47h2.21Z"
              transform="translate(-104.28 -14)"/>
        <path d="M381,190.65h-.8c-1.55,0-2,.14-2.73,1a7.41,7.41,0,0,0-1.43,3.51h-.36l.17-5h12.85l.16,5h-.35a7.71,7.71,0,0,0-1.42-3.51c-.72-.85-1.17-1-2.72-1h-.8v14.76h2.18v.47h-7v-.47H381Z"
              transform="translate(-104.28 -14)"/>
        <path d="M412,190.65H410v-.47H415l4.56,6.9c1.53,2.33,1.93,3,2.64,4.19V190.65h-2v-.47h4.47v.47H422.7v15.23h-.54l-9.63-14.78v14.31h2v.47H410v-.47H412Z"
              transform="translate(-104.28 -14)"/>
        <path d="M435.44,200.82l-1.53,4.59h2v.47h-3.81v-.47h1.13l5.32-15.23h.7l5.06,15.23H446v.47h-6.38v-.47h2.05l-1.55-4.59Zm2.38-7-2.21,6.52H440Z"
              transform="translate(-104.28 -14)"/>
        <path d="M464.71,194.87h-.35a5.83,5.83,0,0,0-1.7-3.3,3.86,3.86,0,0,0-2.78-1.08A3.34,3.34,0,0,0,457,191.9c-.56.87-.85,2.92-.85,6.12,0,3,.17,4.73.57,5.72a3,3,0,0,0,2.87,1.83,2.86,2.86,0,0,0,2.73-1.93,8.37,8.37,0,0,0,.3-2.77h-2.33v-.48h6.64v.48h-1.51a5.13,5.13,0,0,1-.7,2.68,6.11,6.11,0,0,1-4.9,2.56c-3.64,0-6.65-3.65-6.65-8.07S456.26,190,460,190a6.23,6.23,0,0,1,3.45,1.17l.8-.94h.31Z"
              transform="translate(-104.28 -14)"/>
        <path d="M479.74,198.44l-4.57-7.79H474v-.47h6.1v.47h-2l3.62,6.19a3.93,3.93,0,0,1,.33.66l3.69-6.85h-2.35v-.47H488v.47h-1.62l-3.3,6.19-.26.5c-.11.23-.14.28-.3.68l-.07.16s-.07.14-.15.26v7h2.19v.47h-6.89v-.47h2.19Z"
              transform="translate(-104.28 -14)"/>
    </g>
</svg>