<?xml version="1.0" encoding="UTF-8" standalone="no"?>
<!-- Created with Inkscape (http://www.inkscape.org/) -->

<svg
   xmlns:dc="http://purl.org/dc/elements/1.1/"
   xmlns:cc="http://creativecommons.org/ns#"
   xmlns:rdf="http://www.w3.org/1999/02/22-rdf-syntax-ns#"
   xmlns:svg="http://www.w3.org/2000/svg"
   xmlns="http://www.w3.org/2000/svg"
   xmlns:sodipodi="http://sodipodi.sourceforge.net/DTD/sodipodi-0.dtd"
   xmlns:inkscape="http://www.inkscape.org/namespaces/inkscape"
   width="120"
   height="120"
   viewBox="0 0 120 120"
   id="svg4168"
   version="1.1"
   inkscape:version="0.91 r13725"
   sodipodi:docname="favicon.svg">
  <defs
     id="defs4170" />
  <sodipodi:namedview
     id="base"
     pagecolor="#ffffff"
     bordercolor="#666666"
     borderopacity="1.0"
     inkscape:pageopacity="0.0"
     inkscape:pageshadow="2"
     inkscape:zoom="0.35"
     inkscape:cx="-133.57143"
     inkscape:cy="520"
     inkscape:document-units="px"
     inkscape:current-layer="layer1"
     showgrid="false"
     units="px"
     inkscape:window-width="1920"
     inkscape:window-height="1005"
     inkscape:window-x="0"
     inkscape:window-y="24"
     inkscape:window-maximized="1" />
  <metadata
     id="metadata4173">
    <rdf:RDF>
      <cc:Work
         rdf:about="">
        <dc:format>image/svg+xml</dc:format>
        <dc:type
           rdf:resource="http://purl.org/dc/dcmitype/StillImage" />
        <dc:title></dc:title>
      </cc:Work>
    </rdf:RDF>
  </metadata>
  <g
     inkscape:label="Layer 1"
     inkscape:groupmode="layer"
     id="layer1"
     transform="translate(0,-932.36216)">
    <g
       id="g4726"
       transform="translate(8.5714286,937.14281)">
      <path
         d="m 69.635153,13.628057 0.54405,0 c 7.08469,0 14.49398,-0.21643 21.03461,2.94269 7.30412,3.59795 11.010257,9.59152 11.118447,17.88455 0.21943,12.53722 -8.058527,17.98675 -19.176977,20.5988 l 0,0.21942 c 9.6967,1.41874 18.963567,4.25623 19.176977,15.80754 l 0,9.59755 c 0,0.97689 -0.32161,3.16812 1.08812,3.16812 1.75237,0 2.074,-3.16812 4.69506,-3.16812 1.41574,0 3.16211,1.63215 3.16211,3.16812 0,3.15609 -3.60396,7.18689 -5.99959,9.03847 -3.70917,3.05088 -7.628707,3.92858 -12.311757,3.92858 -4.69807,0 -8.94227,-1.20833 -12.32679,-4.58986 -3.81437,-3.91056 -4.35842,-8.71084 -4.35842,-13.83875 l 0,-7.41832 c 0,-5.00468 -0.0992,-11.10947 -6.64584,-11.76474 l 0,-6.43543 c 5.88538,-0.54706 6.64584,-4.14201 6.64584,-9.48633 l 0,-13.18949 c 0,-5.45253 -1.19631,-8.07059 -6.64584,-10.02736 l 0,-6.43544 z"
         style="fill:#100f0d;fill-opacity:1;fill-rule:nonzero;stroke:none"
         id="path38"
         inkscape:connector-curvature="0" />
      <path
         d="m 33.227963,52.768177 c -5.89135,-0.55006 -6.65181,-4.14501 -6.65181,-9.48633 l 0,-13.19249 c 0,-5.44953 1.20533,-8.06759 6.65181,-10.02738 l 0,-6.43242 -0.55006,0 c -7.08465,0 -14.49397,-0.21943 -21.04059,2.93967 -7.2981001,3.59797 -11.00426014,9.59154 -11.11848014,17.88457 -0.21342,12.53722 8.06458004,17.98976 19.18905014,20.6018 l 0,0.21942 c -9.7087301,1.41875 -18.96963014,4.25323 -19.18905014,15.80755 l 0,9.59454 c 0,0.97689 0.32763,3.17112 -1.0911,3.17112 -1.74337996,0 -2.07401996,-3.17112 -4.68606996,-3.17112 -1.41573,0 -3.16207,1.63215 -3.16207,3.17112 0,3.1561 3.59792,7.18388 5.99655,9.03847 3.69715,3.04788 7.63175,3.92558 12.32381,3.92558 4.6800101,0 8.9332401,-1.20533 12.3177801,-4.58686 3.80836,-3.91356 4.35842,-8.71084 4.35842,-13.84175 l 0,-7.41532 c 0,-5.00468 0.11425,-11.11248 6.65181,-11.76473 l 0,-6.43544 z"
         style="fill:#100f0d;fill-opacity:1;fill-rule:nonzero;stroke:none"
         id="path50"
         inkscape:connector-curvature="0" />
      <path
         d="m 68.552163,88.855307 c -3.82336,-1.20233 -3.70312,-1.85158 -3.70312,-5.88538 l 0,-44.05311 -0.021,0 0,-25.28786 -26.69755,0 0,69.34097 c 0,4.0338 0.10525,4.68305 -3.70616,5.88538 -1.41574,0.43584 -2.39864,1.40972 -2.39864,2.94269 0,3.1621 3.60397,3.38152 4.0368,3.38152 l 30.84555,0 c 0.44185,0 4.0398,-0.21942 4.0398,-3.38152 0,-1.53297 -0.9829,-2.50685 -2.39563,-2.94269"
         style="fill:#100f0d;fill-opacity:1;fill-rule:nonzero;stroke:none"
         id="path54"
         inkscape:connector-curvature="0" />
    </g>
  </g>
</svg>
