<svg id="Layer_1" data-name="Layer 1" xmlns="http://www.w3.org/2000/svg" viewBox="0 0 232.96 331.52"><path d="M188.65,258.11h9.21l3.88,11.13h.07l1.64-6h.07v6.6l-4.61,15.42h-1l-7.58-22.45a7.22,7.22,0,0,0-.65-1.56c-.33-.55-.48-1-1.09-1-.44,0-1.41-.11-1.41-1C187.13,258.11,188.21,258.11,188.65,258.11Zm1.52,9.17h.07l2,6v6.24c.58,4.53,2.9,3.12,2.9,4.68,0,1.12-1.48,1.05-1.88,1.05h-4.14c-.4,0-1.88.07-1.88-1.05,0-1.56,2.32-.15,2.9-4.68Zm15-9.17h9.58c.14,0,1.34.07,1.34,1.13a1,1,0,0,1-.8,1c-1.27.4-1.23.62-1.23,2v19c0,1.34,0,1.56,1.23,2a1,1,0,0,1,.8,1c0,1.06-1.2,1.13-1.34,1.13H204.46c-.15,0-1.34-.07-1.34-1.13a1,1,0,0,1,.79-1c1.28-.4,1.24-.62,1.24-2Z" transform="translate(-96.12 -46.84)"/><path d="M220.2,258.11h9.57v27.13H220.2c-.15,0-1.35-.07-1.35-1.13a1,1,0,0,1,.8-1c1.27-.4,1.24-.62,1.24-2v-19c0-1.34,0-1.56-1.24-2a1,1,0,0,1-.8-1C218.85,258.18,220.05,258.11,220.2,258.11Zm11.2,0h8.09v7.36c0,.18,0,.87-1.12.87-.62,0-.8-.36-1-.9a7,7,0,0,0-6-5.23Zm0,12.11a3.85,3.85,0,0,0,2.54-3.19c.18-.62.4-1.2,1.16-1.2,1.13,0,.94,1.31.94,1.6v7.84c0,.28.19,1.59-.94,1.59-.76,0-1-.58-1.16-1.2a3.85,3.85,0,0,0-2.54-3.19Zm0,12.92a7.45,7.45,0,0,0,6.17-5.26c.25-.55.47-1.13,1.12-1.13a1,1,0,0,1,1.05,1.23v7.26H231.4Z" transform="translate(-96.12 -46.84)"/><path d="M144.8,214.59H154l3.88,11.14H158l1.63-6h.07v6.6l-4.6,15.41H154l-7.58-22.45a7.43,7.43,0,0,0-.65-1.56c-.33-.54-.47-1-1.09-1-.44,0-1.41-.11-1.41-1C143.28,214.59,144.36,214.59,144.8,214.59Zm1.52,9.18h.07l2,6V236c.58,4.53,2.9,3.12,2.9,4.68,0,1.12-1.49,1.05-1.89,1.05h-4.13c-.4,0-1.89.07-1.89-1.05,0-1.56,2.32-.15,2.9-4.68Zm15-9.18h9.58c.14,0,1.34.08,1.34,1.12a1,1,0,0,1-.8,1c-1.27.39-1.23.61-1.23,2v19c0,1.34,0,1.56,1.23,2a1,1,0,0,1,.8,1c0,1.05-1.2,1.12-1.34,1.12H160.61c-.14,0-1.34-.07-1.34-1.12a1,1,0,0,1,.8-1c1.27-.4,1.23-.62,1.23-2Z" transform="translate(-96.12 -46.84)"/><path d="M186.21,237.66c0,1.34,0,1.56,1.24,2a1,1,0,0,1,.8,1c0,1.05-1.2,1.12-1.35,1.12H176.64c-.14,0-1.34-.07-1.34-1.12a1,1,0,0,1,.8-1c1.26-.4,1.23-.62,1.23-2v-19c0-1.34,0-1.56-1.23-2a1,1,0,0,1-.8-1c0-1,1.2-1.12,1.34-1.12H186.9c.15,0,1.35.08,1.35,1.12a1,1,0,0,1-.8,1c-1.27.39-1.24.61-1.24,2Z" transform="translate(-96.12 -46.84)"/><path d="M216.18,214.59h.18c2.36,0,4.82-.07,7,1a6.27,6.27,0,0,1,3.7,6c.07,4.17-2.68,6-6.38,6.85v.08c3.22.47,6.31,1.41,6.38,5.26v3.19c0,.32-.11,1,.36,1s.69-1,1.56-1a1.19,1.19,0,0,1,1.05,1c0,1.05-1.2,2.39-2,3a6,6,0,0,1-4.1,1.31,5.51,5.51,0,0,1-4.1-1.53,6.07,6.07,0,0,1-1.45-4.6v-2.47c0-1.67,0-3.7-2.21-3.92v-2.14c2-.18,2.21-1.38,2.21-3.15v-4.39c0-1.82-.4-2.69-2.21-3.34Z" transform="translate(-96.12 -46.84)"/><path d="M241.67,216.15a2.44,2.44,0,0,0-1.85,2.61v18.79a2.43,2.43,0,0,0,1.85,2.61v2.11c-7.69-.69-11.28-6.89-11.28-14.11s3.59-13.42,11.28-14.11Zm1.63,24a2.43,2.43,0,0,0,1.85-2.61V218.76a2.44,2.44,0,0,0-1.85-2.61v-2.1c7.69.69,11.28,6.89,11.28,14.11S251,241.58,243.3,242.27Z" transform="translate(-96.12 -46.84)"/><path d="M259.22,218.65c0-1.34,0-1.56-1.23-2a1,1,0,0,1-.8-1c0-1,1.2-1.12,1.34-1.12h9.58v23.07c0,1.34,0,1.56,1.23,2a1,1,0,0,1,.8,1c0,1.05-1.2,1.12-1.34,1.12H258.53c-.14,0-1.34-.07-1.34-1.12a1,1,0,0,1,.8-1c1.27-.4,1.23-.62,1.23-2Zm10.52-4.06h.18c2.36,0,4.82-.07,7,1a6.27,6.27,0,0,1,3.7,6c.07,4.17-2.68,6-6.38,6.85v.08c3.22.47,6.31,1.41,6.38,5.26v3.19c0,.32-.11,1,.36,1s.69-1,1.56-1a1.19,1.19,0,0,1,1,1c0,1.05-1.19,2.39-2,3a6,6,0,0,1-4.1,1.31,5.51,5.51,0,0,1-4.1-1.53,6.07,6.07,0,0,1-1.45-4.6v-2.47c0-1.67,0-3.7-2.21-3.92v-2.14c2-.18,2.21-1.38,2.21-3.15v-4.39c0-1.82-.4-2.69-2.21-3.34Z" transform="translate(-96.12 -46.84)"/><path d="M204.07,227.61c-2-.18-2.22-1.38-2.22-3.15v-4.39c0-1.82.4-2.69,2.22-3.34v-2.14h-.19c-2.35,0-4.82-.07-7,1a6.29,6.29,0,0,0-3.7,6c-.07,4.17,2.69,6,6.39,6.85v.08c-3.23.47-6.31,1.41-6.39,5.26v3.19c0,.32.11,1-.36,1s-.69-1-1.56-1a1.19,1.19,0,0,0-1,1c0,1.05,1.2,2.39,2,3a6,6,0,0,0,4.1,1.31,5.48,5.48,0,0,0,4.09-1.53,6.07,6.07,0,0,0,1.45-4.6v-2.47c0-1.67,0-3.7,2.22-3.92Z" transform="translate(-96.12 -46.84)"/><path d="M215.82,239.62c-1.27-.4-1.23-.62-1.23-2V223h0v-8.41H205.7v23.07c0,1.34,0,1.56-1.24,2a1,1,0,0,0-.79,1c0,1.05,1.2,1.12,1.34,1.12h10.26c.15,0,1.35-.07,1.35-1.12A1,1,0,0,0,215.82,239.62Z" transform="translate(-96.12 -46.84)"/><path d="M154.2,125.05a33.28,33.28,0,0,1-5.07,2.35c-3.23,1.19-6.75,2.35-10.15,3.47-17.28,5.7-35.14,11.6-32.42,25.78a8.81,8.81,0,0,0,6.37,7.15,11.09,11.09,0,0,0,3.09.43,8.61,8.61,0,0,0,6-2.09,3.09,3.09,0,0,0,.78-3.22,1.48,1.48,0,0,0-2.8,1c-.09.37-1.65,1.42-4.19,1.36a6.18,6.18,0,0,1-6.38-5.17c-2.23-11.62,14.37-17.1,30.43-22.4,3.43-1.13,7-2.3,10.25-3.5a37.72,37.72,0,0,0,5.51-2.54A4.93,4.93,0,0,1,154.2,125.05Z" transform="translate(-96.12 -46.84)"/><path d="M113.18,157.26a.67.67,0,0,0,.44-.22.66.66,0,0,0,.16-.47c-.49-7.87,6.44-10.66,28.42-18.29a90.64,90.64,0,0,0,14-6,5.81,5.81,0,0,1-.61-1.19,88.34,88.34,0,0,1-13.81,6c-21.12,7.33-29.87,10.36-29.29,19.6a.65.65,0,0,0,.65.61v.84Z" transform="translate(-96.12 -46.84)"/><path d="M286.22,130.87c-3.21-1.06-6.51-2.15-9.59-3.27a5.07,5.07,0,0,1-3.72.45,4.13,4.13,0,0,1,.53,1.51l1.6.63c3.28,1.2,6.82,2.37,10.25,3.5,16.06,5.3,32.66,10.78,30.43,22.4a6.18,6.18,0,0,1-6.38,5.17c-2.55.06-4.1-1-4.18-1.36a1.49,1.49,0,0,0-2.81-1,3.11,3.11,0,0,0,.78,3.22,8.61,8.61,0,0,0,6.05,2.09,11.09,11.09,0,0,0,3.09-.43,8.81,8.81,0,0,0,6.37-7.15C321.37,142.47,303.5,136.57,286.22,130.87Z" transform="translate(-96.12 -46.84)"/><path d="M312.72,156.65c.58-9.24-8.17-12.27-29.29-19.6-2.58-.9-5-1.82-7.19-2.76a5.86,5.86,0,0,1,.08.94c0,.17,0,.34,0,.51,2.05.85,4.3,1.7,6.7,2.54,22,7.63,28.91,10.42,28.42,18.29a.62.62,0,0,0,.16.47.63.63,0,0,0,.45.22l0,.84v-.84A.65.65,0,0,0,312.72,156.65Z" transform="translate(-96.12 -46.84)"/><path d="M123.38,135.77a1.7,1.7,0,0,1-1.19-.48,1.75,1.75,0,0,1-.49-1.2,1.72,1.72,0,0,1,.49-1.18,1.68,1.68,0,0,1,2.86,1.18,1.79,1.79,0,0,1-.49,1.2A1.69,1.69,0,0,1,123.38,135.77Z" transform="translate(-96.12 -46.84)"/><path d="M120.91,128.8h0a1.66,1.66,0,0,1,1.5-1.82h0a1.66,1.66,0,0,1,1.82,1.5h0a1.67,1.67,0,0,1-1.5,1.83h-.16A1.66,1.66,0,0,1,120.91,128.8Zm1.43-4a1.67,1.67,0,0,1-1.65-1.69h0a1.67,1.67,0,0,1,1.69-1.65h0a1.67,1.67,0,0,1,1.65,1.69h0a1.67,1.67,0,0,1-1.67,1.65h0Zm.2-5.51a1.67,1.67,0,0,1-1.46-1.86h0A1.68,1.68,0,0,1,123,116h0a1.68,1.68,0,0,1,1.45,1.86h0a1.67,1.67,0,0,1-1.66,1.47h-.2Zm.79-5.46a1.66,1.66,0,0,1-1.24-2h0a1.66,1.66,0,0,1,2-1.24h0a1.67,1.67,0,0,1,1.24,2h0a1.67,1.67,0,0,1-1.62,1.28h0A1.72,1.72,0,0,1,123.33,113.83Zm1.39-5.35a1.65,1.65,0,0,1-1-2.12h0a1.65,1.65,0,0,1,2.12-1h0a1.69,1.69,0,0,1,1,2.13h0a1.69,1.69,0,0,1-1.59,1.11h0A1.52,1.52,0,0,1,124.72,108.48Zm2-5.15a1.68,1.68,0,0,1-.77-2.23h0a1.65,1.65,0,0,1,2.22-.77h0a1.66,1.66,0,0,1,.78,2.23h0a1.68,1.68,0,0,1-1.51.94h0A1.72,1.72,0,0,1,126.68,103.33Zm2.51-4.91a1.67,1.67,0,0,1-.52-2.3h0a1.68,1.68,0,0,1,2.3-.53h0a1.68,1.68,0,0,1,.53,2.31h0a1.67,1.67,0,0,1-1.42.78h0A1.64,1.64,0,0,1,129.19,98.42Zm3-4.61a1.68,1.68,0,0,1-.28-2.34h0a1.66,1.66,0,0,1,2.35-.27h0a1.68,1.68,0,0,1,.28,2.35h0a1.68,1.68,0,0,1-1.31.62h0A1.61,1.61,0,0,1,132.23,93.81Zm3.52-4.25a1.66,1.66,0,0,1,0-2.36h0a1.68,1.68,0,0,1,2.36,0h0a1.69,1.69,0,0,1,0,2.37h0a1.7,1.7,0,0,1-1.19.49h0A1.66,1.66,0,0,1,135.75,89.56Zm3.95-3.85a1.67,1.67,0,0,1,.24-2.35h0a1.68,1.68,0,0,1,2.35.25h0a1.68,1.68,0,0,1-.24,2.35h0a1.66,1.66,0,0,1-1.05.37h0A1.66,1.66,0,0,1,139.7,85.71ZM144,82.33a1.69,1.69,0,0,1,.5-2.32h0a1.66,1.66,0,0,1,2.3.49h0a1.68,1.68,0,0,1-.48,2.32h0a1.66,1.66,0,0,1-.91.26h0A1.67,1.67,0,0,1,144,82.33Zm4.7-2.91a1.69,1.69,0,0,1,.73-2.25h0a1.69,1.69,0,0,1,2.25.74h0a1.69,1.69,0,0,1-.74,2.25h0a1.66,1.66,0,0,1-.75.18h0A1.67,1.67,0,0,1,148.74,79.42Zm5-2.38a1.68,1.68,0,0,1,1-2.15h0a1.67,1.67,0,0,1,2.15,1h0a1.67,1.67,0,0,1-1,2.15h0a1.49,1.49,0,0,1-.58.11h0A1.69,1.69,0,0,1,153.71,77Zm5.21-1.81a1.67,1.67,0,0,1,1.21-2h0a1.66,1.66,0,0,1,2,1.2h0a1.67,1.67,0,0,1-1.21,2h0a2,2,0,0,1-.41,0h0A1.67,1.67,0,0,1,158.92,75.23Zm23.2.55h0a1.66,1.66,0,0,1-1.34-1.94h0a1.67,1.67,0,0,1,1.95-1.33h0a1.67,1.67,0,0,1,1.34,1.95h0a1.69,1.69,0,0,1-1.64,1.36h0A1.06,1.06,0,0,1,182.12,75.78ZM164.3,74a1.68,1.68,0,0,1,1.42-1.89h0a1.67,1.67,0,0,1,1.88,1.42h0a1.68,1.68,0,0,1-1.42,1.9H166A1.67,1.67,0,0,1,164.3,74Zm12.53,1.1h0a1.68,1.68,0,0,1-1.54-1.8h0a1.67,1.67,0,0,1,1.8-1.53h0a1.66,1.66,0,0,1,1.53,1.8h0A1.66,1.66,0,0,1,177,75.09h-.12Zm-7.05-1.75a1.65,1.65,0,0,1,1.61-1.71h0a1.67,1.67,0,0,1,1.72,1.62h0A1.65,1.65,0,0,1,171.5,75h-.06A1.65,1.65,0,0,1,169.78,73.34Z" transform="translate(-96.12 -46.84)"/><path d="M187.84,77.15a1.66,1.66,0,0,1-1.18-.49,1.68,1.68,0,0,1-.49-1.18A1.67,1.67,0,0,1,189,74.3a1.7,1.7,0,0,1,.49,1.18,1.63,1.63,0,0,1-.5,1.18A1.66,1.66,0,0,1,187.84,77.15Z" transform="translate(-96.12 -46.84)"/><path d="M301.74,136.15a1.73,1.73,0,0,1-1.19-.48,1.71,1.71,0,0,1-.47-1.19,1.65,1.65,0,0,1,2.85-1.16,1.64,1.64,0,0,1,.48,1.16,1.7,1.7,0,0,1-.48,1.19A1.71,1.71,0,0,1,301.74,136.15Z" transform="translate(-96.12 -46.84)"/><path d="M302.42,130.68a1.67,1.67,0,0,1-1.49-1.83h0a1.66,1.66,0,0,1,1.83-1.49h0a1.66,1.66,0,0,1,1.49,1.82h0a1.67,1.67,0,0,1-1.66,1.51h-.17Zm-1.24-7.18a1.66,1.66,0,0,1,1.66-1.68h0a1.68,1.68,0,0,1,1.68,1.66h0a1.68,1.68,0,0,1-1.66,1.68h0A1.66,1.66,0,0,1,301.18,123.5Zm-.34-5.35a1.66,1.66,0,0,1,1.46-1.84h0a1.67,1.67,0,0,1,1.86,1.46h0a1.69,1.69,0,0,1-1.47,1.86h-.19A1.69,1.69,0,0,1,300.84,118.15Zm-.91-5.26a1.67,1.67,0,0,1,1.26-2h0a1.65,1.65,0,0,1,2,1.24h0a1.66,1.66,0,0,1-1.25,2h0a1.55,1.55,0,0,1-.37,0h0A1.68,1.68,0,0,1,299.93,112.89Zm-1.48-5.14a1.67,1.67,0,0,1,1-2.14h0a1.68,1.68,0,0,1,2.13,1h0a1.67,1.67,0,0,1-1,2.12h0a1.82,1.82,0,0,1-.56.09h0A1.66,1.66,0,0,1,298.45,107.75Zm-2.05-5a1.67,1.67,0,0,1,.79-2.23h0a1.67,1.67,0,0,1,2.23.78h0a1.7,1.7,0,0,1-.79,2.24h0a1.71,1.71,0,0,1-.73.15h0A1.66,1.66,0,0,1,296.4,102.8Zm-2.57-4.7a1.66,1.66,0,0,1,.54-2.29h0a1.67,1.67,0,0,1,2.3.53h0a1.69,1.69,0,0,1-.54,2.31h0a1.74,1.74,0,0,1-.88.24h0A1.66,1.66,0,0,1,293.83,98.1Zm-3.07-4.39a1.64,1.64,0,0,1,.29-2.33h0a1.65,1.65,0,0,1,2.33.27h0a1.68,1.68,0,0,1-.27,2.35h0a1.71,1.71,0,0,1-1,.36h0A1.65,1.65,0,0,1,290.76,93.71Zm-3.53-4a1.66,1.66,0,0,1,0-2.35h0a1.66,1.66,0,0,1,2.36,0h0a1.67,1.67,0,0,1,0,2.36h0a1.7,1.7,0,0,1-1.17.48h0A1.61,1.61,0,0,1,287.23,89.68Zm-3.94-3.61h0a1.68,1.68,0,0,1-.23-2.35h0a1.68,1.68,0,0,1,2.36-.22h0a1.66,1.66,0,0,1,.23,2.34h0a1.64,1.64,0,0,1-1.29.61h0A1.7,1.7,0,0,1,283.29,86.07ZM279,82.9a1.67,1.67,0,0,1-.48-2.31h0a1.67,1.67,0,0,1,2.32-.48h0a1.67,1.67,0,0,1,.48,2.31h0a1.69,1.69,0,0,1-1.41.75h0A1.72,1.72,0,0,1,279,82.9Zm-4.63-2.68a1.67,1.67,0,0,1-.72-2.24h0a1.66,1.66,0,0,1,2.24-.74h0a1.67,1.67,0,0,1,.73,2.25h0a1.66,1.66,0,0,1-1.49.91h0A1.6,1.6,0,0,1,274.34,80.22Zm-4.89-2.16a1.66,1.66,0,0,1-1-2.14h0a1.67,1.67,0,0,1,2.15-1h0a1.66,1.66,0,0,1,1,2.15h0A1.68,1.68,0,0,1,270,78.18h0A1.56,1.56,0,0,1,269.45,78.06Zm-5.1-1.6a1.66,1.66,0,0,1-1.2-2h0a1.65,1.65,0,0,1,2-1.21h0a1.66,1.66,0,0,1,1.2,2h0a1.66,1.66,0,0,1-1.61,1.26h0A1.44,1.44,0,0,1,264.35,76.46Zm-23.2-2a1.69,1.69,0,0,1,1.34-2h0a1.67,1.67,0,0,1,1.95,1.34h0a1.66,1.66,0,0,1-1.34,1.94h0a1,1,0,0,1-.3,0h0A1.7,1.7,0,0,1,241.15,74.45Zm17.94,1a1.68,1.68,0,0,1-1.41-1.9h0a1.67,1.67,0,0,1,1.88-1.42h0A1.69,1.69,0,0,1,261,74h0a1.68,1.68,0,0,1-1.66,1.44h-.24Zm-12.47-1.89a1.67,1.67,0,0,1,1.53-1.79h0a1.67,1.67,0,0,1,1.79,1.54h0a1.65,1.65,0,0,1-1.53,1.79h-.12A1.66,1.66,0,0,1,246.62,73.54ZM253.76,75a1.68,1.68,0,0,1-1.61-1.72h0a1.67,1.67,0,0,1,1.72-1.62h0a1.65,1.65,0,0,1,1.62,1.71h0A1.68,1.68,0,0,1,253.82,75h-.06Z" transform="translate(-96.12 -46.84)"/><path d="M237.37,77.15a1.66,1.66,0,0,1-1.18-.49,1.68,1.68,0,0,1-.49-1.18,1.7,1.7,0,0,1,.49-1.18,1.73,1.73,0,0,1,2.36,0,1.7,1.7,0,0,1,.49,1.18,1.68,1.68,0,0,1-.49,1.18A1.7,1.7,0,0,1,237.37,77.15Z" transform="translate(-96.12 -46.84)"/><path d="M208.15,76.44a17.14,17.14,0,0,1,3.72-2.75c.3-.18.6-.36.89-.55a3.71,3.71,0,0,1,1.89-.62,5.9,5.9,0,0,1,1.61.21l.45.1A9.59,9.59,0,0,1,220,74a3.77,3.77,0,0,1,1.47,2.61,20.27,20.27,0,0,1,.26,2.29,9.82,9.82,0,0,1,2.21.37l.19.08a48.93,48.93,0,0,1,5.35.88l.21.05c.24-.29.44-.55.61-.78,1.19-1.62,3-4.65,1.42-6.76l-.42-.54A5.3,5.3,0,0,1,230,70c0-.11,0-.23-.07-.34-.12-.65-.18-.78-.6-.77h-.07c-.16,0-.31,0-.48,0a5.61,5.61,0,0,1-1.15,0,5,5,0,0,1-1.43-.49,1.69,1.69,0,0,0-.27-.13,3.58,3.58,0,0,0-1.72-.24l-4.11.15a5,5,0,0,0-2.57.76c-.9.54-1.72,1-2.5,1.36a44.56,44.56,0,0,1-5.17,2.07l-.49.16a11.67,11.67,0,0,0-3,1.29c-.34.24-.39.47-.36,1A3.46,3.46,0,0,1,207.13,78,5,5,0,0,1,208.15,76.44Z" transform="translate(-96.12 -46.84)"/><path d="M203,87.46a12.6,12.6,0,0,0,.78,7h0a3.51,3.51,0,0,1,.71-1,10.66,10.66,0,0,0,.22-1.6,20.49,20.49,0,0,0-.93-6.92A12.64,12.64,0,0,0,203,87.46Z" transform="translate(-96.12 -46.84)"/><path d="M229,83.06l0,.08A22.9,22.9,0,0,1,229.4,87a23.66,23.66,0,0,0,3.91-1.84c-.23-1.46-1.31-2.43-3.37-3.06l-.45-.12-.46-.11c-.8-.19-1.59-.31-2.3-.41l-.17,0c-.78-.11-1.59-.23-2.42-.33a5.53,5.53,0,0,1-.7.58,2.8,2.8,0,0,0-.52.44c-.62.84-.46,2.21-.32,3.42l0,.15a2.87,2.87,0,0,1,.71.41c1-.87,2.06-1.78,3-2.66l1.13-1a1,1,0,0,1,.35-.18h0a.78.78,0,0,1,.89.29,1,1,0,0,1,.07.15A.82.82,0,0,1,229,83.06Z" transform="translate(-96.12 -46.84)"/><path d="M207.16,79.84h-.49l-.43,0a7.55,7.55,0,0,0,.91.66C207.14,80.29,207.15,80.06,207.16,79.84Z" transform="translate(-96.12 -46.84)"/><path d="M195.67,101.48l-.66-.55c0,1.43,0,3,0,3.25a11.87,11.87,0,0,0,1.59,5.37c.4.71.86,1.45,1.4,2.28.1.14.19.3.29.45.21.34.43.68.66,1a6.53,6.53,0,0,0,1.76-2,23,23,0,0,0,2.07-5.72,5.18,5.18,0,0,1-2.5-.69A32.21,32.21,0,0,1,195.67,101.48Z" transform="translate(-96.12 -46.84)"/><path d="M231.65,114.58a19.4,19.4,0,0,1-5.82-.48,25.41,25.41,0,0,1-5.25-1.65,5.17,5.17,0,0,0-1.49-.34,4.75,4.75,0,0,1-2.11-.63l-.36-.26c-1.3-.9-2.65-1.84-3.93-2.82-.83-.65-1.57-1.25-2.25-1.84l-.37-.32a6.7,6.7,0,0,0-1.37-1,2.11,2.11,0,0,0-.62-.22c-.11,2.71-1.26,5.27-2.37,7.76-.39.85-.75,1.66-1.07,2.48-.72,1.81-1.47,3.76-2.45,6.3l-.13.36a8.17,8.17,0,0,0,1.85-.71l.31-.15.05,0a9.4,9.4,0,0,1,3.53-1.1c.31,0,.63,0,1,0s.62.07,1,.13a8.73,8.73,0,0,1,1,.21l.13,0,.25.06,1,.31a16.64,16.64,0,0,0,2.59.65,11.54,11.54,0,0,0,4-.21l.76-.14a20.06,20.06,0,0,1,3.2-.46h.71a6.75,6.75,0,0,0,1.1,0,5,5,0,0,0,1.13-.29L226,120l.11,0,.3-.13.08,0,.35-.16a16.6,16.6,0,0,0,2.06-1l.57-.35.4-.25.45-.25a6.57,6.57,0,0,1,.69-.32,15.79,15.79,0,0,1,2.47-.65,16.43,16.43,0,0,0,2-.5c1.77-.6,2.7-1.67,2.78-3.17V113c0-.17,0-.55,0-1a6.58,6.58,0,0,1-1.45,1A13.47,13.47,0,0,1,231.65,114.58Z" transform="translate(-96.12 -46.84)"/><path d="M219.93,78.77v0c0-.33,0-.66-.06-1v0a3.24,3.24,0,0,0-.69-2.2,5.66,5.66,0,0,0-2.34-.92l-.32-.08-.39-.1a8.71,8.71,0,0,0-1.19-.25,1.8,1.8,0,0,0-1.28.4l-1,.62a15,15,0,0,0-2.88,2,4.27,4.27,0,0,0-1.16,1.86,2.88,2.88,0,0,0-.09.4c0,.14,0,.27-.06.4a7.6,7.6,0,0,0,0,.84,13.47,13.47,0,0,0,1.47.43,7.35,7.35,0,0,1,.82-.77l.24-.21c.21-.19.43-.36.65-.54l.29-.25.34-.28.43-.35.76-.61a5.48,5.48,0,0,1,2.25-1.25,9.12,9.12,0,0,1,1.45-.17,2.6,2.6,0,0,1,2,.52,1.3,1.3,0,0,1,.35,1,2.58,2.58,0,0,1-.09.56Z" transform="translate(-96.12 -46.84)"/><path d="M214.56,79.31l-.51.42-.5.41a3.36,3.36,0,0,1-.29.24l-.59.49c.4-.18.8-.38,1.21-.58s1-.51,1.55-.74l.76-.29.18,0a2.25,2.25,0,0,1,.36-.06h.07a3.15,3.15,0,0,0,.67-.15l.05,0a1.57,1.57,0,0,0,.19-.52h0a3.05,3.05,0,0,0-.47,0,8.76,8.76,0,0,0-1.6.22A5.17,5.17,0,0,0,214.56,79.31Z" transform="translate(-96.12 -46.84)"/><path d="M221.85,80.78l.23-.2c-.29,0-.6-.07-.94-.09l-.45,0-.73,0h-.23a6.56,6.56,0,0,0-.9.07,6.19,6.19,0,0,0-2.13.69l-.69.39-1,.52-.87.43,1.65.69c.95.41,1.93.82,2.9,1.19.65.24,1.33.44,2,.63l.15,0a7,7,0,0,1,.1-2.81A3.62,3.62,0,0,1,221.85,80.78Z" transform="translate(-96.12 -46.84)"/><path d="M186.88,81.32a11.31,11.31,0,0,0,.08,2.84c0,.45.11.92.13,1.38v.22a5.16,5.16,0,0,0,.84,3.12,8.54,8.54,0,0,1,1.74,3.28,7.89,7.89,0,0,0,1.44,3,19,19,0,0,0,2.95,2.85l.11.1.33.26,1.06.82,1.21.94,1,.79c.74.61,1.52,1.23,2.3,1.8a4.7,4.7,0,0,0,3.15,1.18l.16,0,.08,0,.24,0,.09,0a2.36,2.36,0,0,1,.5-.2l.23-.06a1.58,1.58,0,0,0,.28-.15,1.75,1.75,0,0,1,.29-.18l.16-.16.33-.34.34-.33c.12-.12.25-.23.38-.34l-.07-.18-.05-.11,0-.08c-.07-.13-.15-.26-.23-.39l-.26-.36c-.07-.08-.11-.15-.16-.21a2.09,2.09,0,0,1-.29-.23,6.53,6.53,0,0,1-.93-1A4.91,4.91,0,0,1,204,99c-.1-.15-.19-.29-.28-.45a22.18,22.18,0,0,1-1.61-3.85l0-.06a13.75,13.75,0,0,1-.72-7.53A18.1,18.1,0,0,1,203,82.59c-.26-.8-.54-1.59-.82-2.38L202,79.7l-.12-.32,0-.14a4.13,4.13,0,0,1-.42-2.54,1.26,1.26,0,0,1,1.22-1,1.63,1.63,0,0,1,1,.29,4,4,0,0,1,1.19,1.49,5.35,5.35,0,0,0,.47.75l0,0a.76.76,0,0,0,.08.11s0-.08,0-.12a2.17,2.17,0,0,0,.13-.86,1.83,1.83,0,0,0-.19-.72,2.27,2.27,0,0,0-.4-.55,2.38,2.38,0,0,0-.45-.39,4.33,4.33,0,0,0-.6-.36l-.74-.34a9.8,9.8,0,0,1-1.87-1,10,10,0,0,1-.84-.75,5.28,5.28,0,0,0-1.26-1,2.77,2.77,0,0,0-1.39-.3c-1.49.06-3,1.13-4.29,2.17l-.91.76c-.45.39-.92.78-1.4,1.15l-.22.17c-.67.51-1.42,1.08-1.31,1.84a.76.76,0,0,1-.16.58.89.89,0,0,1-.62.33A2.58,2.58,0,0,0,186.88,81.32Z" transform="translate(-96.12 -46.84)"/><path d="M222.84,89.15a48.34,48.34,0,0,0,4.9-1.55,22.56,22.56,0,0,0-.2-3c-1,.87-2,1.77-3,2.63l-.31.26a.44.44,0,0,1,0,.16.79.79,0,0,1-.36.52A3.58,3.58,0,0,0,222.84,89.15Z" transform="translate(-96.12 -46.84)"/><path d="M206.3,92.45a25.83,25.83,0,0,1,3.88-.53,24.66,24.66,0,0,0,3.64-.47,17.23,17.23,0,0,0,2.27-.75c.49-.19,1-.38,1.5-.54a14,14,0,0,1,2.49-.49l.45-.06a11.27,11.27,0,0,1,1.45-2l.24-.23s0,0,0,0a2.25,2.25,0,0,0-.38-.18,6.51,6.51,0,0,0-.65-.2l-.33-.07c-.23,0-.46-.1-.65-.16l-.46-.16-.25-.08c-.58-.19-1.15-.4-1.72-.62l-.22-.09-.37-.14-1.81-.77c-1-.41-1.94-.84-2.93-1.21l-1-.35.08-.39-.12.38-.7-.22-.89-.25-1.35-.39a11.63,11.63,0,0,1-1.41-.54l-.18-.09a6.84,6.84,0,0,1-1.44-.93l-.12-.1-.08-.07-.09-.08,0,0c-.12-.12-.23-.22-.33-.33s-.3-.31-.43-.46l-.34-.41a9.26,9.26,0,0,1-.68-1h0a2.25,2.25,0,0,0,.08.24l.45,1.28c.18.52.37,1,.55,1.57l.19.54.18.55a23.38,23.38,0,0,1,1.55,9.73C206.31,92.34,206.31,92.39,206.3,92.45Z" transform="translate(-96.12 -46.84)"/><path d="M206.46,99.28l.16.18a8.85,8.85,0,0,1,.7.89l.08.13a1.18,1.18,0,0,1,.11.19,2.39,2.39,0,0,1,.13.28,1.89,1.89,0,0,1,.06.18.75.75,0,0,1,.05.16l.05,0h0a2.42,2.42,0,0,1,.47-.07h.26a4.25,4.25,0,0,1,1.19.18l.13,0a13.28,13.28,0,0,1,3.62,2.13l1.09.8c1.09.81,2.22,1.65,3.4,2.37a16.55,16.55,0,0,0,9.44,2.58c2.55-.08,5.1-.19,7.65-.3A19.77,19.77,0,0,0,240,95.62c0-.26,0-.54,0-.82-.09-1.47-.23-3.7,2.1-3.91A8.72,8.72,0,0,1,246.37,92,30.2,30.2,0,0,0,243.92,87l-.16-.27c-.93-1.51-2.48-4-4.34-4a1.71,1.71,0,0,0-.55.09,4.4,4.4,0,0,0-1.76,1.36,10.17,10.17,0,0,1-.81.8,12.76,12.76,0,0,1-1.48,1.13l-.48.31-.48.28,0,0a31.34,31.34,0,0,1-4.69,2.09l-.44.16-.46.16-.73.25c-1.34.47-2.74,1-4.14,1.31-.66.17-1.32.31-2,.41l-.13,0-.44.07-.28,0-.27,0a14,14,0,0,0-3.3.86,18.18,18.18,0,0,1-3.36,1,25.58,25.58,0,0,1-3,.33,18,18,0,0,0-4,.57,2.83,2.83,0,0,0-.8.39,2,2,0,0,0-.52.53,1.63,1.63,0,0,0-.22.46,2,2,0,0,0-.1,1,4.3,4.3,0,0,0,.54,1.55c.07.13.15.25.23.37l.28.41.38.49-.28.3Z" transform="translate(-96.12 -46.84)"/><path d="M201.4,118.93c.61-1.59,1.34-3.47,2.1-5.36l.09-.24c.1-.25.21-.5.32-.75l.31-.7.16-.37a18.5,18.5,0,0,0,2-6.65h-.09l-.31-.06h0a1.28,1.28,0,0,0-.44.12,1.74,1.74,0,0,1-.53.18,1.38,1.38,0,0,0-.42.13h0c-.08.3-.15.61-.23.93l0,.11c-.21.84-.46,1.82-.78,2.78A12.78,12.78,0,0,1,202,112.4a9.65,9.65,0,0,1-2.18,2.26l-.05,0-.34.26-.35.23,0,0a24,24,0,0,1-2.51,1.41,44.86,44.86,0,0,1-5.26,2l-1.73.59a9.36,9.36,0,0,0-2,1.1,9.27,9.27,0,0,1-2.37,1.25,6.43,6.43,0,0,0,.93.74,6.4,6.4,0,0,1,1.27,1l.38.46a8.24,8.24,0,0,0,3.07,2.66,6.94,6.94,0,0,0,3,.55h0a6.51,6.51,0,0,0,5.41-3.07,14.35,14.35,0,0,0,.71-1.37l0-.06c.06-.12.11-.24.17-.37s.11-.27.17-.4v-.05c.22-.54.42-1.09.62-1.63S201.25,119.32,201.4,118.93Z" transform="translate(-96.12 -46.84)"/><path d="M237.45,110.57l-2.67.11-3.59.15-2.53.1-.82,0h-1a21.13,21.13,0,0,1-2.89-.23,16,16,0,0,1-4.87-1.55,34.72,34.72,0,0,1-4.61-3l-.07,0c-1-.7-2-1.42-3-2.08l-.27-.17a8.27,8.27,0,0,0-1.87-1,2.14,2.14,0,0,0-1.1-.09l-.17.05a1.53,1.53,0,0,0-.31.16l-.13.08h.09a3.84,3.84,0,0,1,.9.15,8,8,0,0,1,2.83,1.82l.43.36c1.17,1,2.42,2,3.73,2.9l.66.49c.53.39,1.09.8,1.65,1.13a3.37,3.37,0,0,0,1.18.33l.19,0a15.56,15.56,0,0,1,2.74.8l.18.07c.33.12.67.25,1,.36a26.78,26.78,0,0,0,5.22,1.22,14.11,14.11,0,0,0,5.33-.3C235.71,112,237.08,111.25,237.45,110.57Z" transform="translate(-96.12 -46.84)"/><path d="M245.07,122.44a11.56,11.56,0,0,1-1.47.22c-.83.07-1.66.12-2.46.17s-1.64.09-2.46.16a25.91,25.91,0,0,0-3.89.59l-.18,0a21.66,21.66,0,0,1,2.81,1.07l1.2.5a7.84,7.84,0,0,0,4.43.34A5.68,5.68,0,0,1,245.07,122.44Z" transform="translate(-96.12 -46.84)"/><path d="M239.63,116.76a16.36,16.36,0,0,0-5.34,4.57c-.42.52-.81,1-1.16,1.49.4-.13.82-.23,1.21-.33a29.18,29.18,0,0,1,3.73-.66c1-.11,2-.15,2.92-.19.74,0,1.5-.07,2.25-.13a9.05,9.05,0,0,0,3.55-1l.14-.24c.15-.27.31-.53.49-.79l-.39-.27-.12-.09a3.85,3.85,0,0,0-2-.49,3.88,3.88,0,0,1-2.29-.67l-.07,0v0l-.05,0v0a2.64,2.64,0,0,1-.63-1.64A6.94,6.94,0,0,0,239.63,116.76Z" transform="translate(-96.12 -46.84)"/><path d="M265.48,132a10.17,10.17,0,0,1-2.21-1.87h-.21l-.17.26-.27.47c-.19.32-.38.64-.58,1,.16.27.33.52.5.76a9.06,9.06,0,0,0,6.16,4l1.28.11a22.81,22.81,0,0,1,3,.36l-.14-.12a35.4,35.4,0,0,0-5.26-3.62C266.88,132.91,266.17,132.48,265.48,132Z" transform="translate(-96.12 -46.84)"/><path d="M268.47,126.22l-.13-.07-.09-.06c-.06.15-.1.28-.11.3a2.16,2.16,0,0,1-.38.86,1.71,1.71,0,0,1-.21.26l-.13.16a.65.65,0,0,0-.08.46.76.76,0,0,1,0,.15.35.35,0,0,1,0,.2,1.57,1.57,0,0,1-.95,1,7.8,7.8,0,0,1-1.63.52,10.49,10.49,0,0,0,1.56,1.2c.63.4,1.29.79,1.93,1.16.83.48,1.68,1,2.49,1.52a30,30,0,0,1,3,2.32c.3.27.62.56.92.86-.09-.59-.2-1.2-.34-1.86a16.17,16.17,0,0,0-2.6-6.53,6,6,0,0,0-1.17-1.12,5,5,0,0,1-1.42.25.51.51,0,0,1-.37-.16.4.4,0,0,1-.13-.31A2.7,2.7,0,0,0,268.47,126.22Z" transform="translate(-96.12 -46.84)"/><path d="M278.83,105.08l1.6-.49h.09l.39-.39a30,30,0,0,1,2.9-2.44c.33-.24.67-.49,1-.72-.6,0-1.22,0-1.9-.06-.95,0-1.78,0-2.53.09a13.1,13.1,0,0,0-3.74.8c.28.68.52,1.39.74,2.11a5.68,5.68,0,0,1,.23,1.46Z" transform="translate(-96.12 -46.84)"/><path d="M279.23,107.7a6.8,6.8,0,0,0-.46,1,12.87,12.87,0,0,0-.57,3.14,8.91,8.91,0,0,0,4.95-5.07c.13-.4.25-.8.38-1.23a21.78,21.78,0,0,1,1-2.85l-.15.11a34.62,34.62,0,0,0-4.65,4.39Z" transform="translate(-96.12 -46.84)"/><path d="M241.07,94.62l-.16-.1a22.59,22.59,0,0,1,1.18,2.77c.16.42.3.82.46,1.2a8.35,8.35,0,0,0,4.12,4.2c.18-1,.38-1.92.58-2.88L246,98.66A35.8,35.8,0,0,0,241.07,94.62Z" transform="translate(-96.12 -46.84)"/><path d="M249.33,93.37a16.07,16.07,0,0,0-7-.67c-.66,0-1.29.11-1.88.19.37.2.73.42,1.08.64a30.69,30.69,0,0,1,3.06,2.23c.76.63,1.47,1.32,2.17,2l.85.81a2.58,2.58,0,0,1,.74-.82c.33-.25.67-.47,1-.68l.81-.53c.43-.3.85-.63,1.29-1,0-.17,0-.35,0-.52v-.24A7.44,7.44,0,0,0,249.33,93.37Z" transform="translate(-96.12 -46.84)"/><path d="M253,90.59a9.68,9.68,0,0,0-.4,3.73v.2c.1-.09.18-.18.26-.26a2.65,2.65,0,0,1,1.58-1,1.13,1.13,0,0,1,.26,0c.62,0,1,.67,1.39,1.18.11.17.22.32.31.44A6.14,6.14,0,0,0,257.72,96,10.32,10.32,0,0,0,258,93.9c0-.75,0-1.51,0-2.25,0-1,0-1.94,0-2.93A27.14,27.14,0,0,1,258.4,85c.07-.4.15-.82.26-1.23-.46.38-.93.79-1.42,1.25A16.11,16.11,0,0,0,253,90.59Z" transform="translate(-96.12 -46.84)"/><path d="M260.79,87.91a23.37,23.37,0,0,1-1.24-2.75l0,.18a35.25,35.25,0,0,0-.37,6.38c0,.81,0,1.64,0,2.46a11.75,11.75,0,0,1-.21,1.91c.5-.07,1-.12,1.44-.14l.24-.22a.87.87,0,0,0,.14-.12c.28-.28.56-.59.89-1l.13-.17,0,0a8.07,8.07,0,0,0-.44-5.36C261.19,88.69,261,88.31,260.79,87.91Z" transform="translate(-96.12 -46.84)"/><path d="M256.14,105a5.3,5.3,0,0,1,1-1.24,1.33,1.33,0,0,1,.35-.25,1.06,1.06,0,0,1,.39-.13l.1,0a2,2,0,0,1,.66.08l.46.14.12,0a6.45,6.45,0,0,1,2.05,1.12l.1.09a2.1,2.1,0,0,0,.42.33l.23-.43-.06,0-.13-.1a7.75,7.75,0,0,1-1.24-1,2.14,2.14,0,0,0-1.46-.61h-.07l-.48,0h-.69l-.75,0h0l0,0a10.15,10.15,0,0,1-1,.64h0c0,.12,0,.25,0,.38,0,.34,0,.65,0,.94Z" transform="translate(-96.12 -46.84)"/><path d="M255.43,111.22a6.52,6.52,0,0,0,.73.29c-.18-.14-.36-.3-.53-.46A.82.82,0,0,1,255.43,111.22Z" transform="translate(-96.12 -46.84)"/><path d="M264.59,106.49c0-.08,0-.16,0-.23,0-.37-.06-.75-.11-1.12a11.66,11.66,0,0,1-.82,3A17.26,17.26,0,0,0,264.59,106.49Z" transform="translate(-96.12 -46.84)"/><path d="M261.61,100.79a9,9,0,0,1,1.33,1.21l.17.17a1.45,1.45,0,0,0,.18.17h0v0l0-.07c-.2-.39-.43-.78-.66-1.15s-.34-.56-.5-.85a4.14,4.14,0,0,0-1.31.09A3.89,3.89,0,0,1,261.61,100.79Z" transform="translate(-96.12 -46.84)"/><path d="M260.38,107.08a.56.56,0,0,1,0,.12l.55-.34a.42.42,0,0,1,.06-.21l0-.06a2.25,2.25,0,0,0-.76-.33.65.65,0,0,1,.19.4.81.81,0,0,1,0,.22A.69.69,0,0,1,260.38,107.08Z" transform="translate(-96.12 -46.84)"/><path d="M256.72,107.61h.35a.73.73,0,0,0,.36-.11,2.52,2.52,0,0,0,.45-.37L258,107l.23-.22a5.43,5.43,0,0,1,.57-.49l.06,0a3.72,3.72,0,0,0-2.22,1.37Z" transform="translate(-96.12 -46.84)"/><path d="M270.05,101.26l-.56-.63a17,17,0,0,1-2-2.49,20.65,20.65,0,0,1-1.6-3.39c-.13-.32-.25-.65-.36-1a15.9,15.9,0,0,0-.88-2.13c-.35.49-.65,1-1,1.53s-.47.82-.73,1.21a5.09,5.09,0,0,1-.31.45l-.27.36c-.17.21-.36.43-.58.66l-.16.17.2,0,.37.08a7.45,7.45,0,0,1,2.08.84A9.78,9.78,0,0,1,267,99.34l.49.66c.21.3.42.62.63,1s.5.85.77,1.35l.06,0,.18-.08.18-.09,0,0a6.85,6.85,0,0,0,.94-.56l-.2-.22Z" transform="translate(-96.12 -46.84)"/><path d="M245.2,117.77a4.47,4.47,0,0,1,2,.42c.21.12.4.25.58.37l.39.26a3,3,0,0,1,.7-.31,6.47,6.47,0,0,1-.58-.68l-.05-.07a1.2,1.2,0,0,0-.65-.54,2.28,2.28,0,0,1-.82-.38,2.51,2.51,0,0,1-.7-.8q-.11-.18-.21-.39l-.18-.38a4.18,4.18,0,0,0-.69-1.19,1.8,1.8,0,0,1-.32.06,3,3,0,0,1-1.66-.49h0a10,10,0,0,1-.07,1.35l0,.23c0,.13,0,.26,0,.38s0,.23,0,.34V116a1.69,1.69,0,0,0,.41,1.19A3.23,3.23,0,0,0,245.2,117.77Z" transform="translate(-96.12 -46.84)"/><path d="M249.28,110.8a.62.62,0,0,1,.07-.19,4,4,0,0,1-.62-1.3c0-.17-.07-.33-.1-.49a3,3,0,0,1-1.81-1,2.53,2.53,0,0,1-.43-.75l-.18,0a2.25,2.25,0,0,1-.74-.1l-.27-.06a6.68,6.68,0,0,0-1.5-.11c-.47,0-.72.17-.73.39a4.35,4.35,0,0,0,.05.48,3.54,3.54,0,0,1,.07.47,3.38,3.38,0,0,1-.15,1v0a7.23,7.23,0,0,0-.18,2.34l.09.84a.94.94,0,0,1,.19-.14l.05,0h0l.83-.46a8.48,8.48,0,0,1,3.38-1.34,3.52,3.52,0,0,1,1.56.32l.29.11Z" transform="translate(-96.12 -46.84)"/><path d="M243.49,127.42a1.93,1.93,0,0,0,.24,1.69,2.24,2.24,0,0,0,1.65,1,8.7,8.7,0,0,0,1.7.07h.48l2.95,0a20.22,20.22,0,0,1,4,.21,9.69,9.69,0,0,1,1.89.6l.1,0a7.93,7.93,0,0,0,1.67.38l.61.1a3.43,3.43,0,0,1,.79.29,1.6,1.6,0,0,0,1,.25.51.51,0,0,0,.23-.15,1.56,1.56,0,0,0,.21-.26l.15-.24.08-.14c.15-.24.3-.49.44-.74l.21-.35c-.35,0-.72-.07-1.12-.13h0l-.41-.07-.26-.05-.19,0-.15,0a19.71,19.71,0,0,1-4-1.45c-.7-.33-1.37-.69-1.87-1l-.08,0a2.51,2.51,0,0,1-1.27-1.14,1.63,1.63,0,0,1,.33-1.52,8.44,8.44,0,0,0,.93-1.67v0a7.17,7.17,0,0,1,.85-1.76,4.06,4.06,0,0,1-1.36-.15,4.78,4.78,0,0,1-1.1-.57c-.26-.15-.5-.3-.76-.42l-.33-.15-.34-.15-.14-.07-.29-.14-.31-.15-.13-.08,0,0a2,2,0,0,0-.73,0l-.17,0-.19.09a1.58,1.58,0,0,0-.24.15l-.18.17a3.15,3.15,0,0,0-.3.39c-.12.17-.23.37-.34.55l-.21.36s0,0,0,0l0,0a5.74,5.74,0,0,1-.37.49,13.54,13.54,0,0,1-1.17,1.22,13.28,13.28,0,0,0-1.21,1.28,3.45,3.45,0,0,0-.7,1.44c0,.11,0,.21-.06.31v0a1.82,1.82,0,0,0,0,.32,1.62,1.62,0,0,1,0,.49.75.75,0,0,1-.36.48A.65.65,0,0,0,243.49,127.42Z" transform="translate(-96.12 -46.84)"/><path d="M279.21,106l-1.77.53a1.91,1.91,0,0,1-.56.7,6.73,6.73,0,0,1-1.1,3.47c-.15.22-.28.41-.41.58a11.61,11.61,0,0,1-.87.91v.07a3.4,3.4,0,0,1-.07.34l.24.3.32.39.24.3c.21.27.43.54.63.82a4.64,4.64,0,0,1,.94,2.56c0,.52.14.79.57,1a1.82,1.82,0,0,1,.52.33l-.12-.27a2,2,0,0,1-.1-.21,6.36,6.36,0,0,1-.49-2.06,16.22,16.22,0,0,1,0-2.51l0-.39c0-.14,0-.27,0-.41l0-.67a14.11,14.11,0,0,1,.57-3.2c.05-.16.11-.33.17-.49a8,8,0,0,1,1.17-2Z" transform="translate(-96.12 -46.84)"/><path d="M279,120.19a1.66,1.66,0,0,0-.71-.06h0c-.1.54-.19,1-.29,1.38a6.81,6.81,0,0,1-3.23,4.07,18.67,18.67,0,0,1-1.75.94l.7.14a4.68,4.68,0,0,0,1.32.11,2.29,2.29,0,0,0,.65-.15,3.76,3.76,0,0,0,1.3-1.09l1.51-1.7a5.39,5.39,0,0,0,.92-1.24,1.78,1.78,0,0,0,0-1.26c0-.13-.07-.26-.1-.4s0-.22,0-.31C279.15,120.36,279.14,120.27,279,120.19Z" transform="translate(-96.12 -46.84)"/><path d="M255.28,122a6.42,6.42,0,0,0-.49,1.14c0,.13-.09.26-.14.39a7.13,7.13,0,0,1-.92,1.61c-.29.4-.34.65-.19.88a1.59,1.59,0,0,0,.61.43l.2.1c.67.36,1.34.7,2,1a18.68,18.68,0,0,0,3.66,1.32l.34.08.13,0,.19,0,.1,0a12.07,12.07,0,0,0,1.87.18h.94l.29,0a8.2,8.2,0,0,0,1.32-.28l.13,0c.32-.09,1-.27,1.08-.55v-.14a1.37,1.37,0,0,1,0-.63,2.39,2.39,0,0,1,.41-.67,1.76,1.76,0,0,0,.4-.82,1.89,1.89,0,0,1,.25-.63,1.81,1.81,0,0,1,.19-.25l.09-.08a.9.9,0,0,1,.52-.25.74.74,0,0,1,.68.35,2.69,2.69,0,0,1,.34.66c.05.16.1.34.15.52s0,.29.07.43a3.89,3.89,0,0,0,.47-.09l.41-.12.43-.16.23-.09.25-.11.27-.12.27-.12a21.58,21.58,0,0,0,2.19-1.11,6,6,0,0,0,3-3.72c.11-.43.19-.88.26-1.32.09-.62.09-.87-.34-1.06a1.77,1.77,0,0,1-1.1-1.62l0-.31a4.38,4.38,0,0,0-.15-.88,4.28,4.28,0,0,0-.7-1.17l-.71-.92c-.09-.11-.18-.21-.26-.32l-.44-.54-.14.12-.49.42-.29.25-.08.08-.53.45-.28.23-.44.36a35.11,35.11,0,0,1-4.56,3.31,4.5,4.5,0,0,1-.49.24,5,5,0,0,1-.56.22l-.53.19a8.46,8.46,0,0,0-.84.31,7.84,7.84,0,0,0-.76.39,1,1,0,0,0,.28.27.87.87,0,0,1,.42,1.22c-.31.6-1.16.68-1.43.7l-.24,0a8.92,8.92,0,0,1-1.55-.12l-.54-.07c-.78-.09-1.6-.17-2.52-.24-.5,0-1.05-.07-1.73-.09H256l-.12.07A2.19,2.19,0,0,0,255.28,122Z" transform="translate(-96.12 -46.84)"/><path d="M252.11,98.81l.32-.1.11,0,.13,0,.21-.06a4.56,4.56,0,0,1,1-.21h.35a4.22,4.22,0,0,1,.41-.65,2.48,2.48,0,0,1,.25-.3,3.65,3.65,0,0,1,.3-.27,2.55,2.55,0,0,1,1-.52l.59-.15a7.66,7.66,0,0,1-1.51-1.5l-.14-.21a3.37,3.37,0,0,0-.42-.49.23.23,0,0,0-.2-.07c-.25,0-.54.31-.72.48l-.4.39-.21.19-.17.16-.16.15-.37.32-.24.21,0,0s0,0,0,0l-.16.12-.11.09c-.47.38-.95.75-1.44,1.09-.21.15-.45.29-.67.43a6,6,0,0,0-1.11.78,1.44,1.44,0,0,0-.36.64,7.2,7.2,0,0,0-.16.78l0,.12c0,.18-.05.36-.08.51l-.51,2.5c0,.14-.06.25-.08.38l-.08.36a6.65,6.65,0,0,0-.2,2.13l0,.24c0,.09.05.17.08.27a2.07,2.07,0,0,0,.49.77,1.81,1.81,0,0,0,.73.43l.13,0a.52.52,0,0,0,0-.11,1.79,1.79,0,0,1,.95-1.33,8.22,8.22,0,0,1-.51-1.58.52.52,0,0,1,0-.11l0-.09-.06-.36c0-.14,0-.28,0-.41a9.61,9.61,0,0,1,0-1.2v-.15a7,7,0,0,1,.17-1.43,4.6,4.6,0,0,1,.19-.52l.15-.24a3.33,3.33,0,0,1,1.13-.89A10.19,10.19,0,0,1,252.11,98.81Z" transform="translate(-96.12 -46.84)"/><path d="M276.4,106.36h0a.83.83,0,0,0,.16-.25,1.57,1.57,0,0,0,.1-.26,3,3,0,0,0-.15-1.58c-.22-.72-.49-1.48-.8-2.24l-.05-.1-.09-.23-.12-.27,0,0c-.1-.23-.2-.45-.31-.67a4.44,4.44,0,0,0-1-1.43.88.88,0,0,0-.84-.16c-.24.08-.39.42-.5.68v0a1.47,1.47,0,0,0-.1.22,5.48,5.48,0,0,1-.48.93,5,5,0,0,1-.82.88l-.19.16-.05,0-.14.11,0,0a7.74,7.74,0,0,1-1.13.72l-.24.12-.24.11-.07,0,.35.69.13.17a7.73,7.73,0,0,1,1.12,2,4.6,4.6,0,0,1,.14.47c0,.13.05.27.07.4a.71.71,0,0,0,0,.14v0a5.07,5.07,0,0,1,0,.85,5.7,5.7,0,0,1-.34,2.5,3,3,0,0,1-.15.71,1.83,1.83,0,0,1-.36.58c-.1.12-.22.24-.33.35l-.33.31,0,0-.16.18-.08.07-.53.54-.23.22a6,6,0,0,0-.92,1.13,1.2,1.2,0,0,1-.91.66h-.07l-.06.06c-.22.21-.43.42-.64.64l-.22.21a4.41,4.41,0,0,1-.92,1.65l0,0a4.26,4.26,0,0,1-.44.42l-.13.09.32-.12.44-.15a8.85,8.85,0,0,0,1.55-.67,42.69,42.69,0,0,0,4.93-3.68l.63-.53.35-.3.09-.07.14-.11.48-.42.18.14-.15-.17.16-.14.18-.16.13-.14.1-.09.24-.24c.11-.11.21-.22.31-.34l.09-.11.06-.07a6.92,6.92,0,0,0,.85-1.22l0-.08.09-.17a6.11,6.11,0,0,0,.41-1.25,5,5,0,0,0,.08-.61.81.81,0,0,0,0-.22,1.35,1.35,0,0,1,.07-.56.83.83,0,0,1,.3-.29Z" transform="translate(-96.12 -46.84)"/><path d="M257.5,120.39c.55,0,1,.06,1.41.1.72.05,1.48.13,2.33.24l.19,0c.33,0,.64.08,1,.09h.34l.14,0a1.73,1.73,0,0,0,.51-.15l-.16-.13a2,2,0,0,1-.39-.34,2.37,2.37,0,0,1-.21-.33,2.72,2.72,0,0,1-.11-.25,1.46,1.46,0,0,0-.07-.19v0a.28.28,0,0,0,0-.11c0-.1,0-.18-.08-.27h0l-.13,0-.45,0h-.07l-.29,0a10.53,10.53,0,0,1-1.46-.05c-2.07-.21-3.33-1.62-4.35-2.93l-.7-.88a5.53,5.53,0,0,1-3.22-.05,2.18,2.18,0,0,1-.34-.14l-.36-.19-.19-.13a3.84,3.84,0,0,1-1.43-3,8.31,8.31,0,0,1-1-.35l-.13,0a2.28,2.28,0,0,0-1.69.08,14,14,0,0,0-2.17,1.06l-.71.39.13.06.1,0a1.1,1.1,0,0,0,1,.06l.15,0a.5.5,0,0,1,.34.11,3.92,3.92,0,0,1,1.08,1.58l.18.37c.07.14.14.26.2.37a3.47,3.47,0,0,0,.26.37,2,2,0,0,0,.26.25,1.42,1.42,0,0,0,.53.23l.28.09a1.52,1.52,0,0,1,.6.48l.3.36a7.66,7.66,0,0,0,.87.93l.25.2,0,0a2.08,2.08,0,0,0,.29.19l.28.15,0,0,.27.13.45.19.34.15.07,0,.1,0,0,0c.26.12.48.26.69.38a3,3,0,0,0,1.42.55l2.23.08Z" transform="translate(-96.12 -46.84)"/><path d="M253.75,113.39a8.37,8.37,0,0,1-.82-.23l-.41-.17-.41-.2-.36-.2a10,10,0,0,1-1-.6l-.24-.19-.1-.07,0,0-.12-.11a.28.28,0,0,0,0,.09,3.43,3.43,0,0,0,.64,1.91,2.61,2.61,0,0,0,.32.34l.05,0a2.27,2.27,0,0,0,.32.22,3.42,3.42,0,0,0,2,.34h0l.65-.09,0-.05-.1-.14a2.22,2.22,0,0,1-.25-.41.8.8,0,0,1-.08-.39Z" transform="translate(-96.12 -46.84)"/><path d="M255.18,104.14a1,1,0,0,1,0-.17L255,104l-.18,0h-.05v0a3.49,3.49,0,0,0-.18.31.48.48,0,0,0-.05.11c0,.08-.06.16-.09.23a2.9,2.9,0,0,0-.14.7.42.42,0,0,1-.14.28c0,.12.05.14.18.17l.25.09.1,0a1.24,1.24,0,0,1,.35.23c.06-.29.11-.59.15-.89A7.34,7.34,0,0,0,255.18,104.14Z" transform="translate(-96.12 -46.84)"/><path d="M254.83,110.34a2.57,2.57,0,0,0-1-.4,4.09,4.09,0,0,0,1.05,1,.68.68,0,0,0,.35-.2A5.63,5.63,0,0,0,254.83,110.34Z" transform="translate(-96.12 -46.84)"/><path d="M254.51,109a4.83,4.83,0,0,0-.68-.51h-.07l0-.07-.13-.06-.13-.06-.45-.16a7.21,7.21,0,0,1,.5.77A5.4,5.4,0,0,0,254.51,109Z" transform="translate(-96.12 -46.84)"/><path d="M251.89,106.62l.23,0h-.23a1.48,1.48,0,0,1,0-.21,2.4,2.4,0,0,1,.35-1.19,1.11,1.11,0,0,1,.46-.35l.1,0a.92.92,0,0,1,.38,0h.09l.1,0h0l0-.17,0-.14,0-.11v-.08a.65.65,0,0,0,0-.13l0-.09h0a.37.37,0,0,1-.12-.07.45.45,0,0,1-.17-.34s0-.07,0-.1v-.07c0-.18,0-.37,0-.55v-.09c0-.12,0-.24,0-.35v-.09l0-.44a.11.11,0,0,1,0,0v0a.28.28,0,0,1,0-.09l0-.14,0-.32c0-.19.06-.38.1-.57a9.6,9.6,0,0,1,.36-1.38h0a4.48,4.48,0,0,0-.68.14l-.09,0-.19,0-.07,0-.34.1a10.41,10.41,0,0,0-1.21.5,2.47,2.47,0,0,0-.91.67,1.39,1.39,0,0,0-.23.43l0,.16a7.47,7.47,0,0,0-.13,1.5v.13a5.84,5.84,0,0,0,0,.83c0,.14,0,.28.06.41s0,.22.07.33a9.12,9.12,0,0,0,.55,1.62,1.85,1.85,0,0,1,.68.24l.22.13.21.16a.9.9,0,0,1,.19.15.18.18,0,0,1,0-.06A2.81,2.81,0,0,1,251.89,106.62Z" transform="translate(-96.12 -46.84)"/><path d="M250.6,110.61l.23.21a3.83,3.83,0,0,0,.42.32l.39.27h0l.11.07.27.16,0,0,.26.14.45.25a4.24,4.24,0,0,0,.82.32l.3.07.3,0a4.13,4.13,0,0,0,.71,0h.36a8.35,8.35,0,0,0,1.09-.17l-.11,0a6.41,6.41,0,0,1-1.15-.46l-.09,0a2.14,2.14,0,0,1-.3-.17,2.26,2.26,0,0,1-.34-.23,2.34,2.34,0,0,1-.31-.24,4.93,4.93,0,0,1-1-1.23c-.09-.14-.16-.28-.24-.42a8.5,8.5,0,0,0-.57-.89l-.12-.14,0,0-.22-.22-.21-.22-.47-.4,0,0a.88.88,0,0,0-.17-.12.94.94,0,0,0-.18-.12l-.15-.07a.79.79,0,0,0-.25,0,.5.5,0,0,0-.21,0,.77.77,0,0,0-.33.18,1,1,0,0,0-.3.71,1.09,1.09,0,0,0,0,.18v.06c0,.07,0,.15,0,.22s0,.09,0,.13,0,.21.06.3a3.32,3.32,0,0,0,.56,1.13l.19.23.2.21-.14.18Z" transform="translate(-96.12 -46.84)"/><path d="M257.88,117.28a4.1,4.1,0,0,0,2.19.85,6.45,6.45,0,0,0,1.81,0l.43-.09h.06l.08,0h.06l.05,0,.23-.08.15-.06.28-.13.26-.15a3.51,3.51,0,0,0,.89-.83l0,0s0,0,0,0a3.13,3.13,0,0,0,.35-.65c.05-.14.1-.29.14-.45a7.37,7.37,0,0,0,0-2.69c0-.18-.06-.36-.08-.54l-.06-.44c-.14-1.15-.23-2.37-.27-3.6v-.18a17.63,17.63,0,0,1-1.12,1.56,19.26,19.26,0,0,1-1.29,1.43,6,6,0,0,1-1.41,1.24,3.12,3.12,0,0,1-1.14.42l-.34.09-.58.14-.26.06-.08,0c-.69.16-1.26.28-1.8.36a10.13,10.13,0,0,1-1.16.09h-.57a.17.17,0,0,0,0,0l.15.18,0,0,1.38,1.77A11,11,0,0,0,257.88,117.28Z" transform="translate(-96.12 -46.84)"/><path d="M258.08,97.21l-.4.08c-.41.07-.89.17-1.37.29a1.5,1.5,0,0,0-.6.31,1.75,1.75,0,0,0-.24.23,2.27,2.27,0,0,0-.21.28,5,5,0,0,0-.32.57s0,0,0,.06l0,.06c0,.11-.1.22-.14.33s-.09.25-.13.38a8.9,8.9,0,0,0-.37,1.6c0,.14,0,.27-.05.39H254l.23,0c0,.12,0,.25,0,.37s0,.17,0,.24v.21c0-.09.11-.18.17-.27a4.86,4.86,0,0,1,.55-.7l0-.05,0,0,.15-.14v0l.2-.18.07-.06,0,0a5.73,5.73,0,0,1,.93-.61l.35-.17.35-.13a5.38,5.38,0,0,1,.76-.21,4.84,4.84,0,0,1,.87-.09,3.33,3.33,0,0,1,.55,0,5.62,5.62,0,0,1,.82-.39,5.71,5.71,0,0,1,.59-.19,5.05,5.05,0,0,1,1-.14c-.08-.16-.15-.32-.22-.48a.43.43,0,0,1,0-.41.48.48,0,0,1,.38-.23h.11c1.54.21,2.55,1.44,3.38,2.58a25.23,25.23,0,0,1,2.94,4.74,7.6,7.6,0,0,1,.19,5.38l-.1.33c-.07.21-.13.44-.21.66v0c-.08.24-.16.45-.23.66l-.08.18-.06.15a.12.12,0,0,1,.05,0l.14-.15.24-.24.46-.45.08-.08c.11-.12.26-.28.4-.45l.06-.06.06-.08c.07-.09.15-.19.23-.31a4.73,4.73,0,0,0,.41-.81,5.08,5.08,0,0,0,.31-2.28v0a.17.17,0,0,0,0-.07c0-.11,0-.23,0-.35l0-.08a4.85,4.85,0,0,0-.11-.49,12.58,12.58,0,0,0-1-2.38l-.21-.38-.23-.44-.17-.33-.05-.08-.19-.38-.27-.48a18.92,18.92,0,0,0-1.55-2.38l-.32-.4-.1-.1-.05-.06a7.41,7.41,0,0,0-.62-.63c-.14-.13-.29-.26-.46-.39a7.65,7.65,0,0,0-1.93-1.14A4.32,4.32,0,0,0,262,97c-.12,0-.24,0-.36-.06l-.36,0h-.87a13.62,13.62,0,0,0-1.64.18l-.21,0-.08-.21,0,.22Z" transform="translate(-96.12 -46.84)"/><path d="M267,112.14c.07-.17.13-.34.19-.51.11-.36.22-.72.32-1.07l0-.11a7.5,7.5,0,0,0,.36-2.36,6.69,6.69,0,0,0-.63-2.44,14.06,14.06,0,0,0-1.24-2.24l-.47-.68-.74-1-.11-.15c-.22-.3-.44-.6-.67-.89a5.4,5.4,0,0,0-.48-.55,3.92,3.92,0,0,0-.81-.65h0l0,0,.13.25c.06.1.12.2.17.3l.4.67c.14.24.28.47.41.71a.45.45,0,0,1,.22-.08.46.46,0,0,1,.51.42l.06.58.09.93a10.46,10.46,0,0,1,.52,2.56l.06.74c.05.56.09,1.12.13,1.68l.05.53c0,.48.07,1,.11,1.46,0,.19,0,.39,0,.58,0,.34.05.69.08,1s.07.59.11.84a7.5,7.5,0,0,0,.25,1.06l.05-.07.21-.28.18-.31,0,0c.06-.11.11-.21.16-.32l0-.09a.89.89,0,0,0,.08-.17l.22.06-.21-.09,0,0Z" transform="translate(-96.12 -46.84)"/><path d="M257.75,101.9h.64a6.21,6.21,0,0,1,1.92.29,3.09,3.09,0,0,1,1.08.79l.06.07a5.78,5.78,0,0,0,.65.55l.12.09.24.19.37-.69c-.19-.22-.62-.61-.82-.79l-.17-.15a5.48,5.48,0,0,0-1.14-.91,3.21,3.21,0,0,0-1.35-.39H259c-.1,0-.2,0-.3,0h-.09c-.19,0-.38,0-.6.08h-.05l-.24,0-.36.1-.33.13a3.36,3.36,0,0,0-.33.16,4.4,4.4,0,0,0-.77.53l-.16.16-.16.16h0l.09,0h0a5,5,0,0,1,1.06-.26l.21,0,.29,0,0,.22v-.22h.42Z" transform="translate(-96.12 -46.84)"/><polygon points="161.19 55.3 161.19 55.3 161.19 55.3 161.19 55.3"/><path d="M262.45,105.88l-.07.19a5.69,5.69,0,0,0,1.32-1.75l0-.06a1.9,1.9,0,0,0,.07-.75v-.12l-1.33,2.46S262.45,105.87,262.45,105.88Z" transform="translate(-96.12 -46.84)"/><path d="M258.33,104.3a.63.63,0,0,0-.23,0c-.21,0-.39.19-.61.43a4.16,4.16,0,0,0-.95,1.69,5,5,0,0,1,2-1.06,3.73,3.73,0,0,1,2,0,5,5,0,0,0-1.38-.78A6.69,6.69,0,0,0,258.33,104.3Z" transform="translate(-96.12 -46.84)"/><path d="M262.89,106.9a4.14,4.14,0,0,1-.91.47,4.61,4.61,0,0,0-.63.3c-.23.13-.45.28-.66.42s-.51.33-.77.48a10.25,10.25,0,0,1-3,1l-.24,0a7.39,7.39,0,0,1-.89.18l-.2,0h0l-.16,0,.11.09.15.13.13.13.2.19,0,0a7.21,7.21,0,0,0,.65.59,3.68,3.68,0,0,0,2.48.81l.21,0a2.44,2.44,0,0,0,1.18-.53,6,6,0,0,0,.91-.91,11.48,11.48,0,0,0,1.46-2.39,10.09,10.09,0,0,0,.59-1.65,3.65,3.65,0,0,1-.57.55Z" transform="translate(-96.12 -46.84)"/><path d="M255.49,108.43l-.22-.07.23.22.11.07,0,0h0a.78.78,0,0,0,.21,0,1,1,0,0,0,.25,0h.15a4.42,4.42,0,0,0,.53-.11l.14,0a5.54,5.54,0,0,1-.7,0h-.14A4.66,4.66,0,0,1,255.49,108.43Z" transform="translate(-96.12 -46.84)"/><polygon points="158.42 61.2 158.42 61.2 158.42 61.2 158.42 61.2"/><path d="M254.68,107.87h0c0-.08-.06-.15-.09-.22s0-.15-.05-.21c-.07-.3-.11-.44-.29-.53l-.08,0-.12,0a1.81,1.81,0,0,1-.42-.16,1.33,1.33,0,0,1-.19-.14l0,0,0-.06-.09-.18a2,2,0,0,1-.06-.26,1.15,1.15,0,0,0-.09-.28h-.06c-.15,0-.23.39-.23,1v.07a.29.29,0,0,0,.16.25,2.08,2.08,0,0,0,.48.18l.07,0,.18,0,.31.14.24.12.06,0,.18.1.14.09Z" transform="translate(-96.12 -46.84)"/><path d="M175.88,123.24a1.61,1.61,0,0,0,.26-.4l.17.06.15.06a10.14,10.14,0,0,0,3.78.87h0a3.74,3.74,0,0,0,2.47-1.32c.11.13.21.24.29.35a16.11,16.11,0,0,1,2.43,6.62c.12.63.21,1.22.29,1.78-.28-.29-.56-.56-.84-.82a28.35,28.35,0,0,0-3-2.41c-.8-.57-1.65-1.1-2.47-1.6-.63-.39-1.28-.8-1.91-1.22a10.06,10.06,0,0,1-2-1.73l0,0,.22-.18Z" transform="translate(-96.12 -46.84)"/><path d="M176.68,126.11c.69.46,1.39.91,2.07,1.34a36.08,36.08,0,0,1,5.19,3.77l.06.05a23.65,23.65,0,0,0-2.89-.41c-.45-.05-.88-.09-1.29-.15a8.14,8.14,0,0,1-5-2.76,1.37,1.37,0,0,0,.85-.8,3.83,3.83,0,0,0,.2-1.62C176.14,125.73,176.4,125.92,176.68,126.11Z" transform="translate(-96.12 -46.84)"/><path d="M184.92,88s0,0,.05,0a23,23,0,0,0-.58,2.86c-.07.44-.14.86-.22,1.27a7.28,7.28,0,0,1-.84,2.26s0-.08,0-.11c-.22-.59-.49-1.31-1.39-1.36a4.18,4.18,0,0,0-1.07.13l0,0A36.08,36.08,0,0,1,184.92,88Z" transform="translate(-96.12 -46.84)"/><path d="M175.22,89.56a6.24,6.24,0,0,1,1.3-1.17,16.13,16.13,0,0,1,6.74-2c.64-.08,1.23-.14,1.8-.18-.3.26-.59.53-.87.79a28.24,28.24,0,0,0-2.57,2.81c-.62.77-1.2,1.59-1.75,2.38l-.44.64a1,1,0,0,0-.28-.14,1.84,1.84,0,0,0-.65-.08,5.63,5.63,0,0,0-.93.14l-.27,0c-.51.09-1,.2-1.51.31l-.7.15c-.27.06-.56.11-.85.15a10.78,10.78,0,0,0,1-3.49C175.2,89.77,175.21,89.66,175.22,89.56Z" transform="translate(-96.12 -46.84)"/><path d="M170.17,88.45a8.4,8.4,0,0,1-.06,4.83,11.73,11.73,0,0,0-3.23-2.3,4.79,4.79,0,0,0-1.68-.54l0-.12a10.13,10.13,0,0,1-.61-3.78A16.29,16.29,0,0,1,167.18,80c.34-.55.67-1,1-1.51,0,.39,0,.79.07,1.17a28.12,28.12,0,0,0,.58,3.77c.2,1,.48,1.92.75,2.84C169.78,87,170,87.72,170.17,88.45Z" transform="translate(-96.12 -46.84)"/><path d="M170.81,86a36.28,36.28,0,0,1-1.32-6.28v-.07a23.37,23.37,0,0,0,1.86,2.25c.3.33.58.65.85,1A8.58,8.58,0,0,1,174,89.14c0,.23,0,.46-.06.7l0,.16-.09.55a9.81,9.81,0,0,1-1.09,3,4.94,4.94,0,0,0-.75.09,3.39,3.39,0,0,0-.48.1l-.24.07a9.36,9.36,0,0,0,.16-5.39C171.24,87.59,171,86.79,170.81,86Z" transform="translate(-96.12 -46.84)"/><path d="M142,126.19l.06,0a35.68,35.68,0,0,1,6.07-2.08c.78-.22,1.58-.44,2.37-.69a10,10,0,0,0,2.72-1.26,5.3,5.3,0,0,1,.53.53,3.36,3.36,0,0,1,.59.93,10.05,10.05,0,0,1-8.19,3.29l-1.27-.24A25.72,25.72,0,0,0,142,126.19Z" transform="translate(-96.12 -46.84)"/><path d="M152.22,121.28a9.74,9.74,0,0,1-2.28,1c-.72.22-1.46.41-2.18.6-.93.24-1.9.49-2.83.81a28.54,28.54,0,0,0-3.53,1.44c-.34.16-.7.34-1.05.54.24-.52.5-1.06.8-1.63a16.23,16.23,0,0,1,4.26-5.61l.13-.09.55.57.18.19a2.44,2.44,0,0,0,1.19.82,1.41,1.41,0,0,0,.78-.17l.31-.15c.25-.12.51-.25.78-.36a1.86,1.86,0,0,1,1.74-.06l.05,0a1.45,1.45,0,0,0,.08,1,3,3,0,0,0,1,1Z" transform="translate(-96.12 -46.84)"/><path d="M174.21,127.13l-.13,0H174l-.39.11-.38.13a9.52,9.52,0,0,0-.86.41,20.84,20.84,0,0,0-3.38,2.24,11.21,11.21,0,0,0-1.29,1.29,3.53,3.53,0,0,1-.63.6,1.56,1.56,0,0,1-.62.18l-.26,0a1.47,1.47,0,0,0-.68.37l-.07.07a.8.8,0,0,1-.62.31h-.05a9,9,0,0,1-2.09-.29h0a19,19,0,0,1-3.87-1.22,1.75,1.75,0,0,1-1-1.2c0-.19-.09-.38-.13-.56a4.6,4.6,0,0,0-.39-1.3,7.34,7.34,0,0,0-.48-.82,8.47,8.47,0,0,1-.5-.87,7,7,0,0,1-.44-1.6l-.06-.28c-.06-.28-.13-.54-.21-.81s-.08-.25-.13-.37a4.68,4.68,0,0,0-.19-.45,5.34,5.34,0,0,0-1.16-1.62c-.07-.06-.12-.12-.19-.17l0-.05c-.18-.16-.38-.32-.61-.5s-.27-.21-.41-.31l-.16-.13a2,2,0,0,1-.57-.58,2.29,2.29,0,0,0,.61.22,5.25,5.25,0,0,0,1,.11l.51,0h.14a2.93,2.93,0,0,1,.6.17c.18.07.35.15.54.24s.33.17.51.24l.37.13.39.1.37.07a5.44,5.44,0,0,0,2-.13,5.68,5.68,0,0,0,2.45,1,3.54,3.54,0,0,0,2-.44,4.14,4.14,0,0,1,1.8-.61,3,3,0,0,1,.42,0,2,2,0,0,1,.4.56c.19.89,1.17,1.07,1.64,1.16a5,5,0,0,0,2.47-.2,5.27,5.27,0,0,0,.76-.33l.34-.17.35-.17a2.51,2.51,0,0,1,.79-.24h0a2,2,0,0,1,.48,0,3.86,3.86,0,0,1,.86.3l.4.2c.29.14.56.28.83.4a.25.25,0,0,1-.08.12l-.13.12-.26.22a1,1,0,0,0-.31.82,2,2,0,0,0,.18.57,1.12,1.12,0,0,1,.1.24,4,4,0,0,1,.18,1.17,3.68,3.68,0,0,1-.11,1C174.76,127,174.62,127.05,174.21,127.13Z" transform="translate(-96.12 -46.84)"/><path d="M145.79,106.7a8,8,0,0,0,.49-1.18,8.23,8.23,0,0,1,.43-1c.15-.3.6-.36,1-.4l1.38-.16c.47-.06.93-.1,1.39-.14l.31,0a7.34,7.34,0,0,0,.1.93c.07.35.14.72.23,1.1L151,106c-.19.26-.36.5-.53.71l0,.06a7.45,7.45,0,0,0-1.47,2.33,3.16,3.16,0,0,0,.56,2.82l1.16,1.8.29.46a8.36,8.36,0,0,0,.92,1.31l.15.14a2.13,2.13,0,0,0,.74.36l.49.12h.06a2.78,2.78,0,0,1,.62.2h0l.06,0a1.67,1.67,0,0,1,.42.48l.2.28a2.75,2.75,0,0,0,.62.55,2.88,2.88,0,0,0,.38.22l.08,0,.14.06a1.16,1.16,0,0,0,.08.61,2.31,2.31,0,0,0,.89,1l.34.21.33.18.42.24.07,0h-.36l-.22,0-.33-.06c-.11,0-.22-.06-.33-.09a8.88,8.88,0,0,1-1-.42,1.59,1.59,0,0,0-.27-.12,5.08,5.08,0,0,0-.81-.24q-.36-.06-.78-.09a3.16,3.16,0,0,1-1.66-.38l0,0,0,0-.12-.08-.19-.13a2.79,2.79,0,0,0-1.33-.51,3.62,3.62,0,0,0-1.8.45l-.56.26-.22.11c-.32.16-.48,0-.8-.28l-.12-.12c-.28-.28-.56-.56-.81-.83l-.24-.29-.05-.06-.18-.21c-.15-.2-.28-.38-.4-.56a6.47,6.47,0,0,1-.93-2.38,20.67,20.67,0,0,1-.26-2.22L144,110a1.45,1.45,0,0,1,.46-1.25A11.09,11.09,0,0,0,145.79,106.7Z" transform="translate(-96.12 -46.84)"/><path d="M175.17,97.85,175,97.5a3.45,3.45,0,0,0-.14-.34,2,2,0,0,0-.18-.33,5.11,5.11,0,0,0-1.68-1.3l-.32-.2-.3-.19-.33-.2-.43-.21h0l.24-.07a5.28,5.28,0,0,1,.78-.13l.27,0h.23l.42,0c.87-.1,1.76-.26,2.8-.48.53-.12,1.15-.25,1.79-.33a2.56,2.56,0,0,1,.77,0,.58.58,0,0,1,.19.1l.08,0a1,1,0,0,0,.37.21,2,2,0,0,0,.35.09,3.82,3.82,0,0,0,1.06-.11,2.3,2.3,0,0,1,1-.08c.22,0,.32.4.41.71a3.4,3.4,0,0,0,.12.38,2.66,2.66,0,0,0,.29.5c.09.12.17.22.26.32l.21.22.07.07c.21.19.44.37.65.55a4.68,4.68,0,0,1,1.17,1.18c.1.19.19.39.29.61a4.84,4.84,0,0,0,.36.72,4,4,0,0,0,1.05,1.05,8.79,8.79,0,0,0,1.27.75l.25.11c.3.14.84.38.86.63a1.67,1.67,0,0,1-.49.4,3,3,0,0,0-.47.37,4.08,4.08,0,0,0-.76,1.26c-.07.14-.13.28-.19.42-.15.36-.29.69-.46,1s-.26.43-.43.67l-.77-.71-.51-.48a1.88,1.88,0,0,0-1.47-.57,21.61,21.61,0,0,0-2.26.24,22.92,22.92,0,0,0-4.07,1l-.17.06a8.47,8.47,0,0,0,.05-1.12,11.73,11.73,0,0,0-.31-2.78,4.19,4.19,0,0,0-.53-1c-.08-.12-.16-.23-.23-.35s-.11-.2-.15-.29a1.82,1.82,0,0,1-.11-.33,1,1,0,0,1,0-.49.5.5,0,0,0-.34-.6C175.45,98.32,175.32,98.16,175.17,97.85Z" transform="translate(-96.12 -46.84)"/><path d="M154.37,101.88a5.33,5.33,0,0,1-.35,1.58l-.06.16h0a2.32,2.32,0,0,0-1,.32l-.21.13-.2.15a5.2,5.2,0,0,0-.6.57,7.42,7.42,0,0,1-.14-1.17c0-.06,0-.13,0-.19v-.12a.76.76,0,0,1,0-.15,3.85,3.85,0,0,1,0-.4c0-.24.1-.49.15-.73a7.24,7.24,0,0,0,.19-1c.06-.5.07-1,.08-1.5v-.13a6.71,6.71,0,0,1,.53-3A3.31,3.31,0,0,1,155.1,95l.11,0c1.33-.37,3.77-1,4.07-2.75a23.22,23.22,0,0,0,3.91-.6,9.68,9.68,0,0,1,1.2-.23h.35l.36,0h.12a6.07,6.07,0,0,1,1.88.84,7,7,0,0,1,2.65,2.24c.05.09.09.18.13.26l-.41.16a12.93,12.93,0,0,0-1.52.74,3,3,0,0,0-.5,0l-.42.09h0l-.34.08a1.52,1.52,0,0,1-.56,0,2.15,2.15,0,0,1-.45-.2,2.48,2.48,0,0,0-.49-.24,1.08,1.08,0,0,0-.36,0,2.85,2.85,0,0,0-1.33.58l-.25.17c-.37.23-.74.44-1.1.64a4.68,4.68,0,0,1-.5.22l-.35.14h-.62a4.09,4.09,0,0,0-1.12.19,7,7,0,0,0-1.23.69l-.25.16-.45.28c-.38.24-.77.49-1.14.76a2,2,0,0,0-.47.45s-.06.1-.09.17a2.23,2.23,0,0,1-.2.33,1.31,1.31,0,0,0-.53-.12.8.8,0,0,0-.63.37,1.54,1.54,0,0,0-.18,1.12A1.45,1.45,0,0,1,154.37,101.88Z" transform="translate(-96.12 -46.84)"/><path d="M175.86,109.45a12.9,12.9,0,0,0,1.13-3v0l.06,0,.33-.13c.49-.18,1-.35,1.57-.51a21.18,21.18,0,0,1,4.25-.77l.18,0,.33,0a1.08,1.08,0,0,1,.44.06,1.77,1.77,0,0,1,.53.44l.2.2.5.44.64.58.15.15.16.17.24.27a2.84,2.84,0,0,1,.36,1.66,2.44,2.44,0,0,1,0,.27c0,.82,0,1.63,0,2.3-.07,1.09-.17,2.2-.27,3.27,0,.39-.07.77-.1,1.16a3.92,3.92,0,0,1-.52,1.91l-.32.52c-.24.39-.48.79-.74,1.15a2.83,2.83,0,0,1-1,.75l-.4.23a3.89,3.89,0,0,0-.78.61l-.26.25-.25.27-.05,0a4.08,4.08,0,0,1-1.35,1,2.06,2.06,0,0,1-.69.14,5.53,5.53,0,0,1-1.37-.19,17.65,17.65,0,0,1-2.68-.91l-.24-.1-.24-.11-.76-.38a7.92,7.92,0,0,0-.9-.4,3.4,3.4,0,0,0-.89-.22,3.62,3.62,0,0,0-.45,0h0a3.5,3.5,0,0,0-.94.26l-.38.16-.27.14-.09,0a4.7,4.7,0,0,1-1.93.58h-.11c-.86,0-1.49-.14-1.61-.44a3.31,3.31,0,0,0-.47-.8l-.23-.29a1.88,1.88,0,0,1,.55-1,1.93,1.93,0,0,1,.66,0l.26.05,1.05.13a5.88,5.88,0,0,0,2,0h0l.41-.12.38-.16,0,0,.2-.11.22-.13.12-.08a6.11,6.11,0,0,0,.63-.51l.27-.27c.12-.13.24-.26.36-.41l.24-.3,0-.07a19.58,19.58,0,0,0,1.28-2c.25-.42.5-.86.77-1.27a2.1,2.1,0,0,0,.28-1.86,1.47,1.47,0,0,0-1.1-.89,2,2,0,0,0-.35,0,14.46,14.46,0,0,0,.69-1.28Z" transform="translate(-96.12 -46.84)"/><path d="M166.63,118.34l0,0a1.25,1.25,0,0,0-.19.15,2,2,0,0,0-.26.3,3.21,3.21,0,0,0-.44.89c0,.07,0,.13-.07.2h-.23a4,4,0,0,0-1.08.2,5.06,5.06,0,0,0-.88.41,3.41,3.41,0,0,1-1.07.44,3.55,3.55,0,0,1-2.46-.68l-.24-.15a1.64,1.64,0,0,1-.22-.14l-.41-.27-.24-.16c-.32-.21-.64-.39-1-.57l-.32-.19-.31-.17a1,1,0,0,1-.37-.41l.36.06.37,0h.37c.61,0,1.26.08,1.92.09h.47c.55,0,1.1,0,1.65,0h.66a4.64,4.64,0,0,0,3-.93,2.44,2.44,0,0,0,.27-.29,1.46,1.46,0,0,0,.17-.24,1.76,1.76,0,0,0,.14-.27,1.64,1.64,0,0,0,.14-.6l.72-.14.39-.08c.21-.05.42-.08.64-.11s.67-.11,1-.19l.32-.08.2-.06a.82.82,0,0,0,.19-.09,1.38,1.38,0,0,0,.5-.66h0a16.32,16.32,0,0,0,2.45-1.49l.76-.51a2.9,2.9,0,0,1,1.37-.57,1.66,1.66,0,0,1,.32,0c.28.07.33.19.34.23s.07.54-.51,1.42c-.27.4-.52.83-.75,1.24a15.81,15.81,0,0,1-1.22,1.87l-.23.27-.24.25a4.59,4.59,0,0,1-.55.47l0,0-.07.05,0,0-.11.06a1.18,1.18,0,0,1-.19.11l-.12.06-.08,0-.28.1a4,4,0,0,1-1.65.09l-.93-.12-.47-.07a.82.82,0,0,1-.21,0,2.41,2.41,0,0,0-1,0l-.08,0-.05,0Z" transform="translate(-96.12 -46.84)"/><path d="M157.7,117.38h-.15l-.17,0h0l-.29,0-.18,0-.1,0-.15,0-.14,0-.06,0-.06,0-.19-.08A3.08,3.08,0,0,1,155,116l0,0a1.84,1.84,0,0,0-.54-.46,3.38,3.38,0,0,0-1.09-.38l-.16,0a1.49,1.49,0,0,1-.68-.31A3.7,3.7,0,0,1,152,114l-.22-.36-1.46-2.24a2.26,2.26,0,0,1-.35-2.26,6.15,6.15,0,0,1,1.09-1.62l.24-.29c.16-.19.31-.41.49-.67l.18-.25.17-.22a5.24,5.24,0,0,1,1-1.11l.17-.11.18-.09.19-.08-.09.33-.06.28v0a2.56,2.56,0,0,0,0,.27,6,6,0,0,0-.09.74c0,.08,0,.16,0,.24v.34a9.78,9.78,0,0,0,.2,1.71,4.43,4.43,0,0,0,.4,1,5.43,5.43,0,0,1,.3.66c.06.17.12.35.17.52a7.11,7.11,0,0,0,1.21,2.51,5.65,5.65,0,0,0,3.23,1.82h0l.24.05.28.06h.1c.41.07.86.13,1.41.19a1.72,1.72,0,0,0,1.19-.09l.26-.1c.44,0,.8,0,1.14.07l.18.09.2.1.18.11c.24.13.49.26.75.37a3.1,3.1,0,0,0,.47.14h.08a.93.93,0,0,1-.17.35,1.57,1.57,0,0,1-.17.21,2.09,2.09,0,0,1-.22.2l-.13.1a4.27,4.27,0,0,1-2.09.51c-.44,0-.88,0-1.31,0h-1.5c-.55,0-1.14,0-1.72-.06Z" transform="translate(-96.12 -46.84)"/><path d="M169.81,95.82l.18-.07.2-.08.17-.07h0a.93.93,0,0,1,.19,0h.22l.16,0a1.39,1.39,0,0,1,.31.1l.23.11a3.07,3.07,0,0,1,.31.17l.3.18.4.25A4.09,4.09,0,0,1,174,97.55a3.56,3.56,0,0,1,.2.38l.11.26a2,2,0,0,0,.63.9,1.6,1.6,0,0,0,0,.49,2.61,2.61,0,0,0,.13.43,2.83,2.83,0,0,0,.16.36,6.1,6.1,0,0,0,.33.54,4.86,4.86,0,0,1,.64,2.46,9.57,9.57,0,0,1-.05,2.43l-.09.45,0,.15a12.66,12.66,0,0,1-.9,2.31c-.31.62-.72,1.43-1.2,2.2a3.51,3.51,0,0,1-.9.92c-.19.13-.38.26-.5.36l-.12.07c-.58.39-1.22.79-1.95,1.21.09-.19.2-.38.32-.6a3,3,0,0,1,.25-.25c.15-.14.32-.27.48-.4s.29-.23.43-.35a7.14,7.14,0,0,0,1.26-1.41,1.8,1.8,0,0,0,.17-.31,3.33,3.33,0,0,0,.28-.75,4.27,4.27,0,0,0,.12-.62c0-.2.06-.41.08-.61a9,9,0,0,1,.18-1.1c0-.12.06-.25.09-.37a5.87,5.87,0,0,0,.25-1.48,8.86,8.86,0,0,0-.23-1.79c0-.12-.05-.23-.07-.34a11.1,11.1,0,0,0-.52-1.85,9,9,0,0,0-.55-1.18l-.07-.14-.17-.27,0-.06-.13-.2-.07-.1,0-.06c-.16-.22-.32-.44-.5-.66s-.33-.41-.51-.61l-.17-.21-.17-.21a2.73,2.73,0,0,0-.23-.25,1,1,0,0,0-.14-.21.52.52,0,0,0-.1-.11l-.05,0-.22-.17-.07,0-.17-.09-.13-.07-.24-.12-.21-.1-.46-.21.21-.1Z" transform="translate(-96.12 -46.84)"/><path d="M154.32,106.16c0-.1,0-.2,0-.3s0-.2.05-.3a10.85,10.85,0,0,1,.3-1.07l.2-.61a8.81,8.81,0,0,0,.4-1.47,4.44,4.44,0,0,0,0-.68v-.13a3.55,3.55,0,0,1,0-.55,1.09,1.09,0,0,0,.44.1.84.84,0,0,0,.41-.14,1.74,1.74,0,0,0,.52-.6,1.45,1.45,0,0,1,.3-.41,7.82,7.82,0,0,1,1-.63l.45-.28.35-.23a6.53,6.53,0,0,1,1.08-.62,2.62,2.62,0,0,1,.62-.12h0a7.68,7.68,0,0,1-.36,1,8.39,8.39,0,0,0-.38,1,1.58,1.58,0,0,1-.3.5l-.22.32-.12.27-.48.19-.16.07a1.46,1.46,0,0,0-.72.33,4,4,0,0,0-1.21,1.61,5.59,5.59,0,0,0-.46,1.8,2,2,0,0,1,0,.25c0,.09,0,.17,0,.25,0,.35,0,.71,0,1.12V107a1.93,1.93,0,0,0,.4,1.37,5.51,5.51,0,0,0,1.33,1l.3.17a3.13,3.13,0,0,0,.51,1.5l1.43,2.69a1.24,1.24,0,0,0,.62.66h0s0,0,0,0a13.55,13.55,0,0,1-1.37-.21l-.27-.06-.29-.08-.42-.13a4.81,4.81,0,0,1-1.53-.86,4,4,0,0,1-.49-.52,3.59,3.59,0,0,1-.33-.52,8.59,8.59,0,0,1-.59-1.46l0-.14-.21-.64a5.07,5.07,0,0,0-.31-.71,5.1,5.1,0,0,1-.33-.77,6.81,6.81,0,0,1-.15-1.39v-.58s0-.08,0-.12v0l-.25-.07Z" transform="translate(-96.12 -46.84)"/><path d="M168,99h0a.21.21,0,0,0,0,.06,1.93,1.93,0,0,0-.51.09,1.13,1.13,0,0,1-.38,0,2.25,2.25,0,0,0-.26,0,.91.91,0,0,0-.45.11.72.72,0,0,0-.21.16,2.74,2.74,0,0,0-.41,0,7.56,7.56,0,0,0-1.52.28l-.36.09-.39.08a3.45,3.45,0,0,0-1.52.55h-.16a4.74,4.74,0,0,0-1.2.21c.1-.25.19-.5.27-.74s.13-.36.19-.51l.46-1.17c.07-.19.23-.26.52-.37.09,0,.18-.07.27-.12a14.18,14.18,0,0,0,1.43-.8l.68-.41a.71.71,0,0,1,.87,0,2.24,2.24,0,0,0,.83.31,2.88,2.88,0,0,0,1-.09l.12,0,.28-.07.16,0,.19,0h0l.14,0a3,3,0,0,1,.62.31l.07,0,.3.16.23.1.17.07a2.11,2.11,0,0,0-.19.23l-.11.13-1,1.25Z" transform="translate(-96.12 -46.84)"/><path d="M167.86,100.08l.17,0,.08.08.12.11.1.07.25.14h0l.24.12.07,0,.27.14a.93.93,0,0,1,.47.54,3.26,3.26,0,0,1,0,1c0,.13,0,.26,0,.38a9.28,9.28,0,0,1-.42,2.88c-.06.17-.13.33-.19.5a4.81,4.81,0,0,0-.2.53c0-.56,0-1.13,0-1.68a14.42,14.42,0,0,0-.2-3,3.48,3.48,0,0,0-.44-1.21,1.43,1.43,0,0,0-.14-.2,1.29,1.29,0,0,0-.19-.21,1.46,1.46,0,0,0-.21-.16h0l.16,0Z" transform="translate(-96.12 -46.84)"/><path d="M162.81,114.27h0a2.4,2.4,0,0,0-.39,0A3.57,3.57,0,0,0,163,114,.56.56,0,0,0,162.81,114.27Z" transform="translate(-96.12 -46.84)"/><path d="M163.87,113.45a3.84,3.84,0,0,0,.73-.8l.1-.16a3.83,3.83,0,0,1,.27-.39l.1-.12a1.28,1.28,0,0,0,.26-.36s0,0,0-.05a.39.39,0,0,1,.08-.1,4.77,4.77,0,0,0,.53-.57l.26-.3,1.35-1.4.2-.2.14-.14h0l.08,0a.75.75,0,0,1,.22.26,5.88,5.88,0,0,1-1.07,1.19l-.17.15,0,0-.19.18a16.11,16.11,0,0,0-1.18,1.44c-.09.11-.18.22-.26.34a3.21,3.21,0,0,1-2.1,1.45h-.09A3.65,3.65,0,0,0,163.87,113.45Z" transform="translate(-96.12 -46.84)"/><path d="M158.88,108.87h0l-.23-.12-.15-.08-.13-.07,0,0-.06,0a6.15,6.15,0,0,1-.86-.58c-.37-.3-.39-.63-.42-1.16a8,8,0,0,1,0-1.2,1.77,1.77,0,0,1,0-.23l0-.24a5.07,5.07,0,0,1,.17-.83,3.31,3.31,0,0,1,.13-.36,3.07,3.07,0,0,1,.29-.57.41.41,0,0,1,.06-.11l.06-.1a5.73,5.73,0,0,0,.07,1.65l.06.24c0,.08.05.16.08.23v0c0,.11.09.21.13.3v0a2.08,2.08,0,0,0,.15,1.7,3.2,3.2,0,0,0,.78,1.07,1.63,1.63,0,0,1,.39.67C159.25,109,159.06,108.93,158.88,108.87Z" transform="translate(-96.12 -46.84)"/><path d="M161.23,113.51H161a1.36,1.36,0,0,1-.21-.36c0-.07-.07-.15-.1-.21l-.09-.21-1.17-2.18a4.2,4.2,0,0,1-.26-.52,3.53,3.53,0,0,1,.7.37l0,0a5.22,5.22,0,0,0,.47.26,6.73,6.73,0,0,0,1.75.92,4.4,4.4,0,0,0,1.45.29l.38,0-.08.12a3.79,3.79,0,0,1-.45.56,1.65,1.65,0,0,1-.23.2,3.32,3.32,0,0,1-.61.38,5.23,5.23,0,0,1-.73.26l-.41.08v.26l0-.26Z" transform="translate(-96.12 -46.84)"/><path d="M160.47,109.13a5.1,5.1,0,0,0-.22-.57l-.12-.26a.42.42,0,0,0,.18.08l.17.15a2.35,2.35,0,0,0,1,.44l.33.1a.39.39,0,0,0,.28,0,4.93,4.93,0,0,0,.88.22l.28.06a4.76,4.76,0,0,0,1.94.07c.3-.06.62-.14,1-.26l.08,0h0l-.33.34-1.14,1.19-.12.11a.28.28,0,0,1-.12.08,1.33,1.33,0,0,1-.44.06h-.42a3.54,3.54,0,0,1-1.36-.27c-.23-.09-.5-.2-.76-.33a3.23,3.23,0,0,1-.53-.32l-.1-.08-.05,0-.12-.13,0,0s0,0,0,0h0a1.27,1.27,0,0,1-.13-.19c0-.08-.07-.19-.1-.3Z" transform="translate(-96.12 -46.84)"/><path d="M167.31,101.2a2.27,2.27,0,0,1,.22.41,4.92,4.92,0,0,1,.21.84c-.05-.09-.09-.18-.13-.27l-.18-.33c-.08-.14-.16-.28-.22-.41a.81.81,0,0,1-.06-.42l.13.14Z" transform="translate(-96.12 -46.84)"/><path d="M158.86,104.53l0,.22v.09s0,0,0,0a1.33,1.33,0,0,1,0-.19,4.33,4.33,0,0,1-.06-.58,7.36,7.36,0,0,1,0-.82v-.15a2.39,2.39,0,0,1,.06-.53s0,0,0-.07l0-.07,0,0h0l.11-.06.63-.25.11,0,.35-.14a4.48,4.48,0,0,0-.92,1.46,5.27,5.27,0,0,0-.2.6l-.09.41a.41.41,0,0,0,0,.11Z" transform="translate(-96.12 -46.84)"/><path d="M165,101.48a6.91,6.91,0,0,0-1.76-.41h-.1l0,0,.68-.17.37-.08a9.44,9.44,0,0,1,1.89-.31c.12,0,.17,0,.19,0l0,0v.12l0,.12a1.78,1.78,0,0,0,0,.65l0,.16a.88.88,0,0,0,0,.15,3.73,3.73,0,0,0,.2.4l.07.11.06.11,0,.07a8.08,8.08,0,0,1,.38.79l0,.06-.27-.07-.21-.28-.06-.08-.15-.2-.15-.19A3.16,3.16,0,0,0,165,101.48Z" transform="translate(-96.12 -46.84)"/><path d="M160.79,107.47a.88.88,0,0,1-.12-.17,3,3,0,0,1-.24-.38c-.11-.21-.21-.41-.29-.6a3.35,3.35,0,0,1-.33-1.43v-.25l0-.18a4,4,0,0,1,.73-1.66,3,3,0,0,1,1.4-1.13h.19a5,5,0,0,0-.38.52c-.11.16-.2.3-.31.43a2.19,2.19,0,0,0-.37.25,1.17,1.17,0,0,0-.2.19,1.7,1.7,0,0,0-.71.78,1.89,1.89,0,0,0-.12.38c0,.09,0,.18,0,.26a2.26,2.26,0,0,0,0,.26,3.25,3.25,0,0,0,.07.67,5.48,5.48,0,0,0,.6,1.53l.08.17c.13.26.23.48.32.69A2.26,2.26,0,0,1,160.79,107.47Z" transform="translate(-96.12 -46.84)"/><path d="M167,104.62v0c0-.14-.06-.28-.1-.41l-.06-.2a1.52,1.52,0,0,1,.53.7l0,.09a2.07,2.07,0,0,1,.11.36.52.52,0,0,1,0,.11s0,0,0,0v0c0,.25.13.5.18.76a2.14,2.14,0,0,1,.07.43,1.51,1.51,0,0,1-.08.51s0,.06,0,.08-.07.14-.11.22-.05.1-.08.15a1.61,1.61,0,0,1-.24.28l-.16.1a4.37,4.37,0,0,0,.22-.8A6,6,0,0,0,167,104.62Z" transform="translate(-96.12 -46.84)"/><path d="M162.44,108.14l-.09,0a.2.2,0,0,1-.1-.08,1,1,0,0,1-.15-.33l0-.11c0-.14-.1-.27-.16-.4a1.27,1.27,0,0,0,.72-.34,2.09,2.09,0,0,0,.5-.77l.08-.15c.17-.36.42-.43.87-.54a4.22,4.22,0,0,0,1.36-.63,2.78,2.78,0,0,0,.65-.61,4.54,4.54,0,0,1,.24.59,5.32,5.32,0,0,1,.33,2.18,3.14,3.14,0,0,1-.34,1l-.06.1a.5.5,0,0,1-.13.1,4.89,4.89,0,0,1-1.46.35,4.49,4.49,0,0,1-1.57-.18l-.39-.11-.1.24.07-.25Z" transform="translate(-96.12 -46.84)"/><path d="M164.24,102.43l-.06,0a4.82,4.82,0,0,0-.86-.08,1.25,1.25,0,0,0-.61.16,1.42,1.42,0,0,1,.2-.22,1.13,1.13,0,0,1,.22-.14.53.53,0,0,1,.22,0,2.91,2.91,0,0,1,1.08.26Z" transform="translate(-96.12 -46.84)"/><path d="M163.6,104.23l.09-.07,0,0a4.55,4.55,0,0,1,.47-.36,2.59,2.59,0,0,1,.29-.18.81.81,0,0,0,.28-.23h.08a.64.64,0,0,1,.18.06.85.85,0,0,1,.17.1s0,0,0,.06,0,.06-.08.13a2.89,2.89,0,0,1-1.33.72,3.75,3.75,0,0,0-.52.15A1.36,1.36,0,0,1,163.6,104.23Z" transform="translate(-96.12 -46.84)"/><path d="M162.17,105.85c-.12.23-.26.4-.44.37a.44.44,0,0,1-.19-.07.47.47,0,0,1-.14-.14,1,1,0,0,0,.47-.15A1.51,1.51,0,0,0,162.17,105.85Z" transform="translate(-96.12 -46.84)"/><path d="M161.81,104.86a.36.36,0,0,1-.14-.23.32.32,0,0,1,0-.14.09.09,0,0,1,0,0s0,0,0-.07h0a.79.79,0,0,1,.18-.22L162,104l.27-.14.19-.08.31-.14,0,0a1.6,1.6,0,0,0-.22.26l0,.08a.64.64,0,0,0-.06.11c0,.09-.07.18-.1.27a3.11,3.11,0,0,1-.12.3l-.1.13a.4.4,0,0,1-.22.08A.19.19,0,0,1,161.81,104.86Z" transform="translate(-96.12 -46.84)"/><path d="M170.48,98.29l.2.22.37.44.08.1c.1.12.2.24.29.37s.2.28.3.42l.07.1.17.24,0,.07a8.72,8.72,0,0,1,1.13,3.07c0,.19.07.37.11.56a9.3,9.3,0,0,1,.16,1.2,4.8,4.8,0,0,1-.24,1.5l0,.1a8.91,8.91,0,0,0-.23,1.32v.11a6.63,6.63,0,0,1-.24,1.24,2.26,2.26,0,0,1-.13.33l0,0a4.2,4.2,0,0,1-1.15,1.33l-.19.16c-.2.16-.39.32-.57.49a4.6,4.6,0,0,0-.54.56l-.12.16a2.64,2.64,0,0,0-.36.71v0l0,.1a2.4,2.4,0,0,0-.06.76.49.49,0,0,1,0,.11v0a.43.43,0,0,1,0,0l-.06.14-.06.09a.35.35,0,0,1-.06.09l-.06,0a2.41,2.41,0,0,1-.42.08,1.2,1.2,0,0,0-.2,0l-1.91.36-.51.1-.25,0h-.07a1.56,1.56,0,0,1-.31,0,1.18,1.18,0,0,1-.38-.09,3.6,3.6,0,0,1-.52-.26l-.15-.08-.17-.08h0a5.69,5.69,0,0,0,2.07-1.9l.35-.45a7.93,7.93,0,0,1,.54-.67l.09-.1.1-.1.16-.15a1.29,1.29,0,0,1,.17-.16l.41-.38a5.28,5.28,0,0,0,.61-.63l.18-.23a.59.59,0,0,1,0-.08l0,0s.07-.1.1-.16l.12-.26,0,0a6,6,0,0,0,.34-1.47c0-.22.07-.44.11-.66a2,2,0,0,1,.07-.26l0-.1c.05-.17.13-.35.2-.53s.12-.29.17-.43a3.88,3.88,0,0,0,.16-.51,9.29,9.29,0,0,0,.18-.94,15.14,15.14,0,0,0,.14-2.3c0-.13,0-.25,0-.37v-.15a1.76,1.76,0,0,0-.56-1.31v0a2.92,2.92,0,0,0-.41-.31l-.08,0-.12-.07-.07,0-.18-.08-.27-.13-.06,0,0,0h0l0,0a1.8,1.8,0,0,1,.19-.24l.65-.79.08-.1.06-.09.12-.17.16-.19a.08.08,0,0,1,0,0l.2-.17-.17.2,0,0,.11.13.22-.13h0l-.2.16Z" transform="translate(-96.12 -46.84)"/><path d="M178.38,70.61a1.68,1.68,0,0,1-1.18-.49,1.66,1.66,0,0,1-.49-1.18,1.68,1.68,0,0,1,.49-1.18,1.73,1.73,0,0,1,2.36,0,1.68,1.68,0,0,1,.49,1.18,1.66,1.66,0,0,1-.49,1.18A1.68,1.68,0,0,1,178.38,70.61Z" transform="translate(-96.12 -46.84)"/><path d="M180.36,65.58a1.69,1.69,0,0,1-.36-2.34h0a1.67,1.67,0,0,1,2.33-.36h0a1.68,1.68,0,0,1,.36,2.34h0a1.67,1.67,0,0,1-1.35.68h0A1.74,1.74,0,0,1,180.36,65.58Zm62-.49a1.68,1.68,0,0,1,.34-2.34h0a1.66,1.66,0,0,1,2.34.35h0a1.66,1.66,0,0,1-.34,2.32h0a1.68,1.68,0,0,1-1,.33h0A1.69,1.69,0,0,1,242.4,65.09Zm-58.6-3.91a1.66,1.66,0,0,1,0-2.36h0a1.65,1.65,0,0,1,2.35,0h0a1.67,1.67,0,0,1,0,2.36h0a1.67,1.67,0,0,1-1.19.5h0A1.68,1.68,0,0,1,183.8,61.18ZM238.93,61a1.66,1.66,0,0,1,0-2.36h0a1.67,1.67,0,0,1,2.37,0h0a1.69,1.69,0,0,1,0,2.36h0a1.73,1.73,0,0,1-1.19.49h0A1.64,1.64,0,0,1,238.93,61Zm-51.11-3.72a1.66,1.66,0,0,1,.32-2.34h0a1.68,1.68,0,0,1,2.34.31h0a1.68,1.68,0,0,1-.32,2.35h0a1.69,1.69,0,0,1-1,.33h0A1.67,1.67,0,0,1,187.82,57.32Zm47.08.21h0a1.66,1.66,0,0,1-.34-2.34h0a1.67,1.67,0,0,1,2.34-.32h0a1.68,1.68,0,0,1,.34,2.34h0a1.7,1.7,0,0,1-1.34.65h0A1.65,1.65,0,0,1,234.9,57.53Zm-42.54-3.46A1.66,1.66,0,0,1,193,51.8h0a1.66,1.66,0,0,1,2.27.65h0a1.68,1.68,0,0,1-.64,2.28h0a1.84,1.84,0,0,1-.82.2h0A1.64,1.64,0,0,1,192.36,54.07Zm38.06.57a1.68,1.68,0,0,1-.66-2.27h0a1.69,1.69,0,0,1,2.28-.66h0a1.67,1.67,0,0,1,.65,2.27h0a1.67,1.67,0,0,1-1.47.87h0A1.71,1.71,0,0,1,230.42,54.64Zm-33.11-3.13a1.68,1.68,0,0,1,1-2.16h0a1.68,1.68,0,0,1,2.15,1h0a1.66,1.66,0,0,1-1,2.15h0a1.51,1.51,0,0,1-.59.11h0A1.68,1.68,0,0,1,197.31,51.51Zm28.27.9h0a1.65,1.65,0,0,1-1-2.14h0a1.69,1.69,0,0,1,2.15-1h0a1.7,1.7,0,0,1,1,2.16h0a1.68,1.68,0,0,1-1.57,1.08h0A1.49,1.49,0,0,1,225.58,52.41Zm-23-2.73a1.66,1.66,0,0,1,1.26-2h0a1.68,1.68,0,0,1,2,1.28h0a1.66,1.66,0,0,1-1.27,2h0a1.2,1.2,0,0,1-.36,0h0A1.67,1.67,0,0,1,202.58,49.68Zm17.88,1.24a1.66,1.66,0,0,1-1.28-2h0a1.66,1.66,0,0,1,2-1.28h0a1.67,1.67,0,0,1,1.28,2h0A1.66,1.66,0,0,1,220.82,51h0Zm-12.4-2.28a1.65,1.65,0,0,1,1.54-1.78h0a1.67,1.67,0,0,1,1.79,1.53h0a1.69,1.69,0,0,1-1.55,1.8h-.12A1.66,1.66,0,0,1,208.06,48.64Zm7.11,1.53a1.65,1.65,0,0,1-1.54-1.78h0a1.65,1.65,0,0,1,1.78-1.54h0A1.66,1.66,0,0,1,217,48.63h0a1.65,1.65,0,0,1-1.66,1.54h-.13Z" transform="translate(-96.12 -46.84)"/><path d="M246.75,70.47a1.67,1.67,0,0,1-1.67-1.67,1.72,1.72,0,0,1,.49-1.18,1.74,1.74,0,0,1,2.36,0,1.72,1.72,0,0,1,.49,1.18,1.67,1.67,0,0,1-1.67,1.67Z" transform="translate(-96.12 -46.84)"/><path d="M212.6,378.36c-64.23,0-116.48-63.14-116.48-140.75a164.29,164.29,0,0,1,15.08-69.33,1.82,1.82,0,0,1,3.3,1.55,160.53,160.53,0,0,0-14.74,67.78c0,75.6,50.62,137.11,112.84,137.11s112.84-61.51,112.84-137.11a160.52,160.52,0,0,0-14.72-67.74,1.82,1.82,0,0,1,3.3-1.54,164.24,164.24,0,0,1,15.06,69.28C329.08,315.22,276.83,378.36,212.6,378.36Z" transform="translate(-96.12 -46.84)"/><path d="M212.6,346.72c-46.86,0-85-48.4-85-107.89s38.13-107.89,85-107.89,85,48.4,85,107.89S259.46,346.72,212.6,346.72Zm0-214c-45.86,0-83.17,47.58-83.17,106.07S166.74,344.9,212.6,344.9s83.17-47.59,83.17-106.07S258.46,132.76,212.6,132.76Z" transform="translate(-96.12 -46.84)"/><path d="M167.48,346.8a.33.33,0,0,1,.22,0,.3.3,0,0,1,.13.12.22.22,0,0,1,0,.16.19.19,0,0,1-.15.12c-.33.1-.77.24-1.32.43s-1.18.38-1.86.55a22.52,22.52,0,0,1-2.23.45,12.14,12.14,0,0,1-2.41.12,10.07,10.07,0,0,1-2.42-.42,6.84,6.84,0,0,1-2.24-1.19,1.31,1.31,0,0,1-.47-.67,2.17,2.17,0,0,1-.07-.85,3.41,3.41,0,0,1,.27-.92,4.32,4.32,0,0,1,.54-.89,4.09,4.09,0,0,1,1.07-.9,18.54,18.54,0,0,1,1.71-.94c.65-.31,1.35-.62,2.11-.93s1.52-.61,2.29-.9,1.52-.59,2.26-.86,1.4-.54,2-.79,1.11-.48,1.52-.69a2.49,2.49,0,0,0,.81-.56s.11,0,.21.12a1.74,1.74,0,0,1,.28.51,2.14,2.14,0,0,1,.11.7,1.19,1.19,0,0,1-.25.73,1.63,1.63,0,0,1-.49.32c-.25.11-.55.24-.9.37s-.74.28-1.17.42l-1.29.4c-1,.31-2.15.63-3.41,1a4.16,4.16,0,0,1,1-.1,5.41,5.41,0,0,1,.92.12,2.51,2.51,0,0,1,.93.45,1.55,1.55,0,0,1,.55.74,1.59,1.59,0,0,1,0,.78,2.5,2.5,0,0,1-.28.76,5,5,0,0,1-.46.7,4.89,4.89,0,0,1-1.07,1,10.06,10.06,0,0,1-1.49.82,13.18,13.18,0,0,1-1.74.6,9.78,9.78,0,0,1-1.83.33,2.58,2.58,0,0,0,1.17.3,10.48,10.48,0,0,0,1.55-.06c.55-.07,1.13-.17,1.72-.3s1.16-.26,1.69-.41l1.45-.41Zm-11.72-.37a1.59,1.59,0,0,0,.74.18,8,8,0,0,0,1.33-.06,14.84,14.84,0,0,0,1.67-.3,12.53,12.53,0,0,0,1.77-.56,10.55,10.55,0,0,0,1.64-.84,5.2,5.2,0,0,0,1.27-1.14,1.58,1.58,0,0,0,.17-.29,2,2,0,0,0,.11-.32.64.64,0,0,0,0-.31.45.45,0,0,0-.16-.25,1.72,1.72,0,0,0-1-.27,7.35,7.35,0,0,0-1.52.17,15.47,15.47,0,0,0-1.76.47,16,16,0,0,0-1.73.67,12.93,12.93,0,0,0-1.45.75,3.42,3.42,0,0,0-.89.72,2,2,0,0,0-.39.76A.57.57,0,0,0,155.76,346.43Z" transform="translate(-96.12 -46.84)"/><path d="M175.85,351.83a.33.33,0,0,1,.24,0,.25.25,0,0,1,.15.11.2.2,0,0,1,0,.15.23.23,0,0,1-.14.13,12.52,12.52,0,0,1-2.2.92,21,21,0,0,1-2.54.63c-.89.17-1.81.3-2.77.4s-1.91.16-2.86.21c-.84.38-1.7.75-2.57,1.11s-1.73.69-2.57,1-1.64.56-2.42.78a20.23,20.23,0,0,1-2.16.49,8.59,8.59,0,0,1-1.76.11,2.65,2.65,0,0,1-1.26-.35,1.92,1.92,0,0,1-1-1.24,2,2,0,0,1,.36-1.42,1.66,1.66,0,0,1,1.07-.63,10.08,10.08,0,0,1,2-.27c.8-.05,1.7-.06,2.72,0l3.28,0c.86-.31,1.7-.62,2.49-.93l2.12-.83,2-.82-.7.25-1,.34c-.39.11-.8.23-1.23.33a10.18,10.18,0,0,1-1.27.21,5.91,5.91,0,0,1-1.19,0,2.14,2.14,0,0,1-1-.31,1,1,0,0,1-.52-.78,1.7,1.7,0,0,1,.3-1,2.64,2.64,0,0,1,.82-.75,13.62,13.62,0,0,1,1.35-.75l1.63-.78c.58-.27,1.14-.54,1.68-.83a15.23,15.23,0,0,0,1.5-.89,4.75,4.75,0,0,0,1.08-1s.12,0,.25.07a1.31,1.31,0,0,1,.37.4,1.46,1.46,0,0,1,.24.6,1,1,0,0,1-.15.71,3.27,3.27,0,0,1-1,.86,15.14,15.14,0,0,1-1.57.9c-.57.3-1.17.58-1.78.86s-1.15.54-1.61.78a6.14,6.14,0,0,0-1,.66c-.22.19-.25.34-.07.45a1.37,1.37,0,0,0,.85.13,7.88,7.88,0,0,0,1.34-.22c.5-.12,1.06-.28,1.66-.48l1.82-.63,1.79-.67c.58-.23,1.12-.43,1.61-.6a5,5,0,0,0,.73-.61c.24-.25.43-.46.58-.65s.11,0,.24.07a1.36,1.36,0,0,1,.39.4,1.5,1.5,0,0,1,.24.61.92.92,0,0,1-.16.7,2.51,2.51,0,0,1-.68.53c-.4.25-.93.57-1.58.93s-1.39.78-2.25,1.21-1.75.89-2.72,1.35a39.85,39.85,0,0,0,4.48-.61A21.89,21.89,0,0,0,175.85,351.83ZM153.06,356a1.47,1.47,0,0,0,.91.09,12.82,12.82,0,0,0,1.59-.28q.93-.21,2-.57l2.3-.75h-2.62c-.81,0-1.52,0-2.14.05a9.19,9.19,0,0,0-1.53.18,1.12,1.12,0,0,0-.75.38.8.8,0,0,0-.13.32.58.58,0,0,0,.05.29A.59.59,0,0,0,153.06,356Z" transform="translate(-96.12 -46.84)"/><path d="M202.34,358.23a6.75,6.75,0,0,1,2.06,1.15,5.09,5.09,0,0,1,.69.7,3.65,3.65,0,0,1,.84,2,3.73,3.73,0,0,1-.08,1.27,6.08,6.08,0,0,1-.81,2,8.61,8.61,0,0,1-1.4,1.7,11.28,11.28,0,0,1-1.81,1.39,11.14,11.14,0,0,1-2,1,9.72,9.72,0,0,1-2.07.49,6,6,0,0,1-1.91-.08,3,3,0,0,1-1.08-.47,3.57,3.57,0,0,1-.86-.83,3,3,0,0,1-.5-1.11,2.9,2.9,0,0,1,0-1.31,2.43,2.43,0,0,1,.39-.87,4,4,0,0,1,.71-.78,6.67,6.67,0,0,1,.91-.63,5.53,5.53,0,0,1,1-.44,4.87,4.87,0,0,1,1-.23,2.49,2.49,0,0,1,.87,0,1.83,1.83,0,0,1,.66.24,1,1,0,0,1,.31.29.42.42,0,0,1,.09.29,1.3,1.3,0,0,1,0,.23c0,.12-.14.14-.33.07a4.49,4.49,0,0,0-.64-.18,2.65,2.65,0,0,0-1.18,0,4.61,4.61,0,0,0-1.24.52,4.38,4.38,0,0,0-1,.88,2.64,2.64,0,0,0-.59,1.15,1.44,1.44,0,0,0,0,.81,1.5,1.5,0,0,0,.41.58,2,2,0,0,0,.62.39,5.23,5.23,0,0,0,.71.22,3,3,0,0,0,1.15,0,6.47,6.47,0,0,0,1.46-.41,9.54,9.54,0,0,0,1.56-.79,8.21,8.21,0,0,0,1.47-1.17,8.48,8.48,0,0,0,1.2-1.51,5.86,5.86,0,0,0,.73-1.85,4.67,4.67,0,0,0,.11-1.74,3.09,3.09,0,0,0-.43-1.2,2.71,2.71,0,0,0-.75-.79,5.17,5.17,0,0,0-.87-.45,5.41,5.41,0,0,0-.78-.23l-.49-.1a1.61,1.61,0,0,0-.37,0h-.31a.26.26,0,0,1-.17-.1c0-.05,0-.15,0-.29s.16-.12.43-.14l1-.12a12.94,12.94,0,0,0,1.32-.22,5.65,5.65,0,0,0,1.38-.48,4.28,4.28,0,0,0,1.18-.88,2.9,2.9,0,0,0,.7-1.4,4,4,0,0,0,.09-.86,2.45,2.45,0,0,0-.14-.85,1.85,1.85,0,0,0-.46-.72,1.78,1.78,0,0,0-.88-.43,9.15,9.15,0,0,0-5.62.48,6,6,0,0,0-1.76,1.13,2.46,2.46,0,0,0-.79,1.18,1,1,0,0,0,.07.83.74.74,0,0,0,.46.33,1.49,1.49,0,0,0,.93-.1,5.65,5.65,0,0,0,.91-.55c.3-.24.61-.5.92-.78a9.7,9.7,0,0,1,1-.77,4,4,0,0,1,1-.53,1.86,1.86,0,0,1,1.07-.07,1.83,1.83,0,0,1,.62.25,2.32,2.32,0,0,1,.39.35.57.57,0,0,1,.16.29c0,.08,0,.11-.1.1a1.43,1.43,0,0,0-1.16.49,17.48,17.48,0,0,0-1.58,1.61l-2,2.33c-.74.88-1.55,1.75-2.42,2.64a30.76,30.76,0,0,1-2.87,2.54,17.31,17.31,0,0,1-3.3,2,14,14,0,0,1-3.76,1.14,11.3,11.3,0,0,1-4.19-.18,8.81,8.81,0,0,1-2.81-1.08,6.34,6.34,0,0,1-1.88-1.75,5.57,5.57,0,0,1-.91-2.27,7,7,0,0,1,.09-2.68,6,6,0,0,1,.75-1.81,9,9,0,0,1,1.29-1.62,10.23,10.23,0,0,1,1.65-1.35,12,12,0,0,1,1.81-1,7.34,7.34,0,0,1,1.78-.53,3.88,3.88,0,0,1,1.56,0,2.86,2.86,0,0,1,1.13.44,1.66,1.66,0,0,1,.53.58,1,1,0,0,1,.13.58,2.47,2.47,0,0,1-.06.47.23.23,0,0,1-.19.21.89.89,0,0,1-.38,0,4.33,4.33,0,0,1-.52-.16,4.69,4.69,0,0,0-.58-.17,3.44,3.44,0,0,0-1.36,0,6.17,6.17,0,0,0-1.47.45,8.53,8.53,0,0,0-1.48.85,8.32,8.32,0,0,0-1.33,1.18,8.78,8.78,0,0,0-1.05,1.45,6,6,0,0,0-.63,1.64,4.87,4.87,0,0,0,0,1.9,4.48,4.48,0,0,0,.73,1.73,5.4,5.4,0,0,0,1.49,1.39,6.91,6.91,0,0,0,2.25.88,5.88,5.88,0,0,0,2.47,0,11.73,11.73,0,0,0,2.6-.92,19.38,19.38,0,0,0,2.58-1.55c.86-.61,1.66-1.24,2.42-1.9a46.7,46.7,0,0,0,5.34-5.43,2.16,2.16,0,0,1-.48.24,2,2,0,0,1-.54.12,1.69,1.69,0,0,1-.63,0,2,2,0,0,1-1.33-.77,1.81,1.81,0,0,1-.17-1.38,2.17,2.17,0,0,1,.6-1.05,4.87,4.87,0,0,1,1.19-.89,9,9,0,0,1,1.63-.68,12.44,12.44,0,0,1,1.87-.44,10.5,10.5,0,0,1,1.94-.15,8.62,8.62,0,0,1,1.86.2,5.6,5.6,0,0,1,1.58.59,4,4,0,0,1,1,.9,2.59,2.59,0,0,1,.52,1.1,2.93,2.93,0,0,1,0,1.18,2.37,2.37,0,0,1-.37.86,4.09,4.09,0,0,1-.61.7,5.46,5.46,0,0,1-.78.55,9.25,9.25,0,0,1-.83.42A10.6,10.6,0,0,1,202.34,358.23Z" transform="translate(-96.12 -46.84)"/><path d="M216.87,361.11a.33.33,0,0,1,.2-.11.22.22,0,0,1,.18,0,.18.18,0,0,1,.09.13.26.26,0,0,1-.06.18l-.86,1.12c-.36.48-.78,1-1.25,1.55s-1,1.12-1.53,1.68a16.2,16.2,0,0,1-1.7,1.54,9.37,9.37,0,0,1-1.77,1.1,3.76,3.76,0,0,1-1.75.39,2.43,2.43,0,0,1-.77-.18,2.58,2.58,0,0,1-.77-.51,2.55,2.55,0,0,1-.58-.88,2.89,2.89,0,0,1-.18-1.26,4.31,4.31,0,0,1,.3-1.38,8.21,8.21,0,0,1,.75-1.56,10.57,10.57,0,0,1,1.14-1.52,8.39,8.39,0,0,1,1.44-1.3,7.12,7.12,0,0,1,1.67-.9,4.8,4.8,0,0,1,1.84-.29,1.6,1.6,0,0,1,1.16.39,1.22,1.22,0,0,1,.26.88,2.78,2.78,0,0,1-.48,1.45,4.26,4.26,0,0,1-1.21,1.18,6.34,6.34,0,0,1-1.76.81,7.65,7.65,0,0,1-2.12.28,10.6,10.6,0,0,0-.59,1.48,4.81,4.81,0,0,0-.24,1.29,1.52,1.52,0,0,0,.19.92.85.85,0,0,0,.74.38,2.35,2.35,0,0,0,1.22-.4,10.49,10.49,0,0,0,1.48-1.09c.51-.44,1-.93,1.55-1.47s1-1.07,1.46-1.59.85-1,1.2-1.4S216.72,361.31,216.87,361.11Zm-3.43-1.31a2,2,0,0,0-1,.24,4.7,4.7,0,0,0-1,.72,6.86,6.86,0,0,0-1,1.08,11.2,11.2,0,0,0-.87,1.29,4.66,4.66,0,0,0,1.57-.22,5,5,0,0,0,1.25-.61,4.45,4.45,0,0,0,.9-.8,3.37,3.37,0,0,0,.5-.81,1,1,0,0,0,.07-.63A.37.37,0,0,0,213.44,359.8Z" transform="translate(-96.12 -46.84)"/><path d="M218.57,367.29a1.37,1.37,0,0,0,.73-.43,10.59,10.59,0,0,0,1-1.06c.37-.43.74-.9,1.12-1.42s.75-1,1.09-1.52.65-1,.93-1.37.48-.72.63-.93a.3.3,0,0,1,.35-.14.19.19,0,0,1,.11.12.22.22,0,0,1,0,.2l-.75,1.19c-.32.51-.68,1.06-1.07,1.65s-.81,1.18-1.26,1.79-.89,1.16-1.33,1.66a10.89,10.89,0,0,1-1.28,1.22,1.93,1.93,0,0,1-1.09.51,1.22,1.22,0,0,1-.83-.2,1.59,1.59,0,0,1-.42-.53,2.42,2.42,0,0,1-.18-.81,4,4,0,0,1,.2-1.54,10.89,10.89,0,0,1,.56-1.29q.32-.6.57-1.17a2.53,2.53,0,0,0,.22-1.18.6.6,0,0,0-.16-.38,2.5,2.5,0,0,0-.38-.28l-.48-.28a2.76,2.76,0,0,1-.48-.38,2,2,0,0,1-.39-.57,2.34,2.34,0,0,1-.19-.88,2.47,2.47,0,0,1,.17-1,3,3,0,0,1,.55-.88,2.76,2.76,0,0,1,.8-.6,2.31,2.31,0,0,1,.94-.25.67.67,0,0,1,.39.08.32.32,0,0,1,.17.24.85.85,0,0,1-.16.45l-.38.57a3.57,3.57,0,0,0-.37.7,2.28,2.28,0,0,0,0,1.71,1.5,1.5,0,0,0,.38.5,2.55,2.55,0,0,0,.5.3,3.19,3.19,0,0,1,.49.24,1.66,1.66,0,0,1,.38.31,1,1,0,0,1,.17.51,2.06,2.06,0,0,1-.19.78c-.13.33-.29.69-.47,1.08s-.38.79-.56,1.19a8.31,8.31,0,0,0-.43,1.08,1.69,1.69,0,0,0-.09.79Q218.15,367.32,218.57,367.29Z" transform="translate(-96.12 -46.84)"/><path d="M228.5,367.58a1.19,1.19,0,0,1-.84-.11,1.41,1.41,0,0,1-.49-.48,1.85,1.85,0,0,1-.27-.79,3.55,3.55,0,0,1,.14-1.55,11.36,11.36,0,0,1,.65-1.72c.26-.58.55-1.15.85-1.7s.56-1,.76-1.45a3.23,3.23,0,0,0,.36-1c0-.23-.09-.33-.36-.29a1.59,1.59,0,0,0-.77.51,9.79,9.79,0,0,0-.92,1.16c-.33.48-.67,1-1,1.61s-.69,1.19-1,1.81-.66,1.22-1,1.81-.6,1.11-.86,1.57-.48.83-.66,1.12-.32.43-.41.45a1.29,1.29,0,0,1-.44,0,1.44,1.44,0,0,1-.38-.15,1.17,1.17,0,0,1-.26-.18c-.06-.06-.1-.11-.1-.15a3.23,3.23,0,0,1,.24-.64c.17-.39.37-.9.62-1.51s.52-1.29.8-2,.54-1.48.78-2.2a20.42,20.42,0,0,0,.54-2,3.92,3.92,0,0,0,.1-1.47s.07-.07.22-.09a1.4,1.4,0,0,1,.52,0,1.58,1.58,0,0,1,.56.29,1,1,0,0,1,.34.6,2.91,2.91,0,0,1-.06,1,9.84,9.84,0,0,1-.3,1.13c-.11.37-.21.68-.3.94s-.11.4-.08.39a1.53,1.53,0,0,0,.25-.37l.57-.94c.23-.37.5-.78.8-1.21a14.77,14.77,0,0,1,1-1.25,7.71,7.71,0,0,1,1.07-1,2.44,2.44,0,0,1,1.07-.51,1,1,0,0,1,.87.21,1.75,1.75,0,0,1,.41.94,2.58,2.58,0,0,1-.07,1,8.33,8.33,0,0,1-.39,1.2c-.16.43-.36.86-.57,1.31l-.63,1.3-.58,1.18a6.65,6.65,0,0,0-.38.95,1.11,1.11,0,0,0,0,.61c0,.14.18.19.4.16a1.4,1.4,0,0,0,.69-.51,11.12,11.12,0,0,0,.87-1.17q.48-.69,1-1.53c.33-.56.63-1.1.92-1.63l.77-1.46q.33-.66.51-1a.3.3,0,0,1,.16-.17.41.41,0,0,1,.19,0,.15.15,0,0,1,.11.11.29.29,0,0,1,0,.2l-.62,1.27c-.26.54-.56,1.12-.88,1.75s-.68,1.26-1.06,1.92-.76,1.25-1.14,1.79a10.29,10.29,0,0,1-1.12,1.36A2,2,0,0,1,228.5,367.58Z" transform="translate(-96.12 -46.84)"/><path d="M243.89,355.42a.28.28,0,0,1,.15-.18.39.39,0,0,1,.18,0,.15.15,0,0,1,.12.1.23.23,0,0,1,0,.2l-.47,1.34c-.2.58-.42,1.19-.68,1.86s-.53,1.35-.83,2.05-.61,1.34-.92,1.92a10.78,10.78,0,0,1-.92,1.49,2,2,0,0,1-.88.74,1.16,1.16,0,0,1-.87,0,1.31,1.31,0,0,1-.5-.46,2.34,2.34,0,0,1-.29-.8,4.67,4.67,0,0,1-.43,1,4.08,4.08,0,0,1-.57.78,1.83,1.83,0,0,1-.82.51,2.27,2.27,0,0,1-.76.09,2.17,2.17,0,0,1-.84-.21,2.41,2.41,0,0,1-.77-.61,3.23,3.23,0,0,1-.57-1.13,5.23,5.23,0,0,1-.17-1.41,8.92,8.92,0,0,1,.2-1.73,11.33,11.33,0,0,1,.56-1.84,9.07,9.07,0,0,1,.93-1.74A7.49,7.49,0,0,1,236,356a4.63,4.63,0,0,1,1.64-.87,1.75,1.75,0,0,1,.82-.09,1.25,1.25,0,0,1,.63.25,1.67,1.67,0,0,1,.46.52,3.12,3.12,0,0,1,.32.74,2.76,2.76,0,0,1,.09.94h.33l.35.05a1.42,1.42,0,0,1,.28.07c.08,0,.13.06.14.11a2,2,0,0,1-.15.5c-.11.31-.25.68-.4,1.12s-.31.9-.45,1.4-.26.95-.34,1.35a2.53,2.53,0,0,0,0,1c0,.24.2.32.44.25a1.35,1.35,0,0,0,.62-.6,11.26,11.26,0,0,0,.72-1.26c.25-.5.5-1,.75-1.64s.49-1.18.7-1.74.41-1.08.58-1.55S243.81,355.66,243.89,355.42Zm-7.82,9.68a1.72,1.72,0,0,0,.79-.6,6.47,6.47,0,0,0,.68-1.15q.32-.68.6-1.47c.18-.52.36-1,.52-1.54l-.32-.22a.79.79,0,0,1-.16-.15,1.61,1.61,0,0,1,.14-.33,5.1,5.1,0,0,0,.3-.74,6.53,6.53,0,0,0,.24-1,2.58,2.58,0,0,0-.08-1.07,1.1,1.1,0,0,0-.33-.55.55.55,0,0,0-.56-.09,2.73,2.73,0,0,0-1.4,1,7.32,7.32,0,0,0-1,1.84,10.43,10.43,0,0,0-.53,2.17,9.75,9.75,0,0,0-.1,2,3.6,3.6,0,0,0,.37,1.44A.66.66,0,0,0,236.07,365.1Z" transform="translate(-96.12 -46.84)"/><path d="M253.32,350.91a.31.31,0,0,1,.12-.21.43.43,0,0,1,.18-.06.2.2,0,0,1,.13.08.26.26,0,0,1,0,.2c-.07.33-.17.8-.29,1.39s-.28,1.24-.46,1.93-.36,1.41-.57,2.15a20.91,20.91,0,0,1-.69,2A12,12,0,0,1,251,360a1.94,1.94,0,0,1-.77.84,1.15,1.15,0,0,1-.65.12.94.94,0,0,1-.48-.19,1.07,1.07,0,0,1-.33-.34,2.8,2.8,0,0,1-.2-.37l-.09-.2a.29.29,0,0,1,0-.09,4.43,4.43,0,0,1-.3,1.07,3.94,3.94,0,0,1-.47.84,1.87,1.87,0,0,1-.75.62,2.59,2.59,0,0,1-.74.18,2.14,2.14,0,0,1-.86-.1,2.38,2.38,0,0,1-.84-.52,3.1,3.1,0,0,1-.7-1,4.64,4.64,0,0,1-.35-1.38,9.23,9.23,0,0,1,0-1.75,9.36,9.36,0,0,1,.33-1.9,9,9,0,0,1,.7-1.83,6.92,6.92,0,0,1,1.09-1.56,4.47,4.47,0,0,1,1.52-1.09,1.76,1.76,0,0,1,1.3-.14,1.25,1.25,0,0,1,.74.66c.17-1,.32-2,.46-3s.24-1.83.32-2.61.13-1.44.14-2a3,3,0,0,0-.1-1.08q-.11-.24.12-.3a1.09,1.09,0,0,1,.57,0,2.42,2.42,0,0,1,.7.29,1.39,1.39,0,0,1,.51.57,2.51,2.51,0,0,1,0,1c-.05.52-.14,1.17-.27,1.92s-.27,1.6-.44,2.53-.33,1.87-.49,2.8-.3,1.85-.42,2.73-.22,1.67-.26,2.33a6.64,6.64,0,0,0,0,1.59c.06.4.2.57.42.52l0,0s0,0,.05,0a1.35,1.35,0,0,0,.55-.67,10.05,10.05,0,0,0,.56-1.35c.19-.53.37-1.1.55-1.73s.35-1.22.5-1.81.28-1.12.39-1.6S253.27,351.15,253.32,350.91Zm-4.7,5.47-.3-.07a1.13,1.13,0,0,1-.22-.11.36.36,0,0,1-.15-.15,1.24,1.24,0,0,1,.14-.34,3.89,3.89,0,0,0,.3-.75,5.47,5.47,0,0,0,.2-1,2,2,0,0,0-.17-1,1,1,0,0,0-.4-.51.56.56,0,0,0-.56,0,2.69,2.69,0,0,0-1.26,1.2,7.31,7.31,0,0,0-.74,1.95,10.87,10.87,0,0,0-.26,2.22,10.38,10.38,0,0,0,.16,2,3.42,3.42,0,0,0,.54,1.38.66.66,0,0,0,.87.27,1.52,1.52,0,0,0,.56-.47,4,4,0,0,0,.46-.8,7.85,7.85,0,0,0,.37-1c.11-.38.22-.79.31-1.21,0-.24.05-.49.07-.75S248.59,356.67,248.62,356.38Z" transform="translate(-96.12 -46.84)"/><path d="M260.16,346.46a.35.35,0,0,1,.1-.2.25.25,0,0,1,.17-.08.16.16,0,0,1,.14.07.24.24,0,0,1,.05.18c0,.34-.08.81-.13,1.4s-.12,1.26-.22,2-.23,1.47-.39,2.24a16.23,16.23,0,0,1-.61,2.21,9.92,9.92,0,0,1-.9,1.88,3.72,3.72,0,0,1-1.27,1.26,2.29,2.29,0,0,1-.75.26,2.43,2.43,0,0,1-.93,0,2.6,2.6,0,0,1-.95-.43,3,3,0,0,1-.84-1,4.88,4.88,0,0,1-.49-1.33,8.37,8.37,0,0,1-.19-1.71,10.45,10.45,0,0,1,.14-1.9,8.91,8.91,0,0,1,.52-1.87,7.4,7.4,0,0,1,.93-1.65,4.72,4.72,0,0,1,1.4-1.23,1.58,1.58,0,0,1,1.18-.3,1.29,1.29,0,0,1,.7.61,2.73,2.73,0,0,1,.37,1.47,4.22,4.22,0,0,1-.39,1.65,6.26,6.26,0,0,1-1.05,1.63,7.37,7.37,0,0,1-1.64,1.37,10.29,10.29,0,0,0,.29,1.56,5.33,5.33,0,0,0,.49,1.23,1.61,1.61,0,0,0,.66.68.85.85,0,0,0,.82-.08,2.38,2.38,0,0,0,.82-1,10.7,10.7,0,0,0,.67-1.71c.2-.64.37-1.34.52-2.07s.27-1.45.38-2.12.19-1.29.26-1.83S260.13,346.71,260.16,346.46Zm-3.6.73a2,2,0,0,0-.74.75,4.86,4.86,0,0,0-.48,1.16,7.72,7.72,0,0,0-.24,1.44,11.42,11.42,0,0,0,0,1.55,4.63,4.63,0,0,0,1.2-1,4.9,4.9,0,0,0,.73-1.19,3.93,3.93,0,0,0,.33-1.16,3,3,0,0,0,0-1,1,1,0,0,0-.27-.57A.39.39,0,0,0,256.56,347.19Z" transform="translate(-96.12 -46.84)"/><path d="M267.19,335.36c.05.08,0,.3-.28.68a12.9,12.9,0,0,1-1,1.41c-.45.56-1,1.18-1.67,1.86a28.73,28.73,0,0,1-2.18,2q0,1.26,0,2.64c0,.92,0,1.81.08,2.66s.11,1.66.2,2.4a10.62,10.62,0,0,0,.35,1.87,2.31,2.31,0,0,0,.57,1.07c.22.2.5.19.83,0a1.36,1.36,0,0,0,.39-.56,7,7,0,0,0,.31-1c.1-.39.19-.84.27-1.33s.14-1,.19-1.49.1-1,.14-1.53.08-1,.1-1.44,0-.84.06-1.19,0-.62,0-.81a.4.4,0,0,1,.08-.21.29.29,0,0,1,.16-.09.23.23,0,0,1,.15.05.21.21,0,0,1,.07.18c0,.35,0,.82,0,1.42s0,1.26-.08,2-.1,1.46-.17,2.22a21.33,21.33,0,0,1-.34,2.14,10.36,10.36,0,0,1-.52,1.77,2.39,2.39,0,0,1-.77,1.08,2.14,2.14,0,0,1-1,.4,2,2,0,0,1-.86-.1,2.18,2.18,0,0,1-.69-.41,3.41,3.41,0,0,1-.46-.51,3.79,3.79,0,0,1-.48-1.43c-.12-.67-.22-1.45-.29-2.34s-.12-1.86-.15-2.89-.06-2-.07-3.05a14.2,14.2,0,0,1-2.23,1.31,5.48,5.48,0,0,1-1.51.47,1.66,1.66,0,0,1-1-.14,1.58,1.58,0,0,1-.54-.48.47.47,0,0,1-.08-.47.8.8,0,0,1,.23-.31.47.47,0,0,1,.28,0,3,3,0,0,0,.7,0,5.25,5.25,0,0,0,1.17-.27,8,8,0,0,0,1.73-.83q.22-.12.45-.27l.48-.33.24-.16c0-.66,0-1.28,0-1.88s0-1.12-.05-1.58-.06-.84-.1-1.14a1.46,1.46,0,0,0-.15-.58c-.1-.14-.07-.25.06-.32a1,1,0,0,1,.56-.1,2.11,2.11,0,0,1,.75.16,1.28,1.28,0,0,1,.61.48,2.86,2.86,0,0,1,.19,1.18c0,.65.05,1.45.06,2.41.81-.63,1.49-1.2,2-1.71s1-.95,1.31-1.32.58-.67.75-.9a2.16,2.16,0,0,1,.35-.41c.16-.1.31-.19.45-.26S267.14,335.29,267.19,335.36Z" transform="translate(-96.12 -46.84)"/><path d="M271.87,330.89c.05.07,0,.3-.23.7a15.61,15.61,0,0,1-.94,1.48c-.42.59-.93,1.25-1.54,2a28.79,28.79,0,0,1-2,2.17c.07.83.14,1.71.22,2.63s.16,1.8.27,2.65.22,1.65.36,2.38a12.07,12.07,0,0,0,.48,1.84,2.39,2.39,0,0,0,.64,1c.24.19.51.16.83-.09a1.29,1.29,0,0,0,.35-.59,6.58,6.58,0,0,0,.24-1c.07-.41.13-.86.17-1.35s.07-1,.09-1.51,0-1,0-1.53,0-1,0-1.44,0-.84,0-1.19,0-.62,0-.81a.38.38,0,0,1,.06-.22.3.3,0,0,1,.15-.09.22.22,0,0,1,.16,0,.21.21,0,0,1,.08.17c0,.35.05.83.08,1.43s0,1.25.06,2,0,1.46,0,2.23a18.14,18.14,0,0,1-.18,2.16,10.44,10.44,0,0,1-.4,1.8,2.33,2.33,0,0,1-.69,1.13,2.16,2.16,0,0,1-.95.47,1.91,1.91,0,0,1-.86,0,2.07,2.07,0,0,1-.71-.36,2.57,2.57,0,0,1-.5-.48,3.78,3.78,0,0,1-.58-1.39c-.17-.66-.32-1.43-.46-2.32s-.24-1.84-.35-2.86-.2-2-.29-3a13.8,13.8,0,0,1-2.13,1.47,5.42,5.42,0,0,1-1.47.56,1.56,1.56,0,0,1-1-.06,1.46,1.46,0,0,1-.58-.45.46.46,0,0,1-.11-.46.84.84,0,0,1,.2-.32s.13,0,.29,0a2.18,2.18,0,0,0,.7,0,5.33,5.33,0,0,0,1.15-.34,9,9,0,0,0,1.67-.95l.42-.31.46-.36.22-.17c-.05-.66-.11-1.29-.16-1.88s-.11-1.12-.16-1.57-.12-.83-.18-1.13a1.63,1.63,0,0,0-.19-.57c-.1-.13-.09-.24,0-.32a1.06,1.06,0,0,1,.55-.15,2.35,2.35,0,0,1,.76.12,1.26,1.26,0,0,1,.64.43,2.93,2.93,0,0,1,.27,1.16c.08.65.15,1.45.23,2.4.77-.68,1.4-1.3,1.91-1.85s.91-1,1.21-1.41.53-.71.68-.94a2,2,0,0,1,.33-.43,3.38,3.38,0,0,1,.43-.3C271.71,330.83,271.81,330.82,271.87,330.89Z" transform="translate(-96.12 -46.84)"/></svg>