<svg id="Layer_1" data-name="Layer 1" xmlns="http://www.w3.org/2000/svg" viewBox="0 0 308.82 121.29"><defs><style>.cls-1{fill:#231f20;}</style></defs><path d="M41.63,82.41H45l1.42,4.07h0l.6-2.2h0v2.41l-1.68,5.64H45l-2.77-8.21a2.64,2.64,0,0,0-.24-.57c-.12-.2-.17-.36-.4-.37s-.51,0-.51-.36S41.47,82.41,41.63,82.41Zm.56,3.35h0L43,88v2.29C43.17,91.9,44,91.38,44,92c0,.41-.54.38-.69.38H41.82c-.15,0-.69,0-.69-.38,0-.57.85,0,1.06-1.71Zm5.48-3.35h3.5c.06,0,.49,0,.49.41a.37.37,0,0,1-.29.36c-.46.14-.45.22-.45.71v7c0,.49,0,.57.45.71a.38.38,0,0,1,.29.36c0,.39-.43.41-.49.41H47.42c-.06,0-.49,0-.49-.41a.38.38,0,0,1,.29-.36c.46-.14.45-.22.45-.71Z" transform="translate(-7.78 -5.11)"/><path d="M53.18,82.41h3.5v9.92h-3.5c-.06,0-.5,0-.5-.41a.38.38,0,0,1,.29-.36c.47-.14.46-.22.46-.71v-7c0-.49,0-.57-.46-.71a.37.37,0,0,1-.29-.36C52.68,82.43,53.12,82.41,53.18,82.41Zm4.09,0h3V85.1c0,.07,0,.32-.41.32-.22,0-.29-.13-.36-.33a2.53,2.53,0,0,0-2.19-1.91Zm0,4.43a1.42,1.42,0,0,0,.93-1.17c.07-.22.15-.44.43-.44s.34.48.34.59v2.86c0,.11.07.59-.34.59s-.36-.21-.43-.44a1.43,1.43,0,0,0-.93-1.17Zm0,4.72a2.71,2.71,0,0,0,2.26-1.92c.09-.2.17-.41.41-.41a.38.38,0,0,1,.39.45v2.65H57.27Z" transform="translate(-7.78 -5.11)"/><path d="M25.59,66.49H29l1.42,4.07h0l.6-2.2h0v2.41l-1.68,5.64H29L26.19,68.2a3.25,3.25,0,0,0-.24-.57c-.12-.2-.17-.36-.4-.37s-.52,0-.52-.36S25.43,66.49,25.59,66.49Zm.56,3.35h0L26.92,72v2.29C27.13,76,28,75.46,28,76c0,.41-.54.38-.69.38H25.78c-.15,0-.69,0-.69-.38,0-.57.85-.06,1.06-1.71Zm5.48-3.35h3.5s.49,0,.49.41a.38.38,0,0,1-.29.36c-.46.14-.45.22-.45.71v7c0,.49,0,.57.45.71a.37.37,0,0,1,.29.36c0,.39-.44.41-.49.41H31.38c-.06,0-.49,0-.49-.41a.37.37,0,0,1,.29-.36c.46-.14.45-.22.45-.71Z" transform="translate(-7.78 -5.11)"/><path d="M40.74,74.93c0,.49,0,.57.45.71a.36.36,0,0,1,.29.36c0,.39-.43.41-.49.41H37.24c-.05,0-.49,0-.49-.41a.37.37,0,0,1,.29-.36c.46-.14.45-.22.45-.71V68c0-.49,0-.57-.45-.71a.38.38,0,0,1-.29-.36c0-.39.44-.41.49-.41H41c.06,0,.49,0,.49.41a.37.37,0,0,1-.29.36c-.46.14-.45.22-.45.71Z" transform="translate(-7.78 -5.11)"/><path d="M51.7,66.49h.07a5.86,5.86,0,0,1,2.56.35A2.29,2.29,0,0,1,55.68,69c0,1.53-1,2.19-2.33,2.51v0c1.18.17,2.31.51,2.33,1.92v1.17c0,.12,0,.38.14.38s.25-.38.57-.38a.44.44,0,0,1,.38.38,1.79,1.79,0,0,1-.73,1.1,2.15,2.15,0,0,1-1.5.48,2,2,0,0,1-1.5-.56,2.23,2.23,0,0,1-.53-1.68v-.9c0-.61,0-1.36-.81-1.44v-.78c.72-.07.81-.5.81-1.15V68.49a1.05,1.05,0,0,0-.81-1.22Z" transform="translate(-7.78 -5.11)"/><path d="M61,67.06a.89.89,0,0,0-.68,1v6.88a.89.89,0,0,0,.68,1v.77c-2.81-.25-4.13-2.52-4.13-5.16s1.32-4.91,4.13-5.16Zm.6,8.78a.88.88,0,0,0,.67-1V68a.88.88,0,0,0-.67-1v-.77c2.81.25,4.13,2.52,4.13,5.16s-1.32,4.91-4.13,5.16Z" transform="translate(-7.78 -5.11)"/><path d="M67.45,68c0-.49,0-.57-.45-.71a.38.38,0,0,1-.29-.36c0-.39.44-.41.49-.41h3.5v8.44c0,.49,0,.57.45.71a.37.37,0,0,1,.3.36c0,.39-.44.41-.49.41H67.2s-.49,0-.49-.41a.37.37,0,0,1,.29-.36c.47-.14.45-.22.45-.71Zm3.85-1.48h.07a5.86,5.86,0,0,1,2.56.35A2.29,2.29,0,0,1,75.28,69c0,1.53-1,2.19-2.33,2.51v0c1.18.17,2.3.51,2.33,1.92v1.17c0,.12,0,.38.13.38s.26-.38.57-.38a.44.44,0,0,1,.39.38,1.79,1.79,0,0,1-.73,1.1,2.15,2.15,0,0,1-1.5.48,2,2,0,0,1-1.5-.56,2.23,2.23,0,0,1-.53-1.68v-.9c0-.61,0-1.36-.81-1.44v-.78c.72-.07.81-.5.81-1.15V68.49a1.06,1.06,0,0,0-.81-1.22Z" transform="translate(-7.78 -5.11)"/><path d="M47.27,71.25c-.71-.07-.81-.5-.81-1.15V68.49a1.06,1.06,0,0,1,.81-1.22v-.78h-.06a5.82,5.82,0,0,0-2.56.35A2.31,2.31,0,0,0,43.29,69c0,1.53,1,2.19,2.34,2.51v0c-1.18.17-2.31.51-2.34,1.92v1.17c0,.12,0,.38-.13.38s-.25-.38-.57-.38a.45.45,0,0,0-.39.38,1.79,1.79,0,0,0,.73,1.1,2.15,2.15,0,0,0,1.5.48,2,2,0,0,0,1.5-.56,2.19,2.19,0,0,0,.53-1.68v-.9c0-.61,0-1.36.81-1.44Z" transform="translate(-7.78 -5.11)"/><path d="M51.57,75.64c-.46-.14-.45-.22-.45-.71V69.56h0V66.49H47.87v8.44c0,.49,0,.57-.45.71a.37.37,0,0,0-.29.36c0,.39.44.41.49.41h3.75c.06,0,.49,0,.49-.41A.37.37,0,0,0,51.57,75.64Z" transform="translate(-7.78 -5.11)"/><path d="M29,33.73a13.29,13.29,0,0,1-1.85.86c-1.19.43-2.47.86-3.72,1.27C17.14,37.94,10.6,40.1,11.6,45.29a3.25,3.25,0,0,0,2.33,2.62,4.28,4.28,0,0,0,1.13.15,3.16,3.16,0,0,0,2.21-.76,1.14,1.14,0,0,0,.29-1.18.54.54,0,0,0-.69-.34.53.53,0,0,0-.33.7A1.91,1.91,0,0,1,15,47a2.27,2.27,0,0,1-2.33-1.9c-.82-4.25,5.26-6.25,11.13-8.19,1.26-.41,2.55-.84,3.75-1.28a13.58,13.58,0,0,0,2-.93A1.79,1.79,0,0,1,29,33.73Z" transform="translate(-7.78 -5.11)"/><path d="M14,45.51a.21.21,0,0,0,.16-.08.21.21,0,0,0,.06-.17c-.18-2.88,2.36-3.9,10.4-6.69a32.88,32.88,0,0,0,5.12-2.2,2.22,2.22,0,0,1-.23-.43,32.23,32.23,0,0,1-5.05,2.18c-7.73,2.68-10.93,3.79-10.71,7.17a.22.22,0,0,0,.23.22v.31Z" transform="translate(-7.78 -5.11)"/><path d="M77.33,35.86c-1.17-.39-2.38-.79-3.51-1.2a1.85,1.85,0,0,1-1.36.16,1.43,1.43,0,0,1,.19.56l.59.23c1.2.44,2.5.87,3.75,1.28,5.87,1.94,12,3.94,11.13,8.19A2.27,2.27,0,0,1,85.79,47a1.86,1.86,0,0,1-1.53-.5.55.55,0,0,0-1-.36,1.14,1.14,0,0,0,.29,1.18,3.16,3.16,0,0,0,2.21.76,4.28,4.28,0,0,0,1.13-.15,3.23,3.23,0,0,0,2.33-2.62C90.19,40.1,83.65,37.94,77.33,35.86Z" transform="translate(-7.78 -5.11)"/><path d="M87,45.29c.22-3.38-3-4.49-10.71-7.17-1-.33-1.83-.67-2.63-1a2,2,0,0,1,0,.34,1.21,1.21,0,0,1,0,.19c.75.31,1.57.62,2.45.93,8,2.79,10.58,3.81,10.4,6.69a.21.21,0,0,0,.06.17.21.21,0,0,0,.16.08l0,.31v-.31A.22.22,0,0,0,87,45.29Z" transform="translate(-7.78 -5.11)"/><path d="M17.75,37.65a.58.58,0,0,1-.43-.18.6.6,0,0,1-.18-.43.62.62,0,0,1,.18-.44.64.64,0,0,1,.86,0,.63.63,0,0,1,.19.44.64.64,0,0,1-.18.43A.62.62,0,0,1,17.75,37.65Z" transform="translate(-7.78 -5.11)"/><path d="M16.85,35.1h0a.62.62,0,0,1,.55-.67h0a.6.6,0,0,1,.66.55h0a.6.6,0,0,1-.55.67h-.05A.6.6,0,0,1,16.85,35.1Zm.52-1.46a.61.61,0,0,1-.6-.62h0a.61.61,0,0,1,.62-.61h0A.62.62,0,0,1,18,33h0a.61.61,0,0,1-.61.61h0Zm.08-2a.62.62,0,0,1-.54-.68h0a.62.62,0,0,1,.69-.53h0a.6.6,0,0,1,.52.68h0a.6.6,0,0,1-.6.53h-.07Zm.28-2a.6.6,0,0,1-.45-.73h0a.62.62,0,0,1,.74-.46h0a.61.61,0,0,1,.45.74h0a.62.62,0,0,1-.59.47h0Zm.51-1.95a.62.62,0,0,1-.37-.78h0a.6.6,0,0,1,.78-.37h0a.6.6,0,0,1,.37.78h0a.6.6,0,0,1-.57.4h0A.76.76,0,0,1,18.24,27.67ZM19,25.78a.61.61,0,0,1-.28-.81h0a.61.61,0,0,1,.81-.29h0a.62.62,0,0,1,.29.82h0a.62.62,0,0,1-.56.34h0A.65.65,0,0,1,19,25.78Zm.92-1.8a.61.61,0,0,1-.19-.84h0a.61.61,0,0,1,.84-.19h0a.6.6,0,0,1,.19.84h0a.59.59,0,0,1-.51.29h0A.58.58,0,0,1,19.88,24ZM21,22.3a.62.62,0,0,1-.1-.86h0a.62.62,0,0,1,.86-.1h0a.62.62,0,0,1,.1.86h0a.62.62,0,0,1-.48.23h0A.6.6,0,0,1,21,22.3Zm1.29-1.56a.6.6,0,0,1,0-.86h0a.61.61,0,0,1,.86,0h0a.62.62,0,0,1,0,.87h0a.6.6,0,0,1-.43.18h0A.6.6,0,0,1,22.28,20.74Zm1.44-1.41a.6.6,0,0,1,.09-.85h0a.6.6,0,0,1,.86.09h0a.6.6,0,0,1-.09.85h0a.54.54,0,0,1-.38.14h0A.6.6,0,0,1,23.72,19.33Zm1.59-1.23a.61.61,0,0,1,.19-.85h0a.61.61,0,0,1,.84.18h0a.62.62,0,0,1-.18.85h0a.66.66,0,0,1-.33.09h0A.62.62,0,0,1,25.31,18.1ZM27,17a.62.62,0,0,1,.27-.82h0a.61.61,0,0,1,.82.27h0a.61.61,0,0,1-.27.82h0a.54.54,0,0,1-.27.07h0A.6.6,0,0,1,27,17Zm1.82-.87a.61.61,0,0,1,.36-.78h0a.61.61,0,0,1,.79.36h0a.62.62,0,0,1-.36.78h0a.57.57,0,0,1-.22,0h0A.61.61,0,0,1,28.85,16.16Zm1.91-.66a.6.6,0,0,1,.44-.74h0a.6.6,0,0,1,.74.44h0a.61.61,0,0,1-.44.74h0l-.15,0h0A.6.6,0,0,1,30.76,15.5Zm8.48.2h0a.61.61,0,0,1-.49-.71h0a.61.61,0,0,1,.72-.48h0a.61.61,0,0,1,.49.71h0a.62.62,0,0,1-.6.49h-.12Zm-6.52-.65a.63.63,0,0,1,.52-.7h0a.61.61,0,0,1,.69.53h0a.61.61,0,0,1-.52.69h-.08A.62.62,0,0,1,32.72,15.05Zm4.59.4h0a.61.61,0,0,1-.56-.66h0a.6.6,0,0,1,.65-.56h0a.61.61,0,0,1,.56.66h0a.6.6,0,0,1-.61.56h0Zm-2.58-.64a.61.61,0,0,1,.59-.63h0a.61.61,0,0,1,.63.59h0a.61.61,0,0,1-.59.63h0A.61.61,0,0,1,34.73,14.81Z" transform="translate(-7.78 -5.11)"/><path d="M41.34,16.2A.6.6,0,0,1,40.9,16a.61.61,0,0,1-.17-.43.61.61,0,0,1,1-.43.64.64,0,0,1,.18.43.57.57,0,0,1-.19.43A.56.56,0,0,1,41.34,16.2Z" transform="translate(-7.78 -5.11)"/><path d="M83,37.79a.67.67,0,0,1-.44-.18.63.63,0,0,1,0-.86.63.63,0,0,1,.87,0,.6.6,0,0,1,0,.86A.62.62,0,0,1,83,37.79Z" transform="translate(-7.78 -5.11)"/><path d="M83.26,35.79a.62.62,0,0,1-.55-.67h0a.62.62,0,0,1,.67-.55h0a.62.62,0,0,1,.55.67h0a.62.62,0,0,1-.61.55h-.06Zm-.46-2.63a.62.62,0,0,1,.61-.62h0a.61.61,0,0,1,.61.61h0a.61.61,0,0,1-.6.62h0A.62.62,0,0,1,82.8,33.16Zm-.12-2a.61.61,0,0,1,.53-.67h0a.61.61,0,0,1,.68.53h0a.61.61,0,0,1-.53.68h-.07A.62.62,0,0,1,82.68,31.2Zm-.33-1.92a.6.6,0,0,1,.46-.73h0a.6.6,0,0,1,.72.45h0a.6.6,0,0,1-.45.73h0a.36.36,0,0,1-.14,0h0A.6.6,0,0,1,82.35,29.28ZM81.8,27.4a.61.61,0,0,1,.38-.78h0A.61.61,0,0,1,83,27h0a.61.61,0,0,1-.38.78h0a.69.69,0,0,1-.2,0h0A.61.61,0,0,1,81.8,27.4Zm-.74-1.81a.61.61,0,0,1,.28-.82h0a.61.61,0,0,1,.82.29h0a.61.61,0,0,1-.29.81h0a.53.53,0,0,1-.27.06h0A.59.59,0,0,1,81.06,25.59Zm-1-1.72a.62.62,0,0,1,.2-.84h0a.61.61,0,0,1,.84.19h0a.62.62,0,0,1-.19.85h0a.66.66,0,0,1-.33.09h0A.64.64,0,0,1,80.11,23.87ZM79,22.26a.6.6,0,0,1,.11-.85h0a.6.6,0,0,1,.85.1h0a.62.62,0,0,1-.1.86h0a.65.65,0,0,1-.38.13h0A.6.6,0,0,1,79,22.26ZM77.7,20.79a.6.6,0,0,1,0-.86h0a.61.61,0,0,1,.87,0h0a.61.61,0,0,1,0,.86h0a.62.62,0,0,1-.42.18h0A.63.63,0,0,1,77.7,20.79Zm-1.44-1.33h0a.6.6,0,0,1-.09-.85h0a.63.63,0,0,1,.87-.09h0a.62.62,0,0,1,.09.86h0a.6.6,0,0,1-.47.22h0A.57.57,0,0,1,76.26,19.46ZM74.68,18.3a.61.61,0,0,1-.18-.84h0a.61.61,0,0,1,.85-.17h0a.61.61,0,0,1,.18.84h0a.63.63,0,0,1-.52.28h0A.59.59,0,0,1,74.68,18.3Zm-1.7-1a.62.62,0,0,1-.26-.83h0a.61.61,0,0,1,.82-.26h0a.61.61,0,0,1,.27.82h0a.62.62,0,0,1-.55.33h0A.71.71,0,0,1,73,17.33Zm-1.79-.79a.62.62,0,0,1-.35-.79h0a.61.61,0,0,1,.78-.36h0a.61.61,0,0,1,.36.79h0a.6.6,0,0,1-.57.4h0A.6.6,0,0,1,71.19,16.54ZM69.33,16a.6.6,0,0,1-.44-.74h0a.6.6,0,0,1,.74-.44h0a.61.61,0,0,1,.44.74h0a.62.62,0,0,1-.59.46h0Zm-8.49-.74a.62.62,0,0,1,.49-.71h0A.61.61,0,0,1,62,15h0a.6.6,0,0,1-.49.71h-.11A.62.62,0,0,1,60.84,15.21Zm6.57.36a.61.61,0,0,1-.52-.69h0a.6.6,0,0,1,.69-.52h0a.62.62,0,0,1,.52.69h0a.62.62,0,0,1-.61.53h-.08Zm-4.57-.69a.61.61,0,0,1,.56-.65h0a.61.61,0,0,1,.66.56h0a.61.61,0,0,1-.56.66h0A.61.61,0,0,1,62.84,14.88Zm2.61.53a.64.64,0,0,1-.59-.64h0a.63.63,0,0,1,.64-.59h0a.61.61,0,0,1,.59.63h0a.63.63,0,0,1-.61.6h0Z" transform="translate(-7.78 -5.11)"/><path d="M59.46,16.2A.57.57,0,0,1,59,16a.58.58,0,0,1-.18-.43.6.6,0,0,1,.18-.43.62.62,0,0,1,.86,0,.64.64,0,0,1,.18.43.62.62,0,0,1-.18.43A.6.6,0,0,1,59.46,16.2Z" transform="translate(-7.78 -5.11)"/><path d="M48.77,15.94a6.36,6.36,0,0,1,1.36-1l.33-.2a1.32,1.32,0,0,1,.68-.23,2.33,2.33,0,0,1,.59.07l.17,0a3.47,3.47,0,0,1,1.18.42,1.38,1.38,0,0,1,.54,1,7.24,7.24,0,0,1,.1.83,4.29,4.29,0,0,1,.81.14l.06,0a18.68,18.68,0,0,1,2,.32l.08,0c.09-.11.16-.2.22-.29.44-.59,1.08-1.7.52-2.47l-.15-.19a2,2,0,0,1-.45-.79s0-.08,0-.13c0-.24-.07-.28-.22-.28h-.2a2,2,0,0,1-.42,0,1.87,1.87,0,0,1-.52-.18l-.1,0a1.38,1.38,0,0,0-.63-.08l-1.51,0a1.75,1.75,0,0,0-.94.28,9.41,9.41,0,0,1-.91.5,16.9,16.9,0,0,1-1.89.75l-.18.06a4.17,4.17,0,0,0-1.1.48c-.13.08-.14.17-.13.35a1.3,1.3,0,0,1,.4,1.16A1.68,1.68,0,0,1,48.77,15.94Z" transform="translate(-7.78 -5.11)"/><path d="M46.87,20a4.53,4.53,0,0,0,.29,2.54h0a1.18,1.18,0,0,1,.26-.37,5,5,0,0,0,.08-.58A7.69,7.69,0,0,0,47.16,19,3.9,3.9,0,0,0,46.87,20Z" transform="translate(-7.78 -5.11)"/><path d="M56.38,18.36v0a8.44,8.44,0,0,1,.15,1.41A8.73,8.73,0,0,0,58,19.13c-.08-.54-.48-.89-1.23-1.12L56.57,18l-.17,0c-.28-.07-.58-.11-.83-.15H55.5l-.88-.12a1.71,1.71,0,0,1-.26.21,1.19,1.19,0,0,0-.19.16,1.88,1.88,0,0,0-.12,1.26v.05a.93.93,0,0,1,.26.15l1.12-1,.41-.37a.33.33,0,0,1,.13-.07h0a.29.29,0,0,1,.33.1l0,.06A.32.32,0,0,1,56.38,18.36Z" transform="translate(-7.78 -5.11)"/><path d="M48.41,17.19h-.34a2,2,0,0,0,.33.24A2,2,0,0,1,48.41,17.19Z" transform="translate(-7.78 -5.11)"/><path d="M44.2,25.1,44,24.9c0,.53,0,1.09,0,1.19a4.45,4.45,0,0,0,.59,2c.14.26.31.53.51.83l.1.17c.08.12.16.24.25.35a2.49,2.49,0,0,0,.64-.71,8.76,8.76,0,0,0,.76-2.1,1.79,1.79,0,0,1-.92-.25A10.85,10.85,0,0,1,44.2,25.1Z" transform="translate(-7.78 -5.11)"/><path d="M57.37,29.9a7.07,7.07,0,0,1-2.13-.18,9.38,9.38,0,0,1-1.93-.6,2,2,0,0,0-.54-.13,1.61,1.61,0,0,1-.77-.23l-.13-.09c-.48-.33-1-.67-1.44-1-.31-.23-.58-.45-.83-.67l-.13-.11a2.6,2.6,0,0,0-.5-.39,1.27,1.27,0,0,0-.23-.08,7.81,7.81,0,0,1-.87,2.84c-.14.32-.27.61-.39.91-.26.66-.54,1.37-.89,2.31a.5.5,0,0,0-.05.13,2.91,2.91,0,0,0,.68-.26l.11-.06h0a3.35,3.35,0,0,1,1.29-.4H49l.36,0,.36.08h0l.1,0,.37.11a8.1,8.1,0,0,0,.94.24,4.28,4.28,0,0,0,1.47-.08l.27-.05a6.6,6.6,0,0,1,1.17-.17,2.25,2.25,0,0,1,.26,0,2.82,2.82,0,0,0,.41,0,1.58,1.58,0,0,0,.41-.11l.12,0,0,0,.11-.05h0l.13-.06a4.81,4.81,0,0,0,.75-.38l.21-.13.15-.09.16-.09.26-.12a5.66,5.66,0,0,1,.9-.23c.26-.06.51-.11.75-.19a1.28,1.28,0,0,0,1-1.16v0a3,3,0,0,0,0-.34,2.26,2.26,0,0,1-.53.36A4.85,4.85,0,0,1,57.37,29.9Z" transform="translate(-7.78 -5.11)"/><path d="M53.08,16.8v0c0-.12,0-.24,0-.36h0a1.14,1.14,0,0,0-.25-.81,1.94,1.94,0,0,0-.85-.33l-.12,0-.14,0a2.46,2.46,0,0,0-.44-.09.7.7,0,0,0-.47.14c-.12.08-.24.16-.37.23a5.34,5.34,0,0,0-1,.74,1.48,1.48,0,0,0-.43.68l0,.15a.59.59,0,0,0,0,.14c0,.1,0,.2,0,.31l.54.16a2.72,2.72,0,0,1,.3-.29l.09-.07.23-.2.11-.09.12-.11.16-.12.28-.22a1.8,1.8,0,0,1,.82-.46,4.09,4.09,0,0,1,.53-.07,1,1,0,0,1,.73.19.45.45,0,0,1,.13.37.75.75,0,0,1,0,.2Z" transform="translate(-7.78 -5.11)"/><path d="M51.11,17l-.18.15-.19.16-.1.09-.22.17a4.39,4.39,0,0,0,.44-.21l.57-.27.28-.11h.07l.13,0h0a.92.92,0,0,0,.25-.05l0,0a.47.47,0,0,0,.06-.19h-.17a3.92,3.92,0,0,0-.58.08A2.78,2.78,0,0,0,51.11,17Z" transform="translate(-7.78 -5.11)"/><path d="M53.78,17.53l.08-.07a1.79,1.79,0,0,0-.34,0H53l-.32,0a2.45,2.45,0,0,0-.79.26l-.25.14-.35.19-.32.16.61.25,1.06.44c.24.09.49.16.73.23h.05a2.49,2.49,0,0,1,0-1A1.38,1.38,0,0,1,53.78,17.53Z" transform="translate(-7.78 -5.11)"/><path d="M41,17.73a4.57,4.57,0,0,0,0,1c0,.16,0,.33,0,.5v.08a1.88,1.88,0,0,0,.3,1.15A3,3,0,0,1,42,21.69a3.06,3.06,0,0,0,.52,1.12,7,7,0,0,0,1.09,1l0,0,.12.1.39.3.44.35.35.28c.28.23.56.46.85.66A1.7,1.7,0,0,0,47,26h.09l.08,0,0,0a.75.75,0,0,1,.18-.07l.08,0a.34.34,0,0,0,.11-.05.41.41,0,0,1,.11-.07l.05-.06.12-.12.13-.12.14-.12,0-.07,0,0v0L47.94,25a1.1,1.1,0,0,0-.09-.14l-.06-.07-.11-.08a4.5,4.5,0,0,1-.34-.38,1.63,1.63,0,0,0-.11-.17c0-.05-.07-.1-.1-.16a7.69,7.69,0,0,1-.59-1.41v0a5,5,0,0,1-.26-2.76,6.67,6.67,0,0,1,.61-1.65c-.09-.29-.2-.58-.3-.87l-.06-.18L46.47,17V17A1.51,1.51,0,0,1,46.3,16a.47.47,0,0,1,.45-.35.58.58,0,0,1,.36.1,1.67,1.67,0,0,1,.44.55,1.89,1.89,0,0,0,.17.28h0l0,0,0,0a.76.76,0,0,0,0-.32.48.48,0,0,0-.07-.26.66.66,0,0,0-.14-.2.75.75,0,0,0-.17-.14,1.18,1.18,0,0,0-.22-.14L47,15.45a3.8,3.8,0,0,1-.68-.38A4,4,0,0,1,46,14.8a2,2,0,0,0-.46-.37,1.12,1.12,0,0,0-.51-.11,3,3,0,0,0-1.57.8l-.33.28-.51.42-.08.06c-.25.18-.52.39-.48.67a.26.26,0,0,1-.06.21.31.31,0,0,1-.23.12A1,1,0,0,0,41,17.73Z" transform="translate(-7.78 -5.11)"/><path d="M54.14,20.59A18.73,18.73,0,0,0,55.93,20a7.88,7.88,0,0,0-.07-1.09c-.36.32-.73.65-1.1,1l-.12.1v.06a.3.3,0,0,1-.14.19A1.29,1.29,0,0,0,54.14,20.59Z" transform="translate(-7.78 -5.11)"/><path d="M48.09,21.8a9.87,9.87,0,0,1,1.42-.19,9.89,9.89,0,0,0,1.33-.18,5,5,0,0,0,.83-.27l.55-.2a4.88,4.88,0,0,1,.91-.18l.17,0a4,4,0,0,1,.53-.75l.09-.08h0l-.14-.07-.24-.07-.12,0-.24-.05L53,19.64l-.09,0-.63-.23-.08,0-.13-.05L51.41,19l-1.08-.45L50,18.45l0-.15,0,.14-.26-.08-.33-.09-.49-.14c-.2-.07-.37-.13-.52-.2l-.06,0a2.83,2.83,0,0,1-.53-.34l0,0,0,0,0,0h0l-.12-.12-.16-.17L47.25,17a3.38,3.38,0,0,1-.25-.36h0l0,.09.16.46c.07.19.14.39.2.58l.07.2a1.18,1.18,0,0,1,.07.2,8.6,8.6,0,0,1,.57,3.56S48.09,21.78,48.09,21.8Z" transform="translate(-7.78 -5.11)"/><path d="M48.15,24.3l.06.06a2.6,2.6,0,0,1,.25.33l0,0a.16.16,0,0,1,0,.07.31.31,0,0,1,0,.1,520527503360.53,520527503360.53,0,0,1,0,.12h0a.86.86,0,0,1,.17,0h.1a1.71,1.71,0,0,1,.43.06l0,0a4.74,4.74,0,0,1,1.32.78l.4.29a13.9,13.9,0,0,0,1.25.87,6.09,6.09,0,0,0,3.45.94l2.8-.11A7.28,7.28,0,0,0,60.41,23c0-.09,0-.2,0-.3,0-.54-.08-1.35.77-1.43a3.1,3.1,0,0,1,1.59.39,11.28,11.28,0,0,0-.89-1.81l-.06-.09c-.34-.56-.91-1.49-1.59-1.46a.78.78,0,0,0-.21,0,1.62,1.62,0,0,0-.64.49,4.11,4.11,0,0,1-.29.3,4.92,4.92,0,0,1-.55.41l-.17.11-.18.11h0a11.85,11.85,0,0,1-1.72.76l-.16.06-.16.06-.27.09c-.49.17-1,.35-1.52.48l-.71.15h0l-.16,0h-.1l-.1,0A5.09,5.09,0,0,0,52,21.7a6.32,6.32,0,0,1-1.23.37,8.22,8.22,0,0,1-1.1.12,6.26,6.26,0,0,0-1.45.21,1,1,0,0,0-.3.14.72.72,0,0,0-.19.2.67.67,0,0,0-.08.17.65.65,0,0,0,0,.34,1.42,1.42,0,0,0,.19.57l.08.13.11.15.14.18-.1.11Z" transform="translate(-7.78 -5.11)"/><path d="M46.3,31.49c.22-.58.49-1.27.76-2l0-.09.12-.27c0-.09.07-.17.11-.26l.06-.14a6.71,6.71,0,0,0,.74-2.43h0l-.11,0h0a.38.38,0,0,0-.16,0,.73.73,0,0,1-.19.07.38.38,0,0,0-.16.05h0c0,.11,0,.22-.08.33l0,.05a9.76,9.76,0,0,1-.28,1,5.05,5.05,0,0,1-.57,1.23,3.46,3.46,0,0,1-.8.83h0l-.12.09-.13.09h0a8.24,8.24,0,0,1-.92.51,16.91,16.91,0,0,1-1.92.75L42,31.6a3.31,3.31,0,0,0-.73.41,3.45,3.45,0,0,1-.87.46c.1.09.22.18.34.27a2.12,2.12,0,0,1,.46.38,2.09,2.09,0,0,1,.14.17,3.09,3.09,0,0,0,1.13,1,2.42,2.42,0,0,0,1.1.2h0a2.37,2.37,0,0,0,2-1.12,3.87,3.87,0,0,0,.26-.5v0l.06-.14.06-.15h0l.23-.6C46.19,31.78,46.24,31.63,46.3,31.49Z" transform="translate(-7.78 -5.11)"/><path d="M59.49,28.43l-1,0-1.31.05-.93,0h-.68a9.28,9.28,0,0,1-1.06-.09,6,6,0,0,1-1.78-.56,12.61,12.61,0,0,1-1.68-1.09l0,0c-.35-.25-.72-.52-1.09-.76l-.1-.06a2.73,2.73,0,0,0-.68-.35.7.7,0,0,0-.4,0l-.06,0-.12.05-.05,0h0a1.14,1.14,0,0,1,.33.05,2.87,2.87,0,0,1,1,.67l.16.13c.43.36.89.72,1.36,1.06l.25.18a6.34,6.34,0,0,0,.6.41,1.19,1.19,0,0,0,.43.12h.07a5.28,5.28,0,0,1,1,.3l.07,0,.37.13a9.88,9.88,0,0,0,1.92.45,5.13,5.13,0,0,0,1.95-.11A2.49,2.49,0,0,0,59.49,28.43Z" transform="translate(-7.78 -5.11)"/><path d="M62.27,32.77a3.08,3.08,0,0,1-.53.08l-.9.06-.9.06a9.47,9.47,0,0,0-1.42.22l-.07,0a8,8,0,0,1,1,.39l.43.18a2.88,2.88,0,0,0,1.63.13A2.05,2.05,0,0,1,62.27,32.77Z" transform="translate(-7.78 -5.11)"/><path d="M60.28,30.7a5.82,5.82,0,0,0-2,1.67l-.43.54.45-.12a9.15,9.15,0,0,1,1.36-.24c.36,0,.72-.06,1.07-.07s.55,0,.82,0a3.36,3.36,0,0,0,1.3-.35L63,32a1.75,1.75,0,0,1,.18-.29L63,31.6l0,0a1.45,1.45,0,0,0-.72-.18,1.49,1.49,0,0,1-.84-.24l0,0h0v0h0a1,1,0,0,1-.23-.6A2.35,2.35,0,0,0,60.28,30.7Z" transform="translate(-7.78 -5.11)"/><path d="M69.74,36.28a4.17,4.17,0,0,1-.81-.68h-.07a.37.37,0,0,0-.06.1l-.11.17a2.5,2.5,0,0,1-.21.35,2.75,2.75,0,0,0,.19.28A3.27,3.27,0,0,0,70.92,38l.47,0a9.83,9.83,0,0,1,1.09.13l0,0a13.72,13.72,0,0,0-1.92-1.33C70.25,36.6,70,36.45,69.74,36.28Z" transform="translate(-7.78 -5.11)"/><path d="M70.84,34.16l0,0,0,0a.45.45,0,0,0,0,.11,1,1,0,0,1-.14.31l-.08.1,0,.06a.27.27,0,0,0,0,.17.07.07,0,0,1,0,0,.17.17,0,0,1,0,.07.55.55,0,0,1-.35.36,2.92,2.92,0,0,1-.59.19,3.3,3.3,0,0,0,.57.44c.23.15.47.29.71.42s.61.36.91.56a9.81,9.81,0,0,1,1.09.85l.34.31c0-.21-.07-.44-.12-.68a5.93,5.93,0,0,0-1-2.38,1.88,1.88,0,0,0-.43-.41,2,2,0,0,1-.52.08.19.19,0,0,1-.14,0,.12.12,0,0,1,0-.11A1.29,1.29,0,0,0,70.84,34.16Z" transform="translate(-7.78 -5.11)"/><path d="M74.63,26.42l.58-.18h0l.15-.14a9.56,9.56,0,0,1,1.06-.9,3.62,3.62,0,0,1,.38-.26l-.7,0c-.34,0-.65,0-.92,0a4.79,4.79,0,0,0-1.37.29c.1.25.19.51.27.77a1.91,1.91,0,0,1,.08.54Z" transform="translate(-7.78 -5.11)"/><path d="M74.77,27.38a2.3,2.3,0,0,0-.16.37,4.41,4.41,0,0,0-.21,1.15A3.31,3.31,0,0,0,76.21,27c0-.15.09-.29.13-.45a7.56,7.56,0,0,1,.37-1l-.06,0a12.32,12.32,0,0,0-1.7,1.6Z" transform="translate(-7.78 -5.11)"/><path d="M60.81,22.59l-.06,0a7.47,7.47,0,0,1,.43,1c.06.15.12.3.17.44a3,3,0,0,0,1.51,1.54l.21-1.06-.45-.42A13.11,13.11,0,0,0,60.81,22.59Z" transform="translate(-7.78 -5.11)"/><path d="M63.83,22.14a5.82,5.82,0,0,0-2.55-.25l-.69.07.39.24A9.83,9.83,0,0,1,62.1,23c.28.23.54.48.8.73l.31.29a1,1,0,0,1,.27-.3l.37-.25.3-.19c.15-.11.31-.23.47-.37v-.28A2.83,2.83,0,0,0,63.83,22.14Z" transform="translate(-7.78 -5.11)"/><path d="M65.18,21.12A3.52,3.52,0,0,0,65,22.48v.08l.1-.1a1,1,0,0,1,.58-.35h.09c.23,0,.38.24.51.43a1.11,1.11,0,0,0,.12.16,1.87,1.87,0,0,0,.47.4,3.13,3.13,0,0,0,.09-.77c0-.27,0-.55,0-.82s0-.71,0-1.07a11.37,11.37,0,0,1,.16-1.38c0-.15.06-.3.1-.45-.17.14-.34.29-.52.46A5.82,5.82,0,0,0,65.18,21.12Z" transform="translate(-7.78 -5.11)"/><path d="M68,20.14a7.64,7.64,0,0,1-.46-1s0,.05,0,.07a12.24,12.24,0,0,0-.13,2.33c0,.3,0,.6,0,.9a3.19,3.19,0,0,1-.08.7c.19,0,.37,0,.53-.05L68,23,68,23l.33-.36,0-.06v0a3,3,0,0,0-.15-2Z" transform="translate(-7.78 -5.11)"/><path d="M66.32,26.38a2,2,0,0,1,.37-.46.38.38,0,0,1,.13-.09l.14,0h0a.59.59,0,0,1,.25,0l.16.05h0a2.43,2.43,0,0,1,.75.41l0,0,.15.12.08-.16,0,0s0,0,0,0a2.93,2.93,0,0,1-.45-.38.79.79,0,0,0-.53-.23H67l-.27,0h0a2.85,2.85,0,0,1-.37.23h0a.71.71,0,0,1,0,.14c0,.13,0,.24,0,.35Z" transform="translate(-7.78 -5.11)"/><path d="M66.07,28.67l.26.11-.19-.17Z" transform="translate(-7.78 -5.11)"/><path d="M69.42,26.94a.28.28,0,0,1,0-.09c0-.13,0-.27,0-.41a3.93,3.93,0,0,1-.3,1.08C69.2,27.33,69.31,27.14,69.42,26.94Z" transform="translate(-7.78 -5.11)"/><path d="M68.33,24.85a4,4,0,0,1,.48.44l.06.07.07.06h0v0c-.08-.14-.16-.28-.25-.41l-.18-.32a1.56,1.56,0,0,0-.48,0A1.82,1.82,0,0,1,68.33,24.85Z" transform="translate(-7.78 -5.11)"/><path d="M67.88,27.15l0,.05.2-.13a.19.19,0,0,1,0-.07l0,0a1.39,1.39,0,0,0-.28-.12.3.3,0,0,1,.07.15v.08S67.88,27.13,67.88,27.15Z" transform="translate(-7.78 -5.11)"/><path d="M66.54,27.35h.12l.14,0,.16-.14.06-.05L67.1,27a1.68,1.68,0,0,1,.21-.18l0,0a1.4,1.4,0,0,0-.81.5Z" transform="translate(-7.78 -5.11)"/><path d="M71.41,25a2.2,2.2,0,0,1-.2-.23,5.76,5.76,0,0,1-.72-.91,7.6,7.6,0,0,1-.59-1.24l-.13-.36a5.81,5.81,0,0,0-.32-.78c-.13.18-.24.38-.35.57s-.17.29-.27.44l-.11.16a1.47,1.47,0,0,1-.1.13,2.25,2.25,0,0,1-.21.24l-.06.07h.07l.14,0a2.49,2.49,0,0,1,.76.31,3.52,3.52,0,0,1,1,.86l.18.24c.08.11.15.23.23.35l.28.49h0l.07,0,.07,0h0a2.5,2.5,0,0,0,.35-.21L71.43,25Z" transform="translate(-7.78 -5.11)"/><path d="M62.32,31.06a1.76,1.76,0,0,1,.72.16l.21.13.14.1a1,1,0,0,1,.26-.12,1.7,1.7,0,0,1-.22-.24l0,0a.41.41,0,0,0-.23-.2.69.69,0,0,1-.3-.14.93.93,0,0,1-.26-.29l-.07-.14-.07-.14a1.44,1.44,0,0,0-.25-.44l-.12,0a1.1,1.1,0,0,1-.61-.17h0a4,4,0,0,1,0,.49v.09a.61.61,0,0,0,0,.14.49.49,0,0,0,0,.12v0a.59.59,0,0,0,.15.43A1.09,1.09,0,0,0,62.32,31.06Z" transform="translate(-7.78 -5.11)"/><path d="M63.82,28.52a.19.19,0,0,1,0-.08,1.71,1.71,0,0,1-.23-.47l0-.18a1.08,1.08,0,0,1-.67-.39,1.17,1.17,0,0,1-.15-.27h-.07a.63.63,0,0,1-.27,0l-.1,0a3.56,3.56,0,0,0-.55,0c-.17,0-.26.07-.26.15a1.11,1.11,0,0,0,0,.17,1,1,0,0,1,0,.17,1.84,1.84,0,0,1,0,.35v0a2.45,2.45,0,0,0-.06.86l0,.3.07,0h0l.31-.17a3.18,3.18,0,0,1,1.23-.49,1.17,1.17,0,0,1,.57.12l.11,0Z" transform="translate(-7.78 -5.11)"/><path d="M61.7,34.6a.68.68,0,0,0,.09.61.79.79,0,0,0,.6.38,3.18,3.18,0,0,0,.62,0h1.26a6.63,6.63,0,0,1,1.47.08,3.26,3.26,0,0,1,.69.22h0a2.57,2.57,0,0,0,.61.14l.22,0a1.45,1.45,0,0,1,.29.11.64.64,0,0,0,.38.09.14.14,0,0,0,.09-.05l.07-.1.06-.09,0,0,.16-.27.07-.13-.4,0h0l-.15,0-.1,0-.07,0h0a7.17,7.17,0,0,1-1.47-.53l-.68-.35,0,0a.92.92,0,0,1-.46-.41.61.61,0,0,1,.12-.56,3,3,0,0,0,.34-.61h0a3,3,0,0,1,.31-.65,1.32,1.32,0,0,1-.49,0,2,2,0,0,1-.41-.21l-.27-.15-.12-.06-.13-.05-.05,0-.11-.05-.11-.06,0,0h0a.61.61,0,0,0-.27,0l-.06,0a.15.15,0,0,0-.07,0l-.09.05-.06.06a.63.63,0,0,0-.11.15,1.37,1.37,0,0,0-.13.2l-.08.13h0L63,32.5c-.14.16-.29.31-.43.45a5,5,0,0,0-.45.47,1.25,1.25,0,0,0-.25.52.6.6,0,0,0,0,.12h0a.26.26,0,0,0,0,.12.49.49,0,0,1,0,.17.26.26,0,0,1-.13.18S61.71,34.57,61.7,34.6Z" transform="translate(-7.78 -5.11)"/><path d="M74.76,26.74l-.64.2a.72.72,0,0,1-.21.25,2.45,2.45,0,0,1-.15.77,2.13,2.13,0,0,1-.25.5l-.15.21c-.09.11-.19.21-.32.34v0l0,.13.09.11.12.14.09.11.23.3a1.7,1.7,0,0,1,.34.94c0,.19.05.29.21.36a.93.93,0,0,1,.19.11.41.41,0,0,0,0-.09l0-.08a2.36,2.36,0,0,1-.18-.75,7.19,7.19,0,0,1,0-.92.71.71,0,0,0,0-.14c0-.05,0-.1,0-.15v-.25a6,6,0,0,1,.21-1.17,1.34,1.34,0,0,1,.07-.18,2.82,2.82,0,0,1,.42-.74Z" transform="translate(-7.78 -5.11)"/><path d="M74.68,32a.55.55,0,0,0-.26,0h0c0,.2-.07.36-.1.51a2.51,2.51,0,0,1-1.18,1.48,5.16,5.16,0,0,1-.65.35l.26,0a1.91,1.91,0,0,0,.48,0,.84.84,0,0,0,.24-.06,1.38,1.38,0,0,0,.48-.39l.55-.63a1.84,1.84,0,0,0,.34-.45.62.62,0,0,0,0-.46.57.57,0,0,0,0-.14s0-.09,0-.12S74.74,32,74.68,32Z" transform="translate(-7.78 -5.11)"/><path d="M66,32.61a2.21,2.21,0,0,0-.18.42s0,.1,0,.14a2.4,2.4,0,0,1-.34.59c-.1.15-.12.24-.07.32a.5.5,0,0,0,.23.16l.07,0c.24.13.49.26.73.37a6.8,6.8,0,0,0,1.34.48l.13,0H68a5.41,5.41,0,0,0,.68.07h.45a3,3,0,0,0,.49-.1h0c.12,0,.36-.1.4-.2v-.06a.55.55,0,0,1,0-.22,1,1,0,0,1,.15-.25.61.61,0,0,0,.15-.3.69.69,0,0,1,.09-.23.35.35,0,0,1,.07-.09l0,0a.28.28,0,0,1,.19-.09.26.26,0,0,1,.25.13.76.76,0,0,1,.13.24c0,.06,0,.12,0,.19l0,.15.17,0,.15,0,.16-.06.08,0,.09,0,.1,0,.1,0a6.8,6.8,0,0,0,.8-.41A2.16,2.16,0,0,0,74,32.3c0-.16.07-.32.1-.48s0-.32-.13-.39a.66.66,0,0,1-.4-.59s0-.08,0-.12a1.2,1.2,0,0,0-.06-.32,1.52,1.52,0,0,0-.25-.43L73,29.64l-.1-.12-.16-.2,0,0-.18.16-.1.09,0,0-.2.16-.1.09-.16.13a13.19,13.19,0,0,1-1.67,1.21l-.18.09-.2.08-.2.07-.31.11-.27.14a.24.24,0,0,0,.1.1.32.32,0,0,1,.15.45c-.11.22-.42.25-.52.26h-.09a2.73,2.73,0,0,1-.57,0l-.19,0L67,32.38l-.64,0h-.08l-.05,0A.76.76,0,0,0,66,32.61Z" transform="translate(-7.78 -5.11)"/><path d="M64.85,24.13l.12,0h.09l.07,0a1.8,1.8,0,0,1,.35-.08h.13a1,1,0,0,1,.15-.24l.09-.11.11-.1a1,1,0,0,1,.38-.19l.22,0a2.92,2.92,0,0,1-.56-.55.35.35,0,0,0,0-.08,1.3,1.3,0,0,0-.15-.18.08.08,0,0,0-.08,0c-.09,0-.19.11-.26.17l-.15.15-.07.07-.06.06-.06.05-.14.12-.09.07h0l0,0,0,0,0,0-.53.4L64,23.8a2.41,2.41,0,0,0-.4.29.47.47,0,0,0-.13.23,1.67,1.67,0,0,0-.06.29v.05l0,.18-.19.92,0,.13,0,.13a2.31,2.31,0,0,0-.08.78s0,.06,0,.09a.36.36,0,0,0,0,.1.75.75,0,0,0,.18.28.63.63,0,0,0,.27.16h0v0a.66.66,0,0,1,.35-.48,3.53,3.53,0,0,1-.19-.58v-.08s0-.08,0-.13,0-.1,0-.15a3.23,3.23,0,0,1,0-.44v-.05a3.07,3.07,0,0,1,.06-.52c0-.07,0-.13.07-.19a.47.47,0,0,1,.06-.09,1.09,1.09,0,0,1,.41-.33A3.13,3.13,0,0,1,64.85,24.13Z" transform="translate(-7.78 -5.11)"/><path d="M73.74,26.89h0l.06-.09a1,1,0,0,0,0-.1,1.16,1.16,0,0,0-.06-.58c-.08-.26-.18-.54-.29-.82l0,0,0-.08,0-.1v0l-.11-.24a1.76,1.76,0,0,0-.35-.52.3.3,0,0,0-.31-.06c-.09,0-.14.15-.18.25h0l0,.08a1.59,1.59,0,0,1-.18.34,1.76,1.76,0,0,1-.3.33l-.07.05,0,0,0,0h0a3.54,3.54,0,0,1-.41.26l-.09,0-.09,0h0l.13.25,0,.07a2.63,2.63,0,0,1,.41.71.7.7,0,0,1,0,.18.58.58,0,0,1,0,.14v.05h0a1.63,1.63,0,0,1,0,.31,2.1,2.1,0,0,1-.13.92,1,1,0,0,1,0,.26.57.57,0,0,1-.13.21l-.12.12-.12.12h0l-.06.06,0,0-.2.19-.08.09a2.46,2.46,0,0,0-.34.41.43.43,0,0,1-.33.24h0l0,0-.23.24-.08.07a1.6,1.6,0,0,1-.34.61h0a1.1,1.1,0,0,1-.16.15l0,0,.12-.05.16-.06a2.56,2.56,0,0,0,.57-.24,15.94,15.94,0,0,0,1.8-1.35l.23-.19.13-.11,0,0,.05-.05.18-.15.06,0,0-.06.06-.05.06-.06,0-.05,0,0,.09-.09L73,28.6l0,0,0,0a2.42,2.42,0,0,0,.31-.45l0,0,0-.06a2.26,2.26,0,0,0,.15-.46,1.46,1.46,0,0,0,0-.22s0,0,0-.08a.44.44,0,0,1,0-.2.2.2,0,0,1,.11-.11Z" transform="translate(-7.78 -5.11)"/><path d="M66.82,32l.52,0,.85.09h.07l.35,0h.18a.7.7,0,0,0,.19-.06l-.06,0a.53.53,0,0,1-.14-.12.36.36,0,0,1-.08-.12.36.36,0,0,1,0-.09l0-.07v-.06l0-.09h0l-.17,0h-.13a5,5,0,0,1-.53,0,2.37,2.37,0,0,1-1.6-1.07l-.25-.33a2,2,0,0,1-1.18,0l-.12-.05L64.43,30,64.36,30a1.41,1.41,0,0,1-.53-1.08,2.32,2.32,0,0,1-.37-.13l-.05,0a.84.84,0,0,0-.62,0,5.79,5.79,0,0,0-.79.39l-.26.14,0,0,0,0a.38.38,0,0,0,.37,0h.06a.14.14,0,0,1,.12,0,1.44,1.44,0,0,1,.4.58l.06.13c0,.05.05.1.08.14l.09.13a.41.41,0,0,0,.1.09.42.42,0,0,0,.19.09l.11,0a.46.46,0,0,1,.21.18l.11.13a3.47,3.47,0,0,0,.32.34l.09.07h0l.1.07.11.05h0l.1.05.16.07.13.05h0l0,0h0l.25.14a1,1,0,0,0,.52.2l.81,0Z" transform="translate(-7.78 -5.11)"/><path d="M65.45,29.46l-.3-.08L65,29.31l-.15-.07-.13-.07a2.84,2.84,0,0,1-.36-.22l-.09-.07,0,0h0l0,0a.06.06,0,0,0,0,0,1.18,1.18,0,0,0,.23.69l.12.13h0l.11.08a1.28,1.28,0,0,0,.73.13h0l.23,0v0l0-.05a.54.54,0,0,1-.09-.15.35.35,0,0,1,0-.14Z" transform="translate(-7.78 -5.11)"/><path d="M66,26.08V26l-.07,0-.06,0h0s0,.08-.06.11l0,0,0,.09a1.14,1.14,0,0,0-.06.25.16.16,0,0,1,0,.11s0,0,.07.06l.09,0h0a.51.51,0,0,1,.13.09c0-.11,0-.22,0-.32A3.52,3.52,0,0,0,66,26.08Z" transform="translate(-7.78 -5.11)"/><path d="M65.85,28.34a1.17,1.17,0,0,0-.35-.14,1.45,1.45,0,0,0,.38.36.4.4,0,0,0,.13-.07Z" transform="translate(-7.78 -5.11)"/><path d="M65.73,27.84a2.27,2.27,0,0,0-.25-.18h0v0l0,0,0,0-.16-.06a2.29,2.29,0,0,1,.18.29A1.51,1.51,0,0,0,65.73,27.84Z" transform="translate(-7.78 -5.11)"/><path d="M64.77,27h0V26.9a.92.92,0,0,1,.13-.44.43.43,0,0,1,.17-.13h0l.14,0h.07a.2.2,0,0,0,0-.07V26.2s0,0,0,0v0a.11.11,0,0,1,0-.05v0h0l0,0a.14.14,0,0,1-.06-.12v-.46a.86.86,0,0,0,0-.16v0h0v-.08a.49.49,0,0,1,0-.12,1.55,1.55,0,0,1,0-.21,2.44,2.44,0,0,1,.13-.5h0l-.25.05h-.13l-.12,0a2.27,2.27,0,0,0-.44.18,1,1,0,0,0-.34.24.79.79,0,0,0-.08.16s0,0,0,.06a2.5,2.5,0,0,0,0,.55v.05c0,.1,0,.2,0,.3l0,.15a.5.5,0,0,0,0,.12,3.24,3.24,0,0,0,.21.59l.24.09.08.05.08.06.07.05V27Z" transform="translate(-7.78 -5.11)"/><path d="M64.3,28.44a.6.6,0,0,0,.08.08l.15.12.15.1h0l0,0,.1.05h0l.09.05.16.09a1.88,1.88,0,0,0,.3.12l.11,0,.12,0H66l.4-.06h0a2.94,2.94,0,0,1-.43-.17l0,0-.11-.06-.12-.08-.12-.09a2.06,2.06,0,0,1-.38-.45l-.09-.15a2.63,2.63,0,0,0-.2-.33l0,0v0l-.08-.08-.08-.08-.17-.15h0l-.06-.05-.07,0,0,0-.09,0h-.08a.25.25,0,0,0-.12.07.35.35,0,0,0-.11.26v.21s0,.08,0,.11a1.19,1.19,0,0,0,.21.42l.07.08.07.08-.05.06Z" transform="translate(-7.78 -5.11)"/><path d="M67,30.88a1.57,1.57,0,0,0,.8.32,2.14,2.14,0,0,0,.67,0l.15,0h.09l.09,0,0,0,.1-.05L69,31a1.18,1.18,0,0,0,.33-.3h0v0a1,1,0,0,0,.12-.23,1.15,1.15,0,0,0,.06-.17,2.69,2.69,0,0,0,0-1,1.36,1.36,0,0,1,0-.2l0-.16c0-.42-.08-.87-.1-1.32v-.07a5,5,0,0,1-.41.58c-.17.2-.32.37-.47.52a2.15,2.15,0,0,1-.52.45,1.13,1.13,0,0,1-.41.16l-.13,0-.21,0-.1,0h0l-.65.13-.43,0h-.21s0,0,0,0l.05.07,0,0,.5.64A3.78,3.78,0,0,0,67,30.88Z" transform="translate(-7.78 -5.11)"/><path d="M67,23.54l-.14,0c-.15,0-.33.06-.5.11a.51.51,0,0,0-.22.11l-.09.08L66,24a1,1,0,0,0-.11.21v0a.61.61,0,0,0-.05.12.78.78,0,0,0,0,.14,3.51,3.51,0,0,0-.14.58c0,.06,0,.1,0,.15h0a.66.66,0,0,1,0,.14v.16l.06-.1a1.69,1.69,0,0,1,.2-.25v0h0l.06,0h0L66,25l0,0v0a2.56,2.56,0,0,1,.35-.22l.12-.06.13-.05.28-.08a1.66,1.66,0,0,1,.32,0h.2a2.09,2.09,0,0,1,.3-.14l.21-.07a2.11,2.11,0,0,1,.35-.05c0-.06,0-.12-.07-.17a.14.14,0,0,1,0-.15.2.2,0,0,1,.13-.09h0a2,2,0,0,1,1.24.94,10.3,10.3,0,0,1,1.08,1.74,2.76,2.76,0,0,1,.06,2l0,.12a2.25,2.25,0,0,1-.08.24h0q0,.13-.09.24l0,.07,0,.05,0,0,.05,0,.09-.09.17-.16,0,0,.15-.16,0,0,0,0a1,1,0,0,0,.08-.11,1.4,1.4,0,0,0,.15-.3,1.91,1.91,0,0,0,.12-.83v0a.53.53,0,0,0,0-.13v0a1.16,1.16,0,0,0,0-.18A4.22,4.22,0,0,0,71,26.2l-.07-.14-.09-.16-.06-.12,0,0a.91.91,0,0,0-.07-.14l-.09-.18a8.78,8.78,0,0,0-.57-.87l-.12-.14,0,0,0,0-.23-.23L69.47,24a3,3,0,0,0-.71-.41,1.32,1.32,0,0,0-.3-.09l-.13,0h-.46a4.91,4.91,0,0,0-.59.07H67.2l0-.08,0,.09Z" transform="translate(-7.78 -5.11)"/><path d="M70.29,29a1.34,1.34,0,0,1,.07-.18c0-.14.08-.27.11-.39l0,0a3.22,3.22,0,0,0,.13-.87,2.62,2.62,0,0,0-.23-.89,6,6,0,0,0-.46-.82l-.17-.25-.27-.38,0-.06-.24-.32a1.9,1.9,0,0,0-.18-.2,1.58,1.58,0,0,0-.3-.24h0l.05.09.06.11.15.25.15.26a.11.11,0,0,1,.08,0,.17.17,0,0,1,.19.15,1.64,1.64,0,0,0,0,.22l0,.33a3.92,3.92,0,0,1,.19.94l0,.27c0,.21,0,.41,0,.62l0,.19c0,.18,0,.36,0,.53s0,.15,0,.22l0,.38c0,.11,0,.21,0,.31a3.49,3.49,0,0,0,.1.38v0a1,1,0,0,0,.08-.11l.07-.11h0l.06-.11,0,0,0-.07.08,0-.08,0v0A1,1,0,0,0,70.29,29Z" transform="translate(-7.78 -5.11)"/><path d="M66.91,25.26h.24a2.28,2.28,0,0,1,.7.11,1.05,1.05,0,0,1,.39.29l0,0a2.11,2.11,0,0,0,.24.21l0,0,.09.07.13-.25a2,2,0,0,0-.3-.29l-.06-.06a2.12,2.12,0,0,0-.42-.33,1,1,0,0,0-.49-.14h-.29l-.21,0h0l-.09,0-.13,0-.12.05-.12.06a1.81,1.81,0,0,0-.29.19l-.06.06,0,.06h0l0,0h0a1.72,1.72,0,0,1,.39-.1h.08l.11,0v0h.15Z" transform="translate(-7.78 -5.11)"/><polygon points="58.98 20.23 58.98 20.23 58.98 20.23 58.98 20.23"/><path d="M68.63,26.71l0,.07a2.07,2.07,0,0,0,.48-.64v0a.63.63,0,0,0,0-.27V25.8l-.48.9Z" transform="translate(-7.78 -5.11)"/><path d="M67.12,26.13H67c-.08,0-.14.06-.22.15a1.66,1.66,0,0,0-.35.62,1.92,1.92,0,0,1,.75-.39,1.46,1.46,0,0,1,.72,0,1.82,1.82,0,0,0-.5-.28Z" transform="translate(-7.78 -5.11)"/><path d="M68.79,27.09a2.06,2.06,0,0,1-.33.17l-.23.11-.24.15-.28.18a4.2,4.2,0,0,1-1.1.37l-.08,0c-.11,0-.22.05-.33.06h-.15l0,0,.06.05,0,.05a.46.46,0,0,1,.07.07h0a2.41,2.41,0,0,0,.24.21,1.4,1.4,0,0,0,.91.3h.07a1,1,0,0,0,.44-.2,2.57,2.57,0,0,0,.33-.33A4.15,4.15,0,0,0,69,26.87a1.29,1.29,0,0,1-.21.2Z" transform="translate(-7.78 -5.11)"/><path d="M66.09,27.65l-.08,0,.08.08,0,0h.11a.14.14,0,0,0,.09,0h0l.2,0,0,0h-.31Z" transform="translate(-7.78 -5.11)"/><polygon points="57.96 22.39 57.96 22.39 57.96 22.39 57.96 22.39"/><path d="M65.79,27.44h0l0-.08s0-.05,0-.08,0-.16-.11-.19h0l0,0a.47.47,0,0,1-.15-.06.18.18,0,0,1-.07-.05h0l0,0,0-.07,0-.09a.24.24,0,0,0,0-.11h0c-.06,0-.09.14-.09.38v0a.13.13,0,0,0,.06.09,1,1,0,0,0,.18.07h0l.07,0,.11,0,.09,0h0l.07,0,0,0Z" transform="translate(-7.78 -5.11)"/><path d="M37,33.06a.71.71,0,0,0,.1-.14l.06,0,.05,0a3.67,3.67,0,0,0,1.39.32h0a1.43,1.43,0,0,0,.91-.48,1.13,1.13,0,0,1,.1.13,5.81,5.81,0,0,1,.89,2.42c0,.23.08.44.1.65l-.3-.3a10.84,10.84,0,0,0-1.08-.88c-.3-.21-.61-.4-.91-.59l-.7-.44a3.85,3.85,0,0,1-.73-.64h0l.08-.07Z" transform="translate(-7.78 -5.11)"/><path d="M37.25,34.11l.76.5A12.59,12.59,0,0,1,39.91,36h0a9.65,9.65,0,0,0-1.06-.15l-.47-.05a3,3,0,0,1-1.82-1,.51.51,0,0,0,.31-.29,1.37,1.37,0,0,0,.08-.6A1.86,1.86,0,0,0,37.25,34.11Z" transform="translate(-7.78 -5.11)"/><path d="M40.27,20.16l0,0a7.51,7.51,0,0,0-.21,1.05l-.09.47a2.54,2.54,0,0,1-.3.82s0,0,0,0c-.08-.21-.18-.48-.51-.5a1.74,1.74,0,0,0-.39,0h0A13.47,13.47,0,0,1,40.27,20.16Z" transform="translate(-7.78 -5.11)"/><path d="M36.72,20.74a2.22,2.22,0,0,1,.47-.42,6.08,6.08,0,0,1,2.47-.76l.66-.06-.32.29a10.57,10.57,0,0,0-.94,1c-.23.28-.44.58-.64.87l-.16.23-.1-.05a.88.88,0,0,0-.24,0,1.74,1.74,0,0,0-.34.05l-.1,0-.55.11-.26.06-.31.05a3.76,3.76,0,0,0,.35-1.27S36.72,20.78,36.72,20.74Z" transform="translate(-7.78 -5.11)"/><path d="M34.87,20.34a3,3,0,0,1,0,1.77,4.13,4.13,0,0,0-1.18-.85,1.78,1.78,0,0,0-.62-.19V21a3.66,3.66,0,0,1-.22-1.38,5.92,5.92,0,0,1,1-2.4c.12-.19.24-.38.36-.55,0,.15,0,.29,0,.43a8.9,8.9,0,0,0,.21,1.38c.07.35.18.7.27,1S34.81,20.07,34.87,20.34Z" transform="translate(-7.78 -5.11)"/><path d="M35.11,19.45a12.72,12.72,0,0,1-.49-2.3v0a9,9,0,0,0,.68.82l.32.36a3.15,3.15,0,0,1,.66,2.29l0,.25v.07a1.29,1.29,0,0,1,0,.19,3.47,3.47,0,0,1-.39,1.09l-.28,0-.17,0-.09,0a3.45,3.45,0,0,0,.06-2C35.26,20,35.19,19.73,35.11,19.45Z" transform="translate(-7.78 -5.11)"/><path d="M24.58,34.15l0,0a14.2,14.2,0,0,1,2.22-.76l.87-.25a4,4,0,0,0,1-.46l.19.19a1.33,1.33,0,0,1,.22.34,3.39,3.39,0,0,1-.44.41,3.27,3.27,0,0,1-2.56.8l-.47-.09A7.39,7.39,0,0,0,24.58,34.15Z" transform="translate(-7.78 -5.11)"/><path d="M28.31,32.35a3.38,3.38,0,0,1-.84.36l-.8.22c-.34.09-.69.18-1,.3a9.54,9.54,0,0,0-1.3.53L24,34l.29-.59a5.9,5.9,0,0,1,1.56-2.05l.05,0,.2.21.07.07a.94.94,0,0,0,.43.3.54.54,0,0,0,.29-.06l.11-.06.29-.13a.67.67,0,0,1,.63,0h0a.59.59,0,0,0,0,.37,1,1,0,0,0,.37.38Z" transform="translate(-7.78 -5.11)"/><path d="M36.35,34.49h-.07l-.15,0L36,34.6l-.32.14a8.08,8.08,0,0,0-1.24.82c-.15.14-.31.29-.47.47a1,1,0,0,1-.23.22.41.41,0,0,1-.22.07l-.1,0a.54.54,0,0,0-.25.13l0,0c-.09.07-.12.11-.23.11h0a3.3,3.3,0,0,1-.76-.1h0a7.87,7.87,0,0,1-1.42-.45.65.65,0,0,1-.37-.44,1.55,1.55,0,0,1,0-.21,1.83,1.83,0,0,0-.15-.47,2.14,2.14,0,0,0-.17-.3,2.69,2.69,0,0,1-.19-.32,2.76,2.76,0,0,1-.16-.58l0-.11a2.45,2.45,0,0,0-.08-.29c0-.05,0-.1,0-.14s-.05-.11-.07-.16a2.13,2.13,0,0,0-.43-.6l-.07-.06,0,0-.22-.18-.15-.11-.06,0a.84.84,0,0,1-.21-.21,1.23,1.23,0,0,0,.23.08,2.33,2.33,0,0,0,.38,0h.23l.22.06.2.09.19.09.13,0,.15,0,.13,0a1.92,1.92,0,0,0,.75,0,1.94,1.94,0,0,0,.9.35,1.22,1.22,0,0,0,.75-.16,1.62,1.62,0,0,1,.65-.22h.16c0,.07.13.15.14.21.07.32.43.39.6.42a1.9,1.9,0,0,0,.91-.07,2.36,2.36,0,0,0,.28-.12l.12-.06.13-.07a1.35,1.35,0,0,1,.29-.09h0l.17,0a1.65,1.65,0,0,1,.32.1l.15.08.3.15,0,0-.05,0a.76.76,0,0,0-.09.09.34.34,0,0,0-.12.29.65.65,0,0,0,.07.21s0,.06,0,.09a1.33,1.33,0,0,1,.07.43,1.17,1.17,0,0,1,0,.36C36.55,34.42,36.5,34.46,36.35,34.49Z" transform="translate(-7.78 -5.11)"/><path d="M26,27a2.3,2.3,0,0,0,.18-.43c.05-.13.1-.26.16-.38s.22-.13.35-.15l.51-.06.5,0a.48.48,0,0,1,.12,0,1.84,1.84,0,0,0,0,.33c0,.13.05.27.09.41l-.05.06a2,2,0,0,1-.2.26v0a2.73,2.73,0,0,0-.54.86,1.15,1.15,0,0,0,.2,1l.43.66.1.16a3.43,3.43,0,0,0,.34.48l.06.06a.76.76,0,0,0,.27.13l.18,0h0a.75.75,0,0,1,.23.07h0a.71.71,0,0,1,.16.18.61.61,0,0,0,.07.1.9.9,0,0,0,.23.2l.14.08,0,0,.05,0a.41.41,0,0,0,0,.22.75.75,0,0,0,.32.35l.12.08.13.06.15.09,0,0h-.22l-.12,0-.12,0-.36-.16-.1,0a1.71,1.71,0,0,0-.3-.09l-.29,0a1.11,1.11,0,0,1-.6-.14h0l0,0-.07-.05a1.09,1.09,0,0,0-.49-.19,1.33,1.33,0,0,0-.66.17l-.2.09-.08,0c-.12.06-.18,0-.29-.1l-.05,0L26.1,31,26,30.9l0,0-.07-.07c-.05-.08-.1-.14-.14-.21a2.23,2.23,0,0,1-.34-.87,5.43,5.43,0,0,1-.1-.81l-.06-.7a.51.51,0,0,1,.17-.45A3.63,3.63,0,0,0,26,27Z" transform="translate(-7.78 -5.11)"/><path d="M36.7,23.78c0-.05,0-.09-.05-.13a.69.69,0,0,1,0-.13l-.07-.12a1.89,1.89,0,0,0-.62-.47l-.11-.07-.11-.07-.12-.08-.16-.07h0l.09,0a1.08,1.08,0,0,1,.28-.05H36l.15,0a9.2,9.2,0,0,0,1-.18c.2,0,.42-.09.66-.12a.87.87,0,0,1,.28,0l.07,0,0,0a.57.57,0,0,0,.13.08l.13,0a1.72,1.72,0,0,0,.39,0,.82.82,0,0,1,.37,0c.08,0,.12.15.15.26s0,.1,0,.14a.54.54,0,0,0,.1.18l.1.12.07.08,0,0,.24.2a1.75,1.75,0,0,1,.42.44,1.51,1.51,0,0,1,.11.22,2.1,2.1,0,0,0,.13.26,1.44,1.44,0,0,0,.39.39,3.67,3.67,0,0,0,.46.27l.09,0c.11.05.31.14.32.23a.68.68,0,0,1-.18.15.75.75,0,0,0-.17.14,1.36,1.36,0,0,0-.28.46,1,1,0,0,0-.07.15c0,.13-.11.25-.17.37a2.36,2.36,0,0,1-.15.25l-.29-.26-.18-.18a.71.71,0,0,0-.54-.21,7.18,7.18,0,0,0-.83.09,8.36,8.36,0,0,0-1.49.38l-.06,0a2.88,2.88,0,0,0,0-.41,4.05,4.05,0,0,0-.12-1,1.18,1.18,0,0,0-.19-.37l-.08-.13L37,24.48a.56.56,0,0,1,0-.12.37.37,0,0,1,0-.18.18.18,0,0,0-.12-.22C36.8,24,36.75,23.89,36.7,23.78Z" transform="translate(-7.78 -5.11)"/><path d="M29.09,25.25a1.88,1.88,0,0,1-.13.58l0,.06h0a.82.82,0,0,0-.39.11l-.07.05-.08.06a1.39,1.39,0,0,0-.22.21,3.8,3.8,0,0,1-.05-.43v-.17c0-.06,0-.1,0-.15l.06-.26c0-.12.05-.24.07-.36s0-.37,0-.55v0a2.59,2.59,0,0,1,.19-1.08,1.25,1.25,0,0,1,.87-.55h0c.49-.14,1.38-.38,1.49-1a8.65,8.65,0,0,0,1.43-.21,3.43,3.43,0,0,1,.44-.09h.3a2.36,2.36,0,0,1,.69.31,2.62,2.62,0,0,1,1,.82.93.93,0,0,1,.05.1l-.16.05-.55.27-.18,0-.16,0h0l-.13,0a.46.46,0,0,1-.2,0,.4.4,0,0,1-.16-.08L33,22.89l-.14,0a1,1,0,0,0-.48.22l-.1.06c-.13.08-.26.16-.4.23l-.18.08-.13.05h-.22a1.59,1.59,0,0,0-.41.07,2.76,2.76,0,0,0-.45.25l-.1.06-.16.11a4.94,4.94,0,0,0-.42.27.69.69,0,0,0-.17.17l0,.06a.83.83,0,0,1-.08.12.33.33,0,0,0-.19,0,.28.28,0,0,0-.23.13.59.59,0,0,0-.07.41A.62.62,0,0,1,29.09,25.25Z" transform="translate(-7.78 -5.11)"/><path d="M37,28a4.6,4.6,0,0,0,.42-1.08h0l.12-.05.58-.19a8.5,8.5,0,0,1,1.55-.28h.19a.26.26,0,0,1,.16,0,.56.56,0,0,1,.2.16l.07.07.18.16.23.21.06.06.06.06.08.1a1,1,0,0,1,.14.61v.1c0,.3,0,.59,0,.84s-.06.8-.1,1.19c0,.14,0,.29,0,.43a1.49,1.49,0,0,1-.18.7l-.12.19c-.09.14-.18.29-.27.42a1.09,1.09,0,0,1-.38.27l-.15.08a1.78,1.78,0,0,0-.28.23l-.1.09-.09.1,0,0a1.62,1.62,0,0,1-.49.38,1,1,0,0,1-.25,0,1.63,1.63,0,0,1-.5-.07,6,6,0,0,1-1-.33l-.09,0-.09,0-.28-.14-.33-.15a2.14,2.14,0,0,0-.32-.08h-.18a1.15,1.15,0,0,0-.34.09l-.14.06-.1.05,0,0a2,2,0,0,1-.71.21h0c-.31,0-.54,0-.59-.16a1.17,1.17,0,0,0-.17-.29L33.55,32a.71.71,0,0,1,.2-.36.72.72,0,0,1,.25,0l.09,0,.39.05a2.36,2.36,0,0,0,.75,0h0l.15,0,.14-.06h0a.2.2,0,0,0,.08,0l.08,0,0,0a2.11,2.11,0,0,0,.23-.19.47.47,0,0,0,.1-.1,1,1,0,0,0,.13-.15l.09-.11,0,0c.17-.24.32-.5.47-.74s.18-.32.28-.47a.78.78,0,0,0,.1-.68.55.55,0,0,0-.4-.32l-.13,0a3,3,0,0,0,.25-.47A1.09,1.09,0,0,0,37,28Z" transform="translate(-7.78 -5.11)"/><path d="M33.58,31.27l0,0-.07.05-.09.11a1,1,0,0,0-.16.33l0,.07h-.08a1.76,1.76,0,0,0-.4.07,3.13,3.13,0,0,0-.32.15,1.19,1.19,0,0,1-.39.16,1.3,1.3,0,0,1-.9-.24L31,31.93,31,31.88l-.15-.1-.09-.06-.35-.21-.12-.06-.11-.07a.33.33,0,0,1-.13-.15l.13,0,.13,0h.14l.7,0h1A1.62,1.62,0,0,0,33.2,31a.94.94,0,0,0,.1-.1l.06-.09.06-.1a.87.87,0,0,0,0-.22l.26-.05.14,0,.24,0,.36-.07.12,0,.07,0,.07,0a.61.61,0,0,0,.19-.24h0a5.5,5.5,0,0,0,.9-.54l.27-.19a1,1,0,0,1,.51-.2.2.2,0,0,1,.11,0,.18.18,0,0,1,.13.08c0,.06,0,.2-.19.52-.1.15-.19.3-.28.45a4.49,4.49,0,0,1-.44.69l-.09.1-.08.09-.2.17h0l0,0h0l0,0-.07,0,0,0h0l-.1,0a1.66,1.66,0,0,1-.61,0l-.34,0-.17,0H34a.77.77,0,0,0-.37,0h-.07Z" transform="translate(-7.78 -5.11)"/><path d="M30.31,30.92h-.13l-.1,0-.07,0h-.19l-.07,0a1.09,1.09,0,0,1-.43-.38v0a.79.79,0,0,0-.19-.17,1.33,1.33,0,0,0-.4-.13l-.06,0a.55.55,0,0,1-.25-.11,1.06,1.06,0,0,1-.2-.29l-.08-.13-.54-.82a.84.84,0,0,1-.13-.83,2.36,2.36,0,0,1,.4-.59l.09-.11c.06-.07.11-.15.18-.24l.07-.09a.24.24,0,0,1,.06-.08,1.58,1.58,0,0,1,.37-.41l.06,0,.06,0,.07,0,0,.12s0,.07,0,.1h0a.36.36,0,0,0,0,.1,2.51,2.51,0,0,0,0,.27v.18h0v0a3.68,3.68,0,0,0,.07.63,1.69,1.69,0,0,0,.15.37,2.56,2.56,0,0,1,.11.24l.06.19a2.88,2.88,0,0,0,.44.92,2.07,2.07,0,0,0,1.19.66h0l.09,0,.1,0h0l.51.07a.62.62,0,0,0,.44,0l.09,0,.42,0,.07,0,.07,0,.07,0,.27.13a.64.64,0,0,0,.17.05h0a.34.34,0,0,1-.06.12l-.06.08-.08.08,0,0a1.44,1.44,0,0,1-.76.19h-1l-.63,0Z" transform="translate(-7.78 -5.11)"/><path d="M34.74,23l.06,0,.08,0,.06,0h0l.08,0h.14l.11,0,.08,0,.12.07.11.06.14.09a1.46,1.46,0,0,1,.54.44.56.56,0,0,1,.07.13l0,.1a.74.74,0,0,0,.23.33,1.09,1.09,0,0,0,0,.18,1.42,1.42,0,0,0,.05.16.49.49,0,0,0,.06.13c0,.06.07.12.12.2a1.83,1.83,0,0,1,.23.9,3.23,3.23,0,0,1,0,.89l0,.16v0a4.57,4.57,0,0,1-.33.85,7.44,7.44,0,0,1-.44.8,1.17,1.17,0,0,1-.33.34l-.18.13,0,0c-.22.14-.45.29-.72.44,0-.07.07-.14.12-.22l.09-.09.18-.15.15-.12a2.73,2.73,0,0,0,.46-.52.41.41,0,0,0,.07-.11,2.31,2.31,0,0,0,.1-.28,1.37,1.37,0,0,0,0-.23l0-.22c0-.14,0-.27.07-.4l0-.14a2.26,2.26,0,0,0,.09-.54,3.5,3.5,0,0,0-.08-.65l0-.13a4.37,4.37,0,0,0-.19-.67,2.48,2.48,0,0,0-.2-.44l0,0-.06-.1v0l-.05-.07,0,0,0,0a1.88,1.88,0,0,0-.18-.24l-.18-.22-.07-.08-.06-.08-.08-.09,0-.08,0,0,0,0L35,23.38l0,0-.06,0,0,0-.08,0-.08,0-.17-.07.08,0Z" transform="translate(-7.78 -5.11)"/><path d="M29.07,26.82s0-.08,0-.11a.52.52,0,0,0,0-.11c0-.12.06-.24.11-.4l.08-.22a2.8,2.8,0,0,0,.14-.54,1.14,1.14,0,0,0,0-.25v0a.61.61,0,0,1,0-.2.29.29,0,0,0,.16,0,.3.3,0,0,0,.15-.05.57.57,0,0,0,.19-.22.42.42,0,0,1,.11-.15,3,3,0,0,1,.35-.23l.16-.1.13-.08a1.74,1.74,0,0,1,.39-.23l.23-.05h0a3.65,3.65,0,0,1-.14.35,2.8,2.8,0,0,0-.13.38.93.93,0,0,1-.11.19.76.76,0,0,0-.08.11.31.31,0,0,0-.05.1l-.18.07-.05,0a.46.46,0,0,0-.27.12,1.48,1.48,0,0,0-.44.59,2.06,2.06,0,0,0-.17.66v.09a.28.28,0,0,0,0,.09c0,.13,0,.26,0,.41v.05a.7.7,0,0,0,.15.51,1.78,1.78,0,0,0,.48.36.3.3,0,0,0,.11.06,1.1,1.1,0,0,0,.19.55l.52,1a.45.45,0,0,0,.23.24h0a5,5,0,0,1-.5-.07l-.11,0-.1,0-.16,0a1.73,1.73,0,0,1-.55-.32,1.07,1.07,0,0,1-.18-.19,1,1,0,0,1-.13-.19,3.89,3.89,0,0,1-.21-.53v-.06c0-.07-.05-.15-.08-.23a1.23,1.23,0,0,0-.12-.26,1.36,1.36,0,0,1-.11-.28,2,2,0,0,1-.06-.51v-.27l-.09,0Z" transform="translate(-7.78 -5.11)"/><path d="M34.08,24.2h0l0,0a.48.48,0,0,0-.18,0h-.24a.27.27,0,0,0-.16,0,.28.28,0,0,0-.08.06h-.15a2.44,2.44,0,0,0-.55.11l-.14,0-.14,0a1.26,1.26,0,0,0-.56.2h-.05a1.87,1.87,0,0,0-.44.08c0-.09.07-.19.1-.27s0-.14.06-.19l.17-.43c0-.07.09-.09.19-.13l.1-.05a3.69,3.69,0,0,0,.52-.29l.25-.15a.26.26,0,0,1,.32,0,.76.76,0,0,0,.31.11,1.38,1.38,0,0,0,.35,0l0,0,.1,0h.19a1.58,1.58,0,0,1,.23.11l0,0,.12.06.08,0,.06,0-.07.08,0,.05-.37.46Z" transform="translate(-7.78 -5.11)"/><path d="M34,24.59h.06l0,0,0,0,0,0,.09.05h0l.08.05h0l.1.05a.36.36,0,0,1,.17.2,1.37,1.37,0,0,1,0,.36.71.71,0,0,0,0,.14,3.85,3.85,0,0,1-.15,1.06l-.08.18c0,.06-.05.13-.07.2,0-.21,0-.42,0-.62a5.71,5.71,0,0,0-.07-1.09,1.24,1.24,0,0,0-.17-.45l0-.07L34,24.67,34,24.61H34Z" transform="translate(-7.78 -5.11)"/><path d="M32.18,29.78H32l.21-.08A.16.16,0,0,0,32.18,29.78Z" transform="translate(-7.78 -5.11)"/><path d="M32.57,29.48a1.16,1.16,0,0,0,.26-.29l0-.06L33,29l0,0a.33.33,0,0,0,.09-.13v0l0,0a1.9,1.9,0,0,0,.19-.21l.1-.11.49-.51.07-.08,0-.05h0s.05,0,.08.09a1.73,1.73,0,0,1-.39.43l-.06.06h0l-.07.07a5.15,5.15,0,0,0-.43.52l-.1.13a1.17,1.17,0,0,1-.76.53h0A1.51,1.51,0,0,0,32.57,29.48Z" transform="translate(-7.78 -5.11)"/><path d="M30.74,27.81h0l-.08,0-.06,0-.05,0h0a1.41,1.41,0,0,1-.31-.21c-.14-.11-.15-.23-.16-.43a3.23,3.23,0,0,1,0-.44s0-.05,0-.08a.28.28,0,0,1,0-.09,1.45,1.45,0,0,1,.06-.3.43.43,0,0,1,.05-.13,2,2,0,0,1,.1-.21l0,0,0,0a2.08,2.08,0,0,0,0,.61l0,.08a.29.29,0,0,0,0,.09h0a.54.54,0,0,0,.05.11h0a.77.77,0,0,0,.05.62,1.2,1.2,0,0,0,.29.39.63.63,0,0,1,.14.24Z" transform="translate(-7.78 -5.11)"/><path d="M31.6,29.51h-.09a.34.34,0,0,1-.08-.13s0-.05,0-.08a.24.24,0,0,0,0-.07l-.43-.8a1.63,1.63,0,0,1-.09-.19,1.17,1.17,0,0,1,.25.13h0l.18.1a2.17,2.17,0,0,0,.64.33,1.72,1.72,0,0,0,.53.11h.13l0,0a1.16,1.16,0,0,1-.16.21l-.08.07a1.28,1.28,0,0,1-.23.14,2,2,0,0,1-.26.09l-.15,0v0Z" transform="translate(-7.78 -5.11)"/><path d="M31.32,27.9l-.08-.21,0-.09.07,0,.06.05a.88.88,0,0,0,.35.17l.12,0a.14.14,0,0,0,.11,0,1.68,1.68,0,0,0,.32.09l.1,0A1.9,1.9,0,0,0,33,28l.37-.09h0l-.12.12-.42.44,0,0,0,0-.16,0h-.15a1.48,1.48,0,0,1-.5-.1l-.28-.12-.19-.12,0,0,0,0,0,0v0h0l0-.07s0-.07,0-.11Z" transform="translate(-7.78 -5.11)"/><path d="M33.82,25a.44.44,0,0,1,.08.15,1.18,1.18,0,0,1,.08.31l0-.1-.07-.12a1.09,1.09,0,0,1-.08-.15.28.28,0,0,1,0-.15l0,0Z" transform="translate(-7.78 -5.11)"/><path d="M30.73,26.22a.22.22,0,0,1,0,.08v0h0s0-.05,0-.07a1.25,1.25,0,0,1,0-.21,1.48,1.48,0,0,1,0-.3v-.06a.62.62,0,0,1,0-.19,0,0,0,0,1,0,0,0,0,0,0,1,0,0h0l.05,0,.23-.09h0l.13-.06a1.63,1.63,0,0,0-.33.54,1.42,1.42,0,0,0-.07.22.83.83,0,0,0,0,.15v.07Z" transform="translate(-7.78 -5.11)"/><path d="M33,25.1a2.3,2.3,0,0,0-.64-.15h0a1.14,1.14,0,0,1,.25-.06l.14,0a4.13,4.13,0,0,1,.69-.11h.08v.09a.65.65,0,0,0,0,.24.13.13,0,0,1,0,.06l0,.05a1.09,1.09,0,0,0,.08.15l0,0,0,0v0a1.83,1.83,0,0,1,.14.28v0a.32.32,0,0,0-.09,0l-.08-.1,0,0-.06-.08,0-.06A1.21,1.21,0,0,0,33,25.1Z" transform="translate(-7.78 -5.11)"/><path d="M31.44,27.29l-.05-.06a.64.64,0,0,1-.08-.14l-.11-.21a1.43,1.43,0,0,1-.12-.53v-.08h0v-.07a1.41,1.41,0,0,1,.27-.6,1.07,1.07,0,0,1,.52-.41H32a.85.85,0,0,0-.14.19l-.12.15-.13.09-.08.07a.68.68,0,0,0-.26.29.57.57,0,0,0,0,.14.31.31,0,0,0,0,.1.28.28,0,0,0,0,.09,1.13,1.13,0,0,0,0,.25,1.92,1.92,0,0,0,.22.56l0,0,.11.26Z" transform="translate(-7.78 -5.11)"/><path d="M33.73,26.25h0c0-.05,0-.11,0-.16a.64.64,0,0,1,0-.07.52.52,0,0,1,.19.26,0,0,0,0,1,0,0,.38.38,0,0,1,0,.13v.06s0,0,0,0,0,.18.07.27a1,1,0,0,1,0,.16.41.41,0,0,1,0,.19,0,0,0,0,0,0,0l0,.08,0,.05s0,.08-.09.1l0,0a1.74,1.74,0,0,0,.07-.29A2.27,2.27,0,0,0,33.73,26.25Z" transform="translate(-7.78 -5.11)"/><path d="M32.05,27.54h0l0,0a.73.73,0,0,1,0-.12v-.05l-.06-.14a.48.48,0,0,0,.27-.13.9.9,0,0,0,.18-.28l0-.05c.07-.13.16-.16.32-.2a1.43,1.43,0,0,0,.5-.23,1.17,1.17,0,0,0,.24-.22l.09.21a2,2,0,0,1,.12.8,1.36,1.36,0,0,1-.13.39l0,0,0,0a2,2,0,0,1-.54.13,1.75,1.75,0,0,1-.57-.07l-.15,0,0,.09,0-.09Z" transform="translate(-7.78 -5.11)"/><path d="M32.7,25.45h0a1.65,1.65,0,0,0-.32,0,.71.71,0,0,0-.22.06l.08-.08.08-.05h.08a1.12,1.12,0,0,1,.39.1Z" transform="translate(-7.78 -5.11)"/><path d="M32.47,26.11l0,0h0l.17-.13.11-.06a.22.22,0,0,0,.1-.09h0l.07,0s0,0,.06,0,0,0,0,0a.06.06,0,0,1,0,0,1.16,1.16,0,0,1-.49.27l-.19,0A.42.42,0,0,1,32.47,26.11Z" transform="translate(-7.78 -5.11)"/><path d="M31.94,26.7c0,.09-.09.15-.15.14a.13.13,0,0,1-.08,0s0,0-.05,0a.34.34,0,0,0,.17-.05Z" transform="translate(-7.78 -5.11)"/><path d="M31.81,26.34a.22.22,0,0,1,0-.08s0,0,0-.06h0v0h0a.16.16,0,0,1,.06-.08l.06,0A.31.31,0,0,1,32,26l.07,0,.12-.05,0,0-.08.09v0l0,0,0,.1s0,.08,0,.11l0,0-.08,0Z" transform="translate(-7.78 -5.11)"/><path d="M35,23.94l.07.08c0,.05.09.1.13.16l0,0a.69.69,0,0,1,.11.13l.11.15,0,0,.06.09v0A3.3,3.3,0,0,1,36,25.78a1.42,1.42,0,0,0,0,.2,2.69,2.69,0,0,1,0,.44A1.48,1.48,0,0,1,36,27v0a4,4,0,0,0-.08.48v0a2.24,2.24,0,0,1-.09.45.61.61,0,0,1-.05.12v0a1.55,1.55,0,0,1-.43.49l-.07.06-.21.18-.19.2,0,.06a1.26,1.26,0,0,0-.13.26h0s0,0,0,0a1.24,1.24,0,0,0,0,.27s0,0,0,0h0v0s0,0,0,.05l0,0,0,0,0,0-.16,0-.07,0-.7.13a1.13,1.13,0,0,1-.18,0h-.12a.24.24,0,0,1-.12,0l-.13,0-.2-.1-.05,0-.06,0h0a2.11,2.11,0,0,0,.76-.7l.12-.16.2-.25,0,0,0,0,.06-.06.06-.05.15-.14a2.44,2.44,0,0,0,.22-.23l.07-.09v0h0l0-.06,0-.09v0a2.1,2.1,0,0,0,.12-.54,2,2,0,0,0,0-.24l0-.1v0a1.67,1.67,0,0,1,.08-.2l.06-.15c0-.06,0-.12,0-.19a3.09,3.09,0,0,0,.07-.35,5,5,0,0,0,0-.84v-.19a.67.67,0,0,0-.21-.48h0l-.15-.12h0l0,0h0l-.07,0-.09-.05h0l.07-.09.24-.28,0,0,0,0,.05-.07a.17.17,0,0,1,.06-.06h0l.07-.06-.06.07h0l0,0,.08,0h0l-.07.06Z" transform="translate(-7.78 -5.11)"/><path d="M37.87,13.81a.66.66,0,0,1-.43-.18.6.6,0,0,1,0-.86.63.63,0,0,1,.87,0,.6.6,0,0,1,0,.86A.65.65,0,0,1,37.87,13.81Z" transform="translate(-7.78 -5.11)"/><path d="M38.6,12a.62.62,0,0,1-.13-.86h0a.61.61,0,0,1,.85-.13h0a.61.61,0,0,1,.13.86h0a.6.6,0,0,1-.49.25h0A.62.62,0,0,1,38.6,12Zm22.7-.18a.63.63,0,0,1,.12-.86h0a.62.62,0,0,1,.86.13h0a.61.61,0,0,1-.13.85h0a.6.6,0,0,1-.36.12h0A.6.6,0,0,1,61.3,11.79ZM39.86,10.36a.6.6,0,0,1,0-.86h0a.6.6,0,0,1,.86,0h0a.6.6,0,0,1,0,.86h0a.63.63,0,0,1-.43.19h0A.64.64,0,0,1,39.86,10.36Zm20.17,0a.62.62,0,0,1,0-.87h0a.61.61,0,0,1,.86,0h0a.6.6,0,0,1,0,.86h0a.61.61,0,0,1-.43.18h0A.6.6,0,0,1,60,10.31ZM41.33,9a.61.61,0,0,1,.12-.86h0a.61.61,0,0,1,.85.12h0a.62.62,0,0,1-.11.86h0a.63.63,0,0,1-.37.12h0A.6.6,0,0,1,41.33,9ZM58.55,9h0a.6.6,0,0,1-.13-.85h0a.62.62,0,0,1,.86-.12h0a.62.62,0,0,1,.12.86h0a.6.6,0,0,1-.49.24h0A.6.6,0,0,1,58.55,9ZM43,7.76a.6.6,0,0,1,.24-.83h0a.61.61,0,0,1,.83.23h0a.63.63,0,0,1-.24.84h0a.6.6,0,0,1-.3.07h0A.6.6,0,0,1,43,7.76ZM56.92,8a.6.6,0,0,1-.24-.83h0a.6.6,0,0,1,.83-.24h0a.62.62,0,0,1,.24.83h0a.63.63,0,0,1-.54.31h0A.59.59,0,0,1,56.92,8ZM44.8,6.82A.61.61,0,0,1,45.16,6h0a.6.6,0,0,1,.78.36h0a.61.61,0,0,1-.35.79h0a.85.85,0,0,1-.22,0h0A.62.62,0,0,1,44.8,6.82Zm10.34.33h0a.6.6,0,0,1-.35-.78h0A.6.6,0,0,1,55.57,6h0a.61.61,0,0,1,.36.79h0a.62.62,0,0,1-.57.39h0A.57.57,0,0,1,55.14,7.15Zm-8.41-1a.59.59,0,0,1,.46-.72h0a.6.6,0,0,1,.73.46h0a.61.61,0,0,1-.46.73h-.13A.61.61,0,0,1,46.73,6.15Zm6.54.46a.62.62,0,0,1-.47-.73h0a.62.62,0,0,1,.73-.47h0a.62.62,0,0,1,.47.73h0a.62.62,0,0,1-.6.48h-.13Zm-4.53-.84a.6.6,0,0,1,.56-.65h0a.61.61,0,0,1,.65.56h0a.61.61,0,0,1-.56.66h0A.6.6,0,0,1,48.74,5.77Zm2.6.56a.61.61,0,0,1-.57-.65h0a.6.6,0,0,1,.65-.56h0a.61.61,0,0,1,.57.65h0a.6.6,0,0,1-.61.56h0Z" transform="translate(-7.78 -5.11)"/><path d="M62.89,13.76a.62.62,0,0,1-.43-.18.6.6,0,0,1,0-.86.62.62,0,0,1,.86,0,.6.6,0,0,1,0,.86A.62.62,0,0,1,62.89,13.76Z" transform="translate(-7.78 -5.11)"/><path d="M50.4,126.4c-23.5,0-42.62-23.1-42.62-51.49A60.11,60.11,0,0,1,13.3,49.54a.66.66,0,1,1,1.2.57,58.83,58.83,0,0,0-5.39,24.8c0,27.66,18.52,50.16,41.29,50.16s41.28-22.5,41.28-50.16a58.59,58.59,0,0,0-5.39-24.78.67.67,0,0,1,1.21-.57A60,60,0,0,1,93,74.91C93,103.3,73.89,126.4,50.4,126.4Z" transform="translate(-7.78 -5.11)"/><path d="M50.4,114.83c-17.15,0-31.1-17.71-31.1-39.48s14-39.47,31.1-39.47S81.49,53.59,81.49,75.35,67.54,114.83,50.4,114.83Zm0-78.28C33.62,36.55,20,54,20,75.35s13.65,38.81,30.43,38.81S80.82,96.75,80.82,75.35,67.17,36.55,50.4,36.55Z" transform="translate(-7.78 -5.11)"/><path d="M33.89,114.86a.11.11,0,0,1,.08,0s0,0,0,0a.13.13,0,0,1,0,.06A.1.1,0,0,1,34,115l-.48.16-.68.2-.82.16a4.33,4.33,0,0,1-.88,0,3.31,3.31,0,0,1-.88-.15,2.53,2.53,0,0,1-.83-.43.53.53,0,0,1-.17-.25.8.8,0,0,1,0-.31.93.93,0,0,1,.1-.34,1.5,1.5,0,0,1,.19-.32,1.56,1.56,0,0,1,.4-.33,5.72,5.72,0,0,1,.62-.35l.77-.34.84-.33.83-.31.73-.29c.22-.09.4-.17.55-.25a1.06,1.06,0,0,0,.3-.21s0,0,.08,0a.72.72,0,0,1,.1.18,1,1,0,0,1,0,.26.41.41,0,0,1-.09.26.46.46,0,0,1-.18.12l-.33.14-.43.15-.47.15L32,113a1.46,1.46,0,0,1,.36,0,1.42,1.42,0,0,1,.34,0,.84.84,0,0,1,.34.17.59.59,0,0,1,.2.26.58.58,0,0,1,0,.29.94.94,0,0,1-.1.28c-.06.09-.11.18-.17.26a1.93,1.93,0,0,1-.39.35,2.65,2.65,0,0,1-.55.3,4,4,0,0,1-.64.22,3.82,3.82,0,0,1-.66.12.77.77,0,0,0,.42.11,2.79,2.79,0,0,0,.57,0,5.22,5.22,0,0,0,.63-.11,5.12,5.12,0,0,0,.62-.15l.53-.15Zm-4.29-.14a.52.52,0,0,0,.27.07,4.44,4.44,0,0,0,.49,0c.19,0,.39-.06.61-.11a5.45,5.45,0,0,0,.65-.21,3.66,3.66,0,0,0,.59-.31,1.74,1.74,0,0,0,.47-.42.44.44,0,0,0,.06-.1.56.56,0,0,0,0-.12.2.2,0,0,0,0-.11.15.15,0,0,0-.06-.09.55.55,0,0,0-.37-.1,2.88,2.88,0,0,0-.55.06,6.28,6.28,0,0,0-.65.17c-.22.08-.43.16-.63.25A5.18,5.18,0,0,0,30,114a1.24,1.24,0,0,0-.33.27.7.7,0,0,0-.14.27A.21.21,0,0,0,29.6,114.72Z" transform="translate(-7.78 -5.11)"/><path d="M37,116.7a.1.1,0,0,1,.09,0,.1.1,0,0,1,.05,0,.13.13,0,0,1,0,.06s0,0-.06,0a4.46,4.46,0,0,1-.8.33,6.32,6.32,0,0,1-.93.23,10.2,10.2,0,0,1-1,.15c-.35,0-.7.06-1,.07l-.94.41-.94.36c-.3.11-.6.21-.88.29a7.83,7.83,0,0,1-.79.18,3.05,3.05,0,0,1-.65,0,.89.89,0,0,1-.46-.13.68.68,0,0,1-.36-.45.74.74,0,0,1,.13-.52.58.58,0,0,1,.39-.23,3.48,3.48,0,0,1,.73-.1c.29,0,.62,0,1,0h1.19l.92-.34.77-.3.74-.3-.25.09-.38.12a3,3,0,0,1-.45.12,2.57,2.57,0,0,1-.47.08,1.55,1.55,0,0,1-.43,0,.72.72,0,0,1-.35-.11.37.37,0,0,1-.19-.29.63.63,0,0,1,.11-.37,1,1,0,0,1,.3-.27c.14-.09.31-.18.49-.28l.6-.28.61-.3c.2-.11.38-.22.55-.33a2.06,2.06,0,0,0,.4-.36s0,0,.09,0a.69.69,0,0,1,.14.15.48.48,0,0,1,.08.22.36.36,0,0,1-.05.26,1.16,1.16,0,0,1-.36.31q-.26.17-.57.33l-.65.32-.59.28a2.12,2.12,0,0,0-.38.24c-.08.07-.09.13,0,.17a.54.54,0,0,0,.31,0,3.54,3.54,0,0,0,.49-.08l.61-.18.66-.23.66-.25.59-.22a1.74,1.74,0,0,0,.27-.22,2,2,0,0,0,.21-.24s0,0,.09,0a.51.51,0,0,1,.14.15.63.63,0,0,1,.09.22.37.37,0,0,1-.06.26,1.26,1.26,0,0,1-.25.19c-.15.09-.34.21-.58.34s-.51.28-.82.44l-1,.5a15.21,15.21,0,0,0,1.63-.23A7.77,7.77,0,0,0,37,116.7Zm-8.34,1.51a.62.62,0,0,0,.34,0c.16,0,.35-.06.58-.11s.47-.12.74-.21l.84-.27h-.95l-.79,0a3.84,3.84,0,0,0-.56.06.42.42,0,0,0-.27.14.31.31,0,0,0-.05.12.22.22,0,0,0,0,.11A.24.24,0,0,0,28.61,118.21Z" transform="translate(-7.78 -5.11)"/><path d="M46.64,119a2.28,2.28,0,0,1,.75.42,2,2,0,0,1,.26.25,1.38,1.38,0,0,1,.2.33,1.6,1.6,0,0,1,.11.39,2,2,0,0,1,0,.47,2.34,2.34,0,0,1-.3.71,3.06,3.06,0,0,1-.51.63,3.58,3.58,0,0,1-.66.5,4,4,0,0,1-.75.36,3.41,3.41,0,0,1-.75.18,2,2,0,0,1-.7,0,1.27,1.27,0,0,1-.4-.17,1.11,1.11,0,0,1-.31-.3,1.18,1.18,0,0,1-.19-.41,1.29,1.29,0,0,1,0-.48,1,1,0,0,1,.15-.32,1.35,1.35,0,0,1,.26-.28,1.94,1.94,0,0,1,.33-.23,1.73,1.73,0,0,1,.37-.16,1.58,1.58,0,0,1,.36-.09,1.11,1.11,0,0,1,.32,0,1,1,0,0,1,.24.09.26.26,0,0,1,.12.11.19.19,0,0,1,0,.1.22.22,0,0,1,0,.09s-.05.05-.12,0l-.23-.06a.9.9,0,0,0-.43,0,1.66,1.66,0,0,0-.46.19,2,2,0,0,0-.38.32.93.93,0,0,0-.21.42.5.5,0,0,0,0,.3.57.57,0,0,0,.15.21.59.59,0,0,0,.23.14,1.34,1.34,0,0,0,.26.09,1.21,1.21,0,0,0,.42,0,1.94,1.94,0,0,0,.53-.15,3.07,3.07,0,0,0,.57-.29,2.79,2.79,0,0,0,.54-.42,3,3,0,0,0,.44-.56,2.48,2.48,0,0,0,.27-.67,1.82,1.82,0,0,0,0-.64,1.15,1.15,0,0,0-.16-.44,1.11,1.11,0,0,0-.28-.29,1.53,1.53,0,0,0-.31-.16l-.29-.09-.18,0-.13,0h-.12a.09.09,0,0,1-.06,0,.19.19,0,0,1,0-.11s.06,0,.15-.05l.37,0c.15,0,.31,0,.49-.08a2.3,2.3,0,0,0,.5-.18,1.38,1.38,0,0,0,.43-.32,1,1,0,0,0,.26-.51,1.55,1.55,0,0,0,0-.31.7.7,0,0,0,0-.32.64.64,0,0,0-.49-.42,3.38,3.38,0,0,0-1.13-.06,3,3,0,0,0-.92.24,2.27,2.27,0,0,0-.65.41,1,1,0,0,0-.29.43.38.38,0,0,0,0,.31.3.3,0,0,0,.17.12.57.57,0,0,0,.34,0,1.71,1.71,0,0,0,.33-.2l.34-.28a3.07,3.07,0,0,1,.34-.29,1.44,1.44,0,0,1,.37-.19.73.73,0,0,1,.39,0,.64.64,0,0,1,.22.1l.15.12a.41.41,0,0,1,.06.11s0,0,0,0-.26,0-.42.18a5.45,5.45,0,0,0-.58.59l-.73.85c-.27.32-.57.64-.89,1a9.42,9.42,0,0,1-1,.93,5.82,5.82,0,0,1-1.21.75,5.31,5.31,0,0,1-1.37.42,4.48,4.48,0,0,1-1.54-.06,3.24,3.24,0,0,1-1-.4,2.13,2.13,0,0,1-1-1.47,2.51,2.51,0,0,1,0-1,2.09,2.09,0,0,1,.27-.66A3.36,3.36,0,0,1,38,118a4.09,4.09,0,0,1,.61-.49,4.38,4.38,0,0,1,.66-.37,2.8,2.8,0,0,1,.65-.19,1.37,1.37,0,0,1,.57,0,1.42,1.42,0,0,1,.42.16.64.64,0,0,1,.19.22.41.41,0,0,1,0,.21c0,.07,0,.13,0,.17a.11.11,0,0,1-.07.08.36.36,0,0,1-.14,0l-.2-.06-.21-.06a1.34,1.34,0,0,0-.49,0,2.21,2.21,0,0,0-.54.16,3,3,0,0,0-1,.75,2.85,2.85,0,0,0-.38.53,2,2,0,0,0-.23.59,1.66,1.66,0,0,0,0,.7,1.47,1.47,0,0,0,.27.63,1.94,1.94,0,0,0,.55.51,2.34,2.34,0,0,0,.82.32,2.1,2.1,0,0,0,.9,0,4.52,4.52,0,0,0,1-.34,7.24,7.24,0,0,0,.95-.57c.31-.22.6-.45.88-.69a16.78,16.78,0,0,0,2-2,.56.56,0,0,1-.17.09.59.59,0,0,1-.2,0,.6.6,0,0,1-.23,0,.72.72,0,0,1-.49-.28.69.69,0,0,1-.06-.5.77.77,0,0,1,.22-.39,1.67,1.67,0,0,1,.44-.32,2.91,2.91,0,0,1,.59-.25,3.85,3.85,0,0,1,.69-.16,4.17,4.17,0,0,1,.71-.06,3.82,3.82,0,0,1,.68.07,2.19,2.19,0,0,1,.58.22,1.77,1.77,0,0,1,.38.33,1.05,1.05,0,0,1,.19.4,1,1,0,0,1,0,.43.9.9,0,0,1-.13.32,1.37,1.37,0,0,1-.23.25,1.1,1.1,0,0,1-.28.2,1.82,1.82,0,0,1-.31.16A3.66,3.66,0,0,1,46.64,119Z" transform="translate(-7.78 -5.11)"/><path d="M52,120.09l.07,0h.07a.09.09,0,0,1,0,0,.14.14,0,0,1,0,.06l-.32.41q-.2.27-.45.57c-.18.2-.36.41-.56.61a6.53,6.53,0,0,1-.62.57,3.81,3.81,0,0,1-.65.4,1.4,1.4,0,0,1-.64.14.68.68,0,0,1-.29-.07,1,1,0,0,1-.28-.18,1,1,0,0,1-.28-.78,2.24,2.24,0,0,1,.11-.51,3,3,0,0,1,.28-.57,5,5,0,0,1,.41-.56,3.31,3.31,0,0,1,.53-.47,2.8,2.8,0,0,1,.61-.33,1.73,1.73,0,0,1,.68-.1.51.51,0,0,1,.42.14.47.47,0,0,1,.1.32,1.05,1.05,0,0,1-.18.53,1.64,1.64,0,0,1-.44.43,2.22,2.22,0,0,1-.64.3,2.88,2.88,0,0,1-.78.1,4.08,4.08,0,0,0-.22.54,2.54,2.54,0,0,0-.09.47.66.66,0,0,0,.07.34.33.33,0,0,0,.27.14.82.82,0,0,0,.45-.15,4,4,0,0,0,.54-.39q.28-.25.57-.54l.53-.58c.17-.19.32-.37.44-.52Zm-1.26-.48a.87.87,0,0,0-.37.09A1.72,1.72,0,0,0,50,120a3.46,3.46,0,0,0-.35.4,4.87,4.87,0,0,0-.32.47,1.49,1.49,0,0,0,.57-.08,1.79,1.79,0,0,0,.46-.22,1.6,1.6,0,0,0,.33-.3.85.85,0,0,0,.18-.29.33.33,0,0,0,0-.23A.15.15,0,0,0,50.7,119.61Z" transform="translate(-7.78 -5.11)"/><path d="M52.58,122.35a.46.46,0,0,0,.27-.15l.36-.39c.14-.16.27-.33.41-.52s.28-.38.4-.56.24-.35.34-.5l.23-.34s0,0,.06,0a.08.08,0,0,1,.07,0,.08.08,0,0,1,0,0,.11.11,0,0,1,0,.08l-.28.43-.39.6c-.14.22-.3.44-.46.66s-.33.43-.49.61a3.87,3.87,0,0,1-.47.45.71.71,0,0,1-.4.18.45.45,0,0,1-.3-.07.55.55,0,0,1-.15-.2.82.82,0,0,1-.07-.29,1.49,1.49,0,0,1,.08-.57,3.9,3.9,0,0,1,.2-.47,4.25,4.25,0,0,0,.21-.43.89.89,0,0,0,.08-.43.3.3,0,0,0-.06-.14.85.85,0,0,0-.14-.1l-.17-.1a1.1,1.1,0,0,1-.18-.14.77.77,0,0,1-.14-.21.72.72,0,0,1-.07-.32.86.86,0,0,1,.06-.39,1.32,1.32,0,0,1,.2-.32,1.23,1.23,0,0,1,.29-.22,1.13,1.13,0,0,1,.35-.09.29.29,0,0,1,.14,0,.12.12,0,0,1,.06.09.23.23,0,0,1-.06.16l-.14.21a1.58,1.58,0,0,0-.13.26.7.7,0,0,0,0,.33.73.73,0,0,0,.07.29.55.55,0,0,0,.14.19.78.78,0,0,0,.18.11l.18.08a.81.81,0,0,1,.14.12.42.42,0,0,1,.06.18.79.79,0,0,1-.07.29l-.17.39-.21.44a3.45,3.45,0,0,0-.15.4.61.61,0,0,0,0,.28C52.42,122.33,52.48,122.36,52.58,122.35Z" transform="translate(-7.78 -5.11)"/><path d="M56.21,122.46a.45.45,0,0,1-.31,0,.48.48,0,0,1-.17-.18.63.63,0,0,1-.1-.28,1.28,1.28,0,0,1,0-.57,5.33,5.33,0,0,1,.23-.63c.1-.22.21-.42.32-.63l.28-.53a2,2,0,0,0,.13-.35c0-.09,0-.12-.14-.11a.66.66,0,0,0-.28.19,4.43,4.43,0,0,0-.33.42c-.13.18-.25.37-.38.59l-.37.66q-.18.34-.36.66c-.11.22-.22.41-.31.58l-.24.41c-.07.1-.12.16-.15.16h-.17l-.13,0-.1-.07,0,0a1.72,1.72,0,0,1,.09-.24l.23-.55c.09-.23.19-.47.29-.75s.2-.54.29-.8a6.75,6.75,0,0,0,.19-.74,1.52,1.52,0,0,0,0-.54l.08,0a.44.44,0,0,1,.19,0,.67.67,0,0,1,.21.1.42.42,0,0,1,.12.23.92.92,0,0,1,0,.36c0,.14-.07.28-.11.41l-.11.34q0,.15,0,.15s0,0,.09-.14l.21-.34c.09-.14.18-.29.29-.45a5.37,5.37,0,0,1,.35-.45,2.66,2.66,0,0,1,.39-.37.86.86,0,0,1,.4-.19.35.35,0,0,1,.32.08.59.59,0,0,1,.14.34.91.91,0,0,1,0,.36,3.15,3.15,0,0,1-.14.44q-.09.23-.21.48l-.23.47c-.08.15-.15.3-.21.43a2.11,2.11,0,0,0-.14.35.45.45,0,0,0,0,.22c0,.06.07.07.15.06a.47.47,0,0,0,.25-.19,4.51,4.51,0,0,0,.32-.42l.35-.56.34-.6c.1-.2.19-.37.28-.53l.18-.37a.17.17,0,0,1,.06-.06h.07s0,0,0,0a.08.08,0,0,1,0,.07c-.06.11-.14.27-.23.47s-.2.41-.32.64-.25.46-.39.7a7.35,7.35,0,0,1-.42.65,3.14,3.14,0,0,1-.41.5A.75.75,0,0,1,56.21,122.46Z" transform="translate(-7.78 -5.11)"/><path d="M61.84,118a.13.13,0,0,1,.06-.07H62a.05.05,0,0,1,0,0,.08.08,0,0,1,0,.07l-.17.49c-.07.21-.16.44-.25.68s-.19.49-.3.75-.23.49-.34.7a3.07,3.07,0,0,1-.34.55.69.69,0,0,1-.32.27.39.39,0,0,1-.32,0,.4.4,0,0,1-.18-.16,1,1,0,0,1-.11-.3,2.15,2.15,0,0,1-.15.38,2.55,2.55,0,0,1-.21.28.7.7,0,0,1-.3.19.83.83,0,0,1-.28,0,.92.92,0,0,1-.31-.07,1,1,0,0,1-.28-.23,1.21,1.21,0,0,1-.21-.41,2,2,0,0,1-.06-.52A3.57,3.57,0,0,1,58,120a4.31,4.31,0,0,1,.21-.67,3,3,0,0,1,.34-.64,2.08,2.08,0,0,1,.47-.51,1.77,1.77,0,0,1,.6-.33.81.81,0,0,1,.3,0,.46.46,0,0,1,.23.09,1,1,0,0,1,.17.19,1.49,1.49,0,0,1,.11.28,1.13,1.13,0,0,1,0,.34h.12l.12,0,.11,0a.11.11,0,0,1,0,0,1.38,1.38,0,0,1-.06.19c0,.11-.09.25-.14.41s-.11.33-.17.51-.09.35-.12.49a1.17,1.17,0,0,0,0,.36.12.12,0,0,0,.17.09.5.5,0,0,0,.22-.22c.08-.13.17-.28.26-.46s.19-.39.28-.6.18-.43.26-.64.14-.4.21-.57S61.81,118.1,61.84,118ZM59,121.55a.54.54,0,0,0,.29-.22,2.74,2.74,0,0,0,.25-.42,4.65,4.65,0,0,0,.22-.54c.07-.19.13-.38.19-.56l-.12-.08-.05,0s0-.05.05-.13.07-.16.11-.27a3.21,3.21,0,0,0,.08-.36.86.86,0,0,0,0-.39.31.31,0,0,0-.12-.2.18.18,0,0,0-.2,0,.89.89,0,0,0-.51.38,2.39,2.39,0,0,0-.36.67,4.16,4.16,0,0,0-.2.79,3.26,3.26,0,0,0,0,.75,1.25,1.25,0,0,0,.13.53A.24.24,0,0,0,59,121.55Z" transform="translate(-7.78 -5.11)"/><path d="M65.29,116.36a.11.11,0,0,1,0-.08l.06,0a.05.05,0,0,1,0,0,.08.08,0,0,1,0,.07c0,.13-.06.3-.11.51s-.1.46-.16.71l-.21.78c-.08.27-.16.52-.25.75a3.93,3.93,0,0,1-.28.58.72.72,0,0,1-.28.31.4.4,0,0,1-.23,0,.36.36,0,0,1-.18-.07.46.46,0,0,1-.12-.12l-.08-.14,0-.07v0a2.22,2.22,0,0,1-.11.39,2,2,0,0,1-.18.31.64.64,0,0,1-.27.22,1.07,1.07,0,0,1-.27.07.91.91,0,0,1-.32,0,.89.89,0,0,1-.3-.19,1.11,1.11,0,0,1-.26-.38,2.1,2.1,0,0,1-.13-.51,4.48,4.48,0,0,1,0-.64,4.55,4.55,0,0,1,.12-.69,3.58,3.58,0,0,1,.26-.67,2.91,2.91,0,0,1,.4-.57,1.74,1.74,0,0,1,.56-.4.62.62,0,0,1,.47-.05.46.46,0,0,1,.27.24c.06-.37.12-.74.17-1.09s.09-.67.12-1,0-.53,0-.72a1,1,0,0,0,0-.4.07.07,0,0,1,0-.11.37.37,0,0,1,.21,0,.91.91,0,0,1,.25.11.43.43,0,0,1,.19.21,1,1,0,0,1,0,.36c0,.19-.05.43-.1.7s-.1.59-.16.93l-.18,1c-.06.35-.11.68-.16,1s-.07.61-.09.86a2.67,2.67,0,0,0,0,.58c0,.14.08.2.16.18h0c.07,0,.13-.11.2-.25a4.79,4.79,0,0,0,.21-.49c.07-.2.13-.41.2-.64s.13-.44.18-.66.1-.41.14-.58Zm-1.71,2a.24.24,0,0,1-.12,0l-.08,0-.05-.06a.34.34,0,0,1,.05-.12,1.49,1.49,0,0,0,.11-.28,1.91,1.91,0,0,0,.07-.36.61.61,0,0,0-.06-.37.42.42,0,0,0-.15-.19.2.2,0,0,0-.2,0,1,1,0,0,0-.46.45,2.62,2.62,0,0,0-.27.71,4.27,4.27,0,0,0-.1.81,4.22,4.22,0,0,0,.06.75,1.37,1.37,0,0,0,.2.5.25.25,0,0,0,.32.1.63.63,0,0,0,.2-.17,1.69,1.69,0,0,0,.17-.3,2.77,2.77,0,0,0,.14-.38c0-.14.07-.29.11-.44a2.46,2.46,0,0,0,0-.28C63.55,118.57,63.56,118.47,63.58,118.36Z" transform="translate(-7.78 -5.11)"/><path d="M67.79,114.73a.16.16,0,0,1,0-.07.09.09,0,0,1,.06,0l.06,0a.15.15,0,0,1,0,.07c0,.13,0,.3,0,.52s0,.45-.08.72-.09.53-.15.82a4.94,4.94,0,0,1-.22.8,3.15,3.15,0,0,1-.33.69,1.41,1.41,0,0,1-.47.47.85.85,0,0,1-.27.09.79.79,0,0,1-.34,0,.88.88,0,0,1-.35-.15,1.17,1.17,0,0,1-.3-.35,1.66,1.66,0,0,1-.18-.49,2.53,2.53,0,0,1-.07-.63,3.3,3.3,0,0,1,0-.69,3.2,3.2,0,0,1,.19-.69,2.52,2.52,0,0,1,.34-.6,1.57,1.57,0,0,1,.51-.45.58.58,0,0,1,.43-.11.46.46,0,0,1,.26.22,1,1,0,0,1,.13.54,1.46,1.46,0,0,1-.14.6,2.16,2.16,0,0,1-.38.6,2.66,2.66,0,0,1-.6.5,3.38,3.38,0,0,0,.11.57,1.57,1.57,0,0,0,.17.45.58.58,0,0,0,.24.25.35.35,0,0,0,.31,0,.87.87,0,0,0,.3-.36,4.92,4.92,0,0,0,.24-.63c.07-.24.13-.49.19-.76s.1-.53.14-.77.07-.48.09-.67S67.78,114.82,67.79,114.73Zm-1.31.27a.7.7,0,0,0-.27.27,2.41,2.41,0,0,0-.18.43,3.74,3.74,0,0,0-.09.52,5.42,5.42,0,0,0,0,.57,1.8,1.8,0,0,0,.44-.37,2.61,2.61,0,0,0,.27-.44,1.93,1.93,0,0,0,.12-.42,1.31,1.31,0,0,0,0-.35.32.32,0,0,0-.1-.21A.14.14,0,0,0,66.48,115Z" transform="translate(-7.78 -5.11)"/><path d="M70.37,110.67s0,.11-.1.25-.22.31-.38.51-.38.44-.62.69-.5.49-.79.74c0,.3,0,.62,0,1s0,.66,0,1,0,.6.07.87a3.7,3.7,0,0,0,.13.69.88.88,0,0,0,.2.39.23.23,0,0,0,.31,0,.41.41,0,0,0,.14-.2c0-.1.08-.23.12-.37s.06-.31.09-.49a4.86,4.86,0,0,0,.07-.55l.06-.56c0-.18,0-.36,0-.52s0-.31,0-.44a2.54,2.54,0,0,1,0-.3.14.14,0,0,1,0-.07.09.09,0,0,1,.06,0,.07.07,0,0,1,.06,0,.14.14,0,0,1,0,.07v.52q0,.33,0,.72c0,.27,0,.54-.07.81s-.07.54-.12.79a3.24,3.24,0,0,1-.19.64.91.91,0,0,1-.28.4.77.77,0,0,1-.36.15.63.63,0,0,1-.31,0,.68.68,0,0,1-.26-.15,1,1,0,0,1-.17-.19,1.3,1.3,0,0,1-.17-.52,8,8,0,0,1-.11-.86c0-.32,0-.68-.05-1l0-1.12a5.59,5.59,0,0,1-.81.48,1.72,1.72,0,0,1-.56.17.56.56,0,0,1-.55-.22.17.17,0,0,1,0-.18.24.24,0,0,1,.08-.11s0,0,.1,0a1.11,1.11,0,0,0,.26,0,1.83,1.83,0,0,0,.43-.09,3.57,3.57,0,0,0,.63-.31l.16-.1.18-.11.09-.06c0-.25,0-.47,0-.69s0-.41,0-.58,0-.31,0-.42a.52.52,0,0,0,0-.21.07.07,0,0,1,0-.12.4.4,0,0,1,.2,0,.74.74,0,0,1,.28.06.41.41,0,0,1,.22.17,1,1,0,0,1,.07.43c0,.24,0,.53,0,.88.3-.23.55-.44.75-.62s.35-.35.47-.49a3,3,0,0,0,.28-.32.75.75,0,0,1,.13-.15l.16-.1S70.35,110.64,70.37,110.67Z" transform="translate(-7.78 -5.11)"/><path d="M72.08,109s0,.11-.08.25a5.75,5.75,0,0,1-.35.54,9,9,0,0,1-.56.72,10.79,10.79,0,0,1-.74.8c0,.3.05.62.07,1s.07.66.1,1,.09.6.14.87a5,5,0,0,0,.17.67.89.89,0,0,0,.24.38c.08.07.18.06.3,0a.51.51,0,0,0,.13-.21c0-.11.06-.23.09-.38s0-.31.06-.49l0-.55c0-.19,0-.38,0-.57v-.52c0-.16,0-.31,0-.44a2.45,2.45,0,0,0,0-.3.09.09,0,0,1,0-.07.1.1,0,0,1,0,0h.06a.09.09,0,0,1,0,.07c0,.13,0,.3,0,.52s0,.46,0,.72,0,.54,0,.81,0,.55-.06.79a4.64,4.64,0,0,1-.15.66.88.88,0,0,1-.25.42.87.87,0,0,1-.35.17.64.64,0,0,1-.31,0,.68.68,0,0,1-.27-.13,1.49,1.49,0,0,1-.18-.17,1.39,1.39,0,0,1-.21-.51c-.06-.24-.12-.52-.17-.85s-.09-.67-.13-1-.07-.74-.1-1.11a5.08,5.08,0,0,1-.78.54,2.1,2.1,0,0,1-.54.21.64.64,0,0,1-.35,0,.49.49,0,0,1-.21-.16.16.16,0,0,1,0-.17.22.22,0,0,1,.07-.12H68a.74.74,0,0,0,.25,0,2.12,2.12,0,0,0,.42-.13,3,3,0,0,0,.61-.34l.16-.12.17-.13.08-.06-.06-.69q0-.33-.06-.57a3,3,0,0,0-.07-.42.45.45,0,0,0-.07-.21.07.07,0,0,1,0-.11.52.52,0,0,1,.2-.06.72.72,0,0,1,.28,0,.46.46,0,0,1,.23.15,1.12,1.12,0,0,1,.1.43c0,.24.06.53.08.88a7.73,7.73,0,0,0,.7-.68,5.63,5.63,0,0,0,.45-.52l.25-.34a.49.49,0,0,1,.12-.16L72,109S72.06,109,72.08,109Z" transform="translate(-7.78 -5.11)"/><path d="M265.5,47h9.21l3.88,11.14h.08l1.63-6h.07v6.6l-4.6,15.41h-1.06l-7.58-22.45a7.43,7.43,0,0,0-.65-1.56c-.33-.54-.47-1-1.09-1-.43,0-1.41-.11-1.41-1C264,47,265.07,47,265.5,47ZM267,56.17h.07l2,6v6.24c.58,4.53,2.9,3.12,2.9,4.68,0,1.12-1.48,1.05-1.89,1.05H266c-.4,0-1.88.07-1.88-1.05,0-1.56,2.31-.15,2.9-4.68ZM282,47h9.57c.15,0,1.34.07,1.34,1.13a1,1,0,0,1-.8,1c-1.27.39-1.23.61-1.23,1.95v19c0,1.34,0,1.56,1.23,2a1,1,0,0,1,.8,1c0,1-1.19,1.12-1.34,1.12H281.32c-.15,0-1.34-.07-1.34-1.12a1,1,0,0,1,.79-1c1.27-.4,1.24-.62,1.24-2Z" transform="translate(-7.78 -5.11)"/><path d="M297.05,47h9.58V74.12h-9.58c-.15,0-1.34-.07-1.34-1.12a1,1,0,0,1,.8-1c1.27-.4,1.23-.62,1.23-2v-19c0-1.34,0-1.56-1.23-1.95a1,1,0,0,1-.8-1C295.71,47.06,296.9,47,297.05,47Zm11.21,0h8.09v7.37c0,.18,0,.86-1.13.86-.61,0-.8-.36-1-.9a7,7,0,0,0-6-5.22Zm0,12.12c1.52-.4,2.21-1.82,2.54-3.2.18-.61.4-1.19,1.16-1.19,1.12,0,.94,1.3.94,1.59v7.84c0,.29.18,1.59-.94,1.59-.76,0-1-.57-1.16-1.19a3.91,3.91,0,0,0-2.54-3.2Zm0,12.91a7.43,7.43,0,0,0,6.16-5.26c.26-.54.48-1.12,1.13-1.12a1,1,0,0,1,1.05,1.23v7.25h-8.34Z" transform="translate(-7.78 -5.11)"/><path d="M111.77,46.72H121l3.88,11.14h.08l1.63-6h.07v6.61L122,73.85h-1L113.4,51.4a7.43,7.43,0,0,0-.65-1.56c-.33-.54-.47-1-1.09-1-.44,0-1.41-.11-1.41-1C110.25,46.72,111.33,46.72,111.77,46.72Zm1.52,9.18h.07l2,6v6.24c.58,4.53,2.9,3.12,2.9,4.68,0,1.12-1.49,1-1.89,1h-4.13c-.4,0-1.89.07-1.89-1,0-1.56,2.32-.15,2.9-4.68Zm15-9.18h9.57c.15,0,1.35.07,1.35,1.12a1,1,0,0,1-.8,1c-1.27.39-1.23.61-1.23,2v19c0,1.34,0,1.56,1.23,2a1,1,0,0,1,.8,1c0,1-1.2,1.12-1.35,1.12H127.58c-.14,0-1.34-.07-1.34-1.12a1,1,0,0,1,.8-1c1.27-.4,1.23-.62,1.23-2Z" transform="translate(-7.78 -5.11)"/><path d="M153.18,69.79c0,1.34,0,1.56,1.24,2a1,1,0,0,1,.79,1c0,1-1.19,1.12-1.34,1.12H143.61c-.14,0-1.34-.07-1.34-1.12a1,1,0,0,1,.79-1c1.27-.4,1.24-.62,1.24-2v-19c0-1.34,0-1.56-1.24-2a1,1,0,0,1-.79-1c0-1.05,1.2-1.12,1.34-1.12h10.26c.15,0,1.34.07,1.34,1.12a1,1,0,0,1-.79,1c-1.27.39-1.24.61-1.24,2Z" transform="translate(-7.78 -5.11)"/><path d="M183.15,46.72h.18c2.36,0,4.82-.07,7,1a6.27,6.27,0,0,1,3.7,5.95c.07,4.17-2.68,6-6.38,6.85v.08c3.22.47,6.3,1.41,6.38,5.26V69c0,.32-.11,1,.36,1s.69-1,1.56-1a1.19,1.19,0,0,1,1.05,1c0,1-1.2,2.39-2,3a6,6,0,0,1-4.1,1.31,5.55,5.55,0,0,1-4.1-1.53,6.08,6.08,0,0,1-1.45-4.61V65.8c0-1.67,0-3.7-2.21-3.92V59.74c2-.18,2.21-1.38,2.21-3.15V52.2c0-1.82-.4-2.69-2.21-3.34Z" transform="translate(-7.78 -5.11)"/><path d="M208.64,48.28a2.44,2.44,0,0,0-1.85,2.61V69.68a2.43,2.43,0,0,0,1.85,2.61V74.4c-7.69-.69-11.28-6.89-11.28-14.11S201,46.87,208.64,46.18Zm1.63,24a2.43,2.43,0,0,0,1.85-2.61V50.89a2.44,2.44,0,0,0-1.85-2.61v-2.1c7.69.69,11.28,6.89,11.28,14.11S218,73.71,210.27,74.4Z" transform="translate(-7.78 -5.11)"/><path d="M226.19,50.78c0-1.34,0-1.56-1.23-2a1,1,0,0,1-.8-1c0-1.05,1.2-1.12,1.34-1.12h9.58V69.79c0,1.34,0,1.56,1.23,2a1,1,0,0,1,.8,1c0,1-1.2,1.12-1.34,1.12H225.5c-.14,0-1.34-.07-1.34-1.12a1,1,0,0,1,.8-1c1.27-.4,1.23-.62,1.23-2Zm10.52-4.06h.18c2.36,0,4.82-.07,7,1a6.27,6.27,0,0,1,3.7,5.95c.07,4.17-2.68,6-6.38,6.85v.08c3.22.47,6.31,1.41,6.38,5.26V69c0,.32-.11,1,.36,1s.69-1,1.56-1a1.19,1.19,0,0,1,1.05,1c0,1-1.19,2.39-2,3a6,6,0,0,1-4.1,1.31,5.55,5.55,0,0,1-4.1-1.53,6.08,6.08,0,0,1-1.45-4.61V65.8c0-1.67,0-3.7-2.21-3.92V59.74c2-.18,2.21-1.38,2.21-3.15V52.2c0-1.82-.4-2.69-2.21-3.34Z" transform="translate(-7.78 -5.11)"/><path d="M171,59.74c-2-.18-2.22-1.38-2.22-3.15V52.2c0-1.82.4-2.69,2.22-3.34V46.72h-.19c-2.35,0-4.82-.07-7,1a6.27,6.27,0,0,0-3.7,5.95c-.07,4.17,2.69,6,6.39,6.85v.08c-3.23.47-6.31,1.41-6.39,5.26V69c0,.32.11,1-.36,1s-.69-1-1.56-1a1.19,1.19,0,0,0-1,1c0,1,1.2,2.39,2,3a6,6,0,0,0,4.1,1.31,5.53,5.53,0,0,0,4.1-1.53,6.08,6.08,0,0,0,1.45-4.61V65.8c0-1.67,0-3.7,2.22-3.92Z" transform="translate(-7.78 -5.11)"/><path d="M182.79,71.75c-1.27-.4-1.23-.62-1.23-2V55.13h0V46.72h-8.88V69.79c0,1.34,0,1.56-1.24,2a1,1,0,0,0-.79,1c0,1,1.19,1.12,1.34,1.12h10.26c.15,0,1.34-.07,1.34-1.12A1,1,0,0,0,182.79,71.75Z" transform="translate(-7.78 -5.11)"/><path class="cls-1" d="M120.89,94.35l-6.52,10.3a22.54,22.54,0,0,1,2.28-2.8,2.15,2.15,0,0,1,1.44-.72,1.62,1.62,0,0,1,1.33.66,2.66,2.66,0,0,1,.51,1.67q0,2.19-2.79,4.31a6.4,6.4,0,0,1-3.68,1.58,1.51,1.51,0,0,1-1.23-.57,2.24,2.24,0,0,1-.47-1.49,7.46,7.46,0,0,1,1.39-3.33l6-9.64a2.84,2.84,0,0,0,.84.12A5.55,5.55,0,0,0,120.89,94.35Zm-2,8c0-.64-.27-1-.81-1-.71,0-1.91,1.17-3.62,3.5-1.27,1.74-1.91,2.91-1.91,3.51a.67.67,0,0,0,.75.77c.87,0,2-.86,3.45-2.6S118.87,103.39,118.87,102.32Z" transform="translate(-7.78 -5.11)"/><path class="cls-1" d="M130.06,104.48a9.42,9.42,0,0,1-1.6,2,18,18,0,0,1-4.62,3.51l-.71,1.27a19.07,19.07,0,0,1-4.4,5.62,7.05,7.05,0,0,1-4.11,1.91,1.41,1.41,0,0,1-1-.38,1.25,1.25,0,0,1-.4-.93q0-2.93,6.73-6c.36-.19.92-.44,1.65-.77l.22-.13,2.56-4.55a22.28,22.28,0,0,1-2.2,2.73,2,2,0,0,1-1.38.64,1.33,1.33,0,0,1-1-.51,1.73,1.73,0,0,1-.45-1.19,6.17,6.17,0,0,1,1-2.58l2.24-3.78a4.38,4.38,0,0,0,.77.06,6.94,6.94,0,0,0,1-.1l-2.86,4.65a7.16,7.16,0,0,0-1.22,2.58c0,.44.2.65.6.65q1.56,0,4.82-5.56l1.34-2.28a4.62,4.62,0,0,0,.81.06,5.49,5.49,0,0,0,1-.1q-1.8,2.86-4.88,8.39a15,15,0,0,0,3-2,22,22,0,0,0,2.73-3c.14-.17.22-.26.26-.26A.08.08,0,0,1,130.06,104.48Zm-8.39,6.29c-.15.09-.7.37-1.64.83q-6.6,3.29-6.6,5.9c0,.72.4,1.09,1.22,1.09a4.29,4.29,0,0,0,3.06-1.67,31.55,31.55,0,0,0,3.78-5.85Z" transform="translate(-7.78 -5.11)"/><path class="cls-1" d="M168.76,93.92a7.26,7.26,0,0,1-.2,1.65c-.13.6-.26.9-.38.9s-.15,0-.15-.14a.39.39,0,0,1,0-.13,6.1,6.1,0,0,0,.39-2.2,4,4,0,0,0-1.09-2.94A3.83,3.83,0,0,0,164.48,90a9.35,9.35,0,0,0-4.94,1.59,4.33,4.33,0,0,1,2,3.52c0,2.16-1.47,3.45-4.4,3.85,2.41.84,3.61,2.39,3.61,4.63a5.67,5.67,0,0,1-2.12,4.37,7.3,7.3,0,0,1-5,1.88,3.19,3.19,0,0,1-2.17-.71,2.39,2.39,0,0,1-.81-1.91,5.45,5.45,0,0,1,1.71-3.68,4.83,4.83,0,0,1,3.44-1.82,2.13,2.13,0,0,1,1.56.6,2.09,2.09,0,0,1,.61,1.55,3.69,3.69,0,0,1-.35,1.41c-.23.56-.42.84-.56.84s-.16,0-.16-.12a.49.49,0,0,1,.06-.17,3.67,3.67,0,0,0,.75-2,1.75,1.75,0,0,0-.53-1.33,2,2,0,0,0-1.41-.51,4.4,4.4,0,0,0-3.2,1.72,5.26,5.26,0,0,0-1.57,3.53,2.14,2.14,0,0,0,.66,1.6,2.19,2.19,0,0,0,1.62.64,5.31,5.31,0,0,0,4.06-2.16,7.06,7.06,0,0,0,1.85-4.74A3.72,3.72,0,0,0,156.93,99l-.84.1a5.48,5.48,0,0,1-.7,0c-.74,0-1.1-.12-1.1-.36s.3-.26.91-.26a8,8,0,0,1,1.73.26,4.58,4.58,0,0,0,2.39-1.63,4.33,4.33,0,0,0,.88-2.67,3.78,3.78,0,0,0-1.12-2.63q-3.18,2.45-6,8.28a23.5,23.5,0,0,1-3.17,5.2,13,13,0,0,1-4,2.83,12.59,12.59,0,0,1-5.42,1.48,5.6,5.6,0,0,1-3.24-.89,2.65,2.65,0,0,1-1.29-2.23,2,2,0,0,1,.44-1.28,1.33,1.33,0,0,1,1.06-.53c.59,0,.88.32.88,1a1.28,1.28,0,0,1-.3.85.91.91,0,0,1-.73.34q-.75,0-.72-.78c0-.21,0-.32-.06-.32s-.24.26-.24.77a2.36,2.36,0,0,0,1.19,2,5.15,5.15,0,0,0,3,.8,8.38,8.38,0,0,0,5.77-2.35,15.32,15.32,0,0,0,1.94-2.13c.55-.74,1.82-2.62,3.79-5.64a37.89,37.89,0,0,1,3.46-4.4,21.25,21.25,0,0,1,3.38-3.18q-2.3-1.94-6.65-1.93a14.77,14.77,0,0,0-10.66,4.43c-2.48,2.42-3.71,4.7-3.71,6.84a3.32,3.32,0,0,0,1,2.58,4,4,0,0,0,2.83,1q2.92,0,6-2.8c2.07-1.87,3.11-3.68,3.11-5.45a1.88,1.88,0,0,0-2.16-2.1c-1.45,0-3,.8-4.64,2.4s-2.48,3.11-2.48,4.52a1.29,1.29,0,0,0,.35.9,1.07,1.07,0,0,0,.81.38c.17,0,.25.06.25.11s-.09.13-.28.13a1.43,1.43,0,0,1-1.17-.63,2.46,2.46,0,0,1-.48-1.54c0-1.5.83-3,2.48-4.39a7.78,7.78,0,0,1,5.1-2.14c1.66,0,2.5.77,2.5,2.31q0,2.8-3.18,5.69t-6.28,2.87a4.17,4.17,0,0,1-4.44-4.46q0-4.1,4.64-7.5a17,17,0,0,1,10.26-3.39,12.91,12.91,0,0,1,7.17,1.91,9.69,9.69,0,0,1,5.14-1.66,4.29,4.29,0,0,1,3.13,1.16A4.11,4.11,0,0,1,168.76,93.92Z" transform="translate(-7.78 -5.11)"/><path class="cls-1" d="M170.3,104.48a1.64,1.64,0,0,1-.27.38l-.62.78q-3,3.7-5.16,3.71a2.25,2.25,0,0,1-1.71-.73,2.58,2.58,0,0,1-.69-1.84q0-2.61,3.65-4.6a6.93,6.93,0,0,1,3.12-1.05,1.33,1.33,0,0,1,.89.32.94.94,0,0,1,.37.76c0,.69-.45,1.29-1.36,1.78a18,18,0,0,1-4.56,1.37,4.88,4.88,0,0,0-1,2.5c0,.83.45,1.24,1.35,1.24q2.3,0,5.63-4.47c.11-.16.21-.24.29-.24A.08.08,0,0,1,170.3,104.48Zm-1.23-2.69c0-.31-.17-.47-.51-.47a3.6,3.6,0,0,0-2,1.07,14.88,14.88,0,0,0-2.47,2.77,11.45,11.45,0,0,0,3.55-1.52C168.58,103,169.07,102.37,169.07,101.79Z" transform="translate(-7.78 -5.11)"/><path class="cls-1" d="M178.57,104.47a5.47,5.47,0,0,1-.87,1.06,3,3,0,0,1-2.08,1.22c-.74,0-1.11-.42-1.11-1.27a3.9,3.9,0,0,1,.18-1A9.83,9.83,0,0,0,173.2,106c-.38.52-1,1.58-2,3.19l-.9-.06-.89.06,2.38-3.86c1.19-1.94,1.79-3.14,1.79-3.6,0-.27-.11-.41-.34-.41q-.81,0-2.95,3.13c-.09.14-.16.2-.23.2a.07.07,0,0,1-.06-.08.23.23,0,0,1,.06-.12l.26-.36c1.49-2,2.51-3,3-3,.78,0,1.16.5,1.16,1.5a6,6,0,0,1-1.19,3,11.88,11.88,0,0,1,1.44-1.42,7.67,7.67,0,0,1,1.37-2.17,2.24,2.24,0,0,1,1.48-.87c.3,0,.45.13.45.4,0,.46-.68,1.12-2,2l-1,.6-.17.15a3.79,3.79,0,0,0-.21,1.1c0,.81.31,1.22.92,1.22s1.58-.63,2.47-1.88c.2-.21.32-.32.37-.32S178.57,104.41,178.57,104.47Z" transform="translate(-7.78 -5.11)"/><path class="cls-1" d="M190.19,104.47a13.94,13.94,0,0,1-2.11,2.82c-1.15,1.37-2.06,2.06-2.72,2.06a1.42,1.42,0,0,1-1.1-.51,1.84,1.84,0,0,1-.44-1.24,2.79,2.79,0,0,1,.27-1.22,23.38,23.38,0,0,1,1.4-2.21,6.25,6.25,0,0,0,1.18-2.22q0-.6-.63-.6-2.11,0-6.53,7.87l-.86-.06a7.27,7.27,0,0,0-1,.06l2.27-3.59c1.29-2,1.93-3.33,1.93-3.84,0-.29-.12-.44-.36-.44-.5,0-1.47,1-2.93,3.13-.09.13-.15.19-.2.2a.09.09,0,0,1-.09-.08.23.23,0,0,1,.06-.12l.28-.36c1.48-2,2.48-3,3-3a1,1,0,0,1,.84.45,1.67,1.67,0,0,1,.35,1.08,5.28,5.28,0,0,1-1.09,2.58,28,28,0,0,1,2.64-3.24,2.62,2.62,0,0,1,1.71-.87,1.35,1.35,0,0,1,1.07.53,1.94,1.94,0,0,1,.44,1.29,6.49,6.49,0,0,1-1.34,3,7.35,7.35,0,0,0-1.36,2.61.52.52,0,0,0,.59.59c.86,0,2.35-1.53,4.47-4.61,0-.09.09-.14.14-.14A.08.08,0,0,1,190.19,104.47Z" transform="translate(-7.78 -5.11)"/><path class="cls-1" d="M200.4,104.47a14.11,14.11,0,0,1-2.13,2.82c-1.14,1.37-2,2.06-2.7,2.06a1.33,1.33,0,0,1-1.09-.5,1.87,1.87,0,0,1-.42-1.25,3.75,3.75,0,0,1,.46-1.7,20.22,20.22,0,0,1-2.22,2.74,2.26,2.26,0,0,1-1.49.71,1.6,1.6,0,0,1-1.3-.66A2.63,2.63,0,0,1,189,107q0-2.79,3.94-4.94a6.22,6.22,0,0,1,2.78-1,.78.78,0,0,1,.9.87,2.36,2.36,0,0,1-.11.66l.74-1.41a3.32,3.32,0,0,0,.77.1,6.18,6.18,0,0,0,1-.1l-2.57,4.25a8.26,8.26,0,0,0-1.33,3c0,.46.19.68.57.68s1-.44,1.86-1.33a24.55,24.55,0,0,0,2.6-3.28c.06-.09.11-.14.16-.14A.08.08,0,0,1,200.4,104.47Zm-4-2.41c0-.47-.22-.71-.66-.71q-1.34,0-3.5,2.61t-2.18,4.23c0,.63.29.94.85.94s1.82-1.1,3.47-3.32C195.72,104,196.4,102.74,196.4,102.06Z" transform="translate(-7.78 -5.11)"/><path class="cls-1" d="M213.6,94.32q-5.44,8.66-6.87,11.07a9.81,9.81,0,0,0-1.43,3.09c0,.44.2.65.59.65.89,0,2.38-1.53,4.5-4.61.05-.09.11-.14.16-.14s.08,0,.08.09a1.3,1.3,0,0,1-.14.23l-.63.86q-2.75,3.8-4.05,3.79a1.33,1.33,0,0,1-1.09-.5,1.92,1.92,0,0,1-.43-1.28,4.13,4.13,0,0,1,.53-1.82c-1.7,2.4-2.95,3.6-3.78,3.6a1.59,1.59,0,0,1-1.29-.66,2.57,2.57,0,0,1-.52-1.66q0-2.4,3-4.34a7.65,7.65,0,0,1,3.72-1.56.78.78,0,0,1,.9.87,2.06,2.06,0,0,1-.25.92l5.19-8.68a3.45,3.45,0,0,0,.94.14Zm-7,7.8c0-.51-.23-.77-.71-.77q-1.3,0-3.45,2.61c-1.42,1.74-2.14,3.14-2.14,4.2,0,.65.27,1,.8,1q1.17,0,4-4A7.15,7.15,0,0,0,206.6,102.12Z" transform="translate(-7.78 -5.11)"/><path class="cls-1" d="M218,104.48a1.79,1.79,0,0,1-.26.38l-.63.78q-3,3.7-5.16,3.71a2.24,2.24,0,0,1-1.7-.73,2.58,2.58,0,0,1-.69-1.84q0-2.61,3.64-4.6a7,7,0,0,1,3.12-1.05,1.36,1.36,0,0,1,.9.32,1,1,0,0,1,.37.76c0,.69-.46,1.29-1.37,1.78a18,18,0,0,1-4.56,1.37,4.88,4.88,0,0,0-1,2.5c0,.83.46,1.24,1.36,1.24q2.3,0,5.62-4.47c.12-.16.21-.24.29-.24A.08.08,0,0,1,218,104.48Zm-1.23-2.69c0-.31-.17-.47-.5-.47a3.61,3.61,0,0,0-2,1.07,14.51,14.51,0,0,0-2.46,2.77,11.5,11.5,0,0,0,3.54-1.52C216.27,103,216.75,102.37,216.75,101.79Z" transform="translate(-7.78 -5.11)"/><path class="cls-1" d="M223.33,101.13l-.12.22h-1.9l-3.23,5.53a3.43,3.43,0,0,0-.6,1.6c0,.44.23.65.68.65.88,0,2.37-1.53,4.47-4.61.06-.09.12-.14.17-.14a.08.08,0,0,1,.09.09,1.79,1.79,0,0,1-.15.23l-.62.86c-1.82,2.53-3.2,3.79-4.12,3.79a1.5,1.5,0,0,1-1.14-.49,1.77,1.77,0,0,1-.45-1.24,4.55,4.55,0,0,1,.76-2.17l2.44-4.1h-1.48l.15-.22h1.45l1.7-2.81a3.22,3.22,0,0,0,1.67,0l-1.67,2.81Z" transform="translate(-7.78 -5.11)"/><path class="cls-1" d="M228.24,101.13l-.12.22h-1.9L223,106.88a3.51,3.51,0,0,0-.59,1.6c0,.44.23.65.68.65.88,0,2.37-1.53,4.47-4.61.06-.09.12-.14.17-.14a.08.08,0,0,1,.09.09,1.79,1.79,0,0,1-.15.23l-.62.86q-2.75,3.8-4.12,3.79a1.5,1.5,0,0,1-1.14-.49,1.78,1.78,0,0,1-.46-1.24,4.59,4.59,0,0,1,.77-2.17l2.44-4.1H223l.15-.22h1.45l1.7-2.81a3.51,3.51,0,0,0,.83.11,3.59,3.59,0,0,0,.84-.11l-1.67,2.81Z" transform="translate(-7.78 -5.11)"/></svg>