<svg id="Layer_1" data-name="Layer 1" xmlns="http://www.w3.org/2000/svg" viewBox="0 0 349.96 498"><path d="M220,324.37h13.83l5.83,16.72h.12l2.45-9h.1V342l-6.91,23.16h-1.59l-11.39-33.73a11.3,11.3,0,0,0-1-2.34c-.5-.82-.71-1.47-1.64-1.53-.65,0-2.12-.16-2.12-1.46C217.73,324.37,219.36,324.37,220,324.37Zm2.28,13.78h.11l3.05,9v9.37c.87,6.81,4.36,4.68,4.36,7,0,1.69-2.23,1.58-2.83,1.58h-6.21c-.6,0-2.83.11-2.83-1.58,0-2.35,3.48-.22,4.35-7Zm22.51-13.78h14.38c.22,0,2,.1,2,1.69a1.49,1.49,0,0,1-1.19,1.46c-1.91.6-1.85.93-1.85,2.94V359c0,2-.06,2.35,1.85,2.95a1.5,1.5,0,0,1,1.19,1.47c0,1.58-1.79,1.69-2,1.69H243.77c-.22,0-2-.11-2-1.69A1.51,1.51,0,0,1,243,362c1.91-.6,1.86-.93,1.86-2.95Z" transform="translate(-81.02 -7)"/><path d="M267.41,324.37H281.8v40.75H267.41c-.22,0-2-.11-2-1.69a1.52,1.52,0,0,1,1.2-1.47c1.91-.6,1.86-.93,1.86-2.95V330.46c0-2,.05-2.34-1.86-2.94a1.5,1.5,0,0,1-1.2-1.46C265.39,324.47,267.19,324.37,267.41,324.37Zm16.83,0H296.4v11.06c0,.27-.06,1.3-1.7,1.3-.92,0-1.19-.54-1.47-1.36-1.41-4.41-4.19-7.08-9-7.85Zm0,18.19c2.3-.6,3.33-2.72,3.82-4.79.27-.93.6-1.8,1.74-1.8,1.69,0,1.42,2,1.42,2.4v11.77c0,.43.27,2.39-1.42,2.39-1.14,0-1.47-.87-1.74-1.8-.49-2.07-1.52-4.19-3.82-4.79Zm0,19.4a11.17,11.17,0,0,0,9.27-7.9c.38-.82.71-1.69,1.69-1.69a1.54,1.54,0,0,1,1.57,1.85v10.9H284.24Z" transform="translate(-81.02 -7)"/><path d="M154.15,259H168l5.83,16.73h.11l2.46-9.05h.1v9.92l-6.92,23.16H168L156.6,266a11.32,11.32,0,0,0-1-2.34c-.49-.82-.7-1.47-1.63-1.53-.66,0-2.13-.16-2.13-1.47C151.86,259,153.49,259,154.15,259Zm2.29,13.79h.11l3,9v9.37c.87,6.81,4.36,4.68,4.36,7,0,1.69-2.23,1.58-2.84,1.58h-6.2c-.61,0-2.84.11-2.84-1.58,0-2.35,3.49-.22,4.36-7ZM178.94,259h14.38c.22,0,2,.11,2,1.69a1.51,1.51,0,0,1-1.2,1.47c-1.9.6-1.85.93-1.85,2.94v28.56c0,2,0,2.34,1.85,2.94a1.51,1.51,0,0,1,1.2,1.47c0,1.58-1.8,1.69-2,1.69H177.91c-.22,0-2-.11-2-1.69a1.52,1.52,0,0,1,1.2-1.47c1.91-.6,1.85-.93,1.85-2.94Z" transform="translate(-81.02 -7)"/><path d="M216.36,293.65c0,2-.05,2.34,1.85,2.94a1.5,1.5,0,0,1,1.2,1.47c0,1.58-1.8,1.69-2,1.69H202c-.22,0-2-.11-2-1.69a1.51,1.51,0,0,1,1.2-1.47c1.91-.6,1.86-.93,1.86-2.94V265.09c0-2,0-2.34-1.86-2.94a1.51,1.51,0,0,1-1.2-1.47c0-1.58,1.8-1.69,2-1.69H217.4c.21,0,2,.11,2,1.69a1.5,1.5,0,0,1-1.2,1.47c-1.9.6-1.85.93-1.85,2.94Z" transform="translate(-81.02 -7)"/><path d="M261.38,259h.27c3.54,0,7.24-.11,10.51,1.47a9.43,9.43,0,0,1,5.56,8.94c.11,6.27-4,9-9.59,10.3v.11c4.85.7,9.48,2.12,9.59,7.9v4.79c0,.49-.17,1.59.54,1.59.88,0,1-1.59,2.35-1.59a1.81,1.81,0,0,1,1.58,1.59c0,1.57-1.8,3.59-3,4.51a9,9,0,0,1-6.16,2,8.31,8.31,0,0,1-6.16-2.3c-1.9-1.95-2.17-4.35-2.17-6.91v-3.71c0-2.5-.05-5.55-3.32-5.88v-3.22c2.94-.27,3.32-2.07,3.32-4.74v-6.59c0-2.73-.6-4-3.32-5Z" transform="translate(-81.02 -7)"/><path d="M299.67,261.34a3.65,3.65,0,0,0-2.78,3.92v28.22a3.65,3.65,0,0,0,2.78,3.92v3.17c-11.55-1-16.95-10.35-16.95-21.2s5.4-20.16,16.95-21.19Zm2.45,36.06a3.65,3.65,0,0,0,2.78-3.92V265.26a3.65,3.65,0,0,0-2.78-3.92v-3.16c11.55,1,16.95,10.35,16.95,21.19s-5.4,20.16-16.95,21.2Z" transform="translate(-81.02 -7)"/><path d="M326,265.09c0-2,0-2.34-1.86-2.94a1.51,1.51,0,0,1-1.2-1.47c0-1.58,1.8-1.69,2-1.69h14.38v34.66c0,2-.05,2.34,1.85,2.94a1.51,1.51,0,0,1,1.2,1.47c0,1.58-1.8,1.69-2,1.69H325c-.22,0-2-.11-2-1.69a1.51,1.51,0,0,1,1.2-1.47c1.91-.6,1.86-.93,1.86-2.94Zm15.8-6.1h.26c3.55,0,7.25-.11,10.52,1.47a9.43,9.43,0,0,1,5.56,8.94c.11,6.27-4,9-9.59,10.3v.11c4.85.7,9.48,2.12,9.59,7.9v4.79c0,.49-.17,1.59.54,1.59.87,0,1-1.59,2.35-1.59a1.79,1.79,0,0,1,1.57,1.59c0,1.57-1.79,3.59-3,4.51a9,9,0,0,1-6.16,2,8.26,8.26,0,0,1-6.15-2.3c-1.91-1.95-2.19-4.35-2.19-6.91v-3.71c0-2.5,0-5.55-3.31-5.88v-3.22c2.94-.27,3.31-2.07,3.31-4.74v-6.59c0-2.73-.59-4-3.31-5Z" transform="translate(-81.02 -7)"/><path d="M243.18,278.55c-2.94-.27-3.32-2.07-3.32-4.74v-6.59c0-2.73.6-4,3.32-5V259h-.27c-3.55,0-7.25-.11-10.52,1.47a9.43,9.43,0,0,0-5.56,8.94c-.1,6.27,4,9,9.59,10.3v.11c-4.85.7-9.48,2.12-9.59,7.9v4.79c0,.49.17,1.59-.54,1.59-.87,0-1-1.59-2.34-1.59a1.8,1.8,0,0,0-1.58,1.59c0,1.57,1.79,3.59,3,4.51a9,9,0,0,0,6.16,2,8.3,8.3,0,0,0,6.16-2.3c1.9-1.95,2.18-4.35,2.18-6.91v-3.71c0-2.5,0-5.55,3.32-5.88Z" transform="translate(-81.02 -7)"/><path d="M260.83,296.59c-1.91-.6-1.85-.93-1.85-2.94v-22h0V259H245.63v34.66c0,2,.05,2.34-1.85,2.94a1.51,1.51,0,0,0-1.2,1.47c0,1.58,1.8,1.69,2,1.69H260c.22,0,2-.11,2-1.69A1.51,1.51,0,0,0,260.83,296.59Z" transform="translate(-81.02 -7)"/><path d="M168.27,124.48a49.52,49.52,0,0,1-7.61,3.53c-4.86,1.79-10.14,3.53-15.25,5.22-26,8.56-52.8,17.42-48.7,38.72a13.26,13.26,0,0,0,9.57,10.75,16.43,16.43,0,0,0,4.63.64c3.66,0,7.19-1.14,9.09-3.14a4.63,4.63,0,0,0,1.17-4.84,2.22,2.22,0,1,0-4.2,1.47c-.13.56-2.48,2.14-6.3,2-2.44,0-8.25-.89-9.58-7.77-3.35-17.45,21.59-25.68,45.72-33.64,5.14-1.7,10.47-3.46,15.39-5.27a56.54,56.54,0,0,0,8.28-3.81A7.39,7.39,0,0,1,168.27,124.48Z" transform="translate(-81.02 -7)"/><path d="M106.65,172.87a.92.92,0,0,0,.66-.33.94.94,0,0,0,.24-.7c-.74-11.84,9.68-16,42.69-27.49a135,135,0,0,0,21-9,8.64,8.64,0,0,1-.92-1.79,130.55,130.55,0,0,1-20.74,8.95c-31.73,11-44.87,15.58-44,29.46a1,1,0,0,0,1,.92v1.25Z" transform="translate(-81.02 -7)"/><path d="M366.59,133.23c-4.82-1.59-9.78-3.23-14.41-4.92a7.55,7.55,0,0,1-5.59.68,6,6,0,0,1,.8,2.26c.78.33,1.58.64,2.41.95,4.93,1.81,10.25,3.57,15.39,5.27,24.13,8,49.07,16.19,45.72,33.64-1.33,6.88-7.14,7.73-9.58,7.77-3.84.09-6.17-1.49-6.29-2a2.24,2.24,0,0,0-1.37-2.85,2.22,2.22,0,0,0-2.84,1.37A4.63,4.63,0,0,0,392,180.2c1.9,2,5.43,3.14,9.08,3.14a16.5,16.5,0,0,0,4.64-.64A13.23,13.23,0,0,0,415.29,172C419.39,150.65,392.54,141.79,366.59,133.23Z" transform="translate(-81.02 -7)"/><path d="M406.4,172c.86-13.88-12.27-18.44-44-29.46-3.88-1.34-7.5-2.73-10.8-4.13a8.18,8.18,0,0,1,.12,1.4,6.51,6.51,0,0,1,0,.77c3.09,1.28,6.47,2.56,10.08,3.81,33,11.46,43.42,15.65,42.69,27.49a.9.9,0,0,0,.24.7.92.92,0,0,0,.67.33l.06,1.26v-1.25A1,1,0,0,0,406.4,172Z" transform="translate(-81.02 -7)"/><path d="M122,140.59a2.51,2.51,0,0,1-2.53-2.52,2.53,2.53,0,0,1,.74-1.77,2.59,2.59,0,0,1,3.54,0,2.54,2.54,0,0,1,.75,1.77,2.66,2.66,0,0,1-.73,1.79A2.59,2.59,0,0,1,122,140.59Z" transform="translate(-81.02 -7)"/><path d="M118.27,130.11h0a2.47,2.47,0,0,1,2.25-2.72h0a2.48,2.48,0,0,1,2.73,2.25h0a2.51,2.51,0,0,1-2.26,2.74h-.23A2.48,2.48,0,0,1,118.27,130.11Zm2.14-6a2.51,2.51,0,0,1-2.48-2.54h0a2.51,2.51,0,0,1,2.54-2.48h0a2.51,2.51,0,0,1,2.48,2.54h0a2.51,2.51,0,0,1-2.51,2.48h0Zm.3-8.28a2.5,2.5,0,0,1-2.19-2.79h0a2.51,2.51,0,0,1,2.81-2.19h0a2.5,2.5,0,0,1,2.17,2.79h0a2.51,2.51,0,0,1-2.49,2.21h0A1.51,1.51,0,0,1,120.71,115.83Zm1.18-8.21a2.47,2.47,0,0,1-1.85-3h0a2.5,2.5,0,0,1,3-1.87h0a2.53,2.53,0,0,1,1.87,3h0a2.52,2.52,0,0,1-2.44,1.92h0A2.44,2.44,0,0,1,121.89,107.62Zm2.09-8a2.5,2.5,0,0,1-1.52-3.2h0a2.51,2.51,0,0,1,3.2-1.52h0a2.52,2.52,0,0,1,1.53,3.2h0a2.52,2.52,0,0,1-2.37,1.67h0A2.4,2.4,0,0,1,124,99.6Zm3-7.74a2.52,2.52,0,0,1-1.16-3.35h0a2.51,2.51,0,0,1,3.35-1.17h0a2.52,2.52,0,0,1,1.17,3.36h0A2.54,2.54,0,0,1,128,92.11h0A2.66,2.66,0,0,1,126.93,91.86Zm3.78-7.38a2.51,2.51,0,0,1-.79-3.46h0a2.51,2.51,0,0,1,3.46-.78h0a2.52,2.52,0,0,1,.79,3.46h0A2.51,2.51,0,0,1,132,84.87h0A2.42,2.42,0,0,1,130.71,84.48Zm4.56-6.92a2.53,2.53,0,0,1-.42-3.53h0a2.51,2.51,0,0,1,3.53-.4h0a2.52,2.52,0,0,1,.42,3.53h0a2.54,2.54,0,0,1-2,.94h0A2.42,2.42,0,0,1,135.27,77.56Zm5.28-6.39a2.51,2.51,0,0,1,0-3.54h0a2.51,2.51,0,0,1,3.54,0h0a2.54,2.54,0,0,1,0,3.57h0a2.56,2.56,0,0,1-1.79.73h0A2.47,2.47,0,0,1,140.55,71.17Zm5.94-5.78a2.5,2.5,0,0,1,.37-3.53h0a2.51,2.51,0,0,1,3.52.37h0a2.51,2.51,0,0,1-.36,3.53h0a2.48,2.48,0,0,1-1.57.56h0A2.49,2.49,0,0,1,146.49,65.39ZM153,60.31a2.53,2.53,0,0,1,.75-3.48h0a2.51,2.51,0,0,1,3.46.73h0a2.51,2.51,0,0,1-.73,3.48h0a2.5,2.5,0,0,1-1.36.4h0A2.53,2.53,0,0,1,153,60.31Zm7.06-4.37a2.51,2.51,0,0,1,1.1-3.37h0a2.54,2.54,0,0,1,3.38,1.1h0a2.54,2.54,0,0,1-1.12,3.38h0a2.45,2.45,0,0,1-1.12.26h0A2.49,2.49,0,0,1,160.07,55.94Zm7.47-3.58A2.51,2.51,0,0,1,169,49.14h0a2.49,2.49,0,0,1,3.23,1.47h0a2.51,2.51,0,0,1-1.47,3.23h0a2.47,2.47,0,0,1-.87.16h0A2.53,2.53,0,0,1,167.54,52.36Zm7.82-2.72a2.5,2.5,0,0,1,1.83-3h0a2.48,2.48,0,0,1,3,1.8h0a2.52,2.52,0,0,1-1.82,3.05h0a2.64,2.64,0,0,1-.62.08h0A2.51,2.51,0,0,1,175.36,49.64Zm34.85.83h0a2.5,2.5,0,0,1-2-2.92h0a2.5,2.5,0,0,1,2.93-2h0a2.49,2.49,0,0,1,2,2.93h0a2.5,2.5,0,0,1-2.45,2h0A1.78,1.78,0,0,1,210.21,50.47Zm-26.77-2.69a2.53,2.53,0,0,1,2.14-2.84h0a2.52,2.52,0,0,1,2.83,2.14h0a2.52,2.52,0,0,1-2.15,2.84h0a1.88,1.88,0,0,1-.33,0h0A2.51,2.51,0,0,1,183.44,47.78Zm18.83,1.66h0A2.51,2.51,0,0,1,200,46.73h0a2.48,2.48,0,0,1,2.69-2.29h0A2.5,2.5,0,0,1,205,47.13h0a2.52,2.52,0,0,1-2.51,2.31h-.18Zm-10.6-2.63a2.49,2.49,0,0,1,2.42-2.57h0a2.5,2.5,0,0,1,2.59,2.42h0a2.5,2.5,0,0,1-2.42,2.58h-.09A2.49,2.49,0,0,1,191.67,46.81Z" transform="translate(-81.02 -7)"/><path d="M218.8,52.53A2.52,2.52,0,0,1,217,48.25a2.63,2.63,0,0,1,3.57,0,2.53,2.53,0,0,1,.73,1.77,2.53,2.53,0,0,1-2.51,2.51Z" transform="translate(-81.02 -7)"/><path d="M389.91,141.16a2.51,2.51,0,1,1,1.78-4.26,2.52,2.52,0,0,1,.73,1.75,2.6,2.6,0,0,1-.73,1.79A2.56,2.56,0,0,1,389.91,141.16Z" transform="translate(-81.02 -7)"/><path d="M390.93,132.94a2.51,2.51,0,0,1-2.24-2.75h0a2.49,2.49,0,0,1,2.74-2.24h0a2.5,2.5,0,0,1,2.24,2.74h0a2.5,2.5,0,0,1-2.49,2.26h-.25Zm-1.87-10.79a2.49,2.49,0,0,1,2.49-2.52h0a2.52,2.52,0,0,1,2.53,2.49h0a2.52,2.52,0,0,1-2.5,2.52h0A2.5,2.5,0,0,1,389.06,122.15Zm-.5-8a2.49,2.49,0,0,1,2.19-2.77h0a2.51,2.51,0,0,1,2.79,2.19h0a2.52,2.52,0,0,1-2.21,2.79h0l-.28,0h0A2.52,2.52,0,0,1,388.56,114.12Zm-1.37-7.9a2.49,2.49,0,0,1,1.89-3h0a2.48,2.48,0,0,1,3,1.87h0a2.49,2.49,0,0,1-1.88,3h0a2.15,2.15,0,0,1-.56.07h0A2.51,2.51,0,0,1,387.19,106.22ZM385,98.49a2.5,2.5,0,0,1,1.54-3.21h0a2.51,2.51,0,0,1,3.19,1.56h0a2.51,2.51,0,0,1-1.54,3.19h0a2.66,2.66,0,0,1-.83.13h0A2.49,2.49,0,0,1,385,98.49Zm-3.07-7.44a2.49,2.49,0,0,1,1.18-3.34h0a2.52,2.52,0,0,1,3.35,1.17h0a2.54,2.54,0,0,1-1.19,3.36h0a2.46,2.46,0,0,1-1.09.23h0A2.47,2.47,0,0,1,381.89,91.05ZM378,84a2.51,2.51,0,0,1,.81-3.45h0a2.52,2.52,0,0,1,3.46.81h0a2.53,2.53,0,0,1-.81,3.46h0a2.57,2.57,0,0,1-1.33.37h0A2.49,2.49,0,0,1,378,84Zm-4.61-6.59a2.48,2.48,0,0,1,.43-3.51h0a2.5,2.5,0,0,1,3.51.42h0a2.52,2.52,0,0,1-.41,3.53h0a2.6,2.6,0,0,1-1.56.53h0A2.5,2.5,0,0,1,373.41,77.41Zm-5.3-6a2.5,2.5,0,0,1,.05-3.55h0a2.51,2.51,0,0,1,3.54,0h0a2.52,2.52,0,0,1-.05,3.55h0a2.52,2.52,0,0,1-1.75.72h0A2.42,2.42,0,0,1,368.11,71.36Zm-5.92-5.44h0a2.5,2.5,0,0,1-.35-3.52h0a2.51,2.51,0,0,1,3.54-.34h0a2.52,2.52,0,0,1,.35,3.53h0a2.51,2.51,0,0,1-1.94.9h0A2.49,2.49,0,0,1,362.19,65.92Zm-6.49-4.76A2.51,2.51,0,0,1,355,57.7h0a2.49,2.49,0,0,1,3.48-.72h0a2.51,2.51,0,0,1,.72,3.46h0a2.5,2.5,0,0,1-2.11,1.14h0A2.55,2.55,0,0,1,355.7,61.16Zm-6.95-4a2.53,2.53,0,0,1-1.09-3.38h0a2.49,2.49,0,0,1,3.36-1.1h0a2.49,2.49,0,0,1,1.1,3.37h0a2.49,2.49,0,0,1-2.23,1.37h0A2.57,2.57,0,0,1,348.75,57.15Zm-7.36-3.25a2.5,2.5,0,0,1-1.45-3.22h0a2.5,2.5,0,0,1,3.22-1.48h0a2.51,2.51,0,0,1,1.48,3.23h0a2.52,2.52,0,0,1-2.36,1.64h0A2.38,2.38,0,0,1,341.39,53.9Zm-7.66-2.4a2.53,2.53,0,0,1-1.8-3.06h0a2.49,2.49,0,0,1,3-1.81h0a2.49,2.49,0,0,1,1.81,3h0a2.51,2.51,0,0,1-2.43,1.89h0A3.26,3.26,0,0,1,333.73,51.5Zm-34.84-3a2.53,2.53,0,0,1,2-2.93h0a2.5,2.5,0,0,1,2.92,2h0a2.48,2.48,0,0,1-2,2.92h0a1.8,1.8,0,0,1-.46.05h0A2.54,2.54,0,0,1,298.89,48.47Zm26.95,1.47a2.51,2.51,0,0,1-2.12-2.84h0A2.5,2.5,0,0,1,326.54,45h0a2.53,2.53,0,0,1,2.14,2.84h0A2.52,2.52,0,0,1,326.19,50h0A2.3,2.3,0,0,1,325.84,49.94ZM307.1,47.11a2.52,2.52,0,0,1,2.31-2.69h0a2.52,2.52,0,0,1,2.69,2.31h0a2.48,2.48,0,0,1-2.31,2.69h0a.62.62,0,0,1-.18,0h0A2.51,2.51,0,0,1,307.1,47.11Zm10.73,2.14a2.52,2.52,0,0,1-2.42-2.59h0A2.5,2.5,0,0,1,318,44.24h0a2.46,2.46,0,0,1,2.42,2.57h0a2.51,2.51,0,0,1-2.5,2.44h-.09Z" transform="translate(-81.02 -7)"/><path d="M293.2,52.53a2.51,2.51,0,0,1-1.77-4.28,2.61,2.61,0,0,1,3.55,0,2.53,2.53,0,0,1,.73,1.77,2.49,2.49,0,0,1-2.51,2.51Z" transform="translate(-81.02 -7)"/><path d="M249.32,51.47a25.13,25.13,0,0,1,5.58-4.13l1.35-.83a5.52,5.52,0,0,1,2.83-.93,8.78,8.78,0,0,1,2.42.3l.67.15A14.28,14.28,0,0,1,267,47.77a5.66,5.66,0,0,1,2.21,3.91,26.81,26.81,0,0,1,.38,3.44,14.76,14.76,0,0,1,3.33.56,1.39,1.39,0,0,1,.28.12,73.93,73.93,0,0,1,8.05,1.32l.3.08c.37-.44.66-.82.93-1.18,1.78-2.43,4.43-7,2.12-10.14q-.3-.41-.63-.81a8.08,8.08,0,0,1-1.82-3.24c0-.16-.07-.34-.1-.51-.17-1-.27-1.17-.9-1.16h-.1l-.72.05a7.77,7.77,0,0,1-1.73,0,7.36,7.36,0,0,1-2.15-.73l-.4-.19A5.4,5.4,0,0,0,273.5,39l-6.18.22a7.5,7.5,0,0,0-3.85,1.15,42.55,42.55,0,0,1-3.77,2,65.87,65.87,0,0,1-7.75,3.1l-.75.25a17.13,17.13,0,0,0-4.51,1.94c-.51.35-.57.7-.52,1.45a5.23,5.23,0,0,1,1.62,4.76A7.17,7.17,0,0,1,249.32,51.47Z" transform="translate(-81.02 -7)"/><path d="M241.51,68a18.8,18.8,0,0,0,1.19,10.43h0a5.33,5.33,0,0,1,1.07-1.5,15.9,15.9,0,0,0,.33-2.4,30.76,30.76,0,0,0-1.4-10.4A19.92,19.92,0,0,0,241.51,68Z" transform="translate(-81.02 -7)"/><path d="M280.57,61.4l0,.13a34.2,34.2,0,0,1,.64,5.77,36.87,36.87,0,0,0,5.87-2.77c-.35-2.19-2-3.65-5.07-4.59l-.68-.19-.69-.17c-1.18-.27-2.39-.45-3.44-.61l-.26,0c-1.17-.17-2.39-.34-3.63-.5a8.66,8.66,0,0,1-1,.87,5,5,0,0,0-.79.66c-.93,1.26-.69,3.33-.48,5.15l0,.22a4.6,4.6,0,0,1,1.07.61c1.56-1.3,3.09-2.67,4.58-4l1.7-1.51a1.32,1.32,0,0,1,.52-.28H279a1.16,1.16,0,0,1,1.33.43,1,1,0,0,1,.12.23A1.12,1.12,0,0,1,280.57,61.4Z" transform="translate(-81.02 -7)"/><path d="M247.83,56.56l-.74,0-.65,0a10.14,10.14,0,0,0,1.37,1C247.8,57.25,247.81,56.91,247.83,56.56Z" transform="translate(-81.02 -7)"/><path d="M230.56,89.07l-1-.82c-.05,2.15,0,4.46,0,4.88A17.93,17.93,0,0,0,232,101.2c.6,1.07,1.29,2.18,2.1,3.42.15.22.29.45.44.68a15.78,15.78,0,0,0,1,1.47,10.24,10.24,0,0,0,2.64-2.93,35.22,35.22,0,0,0,3.1-8.61,7.73,7.73,0,0,1-3.76-1A47.4,47.4,0,0,1,230.56,89.07Z" transform="translate(-81.02 -7)"/><path d="M284.62,108.75a29.24,29.24,0,0,1-8.75-.71,39.07,39.07,0,0,1-7.89-2.48,7.85,7.85,0,0,0-2.23-.51,7,7,0,0,1-3.17-1l-.54-.38c-2-1.35-4-2.76-5.91-4.24-1.25-1-2.36-1.87-3.38-2.76l-.55-.48a10.13,10.13,0,0,0-2.06-1.57,3.68,3.68,0,0,0-.92-.33c-.18,4.07-1.9,7.93-3.58,11.66-.57,1.28-1.12,2.5-1.6,3.73-1.08,2.72-2.21,5.64-3.67,9.47l-.21.53a11.81,11.81,0,0,0,2.78-1.07l.47-.23.08,0a14.1,14.1,0,0,1,5.3-1.66c.47,0,.94,0,1.48,0a14.31,14.31,0,0,1,1.47.18c.48.09,1,.19,1.48.32l.19,0,.37.09,1.53.46a26.37,26.37,0,0,0,3.89,1,17.52,17.52,0,0,0,6-.31l1.13-.22a30.62,30.62,0,0,1,4.81-.69h1.06a10.24,10.24,0,0,0,1.66-.06,7.5,7.5,0,0,0,1.7-.44l.51-.2.16-.07.46-.19.12,0,.52-.24a24.9,24.9,0,0,0,3.09-1.56l.86-.53.61-.37.66-.37a11.28,11.28,0,0,1,1-.49,23.07,23.07,0,0,1,3.71-1,24.59,24.59,0,0,0,3.07-.76c2.66-.9,4.06-2.5,4.17-4.76v-.11c0-.26,0-.83,0-1.43a9.94,9.94,0,0,1-2.17,1.51A19.94,19.94,0,0,1,284.62,108.75Z" transform="translate(-81.02 -7)"/><path d="M267,55v0c0-.5-.05-1-.09-1.49v-.06c-.08-1.17-.2-2.62-1-3.31a8.48,8.48,0,0,0-3.51-1.38l-.48-.12-.59-.15a12.81,12.81,0,0,0-1.78-.37,2.69,2.69,0,0,0-1.93.6c-.49.31-1,.61-1.54.93a22.74,22.74,0,0,0-4.31,3A6.26,6.26,0,0,0,250,55.38a6,6,0,0,0-.15.61c0,.2-.06.4-.08.6a10.24,10.24,0,0,0,0,1.26c.69.25,1.4.44,2.21.65a9.52,9.52,0,0,1,1.22-1.17l.37-.31c.31-.28.64-.55,1-.82l.43-.37.52-.42.64-.52,1.15-.91a7.83,7.83,0,0,1,3.38-1.88,15.82,15.82,0,0,1,2.17-.27,3.85,3.85,0,0,1,3,.79,1.93,1.93,0,0,1,.54,1.5,4.19,4.19,0,0,1-.14.84Z" transform="translate(-81.02 -7)"/><path d="M258.94,55.78c-.26.2-.51.41-.76.62l-.75.62c-.14.13-.29.25-.43.36l-.9.74c.6-.27,1.2-.57,1.82-.88s1.54-.76,2.34-1.1c.41-.18.78-.32,1.13-.44a1.15,1.15,0,0,1,.28-.06l.53-.1h.11a5.29,5.29,0,0,0,1-.22.19.19,0,0,0,.08-.08,2.71,2.71,0,0,0,.29-.78h0a4.58,4.58,0,0,0-.71,0,13,13,0,0,0-2.4.33A8,8,0,0,0,258.94,55.78Z" transform="translate(-81.02 -7)"/><path d="M269.9,58l.34-.31c-.43-.05-.91-.09-1.41-.12l-.68,0-1.1,0h-.34a8.41,8.41,0,0,0-1.35.1,9.12,9.12,0,0,0-3.2,1l-1,.58-1.44.78c-.47.25-.9.46-1.3.65l2.48,1c1.42.61,2.89,1.23,4.35,1.78,1,.37,2,.67,3,1l.22.06a10.28,10.28,0,0,1,.16-4.22A5.33,5.33,0,0,1,269.9,58Z" transform="translate(-81.02 -7)"/><path d="M217.36,58.79a17,17,0,0,0,.12,4.27c.08.68.16,1.38.2,2.08l0,.33c.1,1.78.19,3.31,1.25,4.68a12.87,12.87,0,0,1,2.62,4.93,12,12,0,0,0,2.15,4.56,29.32,29.32,0,0,0,4.44,4.29l.17.14.49.39,1.6,1.24c.61.47,1.22.94,1.81,1.41l1.47,1.19c1.12.91,2.28,1.85,3.46,2.7,1.39,1,3,2,4.73,1.77l.24,0,.12,0,.36-.08.14-.08a4.53,4.53,0,0,1,.75-.29l.34-.1a1.49,1.49,0,0,0,.42-.23,4.83,4.83,0,0,1,.45-.26l.24-.25.49-.5.51-.5.57-.51c0-.08-.07-.17-.1-.26l-.09-.17-.06-.12a5.45,5.45,0,0,0-.33-.58c-.12-.19-.26-.37-.4-.55s-.17-.22-.24-.31-.3-.22-.44-.34A10.1,10.1,0,0,1,243.47,86c-.16-.21-.31-.43-.46-.66s-.29-.45-.43-.68a33.54,33.54,0,0,1-2.41-5.79l0-.08c-1.48-4.31-1.83-7.9-1.09-11.31a27,27,0,0,1,2.54-6.79l-1.24-3.57-.27-.76c-.06-.17-.12-.32-.18-.48l-.08-.21a6.26,6.26,0,0,1-.63-3.81A1.88,1.88,0,0,1,241,50.42a2.63,2.63,0,0,1,1.51.43,6.39,6.39,0,0,1,1.78,2.24,9.3,9.3,0,0,0,.7,1.14l.05.06a1,1,0,0,0,.13.16l.06-.19a3.46,3.46,0,0,0,.2-1.28,3,3,0,0,0-.3-1.08,3.29,3.29,0,0,0-.59-.84,4.57,4.57,0,0,0-.68-.57A6.13,6.13,0,0,0,243,50c-.36-.18-.74-.35-1.11-.52a14.66,14.66,0,0,1-2.82-1.54c-.44-.35-.86-.75-1.26-1.13a8.09,8.09,0,0,0-1.89-1.5,4.15,4.15,0,0,0-2.09-.45c-2.24.08-4.51,1.7-6.44,3.26L226,49.21c-.69.58-1.4,1.17-2.12,1.73l-.33.25c-1,.76-2.13,1.62-2,2.77a1.13,1.13,0,0,1-.24.86,1.37,1.37,0,0,1-.94.51C218.73,55.47,217.58,57.22,217.36,58.79Z" transform="translate(-81.02 -7)"/><path d="M271.38,70.56a76.28,76.28,0,0,0,7.36-2.33,33,33,0,0,0-.3-4.46c-1.48,1.3-3,2.65-4.53,3.95l-.46.38c0,.08,0,.16,0,.25a1.24,1.24,0,0,1-.55.78A5.3,5.3,0,0,0,271.38,70.56Z" transform="translate(-81.02 -7)"/><path d="M246.53,75.51a37.9,37.9,0,0,1,5.84-.79,38.8,38.8,0,0,0,5.47-.71,25.69,25.69,0,0,0,3.41-1.13c.72-.28,1.47-.57,2.25-.82a21.63,21.63,0,0,1,3.74-.72l.68-.09a16,16,0,0,1,2.17-3.08l.36-.36h0a2.85,2.85,0,0,0-.58-.29,8.44,8.44,0,0,0-1-.29l-.49-.11c-.36-.08-.69-.15-1-.24l-.7-.23-.37-.13c-.87-.29-1.74-.6-2.58-.93l-.34-.13-.56-.22c-.9-.37-1.81-.76-2.71-1.15-1.44-.62-2.92-1.26-4.41-1.81l-1.48-.53.12-.59-.19.57-1-.33L251.81,61l-2-.59a19.12,19.12,0,0,1-2.11-.81l-.28-.13a10.76,10.76,0,0,1-2.15-1.4l-.19-.16-.12-.11a.74.74,0,0,1-.13-.12l-.06-.05-.5-.5c-.23-.24-.44-.46-.63-.69s-.35-.4-.51-.61a14.94,14.94,0,0,1-1-1.48h0c0,.12.09.24.13.35l.67,1.93c.28.78.55,1.57.83,2.36l.28.81c.09.28.19.56.28.83,1.51,4.53,2.84,9.44,2.32,14.62A1.13,1.13,0,0,1,246.53,75.51Z" transform="translate(-81.02 -7)"/><path d="M246.78,85.76,247,86a11.56,11.56,0,0,1,1.06,1.34l.12.19a2.75,2.75,0,0,1,.17.29l.18.41c0,.09.07.18.1.27s.05.16.08.25l.07,0h.07a4.19,4.19,0,0,1,.71-.1l.25,0H250a6.32,6.32,0,0,1,1.77.28.79.79,0,0,1,.2,0,20,20,0,0,1,5.45,3.2L259,93.38c1.65,1.21,3.35,2.48,5.12,3.55a24.9,24.9,0,0,0,14.18,3.89c3.83-.13,7.66-.3,11.48-.46,4.58-4.83,7.38-12.52,7.32-20.09q0-.58-.06-1.23c-.14-2.21-.35-5.56,3.16-5.87a13,13,0,0,1,6.52,1.59,46.37,46.37,0,0,0-3.67-7.4l-.25-.41c-1.4-2.27-3.73-6.08-6.53-6a3.52,3.52,0,0,0-.83.14,6.71,6.71,0,0,0-2.64,2.05c-.38.41-.78.83-1.2,1.2a21.86,21.86,0,0,1-2.24,1.7l-.71.45c-.24.15-.48.3-.72.43l-.07,0a46.54,46.54,0,0,1-7.05,3.15l-.65.24-.68.24-1.1.38c-2,.69-4.12,1.41-6.23,2-1,.25-2,.46-2.92.61l-.21,0c-.22,0-.44.08-.66.1l-.41.06-.41.06a20.77,20.77,0,0,0-4.95,1.28,26.86,26.86,0,0,1-5.05,1.52,38.66,38.66,0,0,1-4.54.5,26.7,26.7,0,0,0-6,.85,4.25,4.25,0,0,0-1.21.59,3.08,3.08,0,0,0-.78.79,2.65,2.65,0,0,0-.33.7,3.14,3.14,0,0,0-.14,1.43,6.19,6.19,0,0,0,.81,2.33c.1.18.22.37.33.54s.28.42.43.62.37.5.57.74l-.41.45Z" transform="translate(-81.02 -7)"/><path d="M239.17,115.29c.92-2.39,2-5.21,3.15-8.05l.15-.37c.15-.37.31-.75.47-1.12s.31-.7.46-1l.25-.56c1.44-3.21,2.92-6.53,3.06-10l-.15,0-.46-.07h0a1.72,1.72,0,0,0-.65.19,2.89,2.89,0,0,1-.8.26,2.33,2.33,0,0,0-.63.2h0l-.36,1.39,0,.18c-.32,1.26-.7,2.72-1.17,4.17a19.87,19.87,0,0,1-2.33,5,14.42,14.42,0,0,1-3.29,3.4l-.07.06-.51.38-.52.35-.05,0a34.8,34.8,0,0,1-3.78,2.12,65.44,65.44,0,0,1-7.89,3.06c-.86.29-1.73.58-2.6.89a14.32,14.32,0,0,0-3,1.65,13.86,13.86,0,0,1-3.57,1.88,10.8,10.8,0,0,0,1.41,1.11,9.61,9.61,0,0,1,1.9,1.59l.57.68c1.41,1.69,2.62,3.14,4.61,4a10.49,10.49,0,0,0,4.51.83h0a9.84,9.84,0,0,0,8.13-4.62,21.6,21.6,0,0,0,1.06-2.06l0-.08c.08-.19.16-.37.25-.56l.25-.61,0-.07c.33-.81.63-1.63.93-2.45C238.73,116.47,239,115.87,239.17,115.29Z" transform="translate(-81.02 -7)"/><path d="M293.33,102.73l-4,.17-5.38.22-3.81.15-1.22,0c-.53,0-1,0-1.56,0A31,31,0,0,1,273,103a24,24,0,0,1-7.31-2.33,50.22,50.22,0,0,1-6.93-4.45l-.11-.08c-1.44-1-2.93-2.13-4.46-3.11l-.4-.26A12.47,12.47,0,0,0,251,91.31a3.12,3.12,0,0,0-1.66-.12,1.09,1.09,0,0,0-.24.07,2.12,2.12,0,0,0-.48.23l-.19.13h.13a5.22,5.22,0,0,1,1.35.22,12.06,12.06,0,0,1,4.26,2.74l.64.54c1.75,1.49,3.64,3,5.61,4.36l1,.73c.8.59,1.63,1.2,2.47,1.7a5,5,0,0,0,1.78.5l.28,0a22,22,0,0,1,4.11,1.21l.27.1c.51.18,1,.37,1.55.54a40.91,40.91,0,0,0,7.85,1.84,21.13,21.13,0,0,0,8-.47C290.71,104.84,292.77,103.76,293.33,102.73Z" transform="translate(-81.02 -7)"/><path d="M304.77,120.56a15.68,15.68,0,0,1-2.21.33c-1.25.11-2.49.18-3.69.25s-2.47.15-3.69.25a38.69,38.69,0,0,0-5.84.89l-.28.07a33.13,33.13,0,0,1,4.23,1.6c.63.27,1.21.52,1.79.75a11.73,11.73,0,0,0,6.66.52C302,123.36,303.36,121.92,304.77,120.56Z" transform="translate(-81.02 -7)"/><path d="M296.6,112c-3.35,1.54-6,4.48-8,6.87-.65.78-1.23,1.52-1.76,2.23.61-.19,1.23-.35,1.83-.5a43.72,43.72,0,0,1,5.6-1c1.47-.17,2.95-.23,4.39-.29,1.11,0,2.25-.1,3.37-.19a13.75,13.75,0,0,0,5.33-1.46c.08-.12.15-.25.22-.37.23-.39.47-.8.74-1.18l-.59-.4-.18-.13a5.77,5.77,0,0,0-2.94-.75,5.84,5.84,0,0,1-3.44-1l-.11-.08,0,0a.46.46,0,0,0-.07-.07v0a4,4,0,0,1-.95-2.46A10.61,10.61,0,0,0,296.6,112Z" transform="translate(-81.02 -7)"/><path d="M335.43,135a15.46,15.46,0,0,1-3.31-2.81l-.31,0c-.1.14-.19.27-.26.39l-.42.7c-.28.48-.56,1-.86,1.44.24.41.49.79.75,1.15,1.8,2.46,4.86,5.49,9.25,5.95.62.07,1.25.12,1.92.17a33.91,33.91,0,0,1,4.5.54l-.21-.19a53.39,53.39,0,0,0-7.91-5.43C337.54,136.28,336.47,135.64,335.43,135Z" transform="translate(-81.02 -7)"/><path d="M339.93,126.25l-.2-.12-.14-.08c-.08.21-.14.41-.16.45a3.38,3.38,0,0,1-.57,1.3l-.31.38-.21.24a1.08,1.08,0,0,0-.11.69,1.64,1.64,0,0,1,0,.22.66.66,0,0,1,0,.31,2.28,2.28,0,0,1-1.43,1.46,11.37,11.37,0,0,1-2.45.79,16.56,16.56,0,0,0,2.34,1.8c.95.61,1.95,1.18,2.91,1.74,1.24.72,2.53,1.47,3.74,2.29a44.2,44.2,0,0,1,4.51,3.48c.45.41.93.84,1.38,1.3-.14-.89-.31-1.81-.51-2.8-.64-3-1.65-6.89-3.91-9.8a9.15,9.15,0,0,0-1.75-1.69,7.7,7.7,0,0,1-2.14.37.77.77,0,0,1-.56-.23.64.64,0,0,1-.19-.47A4.06,4.06,0,0,0,339.93,126.25Z" transform="translate(-81.02 -7)"/><path d="M355.49,94.48l2.41-.72a.28.28,0,0,1,.13,0c.19-.2.39-.39.59-.58A43.24,43.24,0,0,1,363,89.48c.5-.36,1-.73,1.56-1.08-.9-.05-1.83-.08-2.85-.09-1.43,0-2.68,0-3.81.13a20.43,20.43,0,0,0-5.61,1.2,32.09,32.09,0,0,1,1.1,3.17,7.73,7.73,0,0,1,.35,2.21Z" transform="translate(-81.02 -7)"/><path d="M356.08,98.42a11,11,0,0,0-.68,1.51,18.28,18.28,0,0,0-.85,4.71c2.73-1.27,6.1-3.6,7.43-7.62.19-.59.38-1.2.56-1.85A33.85,33.85,0,0,1,364,90.89l-.23.17a52.71,52.71,0,0,0-7,6.59Z" transform="translate(-81.02 -7)"/><path d="M298.76,78.77l-.24-.16a35.54,35.54,0,0,1,1.78,4.17c.23.63.45,1.23.69,1.81a12.49,12.49,0,0,0,6.19,6.3c.27-1.42.56-2.89.88-4.33-.63-.56-1.25-1.14-1.87-1.71A53.49,53.49,0,0,0,298.76,78.77Z" transform="translate(-81.02 -7)"/><path d="M311.18,76.9c-3.43-1.35-7.42-1.26-10.5-1-1,.07-1.95.17-2.83.29.56.31,1.1.64,1.62,1a42.72,42.72,0,0,1,4.6,3.35c1.14.94,2.21,2,3.26,3l1.28,1.21a3.85,3.85,0,0,1,1.11-1.23c.49-.37,1-.7,1.51-1s.84-.53,1.23-.81c.63-.45,1.27-.94,1.93-1.49l0-.79,0-.36A10.84,10.84,0,0,0,311.18,76.9Z" transform="translate(-81.02 -7)"/><path d="M316.7,72.71a14.71,14.71,0,0,0-.6,5.61v.3l.38-.39a4,4,0,0,1,2.37-1.46h.39c.94.07,1.58,1,2.09,1.77a7.16,7.16,0,0,0,.48.66,8.14,8.14,0,0,0,2,1.63,14.61,14.61,0,0,0,.37-3.14c0-1.13,0-2.27,0-3.38,0-1.44-.05-2.92,0-4.4a42.53,42.53,0,0,1,.65-5.65c.11-.6.23-1.23.38-1.85-.68.57-1.38,1.19-2.12,1.89C320.79,66.41,318,69.27,316.7,72.71Z" transform="translate(-81.02 -7)"/><path d="M328.39,68.68a33.91,33.91,0,0,1-1.86-4.12,2.74,2.74,0,0,0,0,.28,53.32,53.32,0,0,0-.55,9.58c0,1.2,0,2.45,0,3.69a16.47,16.47,0,0,1-.32,2.86c.76-.1,1.48-.17,2.17-.2l.36-.33.21-.18a18.77,18.77,0,0,0,1.33-1.47c.07-.08.13-.17.2-.26l0-.07a12.05,12.05,0,0,0-.65-8C329,69.86,328.7,69.29,328.39,68.68Z" transform="translate(-81.02 -7)"/><path d="M321.4,94.3a8.52,8.52,0,0,1,1.49-1.86,2.36,2.36,0,0,1,.53-.38,2,2,0,0,1,.58-.19l.15,0a3.11,3.11,0,0,1,1,.11c.23.06.48.14.68.21l.18.06a9.57,9.57,0,0,1,3.09,1.69l.15.13a4.53,4.53,0,0,0,.62.5l.35-.66-.09-.07-.2-.14a12.26,12.26,0,0,1-1.85-1.55,3.22,3.22,0,0,0-2.2-.92h-.1l-.72,0h-.26c-.26,0-.52,0-.79,0a9.22,9.22,0,0,0-1.11.05h0l-.05,0a13.35,13.35,0,0,1-1.53,1h0l.06.58c0,.51.05,1,.05,1.42A.45.45,0,0,1,321.4,94.3Z" transform="translate(-81.02 -7)"/><path d="M320.35,103.7a8.48,8.48,0,0,0,1.08.45c-.27-.22-.53-.45-.79-.69A1.68,1.68,0,0,1,320.35,103.7Z" transform="translate(-81.02 -7)"/><path d="M334.1,96.6l0-.35c0-.56-.09-1.12-.16-1.67A17.41,17.41,0,0,1,332.67,99,25.3,25.3,0,0,0,334.1,96.6Z" transform="translate(-81.02 -7)"/><path d="M329.62,88a15.06,15.06,0,0,1,2,1.82l.26.27.26.25h0v0l-.06-.11c-.31-.58-.66-1.16-1-1.72s-.5-.85-.74-1.28a6.23,6.23,0,0,0-2,.14A6.1,6.1,0,0,1,329.62,88Z" transform="translate(-81.02 -7)"/><path d="M327.78,97.49c0,.06,0,.13-.06.18l.82-.51a.68.68,0,0,1,.09-.32l.05-.09a3.82,3.82,0,0,0-1.15-.5,1,1,0,0,1,.29.61,1.82,1.82,0,0,1,0,.33C327.81,97.28,327.8,97.39,327.78,97.49Z" transform="translate(-81.02 -7)"/><path d="M322.28,98.28l.26,0h.25a1.23,1.23,0,0,0,.55-.17,4.31,4.31,0,0,0,.68-.55,1.75,1.75,0,0,1,.24-.23l.35-.33a7.43,7.43,0,0,1,.85-.73.35.35,0,0,1,.09-.07,5.6,5.6,0,0,0-3.34,2.07Z" transform="translate(-81.02 -7)"/><path d="M342.3,88.75l-.85-1a24.9,24.9,0,0,1-2.95-3.74A32.18,32.18,0,0,1,336.09,79l-.54-1.47a23.49,23.49,0,0,0-1.31-3.21c-.53.74-1,1.54-1.44,2.31-.35.6-.72,1.22-1.1,1.82-.15.23-.31.45-.47.67s-.27.36-.41.53-.54.65-.87,1l-.24.25.31.06.55.11a11,11,0,0,1,3.13,1.27,14.51,14.51,0,0,1,4,3.56c.23.29.47.62.73,1s.64.93.95,1.43.75,1.28,1.16,2l.09,0,.27-.11.27-.13.07,0a9.9,9.9,0,0,0,1.41-.84l-.29-.34Z" transform="translate(-81.02 -7)"/><path d="M305,113.55a6.68,6.68,0,0,1,2.92.63c.31.17.59.37.87.56l.59.38a4.58,4.58,0,0,1,1.05-.47,8.73,8.73,0,0,1-.88-1l-.07-.11a1.73,1.73,0,0,0-1-.8,3.52,3.52,0,0,1-1.22-.58,3.58,3.58,0,0,1-1.06-1.2,5.39,5.39,0,0,1-.31-.59c-.1-.19-.18-.38-.27-.57a6,6,0,0,0-1.05-1.79,2.44,2.44,0,0,1-.47.09,4.6,4.6,0,0,1-2.5-.73h0a15.09,15.09,0,0,1-.1,2l0,.34c0,.2,0,.39,0,.58s0,.33,0,.5v.13a2.58,2.58,0,0,0,.6,1.79A5,5,0,0,0,305,113.55Z" transform="translate(-81.02 -7)"/><path d="M311.1,103.08a.65.65,0,0,1,.11-.29,6.38,6.38,0,0,1-.94-2,6.85,6.85,0,0,1-.14-.74,4.48,4.48,0,0,1-2.73-1.58,3.81,3.81,0,0,1-.64-1.13l-.27,0a3.45,3.45,0,0,1-1.12-.15l-.4-.09a9.76,9.76,0,0,0-2.25-.16c-.72.06-1.08.26-1.1.58a4.66,4.66,0,0,0,.08.72,4.17,4.17,0,0,1,.09.72,5.26,5.26,0,0,1-.21,1.43l0,.06a10.51,10.51,0,0,0-.26,3.52q0,.63.12,1.26l.29-.21.08,0h0l1.25-.69a12.93,12.93,0,0,1,5.08-2,5.19,5.19,0,0,1,2.34.48l.43.17Z" transform="translate(-81.02 -7)"/><path d="M302.4,128.05a2.9,2.9,0,0,0,.37,2.53,3.39,3.39,0,0,0,2.47,1.57,12.72,12.72,0,0,0,2.55.1l.73,0,4.43-.06a30.13,30.13,0,0,1,6.06.32,15.92,15.92,0,0,1,2.84.9l.13.05a11.5,11.5,0,0,0,2.52.57l.92.15a4.79,4.79,0,0,1,1.18.43,2.46,2.46,0,0,0,1.57.38.68.68,0,0,0,.35-.23,2,2,0,0,0,.3-.39,3.06,3.06,0,0,0,.23-.36l.12-.2c.22-.38.45-.75.67-1.12l.31-.52c-.53,0-1.09-.11-1.68-.2h-.06l-.62-.11-.4-.08-.28-.06-.23-.05a30,30,0,0,1-6-2.19c-1-.49-2.05-1-2.81-1.43L318,128a3.8,3.8,0,0,1-1.91-1.72,2.5,2.5,0,0,1,.49-2.29,11.26,11.26,0,0,0,1.4-2.5l0,0a11.31,11.31,0,0,1,1.27-2.64,6.3,6.3,0,0,1-2-.22,7.61,7.61,0,0,1-1.65-.86,11.74,11.74,0,0,0-1.13-.63l-.51-.23-.5-.23-.22-.1a4.39,4.39,0,0,1-.44-.21l-.45-.23-.21-.12-.05,0a3.33,3.33,0,0,0-1.1.08l-.26.08a1.82,1.82,0,0,0-.28.13,1.69,1.69,0,0,0-.36.23l-.27.25a4.41,4.41,0,0,0-.45.59c-.18.26-.35.55-.51.82l-.32.55,0,0,0,0a7.39,7.39,0,0,1-.55.74,21.92,21.92,0,0,1-1.76,1.84,20.76,20.76,0,0,0-1.83,1.92,5.29,5.29,0,0,0-1,2.15,3.47,3.47,0,0,0-.09.47v0a2.74,2.74,0,0,0,0,.48,2.31,2.31,0,0,1,0,.74,1.05,1.05,0,0,1-.54.71A.87.87,0,0,0,302.4,128.05Z" transform="translate(-81.02 -7)"/><path d="M356.06,95.8l-2.66.81a2.9,2.9,0,0,1-.83,1,10.55,10.55,0,0,1-.62,3.16,10.41,10.41,0,0,1-1,2,10.14,10.14,0,0,1-.63.88,14,14,0,0,1-1.29,1.37l0,.1c0,.17-.07.34-.1.51l.36.45.48.59.36.45c.32.41.64.81.95,1.23a7,7,0,0,1,1.41,3.84c.07.78.21,1.2.85,1.48a2.65,2.65,0,0,1,.79.49c-.06-.13-.12-.27-.19-.4s-.1-.22-.15-.31a9.81,9.81,0,0,1-.73-3.1,24,24,0,0,1,0-3.78c0-.19,0-.39,0-.58s0-.41,0-.62l.08-1a21,21,0,0,1,.86-4.8c.08-.26.17-.5.26-.75a11.9,11.9,0,0,1,1.75-3Z" transform="translate(-81.02 -7)"/><path d="M355.71,117.18a2.22,2.22,0,0,0-1.07-.08h-.07c-.15.82-.28,1.47-.44,2.08a10.18,10.18,0,0,1-4.84,6.11,25.92,25.92,0,0,1-2.63,1.41c.37.09.73.16,1,.22a7.55,7.55,0,0,0,2,.16,3.12,3.12,0,0,0,1-.23,5.63,5.63,0,0,0,1.95-1.64l2.27-2.54a8.67,8.67,0,0,0,1.39-1.86,2.72,2.72,0,0,0-.07-1.9c0-.2-.11-.4-.15-.59a2.8,2.8,0,0,1-.05-.48C356,117.44,356,117.3,355.71,117.18Z" transform="translate(-81.02 -7)"/><path d="M320.12,119.91a9.39,9.39,0,0,0-.74,1.72c-.07.19-.15.39-.21.58a10.41,10.41,0,0,1-1.38,2.42c-.43.61-.52,1-.3,1.32a2.26,2.26,0,0,0,.93.64l.29.16c1,.55,2,1.06,3,1.53a29,29,0,0,0,5.49,2l.52.12.19,0,.3.05.15,0a16.89,16.89,0,0,0,2.8.27h1l.27,0h.13l.42,0a12.19,12.19,0,0,0,2-.42l.2-.06c.47-.13,1.44-.4,1.62-.82,0-.07,0-.15,0-.22a2.35,2.35,0,0,1,.06-.94,3.24,3.24,0,0,1,.63-1,2.81,2.81,0,0,0,.6-1.25,2.72,2.72,0,0,1,.37-.94,2.8,2.8,0,0,1,.29-.37l.13-.12a1.33,1.33,0,0,1,.78-.38,1.12,1.12,0,0,1,1,.53,3.64,3.64,0,0,1,.51,1c.08.25.16.51.22.78s.09.43.12.64c.23,0,.46-.08.7-.13s.41-.11.62-.18l.64-.23.34-.14.39-.17.41-.18.4-.18a32.74,32.74,0,0,0,3.28-1.66,9.12,9.12,0,0,0,4.49-5.59c.16-.65.27-1.33.38-2,.14-.93.13-1.3-.51-1.58a2.71,2.71,0,0,1-1.65-2.44c0-.16,0-.32,0-.47a5.29,5.29,0,0,0-.23-1.32,6.34,6.34,0,0,0-1-1.75c-.38-.51-.75-1-1.08-1.39l-.38-.48-.67-.82-.2.18-.74.64-.43.38-.12.11-.8.67-.42.35-.67.55a52.64,52.64,0,0,1-6.84,5,6.43,6.43,0,0,1-.74.36c-.26.11-.53.22-.84.33l-.8.28c-.41.14-.85.29-1.26.47s-.74.36-1.15.58a1.55,1.55,0,0,0,.44.41,1.3,1.3,0,0,1,.62,1.83c-.46.91-1.74,1-2.15,1.06l-.36,0a12.14,12.14,0,0,1-2.33-.18c-.27,0-.54-.08-.81-.1-1.16-.14-2.4-.25-3.78-.35-.76-.06-1.58-.11-2.59-.15l-.35,0-.18.12A3,3,0,0,0,320.12,119.91Z" transform="translate(-81.02 -7)"/><path d="M315.35,85.06l.49-.14.16,0,.19-.05.31-.09a7.68,7.68,0,0,1,1.43-.31,2.34,2.34,0,0,1,.53,0,7.37,7.37,0,0,1,.61-1c.13-.16.25-.31.38-.45a5.57,5.57,0,0,1,.45-.41,4.14,4.14,0,0,1,1.57-.78l.89-.22a11,11,0,0,1-2.27-2.26l-.22-.3a4.24,4.24,0,0,0-.63-.75.43.43,0,0,0-.3-.11,2.36,2.36,0,0,0-1.08.74l-.61.57-.31.3-.25.24-.24.21-.55.49-.37.32,0,0-.08.07-.23.19-.16.12c-.71.58-1.44,1.13-2.17,1.64-.32.23-.67.44-1,.65a9.71,9.71,0,0,0-1.68,1.18,2.24,2.24,0,0,0-.53,1,8.52,8.52,0,0,0-.24,1.18l0,.18c0,.27-.08.53-.12.77l-.77,3.75-.12.57-.12.53a10.27,10.27,0,0,0-.3,3.21c0,.12,0,.24.05.36s.08.26.12.4a2.8,2.8,0,0,0,.73,1.16,2.64,2.64,0,0,0,1.1.65l.19.05a.55.55,0,0,0,0-.17,2.7,2.7,0,0,1,1.43-2,13.25,13.25,0,0,1-.77-2.37l0-.17,0-.13a5.07,5.07,0,0,1-.09-.54c0-.21-.05-.42-.07-.63a15.1,15.1,0,0,1,0-1.78v-.24a11.17,11.17,0,0,1,.26-2.14,4.5,4.5,0,0,1,.29-.78,1.59,1.59,0,0,1,.22-.36A4.74,4.74,0,0,1,313.05,86,15,15,0,0,1,315.35,85.06Z" transform="translate(-81.02 -7)"/><path d="M351.84,96.41l0,0a1.69,1.69,0,0,0,.24-.37,3.53,3.53,0,0,0,.15-.39,4.58,4.58,0,0,0-.24-2.37,31.08,31.08,0,0,0-1.2-3.37l-.06-.16-.15-.33c-.05-.14-.12-.27-.18-.41l0-.09c-.15-.33-.3-.66-.47-1a6.45,6.45,0,0,0-1.44-2.15,1.33,1.33,0,0,0-1.26-.25c-.35.12-.58.64-.75,1l0,0-.14.32a7.8,7.8,0,0,1-.73,1.4,7.66,7.66,0,0,1-1.23,1.33l-.29.23-.06.06-.21.17-.06,0A11.24,11.24,0,0,1,342,91.19l-.37.19-.35.15-.11,0,.54,1,.18.25a11.48,11.48,0,0,1,1.69,3c.09.26.16.49.21.7a4.17,4.17,0,0,1,.1.6c0,.07,0,.14,0,.21v0a7.18,7.18,0,0,1-.06,1.28,8.58,8.58,0,0,1-.51,3.75,4.18,4.18,0,0,1-.23,1.06,2.65,2.65,0,0,1-.54.88c-.15.17-.33.35-.5.51s-.32.32-.49.47l0,0-.25.26-.11.12-.8.8c-.12.11-.24.22-.34.33a9,9,0,0,0-1.4,1.7,1.77,1.77,0,0,1-1.36,1h-.1l-.1.08c-.32.32-.63.64-1,1l-.33.31a6.23,6.23,0,0,1-1.37,2.48.12.12,0,0,1-.05,0,5.48,5.48,0,0,1-.66.63l-.19.15L334,114l.65-.23a12.34,12.34,0,0,0,2.33-1,63.31,63.31,0,0,0,7.4-5.53l.95-.78.54-.45.12-.11.22-.18q.36-.3.72-.63l.27.22-.23-.25.24-.21.27-.25.2-.2.15-.14.36-.36.47-.51.14-.16.08-.11a10,10,0,0,0,1.27-1.84l.07-.12a2,2,0,0,0,.13-.25,8.47,8.47,0,0,0,.61-1.88,7.55,7.55,0,0,0,.13-.92,1.14,1.14,0,0,0,0-.32,1.86,1.86,0,0,1,.1-.84,1.2,1.2,0,0,1,.46-.44Z" transform="translate(-81.02 -7)"/><path d="M323.45,117.49c.82,0,1.49.08,2.11.14,1.09.09,2.24.2,3.51.36l.27,0c.51.06,1,.12,1.46.14a5.07,5.07,0,0,0,.52,0l.21,0a2.57,2.57,0,0,0,.76-.24l-.24-.18a3.88,3.88,0,0,1-.58-.52,2.71,2.71,0,0,1-.32-.5c-.06-.12-.11-.24-.16-.37s-.07-.19-.1-.28l0-.06-.06-.16c0-.15-.08-.27-.12-.4h0l-.2,0-.67.08h-.11a3.15,3.15,0,0,1-.44,0,14.82,14.82,0,0,1-2.18-.07c-3.11-.32-5-2.44-6.55-4.4l-1-1.33a8.21,8.21,0,0,1-4.84-.07,3.52,3.52,0,0,1-.52-.21,5.65,5.65,0,0,1-.53-.29l-.29-.18a5.81,5.81,0,0,1-2.15-4.44,10.74,10.74,0,0,1-1.54-.53l-.2-.08a3.49,3.49,0,0,0-2.54.13,20.88,20.88,0,0,0-3.26,1.59c-.36.2-.71.4-1.06.58l.19.09.16.07a1.6,1.6,0,0,0,1.52.09.79.79,0,0,1,.22-.06.82.82,0,0,1,.52.16,6.12,6.12,0,0,1,1.63,2.37c.09.19.17.38.26.56s.21.4.31.56a4.51,4.51,0,0,0,.39.55,3.4,3.4,0,0,0,.38.38,2.16,2.16,0,0,0,.8.35l.43.13a2.16,2.16,0,0,1,.89.73l.46.53a10.78,10.78,0,0,0,1.3,1.4l.37.3.06,0a4.73,4.73,0,0,0,.44.28l.42.23.07,0,.39.19.68.29.51.22.11,0,.16.07.05,0c.39.19.72.38,1,.57a4.42,4.42,0,0,0,2.13.83l3.35.12Z" transform="translate(-81.02 -7)"/><path d="M317.82,107a9.53,9.53,0,0,1-1.24-.34c-.24-.09-.43-.17-.62-.26l-.61-.3-.54-.29a14.09,14.09,0,0,1-1.48-.91l-.37-.28-.14-.11-.06,0-.19-.16s0,.09,0,.14a5.21,5.21,0,0,0,1,2.86,3.81,3.81,0,0,0,.48.5l.07,0a3.61,3.61,0,0,0,.49.34,5.1,5.1,0,0,0,3,.51h0c.32,0,.65-.08,1-.14l-.06-.08-.15-.2a3.13,3.13,0,0,1-.39-.62,1.27,1.27,0,0,1-.12-.59S317.82,107,317.82,107Z" transform="translate(-81.02 -7)"/><path d="M320,93.07c0-.08,0-.16,0-.25l-.28.1-.27.07-.08,0,0,0c-.1.17-.19.32-.26.47l-.08.16c-.05.12-.09.24-.13.36a4.68,4.68,0,0,0-.21,1,.62.62,0,0,1-.2.42c0,.19.06.21.26.26s.24.08.38.13l.15.06a1.54,1.54,0,0,1,.52.35c.09-.44.17-.89.22-1.33A10.67,10.67,0,0,0,320,93.07Z" transform="translate(-81.02 -7)"/><path d="M319.44,102.38a4.14,4.14,0,0,0-1.42-.6,6,6,0,0,0,1.57,1.48,1.07,1.07,0,0,0,.52-.3C319.9,102.76,319.68,102.57,319.44,102.38Z" transform="translate(-81.02 -7)"/><path d="M319,100.33a6.82,6.82,0,0,0-1-.77h-.11l-.06-.1-.2-.09-.19-.09c-.2-.08-.42-.16-.68-.24a9.91,9.91,0,0,1,.75,1.16A9.15,9.15,0,0,0,319,100.33Z" transform="translate(-81.02 -7)"/><path d="M315,96.8l.34,0H315c0-.1,0-.2,0-.31a3.3,3.3,0,0,1,.53-1.78,1.57,1.57,0,0,1,.69-.54l.14-.05A1.78,1.78,0,0,1,317,94h.12l.16,0h0a2.38,2.38,0,0,1,0-.26l0-.2a1.16,1.16,0,0,1,0-.18l0-.11c0-.07,0-.13.05-.2l0-.13-.06,0a.54.54,0,0,1-.18-.1.74.74,0,0,1-.27-.51v-.26c0-.28,0-.55,0-.83v-.14c0-.17,0-.35,0-.52v-.14c0-.21,0-.43,0-.65a.17.17,0,0,1,0-.07v0a.59.59,0,0,1,0-.14l0-.2c0-.17,0-.33.06-.5s.09-.56.14-.84a17.53,17.53,0,0,1,.54-2.08h0c-.38.06-.75.14-1,.21l-.13,0-.29.07-.1,0-.51.15a16,16,0,0,0-1.82.75,3.71,3.71,0,0,0-1.37,1,2.08,2.08,0,0,0-.34.66,1.69,1.69,0,0,0-.05.24,10.41,10.41,0,0,0-.19,2.25v.19a8.79,8.79,0,0,0,.06,1.25l.09.61c0,.17.07.34.11.5a13.12,13.12,0,0,0,.83,2.42,3.23,3.23,0,0,1,1,.37l.32.2.33.23.28.23a.34.34,0,0,1,0-.09C315,97.09,315,96.94,315,96.8Z" transform="translate(-81.02 -7)"/><path d="M313.09,102.79c.11.11.22.22.34.32s.39.31.62.48.39.27.59.4l0,0,.16.1c.13.08.27.17.41.24l0,0,.39.22.67.36a6.19,6.19,0,0,0,1.23.49l.45.11.46.07a9.08,9.08,0,0,0,1.06.05h.55a12.67,12.67,0,0,0,1.64-.27l-.17,0a10.15,10.15,0,0,1-1.73-.68l-.14-.07c-.15-.08-.31-.16-.45-.25s-.33-.21-.51-.34-.31-.23-.47-.37a7.89,7.89,0,0,1-1.55-1.84c-.13-.21-.25-.42-.37-.64a10.92,10.92,0,0,0-.86-1.34l-.17-.21-.06-.06c-.1-.12-.21-.23-.32-.34l-.33-.32-.71-.62,0,0-.24-.19-.28-.17-.23-.1a1.23,1.23,0,0,0-.36-.08,1.15,1.15,0,0,0-.32,0,1.17,1.17,0,0,0-.5.29,1.53,1.53,0,0,0-.45,1.06,2.17,2.17,0,0,0,0,.26v.1c0,.11,0,.22,0,.33l0,.19c0,.18.06.32.09.46a5.08,5.08,0,0,0,.85,1.69c.09.12.19.23.29.35l.29.31-.2.28Z" transform="translate(-81.02 -7)"/><path d="M324,112.81a6.17,6.17,0,0,0,3.28,1.28,9.57,9.57,0,0,0,2.73,0,6.22,6.22,0,0,0,.65-.13l.09,0,.12,0,.08,0,.08,0c.11,0,.23-.07.34-.12l.23-.09.42-.2.39-.23a5.27,5.27,0,0,0,1.34-1.24l0,0a.16.16,0,0,1,0-.07,4.5,4.5,0,0,0,.53-1,7,7,0,0,0,.22-.69,11.42,11.42,0,0,0,0-4l-.12-.81c0-.22-.06-.44-.08-.66a52.06,52.06,0,0,1-.41-5.41l0-.27a24.8,24.8,0,0,1-1.68,2.34,23.72,23.72,0,0,1-1.94,2.15,9,9,0,0,1-2.1,1.86,4.3,4.3,0,0,1-1.72.63l-.51.14-.87.21-.4.09-.11,0c-1,.25-1.9.42-2.71.54a15.15,15.15,0,0,1-1.74.14h-.87l0,.08a2.27,2.27,0,0,0,.21.28l.06.07,2.07,2.65A16.41,16.41,0,0,0,324,112.81Z" transform="translate(-81.02 -7)"/><path d="M324.31,82.67l-.59.11c-.62.11-1.34.25-2.06.44a2.27,2.27,0,0,0-.9.46,3,3,0,0,0-.36.35,3.65,3.65,0,0,0-.31.41,5.15,5.15,0,0,0-.48.87.19.19,0,0,0,0,.09l0,.09c-.07.16-.15.33-.21.49s-.14.38-.2.57a12.93,12.93,0,0,0-.55,2.4c0,.22-.05.41-.08.6h-.34l.34,0c0,.19,0,.37-.05.56s0,.25,0,.36v.31a3.34,3.34,0,0,1,.25-.4,8.25,8.25,0,0,1,.82-1.06l.07-.06,0,0,.22-.22,0,0,.3-.27.1-.09.06,0a8.1,8.1,0,0,1,1.4-.93l.52-.24.53-.21a8,8,0,0,1,1.14-.31,7.85,7.85,0,0,1,1.31-.14,7.48,7.48,0,0,1,.83,0,8.05,8.05,0,0,1,1.22-.58,7,7,0,0,1,.89-.29,7.57,7.57,0,0,1,1.44-.2c-.12-.25-.23-.5-.32-.73a.63.63,0,0,1,.05-.61.71.71,0,0,1,.56-.35.48.48,0,0,1,.17,0c2.31.32,3.83,2.16,5.07,3.87a38,38,0,0,1,4.42,7.13,11.37,11.37,0,0,1,.28,8.08l-.15.49c-.09.33-.19.66-.31,1v0c-.12.37-.24.69-.36,1l-.11.29a1.89,1.89,0,0,0-.09.21l.07-.07.22-.23.36-.36.68-.67.12-.13c.18-.18.4-.41.61-.66l.09-.1.09-.11c.11-.14.22-.29.34-.47a7.67,7.67,0,0,0,.62-1.21,7.84,7.84,0,0,0,.47-3.43v-.08a.34.34,0,0,1,0-.1c0-.18,0-.35-.07-.53l0-.12c0-.24-.1-.48-.17-.73a18.41,18.41,0,0,0-1.51-3.58c-.1-.2-.2-.39-.31-.58l-.35-.65-.26-.5-.06-.13-.3-.55c-.13-.25-.26-.49-.4-.73a27.46,27.46,0,0,0-2.33-3.58l-.48-.59L336,86.1l-.08-.09c-.3-.34-.61-.65-.92-1s-.44-.38-.7-.58a11.34,11.34,0,0,0-2.9-1.71,6.63,6.63,0,0,0-1.26-.38,5.07,5.07,0,0,0-.54-.09,5,5,0,0,0-.54-.06H329l-.28,0h-.91a18.73,18.73,0,0,0-2.46.28l-.32.06-.11-.33.06.33Z" transform="translate(-81.02 -7)"/><path d="M337.68,105.08l.27-.76c.18-.54.34-1.08.49-1.61l.05-.16A11.57,11.57,0,0,0,339,99a10.09,10.09,0,0,0-.94-3.67A21.06,21.06,0,0,0,336.21,92l-.7-1c-.36-.53-.74-1.06-1.12-1.58l-.16-.22c-.33-.46-.66-.91-1-1.35s-.49-.58-.72-.82a5.85,5.85,0,0,0-1.21-1v0l0,0,.2.38c.09.15.18.3.26.45l.59,1L333,89a.6.6,0,0,1,.33-.12.7.7,0,0,1,.76.64l.09.87c.05.46.09.92.13,1.38a16,16,0,0,1,.78,3.85l.09,1.12c.08.84.14,1.68.2,2.52l.07.79c.05.74.11,1.47.17,2.2,0,.29,0,.58.06.87q0,.78.12,1.56c.05.47.1.88.17,1.27a10.81,10.81,0,0,0,.37,1.58l.08-.09c.1-.14.21-.28.31-.43a4.25,4.25,0,0,0,.27-.46l0,0a5.21,5.21,0,0,0,.24-.47l.06-.13c0-.09.09-.18.12-.27l.34.1-.32-.14,0-.08C337.57,105.35,337.63,105.22,337.68,105.08Z" transform="translate(-81.02 -7)"/><path d="M323.82,89.7h1a9.2,9.2,0,0,1,2.89.44,4.4,4.4,0,0,1,1.61,1.19l.1.1a7.33,7.33,0,0,0,1,.82l.17.14.36.28.56-1a15.06,15.06,0,0,0-1.23-1.18l-.26-.24a8.59,8.59,0,0,0-1.71-1.36,4.63,4.63,0,0,0-2-.59h-1.17a7.86,7.86,0,0,0-.9.11h-.08l-.36.07a5.21,5.21,0,0,0-.54.16,3.54,3.54,0,0,0-.49.18l-.5.24a6.46,6.46,0,0,0-1.15.81l-.26.23-.24.24,0,0,.14,0,.06,0a7.11,7.11,0,0,1,1.59-.38l.32,0,.44,0,.07.33,0-.34h.31l.27,0Z" transform="translate(-81.02 -7)"/><polygon points="242.15 83.08 242.15 83.08 242.15 83.08 242.15 83.08"/><path d="M330.88,95.68l-.1.29a8.51,8.51,0,0,0,2-2.63l.05-.08a3.16,3.16,0,0,0,.11-1.14l0-.17-2,3.69S330.89,95.67,330.88,95.68Z" transform="translate(-81.02 -7)"/><path d="M324.69,93.31a.81.81,0,0,0-.34,0c-.32,0-.58.28-.92.64A6.26,6.26,0,0,0,322,96.45a7.23,7.23,0,0,1,3.05-1.58,5.61,5.61,0,0,1,3,0A7.89,7.89,0,0,0,326,93.73,13.31,13.31,0,0,0,324.69,93.31Z" transform="translate(-81.02 -7)"/><path d="M331.54,97.21a5.76,5.76,0,0,1-1.37.71,9.33,9.33,0,0,0-.95.45c-.33.2-.67.42-1,.64s-.75.49-1.15.72a15.71,15.71,0,0,1-4.48,1.52l-.36.08c-.46.11-.91.19-1.34.26l-.31,0h-.06l-.24,0,.17.14.22.19.2.19.31.29,0,0a11.8,11.8,0,0,0,1,.88,5.45,5.45,0,0,0,3.72,1.21l.32,0a3.78,3.78,0,0,0,1.78-.79,9.28,9.28,0,0,0,1.36-1.37,16.77,16.77,0,0,0,2.19-3.59,14.6,14.6,0,0,0,.89-2.48,5.56,5.56,0,0,1-.86.83Z" transform="translate(-81.02 -7)"/><path d="M320.42,99.51a3,3,0,0,1-.32-.09l.35.32a.91.91,0,0,0,.16.11l.07,0,.05,0a1.83,1.83,0,0,0,.32.07h.6c.29-.05.59-.12.8-.17l.2-.06a9.74,9.74,0,0,1-1.06,0h-.2A6.45,6.45,0,0,1,320.42,99.51Z" transform="translate(-81.02 -7)"/><polygon points="237.98 91.94 237.98 91.94 237.98 91.94 237.98 91.94"/><path d="M319.21,98.67h0a2.26,2.26,0,0,1-.13-.33c0-.11-.06-.21-.08-.32-.1-.43-.16-.65-.43-.79l-.12,0-.19-.06a3.17,3.17,0,0,1-.63-.25,1.55,1.55,0,0,1-.28-.2l-.05-.07-.07-.08a1.69,1.69,0,0,1-.13-.27,2.79,2.79,0,0,1-.1-.39,1.39,1.39,0,0,0-.13-.42h-.1c-.22.06-.34.59-.34,1.57v.12a.43.43,0,0,0,.25.36,2.77,2.77,0,0,0,.72.28l.1,0,.27.08a4.84,4.84,0,0,1,.47.21,3.84,3.84,0,0,1,.35.18l.09,0,.27.16.22.14Z" transform="translate(-81.02 -7)"/><path d="M200.84,121.76a2.8,2.8,0,0,0,.39-.6l.25.09.22.09a15.12,15.12,0,0,0,5.69,1.31h.06a5.64,5.64,0,0,0,3.72-2c.16.19.3.36.42.53,2.19,3,3.11,6.87,3.66,9.93.17,1,.32,1.83.43,2.68-.42-.43-.85-.84-1.26-1.23A42.59,42.59,0,0,0,210,129c-1.2-.86-2.47-1.65-3.7-2.41-1-.58-1.93-1.19-2.87-1.82a14.94,14.94,0,0,1-3-2.6l.08-.07.32-.27Z" transform="translate(-81.02 -7)"/><path d="M202,126.07c1,.69,2.08,1.37,3.11,2a54.29,54.29,0,0,1,7.8,5.66l.08.08a35.45,35.45,0,0,0-4.34-.63c-.68-.06-1.31-.13-1.94-.21a12.31,12.31,0,0,1-7.46-4.15,2,2,0,0,0,1.27-1.2,5.7,5.7,0,0,0,.3-2.44C201.23,125.5,201.62,125.79,202,126.07Z" transform="translate(-81.02 -7)"/><path d="M214.42,68.78l.08-.08a33.42,33.42,0,0,0-.87,4.3c-.12.67-.22,1.3-.34,1.92A10.66,10.66,0,0,1,212,78.3l-.06-.16c-.32-.88-.73-2-2.09-2a6.12,6.12,0,0,0-1.61.19l0,0A54.72,54.72,0,0,1,214.42,68.78Z" transform="translate(-81.02 -7)"/><path d="M199.85,71.17a8.89,8.89,0,0,1,2-1.76c3.1-2,7-2.7,10.13-3.08,1-.12,1.85-.21,2.7-.27-.46.39-.89.79-1.3,1.19a40.82,40.82,0,0,0-3.87,4.22c-.93,1.16-1.79,2.39-2.62,3.57l-.67,1a2.74,2.74,0,0,0-.42-.21,2.86,2.86,0,0,0-1-.12,9,9,0,0,0-1.41.21L203,76c-.76.14-1.53.31-2.26.47l-1.06.23c-.41.08-.83.16-1.28.23a16,16,0,0,0,1.44-5.25C199.82,71.48,199.84,71.33,199.85,71.17Z" transform="translate(-81.02 -7)"/><path d="M192.27,69.51a12.79,12.79,0,0,1-.1,7.25,17.55,17.55,0,0,0-4.85-3.45,7.29,7.29,0,0,0-2.53-.82l0-.17a15,15,0,0,1-.92-5.69c.38-3.68,2.32-7.18,4-9.83.51-.81,1-1.56,1.49-2.27,0,.6.06,1.19.11,1.76a41.28,41.28,0,0,0,.86,5.67c.31,1.45.73,2.88,1.13,4.27C191.68,67.3,192,68.41,192.27,69.51Z" transform="translate(-81.02 -7)"/><path d="M193.22,65.84a54.64,54.64,0,0,1-2-9.43.37.37,0,0,0,0-.11,36.25,36.25,0,0,0,2.8,3.37c.45.51.88,1,1.29,1.46A12.93,12.93,0,0,1,198,70.54c0,.34-.05.7-.1,1l0,.25c0,.27-.08.54-.13.82a14.48,14.48,0,0,1-1.63,4.47c-.36,0-.75.07-1.14.13l-.71.16-.37.11a14,14,0,0,0,.25-8.1C193.87,68.22,193.55,67,193.22,65.84Z" transform="translate(-81.02 -7)"/><path d="M150,126.2l.1,0a52.8,52.8,0,0,1,9.11-3.14c1.17-.33,2.38-.66,3.57-1a15.49,15.49,0,0,0,4.08-1.91,10.06,10.06,0,0,1,.8.8,4.85,4.85,0,0,1,.89,1.41,15.73,15.73,0,0,1-1.79,1.67c-3.4,2.68-7.09,3.84-10.52,3.26-.62-.1-1.24-.23-1.91-.35A33.33,33.33,0,0,0,150,126.2Z" transform="translate(-81.02 -7)"/><path d="M165.3,118.82a14.79,14.79,0,0,1-3.43,1.5c-1.08.33-2.2.62-3.27.9-1.4.37-2.85.74-4.25,1.21A43.2,43.2,0,0,0,149,124.6c-.51.25-1,.52-1.57.81.36-.78.75-1.58,1.19-2.44,1.43-2.76,3.45-6.22,6.41-8.43l.19-.14c.26.28.53.57.83.87a3.44,3.44,0,0,1,.27.27,3.55,3.55,0,0,0,1.78,1.23,2.06,2.06,0,0,0,1.18-.25l.46-.23c.38-.17.78-.37,1.17-.53a2.79,2.79,0,0,1,2.61-.1l.09,0a2.14,2.14,0,0,0,.12,1.53,4.43,4.43,0,0,0,1.49,1.55Z" transform="translate(-81.02 -7)"/><path d="M198.34,127.61l-.21,0-.1,0-.59.16-.56.2a10.86,10.86,0,0,0-1.3.61,31.37,31.37,0,0,0-5.07,3.36,17.78,17.78,0,0,0-1.95,1.94,4.66,4.66,0,0,1-.94.9,2.21,2.21,0,0,1-.93.27l-.39.06a2.25,2.25,0,0,0-1,.56l-.1.1a1.3,1.3,0,0,1-.94.48h-.07a12.69,12.69,0,0,1-3.14-.43H181a28.43,28.43,0,0,1-5.82-1.84,2.56,2.56,0,0,1-1.52-1.8c-.08-.28-.14-.57-.2-.85a7.22,7.22,0,0,0-.59-2,12.22,12.22,0,0,0-.72-1.22,10.22,10.22,0,0,1-.75-1.31,10.66,10.66,0,0,1-.67-2.4l-.09-.42a10.54,10.54,0,0,0-.31-1.23c-.06-.19-.13-.37-.2-.56s-.18-.45-.28-.67a8.23,8.23,0,0,0-1.75-2.44l-.28-.25-.07-.06c-.27-.24-.57-.49-.92-.76l-.61-.47-.25-.19a3,3,0,0,1-.86-.88,3.83,3.83,0,0,0,.92.34,8.45,8.45,0,0,0,1.57.16l.76,0,.21,0a3.56,3.56,0,0,1,.9.24c.27.11.53.24.81.37s.5.25.77.35a4.94,4.94,0,0,0,.55.2l.59.16.55.1a8.21,8.21,0,0,0,3.07-.2,8.39,8.39,0,0,0,3.68,1.44,5.29,5.29,0,0,0,3.08-.65,6.4,6.4,0,0,1,2.71-.93,3.26,3.26,0,0,1,.62,0,2.56,2.56,0,0,1,.6.83c.3,1.35,1.77,1.62,2.47,1.75a7.68,7.68,0,0,0,3.71-.3,7.4,7.4,0,0,0,1.14-.5l.51-.26.53-.25a3.72,3.72,0,0,1,1.18-.36h0a2.57,2.57,0,0,1,.72,0,5.19,5.19,0,0,1,1.29.44l.61.3c.42.22.83.42,1.24.61a.57.57,0,0,1-.12.18l-.2.18a4.29,4.29,0,0,0-.38.33,1.46,1.46,0,0,0-.47,1.23,3,3,0,0,0,.27.86q.09.19.15.36a6.26,6.26,0,0,1,.27,1.76,5.83,5.83,0,0,1-.16,1.49C199.15,127.33,198.94,127.49,198.34,127.61Z" transform="translate(-81.02 -7)"/><path d="M155.64,96.91a12.12,12.12,0,0,0,.73-1.76,12.58,12.58,0,0,1,.65-1.59c.22-.44.9-.53,1.44-.6l2.08-.24c.69-.08,1.39-.14,2.08-.21l.47,0a11.13,11.13,0,0,0,.15,1.39c.1.53.21,1.09.35,1.65l-.2.28c-.28.38-.55.75-.8,1.06l-.08.09a11.47,11.47,0,0,0-2.2,3.5,4.76,4.76,0,0,0,.83,4.24l1.75,2.7c.15.22.29.45.43.69a13.32,13.32,0,0,0,1.4,2,2.23,2.23,0,0,0,.22.21,3.11,3.11,0,0,0,1.11.55c.25.07.5.12.74.17l.08,0a4.19,4.19,0,0,1,.94.29l.05,0,.09,0a2.17,2.17,0,0,1,.64.72,4.56,4.56,0,0,0,1.23,1.24,6.48,6.48,0,0,0,.57.33l.12,0,.21.09a1.75,1.75,0,0,0,.13.93,3.25,3.25,0,0,0,1.33,1.42l.5.31.5.28.64.36a.41.41,0,0,0,.11.07h-.55l-.33,0-.49-.09-.5-.13a10.24,10.24,0,0,1-1.5-.64l-.42-.18a6.53,6.53,0,0,0-1.21-.35,10.2,10.2,0,0,0-1.17-.13,5,5,0,0,1-2.5-.58l-.06,0,0,0-.18-.12-.29-.19a4.06,4.06,0,0,0-2-.77,5.58,5.58,0,0,0-2.71.67l-.84.4-.33.16c-.48.23-.71.06-1.2-.43l-.17-.17c-.44-.42-.85-.84-1.22-1.25-.13-.14-.25-.29-.37-.43l-.08-.09c-.08-.11-.17-.21-.26-.32-.23-.3-.43-.57-.6-.83a9.64,9.64,0,0,1-1.39-3.58,25.1,25.1,0,0,1-.4-3.35l-.24-2.85a2.21,2.21,0,0,1,.68-1.87A15.78,15.78,0,0,0,155.64,96.91Z" transform="translate(-81.02 -7)"/><path d="M199.78,83.62c-.08-.17-.16-.34-.23-.52l-.21-.51a3.58,3.58,0,0,0-.28-.5,7.65,7.65,0,0,0-2.52-2l-.48-.29-.45-.28-.5-.3c-.23-.13-.43-.23-.63-.32l0,0,.35-.1a8.49,8.49,0,0,1,1.18-.2l.4,0,.21,0,.14,0,.64-.07a40.54,40.54,0,0,0,4.2-.73c.79-.17,1.73-.37,2.68-.49a3.82,3.82,0,0,1,1.16,0,.77.77,0,0,1,.29.14l.11.08a2.49,2.49,0,0,0,.56.32,2.4,2.4,0,0,0,.53.12,4.8,4.8,0,0,0,1.59-.17A3.75,3.75,0,0,1,210,77.6c.34.07.48.6.62,1.07a4.1,4.1,0,0,0,.17.56,4.28,4.28,0,0,0,.44.75,4.22,4.22,0,0,0,.4.49l.31.33.11.1c.32.3.65.57,1,.83a7.13,7.13,0,0,1,1.74,1.77,8.51,8.51,0,0,1,.44.91,7.43,7.43,0,0,0,.55,1.09,5.7,5.7,0,0,0,1.57,1.58,14.49,14.49,0,0,0,1.91,1.13l.37.17c.45.2,1.27.56,1.3.94a3.06,3.06,0,0,1-.73.61,3.27,3.27,0,0,0-.72.55,6.08,6.08,0,0,0-1.14,1.89c-.1.21-.19.42-.28.63a15,15,0,0,1-.7,1.52,10.93,10.93,0,0,1-.63,1l-1.16-1.07-.78-.72a2.8,2.8,0,0,0-2.2-.86,32,32,0,0,0-3.39.36,34.94,34.94,0,0,0-6.12,1.54l-.25.1a13.73,13.73,0,0,0,.07-1.68,17.46,17.46,0,0,0-.47-4.18,5.91,5.91,0,0,0-.79-1.54c-.12-.18-.24-.36-.34-.54a4.65,4.65,0,0,1-.23-.43,2.07,2.07,0,0,1-.16-.5,1.39,1.39,0,0,1,0-.73.73.73,0,0,0-.52-.89C200.19,84.32,200,84.08,199.78,83.62Z" transform="translate(-81.02 -7)"/><path d="M168.53,89.68a8.07,8.07,0,0,1-.54,2.38l-.07.23h-.06a3.32,3.32,0,0,0-1.58.47L166,93l-.3.22a7.89,7.89,0,0,0-.9.86,10.75,10.75,0,0,1-.21-1.76c0-.09,0-.19,0-.28v-.19c0-.07,0-.15,0-.23s0-.41.07-.59c.06-.36.14-.73.22-1.09a11.43,11.43,0,0,0,.29-1.46c.09-.75.1-1.52.12-2.25V86a10.09,10.09,0,0,1,.79-4.44c.69-1.37,2.08-1.86,3.56-2.27l.16,0c2-.56,5.67-1.58,6.12-4.13a34.09,34.09,0,0,0,5.88-.9,12.58,12.58,0,0,1,1.8-.34l.53,0a3.49,3.49,0,0,1,.53,0h.18a8.87,8.87,0,0,1,2.84,1.26,10.57,10.57,0,0,1,4,3.37l.2.39-.63.24a20.19,20.19,0,0,0-2.28,1.11,3,3,0,0,0-.75.07c-.21,0-.42.08-.63.13l-.06,0-.51.11a2,2,0,0,1-.84,0,2.31,2.31,0,0,1-.67-.3,3.6,3.6,0,0,0-.74-.35,1.39,1.39,0,0,0-.54-.07,4.17,4.17,0,0,0-2,.88l-.39.25c-.56.34-1.1.66-1.65,1a6.5,6.5,0,0,1-.75.33l-.52.21h0c-.27,0-.58,0-.9,0a6.26,6.26,0,0,0-1.67.28,11,11,0,0,0-1.85,1l-.38.25-.67.42c-.58.36-1.17.73-1.72,1.13a2.87,2.87,0,0,0-.7.69c0,.05-.09.15-.15.25a3.23,3.23,0,0,1-.3.49,1.89,1.89,0,0,0-.79-.18,1.23,1.23,0,0,0-1,.55,2.38,2.38,0,0,0-.26,1.7A3.26,3.26,0,0,1,168.53,89.68Z" transform="translate(-81.02 -7)"/><path d="M200.8,101.05a19.36,19.36,0,0,0,1.7-4.45l0,0,.09,0,.49-.19c.74-.27,1.51-.53,2.36-.77a32.42,32.42,0,0,1,6.39-1.16l.27,0,.5,0a1.72,1.72,0,0,1,.66.08,2.81,2.81,0,0,1,.8.66q.15.17.3.3c.24.23.49.45.75.67s.65.58,1,.87c.08.08.16.15.23.23s.16.17.25.25.23.27.35.41a4.38,4.38,0,0,1,.55,2.49c0,.14,0,.27,0,.4.05,1.24,0,2.45-.05,3.46-.1,1.64-.25,3.3-.4,4.91-.05.58-.11,1.16-.16,1.74a5.9,5.9,0,0,1-.77,2.87c-.17.26-.32.52-.48.78-.36.59-.73,1.19-1.12,1.73a4.37,4.37,0,0,1-1.54,1.13c-.2.11-.41.22-.6.34a5.92,5.92,0,0,0-1.17.92,4.68,4.68,0,0,0-.39.38l-.39.4-.07.08a5.92,5.92,0,0,1-2,1.55,2.89,2.89,0,0,1-1.05.21,7.08,7.08,0,0,1-2-.28,25.83,25.83,0,0,1-4-1.36l-.37-.16-.36-.16c-.45-.21-.81-.39-1.14-.56a11.6,11.6,0,0,0-1.35-.62,5.41,5.41,0,0,0-1.34-.32,3.93,3.93,0,0,0-.67,0h-.05a5.24,5.24,0,0,0-1.41.39,6,6,0,0,0-.58.25l-.4.2-.13.06a7.21,7.21,0,0,1-2.9.87h-.17c-1.28.05-2.23-.2-2.42-.65a4.59,4.59,0,0,0-.71-1.2l-.34-.44a1.28,1.28,0,0,1,1.82-1.44l.4.06,1.57.21a9.3,9.3,0,0,0,3.07,0h0c.2-.05.41-.11.61-.18a4.23,4.23,0,0,0,.58-.25l0,0,.3-.16.33-.2.18-.12a7.8,7.8,0,0,0,1-.77c.14-.13.27-.26.4-.4s.37-.4.54-.61l.36-.46.08-.1a32.45,32.45,0,0,0,1.92-3c.37-.63.76-1.28,1.15-1.9a3.09,3.09,0,0,0,.43-2.8,2.2,2.2,0,0,0-1.65-1.32,3.09,3.09,0,0,0-.52-.07c.38-.62.71-1.28,1-1.92Z" transform="translate(-81.02 -7)"/><path d="M187,114.4l-.07.06a1.89,1.89,0,0,0-.28.23,2.22,2.22,0,0,0-.39.45,4.94,4.94,0,0,0-.67,1.34l-.1.3h-.34a5.72,5.72,0,0,0-1.63.3,7.86,7.86,0,0,0-1.31.61,5.13,5.13,0,0,1-1.62.66,5.31,5.31,0,0,1-3.7-1l-.36-.22-.33-.21-.61-.41-.37-.24c-.47-.31-.95-.59-1.43-.85l-.48-.29-.46-.26a1.4,1.4,0,0,1-.56-.61c.17,0,.35.06.53.09l.56.07h.13l.25,0h.18c.92.08,1.89.12,2.89.14H180l1,0a7,7,0,0,0,4.45-1.4,3.32,3.32,0,0,0,.41-.43,2.65,2.65,0,0,0,.25-.37,4.16,4.16,0,0,0,.22-.4,2.66,2.66,0,0,0,.2-.91c.37,0,.73-.13,1.09-.21l.58-.12,1-.16c.49-.08,1-.16,1.49-.28l.48-.12a2.62,2.62,0,0,0,.3-.1,1,1,0,0,0,.28-.13,2,2,0,0,0,.76-1h0a25.19,25.19,0,0,0,3.68-2.23c.38-.26.75-.52,1.14-.77a4.19,4.19,0,0,1,2.06-.85,1.54,1.54,0,0,1,.48,0c.41.1.49.28.51.35.09.22.11.8-.76,2.12-.41.61-.79,1.25-1.14,1.87a24,24,0,0,1-1.82,2.8l-.36.41a4.27,4.27,0,0,1-.36.38,7.56,7.56,0,0,1-.82.71l-.08,0-.1.08-.08,0-.16.09a2.69,2.69,0,0,1-.29.16l-.18.09-.12,0-.41.15a6.25,6.25,0,0,1-2.49.12l-1.39-.18-.71-.09-.31,0a4,4,0,0,0-1.51,0l-.11,0a.15.15,0,0,0-.08,0Z" transform="translate(-81.02 -7)"/><path d="M173.53,113l-.22,0-.26,0H173l-.43-.08-.28-.06-.15,0-.21,0-.22-.06-.08,0-.09,0-.3-.11a4.69,4.69,0,0,1-1.76-1.59l0,0a3,3,0,0,0-.8-.7,5.47,5.47,0,0,0-1.65-.56l-.23-.06a2.21,2.21,0,0,1-1-.48,4.69,4.69,0,0,1-.84-1.18q-.16-.28-.33-.54l-2.19-3.37a3.37,3.37,0,0,1-.53-3.39,9,9,0,0,1,1.64-2.43l.36-.44c.24-.28.47-.61.74-1l.27-.37.24-.34a8.2,8.2,0,0,1,1.53-1.66l.25-.17.27-.14a1.24,1.24,0,0,1,.28-.11l-.12.48c0,.14-.07.28-.1.42v0c0,.14-.06.28-.08.41a9.91,9.91,0,0,0-.13,1.11c0,.12,0,.24,0,.36v.52a14.14,14.14,0,0,0,.29,2.56,6.51,6.51,0,0,0,.6,1.52,7.92,7.92,0,0,1,.46,1c.08.26.17.52.25.78a10.69,10.69,0,0,0,1.82,3.77,8.5,8.5,0,0,0,4.85,2.74h.06l.36.08.42.08.16,0c.6.1,1.28.19,2.11.27a2.43,2.43,0,0,0,1.78-.13l.4-.14c.66,0,1.2,0,1.7.1l.28.14.3.14.28.16a10.63,10.63,0,0,0,1.12.56,3.45,3.45,0,0,0,.7.21l.12,0a1.37,1.37,0,0,1-.25.52,1.89,1.89,0,0,1-.25.31,3.13,3.13,0,0,1-.33.31l-.2.15a6.3,6.3,0,0,1-3.14.76c-.66,0-1.33,0-2,0l-1.07,0h-1.17c-.82,0-1.71,0-2.58-.1Z" transform="translate(-81.02 -7)"/><path d="M191.72,80.58l.27-.11.29-.12.27-.1,0,0,.29-.07h.33a1.07,1.07,0,0,1,.25,0,3.26,3.26,0,0,1,.45.14,2.83,2.83,0,0,1,.36.16c.16.08.31.17.46.26l.45.28c.21.13.41.26.61.37A6.1,6.1,0,0,1,198,83.18a2.65,2.65,0,0,1,.31.56l.16.39a3,3,0,0,0,.95,1.36,2.63,2.63,0,0,0,0,.74,3,3,0,0,0,.18.64,5.12,5.12,0,0,0,.25.53,7.67,7.67,0,0,0,.49.82,7.38,7.38,0,0,1,1,3.7,15.44,15.44,0,0,1-.07,3.65l-.14.67c0,.08,0,.15,0,.22a18.44,18.44,0,0,1-1.36,3.48c-.46.93-1.08,2.15-1.79,3.3a5.5,5.5,0,0,1-1.36,1.39c-.28.18-.57.39-.75.53l-.18.12c-.88.58-1.84,1.18-2.92,1.81.13-.28.29-.57.47-.9a4.54,4.54,0,0,1,.38-.38,8.63,8.63,0,0,1,.73-.6l.64-.52a10.59,10.59,0,0,0,1.89-2.12,5,5,0,0,0,.26-.47,5.19,5.19,0,0,0,.41-1.13c.07-.27.13-.57.19-.93s.08-.61.11-.92a13.69,13.69,0,0,1,.27-1.64c0-.19.09-.38.13-.56a8.81,8.81,0,0,0,.39-2.23,12.8,12.8,0,0,0-.36-2.69c0-.17-.07-.34-.1-.51a16,16,0,0,0-.78-2.77,13.59,13.59,0,0,0-.82-1.78l-.11-.2-.25-.41-.06-.09-.18-.3-.11-.15-.06-.09c-.23-.33-.49-.66-.75-1l-.76-.92a4,4,0,0,1-.26-.32l-.26-.31a4.15,4.15,0,0,0-.34-.37,1.42,1.42,0,0,0-.21-.33.71.71,0,0,0-.15-.15l-.07-.07a2.53,2.53,0,0,0-.35-.25l-.1-.06-.24-.14-.2-.11-.37-.17-.31-.15L190.7,81l.31-.15Z" transform="translate(-81.02 -7)"/><path d="M168.45,96.1c0-.15,0-.29.05-.44s0-.3.07-.45A14.73,14.73,0,0,1,169,93.6l.31-.92a13.42,13.42,0,0,0,.59-2.21,6.83,6.83,0,0,0,.09-1s0-.1,0-.19a6,6,0,0,1,0-.84,1.54,1.54,0,0,0,.67.16,1.24,1.24,0,0,0,.61-.21,2.47,2.47,0,0,0,.78-.9,2.3,2.3,0,0,1,.45-.61,12.43,12.43,0,0,1,1.44-1l.67-.41.52-.34a9.46,9.46,0,0,1,1.62-.94,3.93,3.93,0,0,1,.93-.18h0a10.05,10.05,0,0,1-.55,1.44,11.69,11.69,0,0,0-.56,1.59,2.41,2.41,0,0,1-.45.75c-.11.15-.23.31-.33.47a2,2,0,0,0-.18.41l-.73.28a1.67,1.67,0,0,0-.23.11,2.26,2.26,0,0,0-1.09.49A6.19,6.19,0,0,0,171.72,92a8.23,8.23,0,0,0-.68,2.7l0,.38c0,.12,0,.25,0,.37,0,.52,0,1.07,0,1.68v.23a3,3,0,0,0,.6,2.06,8.61,8.61,0,0,0,2,1.52l.45.24a4.76,4.76,0,0,0,.76,2.26l2.16,4a1.87,1.87,0,0,0,.92,1h0v0a19.89,19.89,0,0,1-2.06-.31l-.41-.1-.43-.11-.64-.2a7.07,7.07,0,0,1-2.29-1.3,6.05,6.05,0,0,1-.74-.78,6.44,6.44,0,0,1-.5-.77,11.48,11.48,0,0,1-.87-2.19l-.07-.23c-.1-.31-.2-.64-.31-1a9.25,9.25,0,0,0-.48-1.06,6.25,6.25,0,0,1-.48-1.15,8.87,8.87,0,0,1-.23-2.09l0-.5v-.24a.57.57,0,0,1,0-.13,1.09,1.09,0,0,1,0-.18v-.06l-.38-.1Z" transform="translate(-81.02 -7)"/><path d="M189,85.38v0l-.06.09a3,3,0,0,0-.77.13,1.65,1.65,0,0,1-.56,0c-.14,0-.27,0-.4,0a1.5,1.5,0,0,0-.67.16,1.23,1.23,0,0,0-.32.25,4,4,0,0,0-.61,0,11.44,11.44,0,0,0-2.29.42l-.54.14-.58.12a5.22,5.22,0,0,0-2.29.82h-.24a7,7,0,0,0-1.79.32c.15-.38.28-.76.4-1.11s.18-.54.28-.77l.69-1.76c.1-.27.35-.38.78-.55l.41-.17c.75-.36,1.46-.8,2.14-1.21l1-.62a1.07,1.07,0,0,1,1.31,0,3.4,3.4,0,0,0,1.25.46,4.17,4.17,0,0,0,1.45-.14l.2,0,.42-.1.22,0,.3,0h.05l.22,0a4.45,4.45,0,0,1,.93.46l.11.07.45.24.34.14.25.11c-.1.11-.19.23-.28.34l-.17.21-1.53,1.87Z" transform="translate(-81.02 -7)"/><path d="M188.79,87l.25,0,.13.13.18.15.15.11.37.21,0,0,.35.17.11,0,.4.21a1.46,1.46,0,0,1,.71.82,4.89,4.89,0,0,1,.06,1.5,5.59,5.59,0,0,0,0,.57,14,14,0,0,1-.63,4.32c-.09.26-.19.5-.29.75s-.21.53-.3.81c-.06-.85-.06-1.7-.06-2.53a21.33,21.33,0,0,0-.3-4.49,5.43,5.43,0,0,0-.65-1.82,3.46,3.46,0,0,0-.22-.31,2.06,2.06,0,0,0-.29-.3,2.21,2.21,0,0,0-.3-.25h0l.25-.07Z" transform="translate(-81.02 -7)"/><path d="M181.21,108.3h0a5.31,5.31,0,0,0-.58,0,6,6,0,0,0,.86-.35A.73.73,0,0,0,181.21,108.3Z" transform="translate(-81.02 -7)"/><path d="M182.8,107.06a5.46,5.46,0,0,0,1.09-1.2l.16-.25c.13-.2.25-.39.39-.57a1.6,1.6,0,0,1,.16-.19,1.93,1.93,0,0,0,.39-.54l0-.08.12-.15a6.44,6.44,0,0,0,.8-.85c.13-.16.26-.32.39-.45l2-2.11q.13-.15.3-.3l.2-.21h0l.12,0a1,1,0,0,1,.32.39,8.27,8.27,0,0,1-1.61,1.78l-.24.23,0,0-.28.28a25.21,25.21,0,0,0-1.77,2.15l-.4.52a4.79,4.79,0,0,1-3.14,2.17l-.14,0A5.89,5.89,0,0,0,182.8,107.06Z" transform="translate(-81.02 -7)"/><path d="M175.3,100.17h0L175,100l-.24-.13-.19-.1-.05,0-.08,0a9.68,9.68,0,0,1-1.29-.87c-.56-.46-.59-1-.64-1.75a13.49,13.49,0,0,1,0-1.8c0-.11,0-.23,0-.34s0-.24,0-.36a8.91,8.91,0,0,1,.25-1.25,3.55,3.55,0,0,1,.19-.54,6.35,6.35,0,0,1,.44-.86,1.47,1.47,0,0,1,.09-.17l.1-.14a8.64,8.64,0,0,0,.1,2.48l.09.36.12.34,0,0a4.68,4.68,0,0,0,.19.45v0a3.18,3.18,0,0,0,.23,2.57,4.82,4.82,0,0,0,1.16,1.59,2.47,2.47,0,0,1,.6,1C175.85,100.37,175.57,100.27,175.3,100.17Z" transform="translate(-81.02 -7)"/><path d="M178.84,107.15h-.39a1.58,1.58,0,0,1-.32-.54q-.09-.18-.15-.33c-.06-.13-.11-.24-.15-.31l-1.75-3.27c-.13-.25-.28-.52-.39-.79a7.43,7.43,0,0,1,1.06.56l0,0a6.94,6.94,0,0,0,.71.41,10,10,0,0,0,2.62,1.37,7,7,0,0,0,2.19.44,4.86,4.86,0,0,0,.56,0l-.12.18a6,6,0,0,1-.68.85c-.09.09-.2.18-.33.29a4.71,4.71,0,0,1-.93.57,7.39,7.39,0,0,1-1.09.39l-.62.12v.39l0-.39Z" transform="translate(-81.02 -7)"/><path d="M177.7,100.58c-.1-.28-.21-.58-.34-.87a3.54,3.54,0,0,0-.19-.39,1.08,1.08,0,0,0,.29.13l.24.22a3.63,3.63,0,0,0,1.45.66l.51.15a.61.61,0,0,0,.42,0,8.27,8.27,0,0,0,1.32.34l.42.08a7.06,7.06,0,0,0,2.91.11,15.71,15.71,0,0,0,1.53-.39l.13,0h0l-.49.52c-.57.59-1.14,1.19-1.72,1.78l-.16.17a.62.62,0,0,1-.2.12,1.93,1.93,0,0,1-.64.09h-.65a5.42,5.42,0,0,1-2-.41,9.81,9.81,0,0,1-1.13-.5,6.42,6.42,0,0,1-.81-.48l-.15-.13-.07-.06a1.13,1.13,0,0,1-.19-.19l0,0,0,0,0,0a1.21,1.21,0,0,1-.18-.28c0-.12-.11-.29-.17-.45Z" transform="translate(-81.02 -7)"/><path d="M188,88.65a2.81,2.81,0,0,1,.33.62,7,7,0,0,1,.32,1.27l-.2-.41c-.08-.17-.17-.33-.27-.5a4.57,4.57,0,0,1-.32-.62,1.19,1.19,0,0,1-.1-.62,2,2,0,0,1,.2.21Z" transform="translate(-81.02 -7)"/><path d="M175.26,93.66l0,.32v.14a.17.17,0,0,1,0-.05c0-.1-.05-.2-.07-.3a4.83,4.83,0,0,1-.09-.86c0-.42,0-.84,0-1.23a1.69,1.69,0,0,0,0-.23,4.15,4.15,0,0,1,.08-.79s0-.08,0-.11a1.09,1.09,0,0,1,.06-.11s0,0,0,0,0,0,0,0l.18-.08.94-.38.16-.07.53-.21a7,7,0,0,0-1.38,2.19,5.71,5.71,0,0,0-.3.91c-.05.2-.1.4-.14.61a1,1,0,0,0,0,.16Z" transform="translate(-81.02 -7)"/><path d="M184.43,89.08a9.84,9.84,0,0,0-2.64-.62l-.15,0,0,0c.33-.1.68-.18,1-.25l.55-.13a13.92,13.92,0,0,1,2.84-.47.57.57,0,0,1,.29,0l0,.06a1,1,0,0,1,0,.19,1.16,1.16,0,0,0,0,.18,2.43,2.43,0,0,0,0,1c0,.08,0,.16,0,.25a2,2,0,0,0,.08.22,3,3,0,0,0,.31.59l.09.17.09.16.05.12a12.5,12.5,0,0,1,.57,1.17s0,.07,0,.11a1.4,1.4,0,0,0-.4-.11l-.31-.42-.09-.13-.23-.3-.22-.28A4.72,4.72,0,0,0,184.43,89.08Z" transform="translate(-81.02 -7)"/><path d="M178.16,98.07l-.18-.25c-.12-.19-.24-.38-.34-.58a6.77,6.77,0,0,1-.45-.89,5.1,5.1,0,0,1-.5-2.16c0-.1,0-.2,0-.31v0c0-.1,0-.18,0-.28a6,6,0,0,1,1.1-2.49A4.39,4.39,0,0,1,180,89.37l.09,0,.2,0a8.28,8.28,0,0,0-.58.78,7.32,7.32,0,0,1-.47.65,4.81,4.81,0,0,0-.55.37,4,4,0,0,0-.31.29,2.55,2.55,0,0,0-1.06,1.17,2.38,2.38,0,0,0-.18.57,2.76,2.76,0,0,0-.06.4c0,.13,0,.26,0,.38a6.38,6.38,0,0,0,.1,1,8.41,8.41,0,0,0,.9,2.29l.13.25c.19.39.35.73.47,1A3.46,3.46,0,0,1,178.16,98.07Z" transform="translate(-81.02 -7)"/><path d="M187.57,93.8s0,0,0,0q-.06-.31-.15-.63l-.09-.3a2.36,2.36,0,0,1,.8,1.06,1.21,1.21,0,0,0,0,.14,4.58,4.58,0,0,1,.16.54l0,.16s0,0,0,.05v0c.07.37.19.75.28,1.14a3.51,3.51,0,0,1,.09.65,2,2,0,0,1-.11.76c0,.05,0,.09,0,.13s-.1.21-.16.32l-.13.23a1.42,1.42,0,0,1-.36.41l-.22.16a6.5,6.5,0,0,0,.32-1.2A8.92,8.92,0,0,0,187.57,93.8Z" transform="translate(-81.02 -7)"/><path d="M180.65,99.08l-.14,0a.64.64,0,0,1-.15-.13,1.6,1.6,0,0,1-.21-.49l-.06-.17a5.36,5.36,0,0,0-.24-.6,2,2,0,0,0,1.09-.51,3.17,3.17,0,0,0,.75-1.16c0-.07.07-.15.11-.22.27-.55.63-.66,1.31-.81a6.07,6.07,0,0,0,2-1,3.86,3.86,0,0,0,1-.91c.12.28.25.58.36.9a7.67,7.67,0,0,1,.48,3.26,4.7,4.7,0,0,1-.51,1.59,1,1,0,0,1-.09.13.52.52,0,0,1-.18.16,7.4,7.4,0,0,1-2.2.53,6.93,6.93,0,0,1-2.35-.27l-.6-.17-.15.36.11-.37Z" transform="translate(-81.02 -7)"/><path d="M183.36,90.5l-.1,0a6.9,6.9,0,0,0-1.3-.13,2,2,0,0,0-.9.24,2.35,2.35,0,0,1,.3-.33,1.28,1.28,0,0,1,.32-.2.75.75,0,0,1,.33,0,4.39,4.39,0,0,1,1.63.4A.9.9,0,0,0,183.36,90.5Z" transform="translate(-81.02 -7)"/><path d="M182.4,93.21a.69.69,0,0,1,.13-.11l0,0a8,8,0,0,1,.71-.55,4.52,4.52,0,0,1,.44-.26,1.21,1.21,0,0,0,.42-.35h.11a1.52,1.52,0,0,1,.28.09,1.36,1.36,0,0,1,.25.16s.06.07.06.09a.44.44,0,0,1-.12.19,4.34,4.34,0,0,1-2,1.09c-.25.06-.51.12-.78.21A2,2,0,0,1,182.4,93.21Z" transform="translate(-81.02 -7)"/><path d="M180.24,95.64c-.18.34-.38.61-.65.56a.77.77,0,0,1-.51-.32,1.41,1.41,0,0,0,.71-.22A2.2,2.2,0,0,0,180.24,95.64Z" transform="translate(-81.02 -7)"/><path d="M179.7,94.16a.6.6,0,0,1-.21-.35.76.76,0,0,1,0-.21s0,0,0-.07,0-.08,0-.12h0a1.4,1.4,0,0,1,.26-.33,1.71,1.71,0,0,1,.26-.21,2.13,2.13,0,0,1,.4-.2l.3-.13c.15-.07.31-.13.46-.21l-.05.06a3.43,3.43,0,0,0-.33.39l-.06.12-.09.17-.15.4a2.45,2.45,0,0,1-.18.46.71.71,0,0,1-.15.18.4.4,0,0,1-.32.12A.31.31,0,0,1,179.7,94.16Z" transform="translate(-81.02 -7)"/><path d="M192.73,84.28l.29.34.57.65.12.16c.14.18.29.36.43.55s.31.42.45.63l.11.15c.09.12.17.24.25.37l.06.09a13.23,13.23,0,0,1,1.7,4.63c.06.27.11.55.16.83a15.29,15.29,0,0,1,.24,1.8,6.69,6.69,0,0,1-.36,2.26l0,.15a12.66,12.66,0,0,0-.35,2l0,.16a11.13,11.13,0,0,1-.36,1.88,3.57,3.57,0,0,1-.18.48l0,.07a6.35,6.35,0,0,1-1.74,2l-.29.24c-.29.24-.58.49-.85.74a6.94,6.94,0,0,0-.81.84l-.18.24a3.51,3.51,0,0,0-.53,1.06l0,0a.88.88,0,0,0,0,.15,3.84,3.84,0,0,0-.1,1.13.51.51,0,0,1,0,.17v0a.31.31,0,0,1,0,.08,2.2,2.2,0,0,1-.09.21l-.08.13-.1.14-.09,0a2.84,2.84,0,0,1-.62.12l-.3,0-2.88.56-.76.14c-.13,0-.25,0-.38,0h-.1a2.4,2.4,0,0,1-.47,0,2.07,2.07,0,0,1-.57-.14,6.41,6.41,0,0,1-.79-.39l-.21-.12-.26-.12,0,0a8.7,8.7,0,0,0,3.11-2.85l.51-.68c.25-.32.53-.67.82-1l.14-.15.14-.15.24-.23.26-.24.62-.57a10.32,10.32,0,0,0,.91-.94l.27-.36.07-.12,0,0c.05-.09.11-.17.15-.25a3.39,3.39,0,0,0,.18-.39l0-.07a9.35,9.35,0,0,0,.5-2.22c0-.33.1-.66.17-1a2.79,2.79,0,0,1,.1-.39l0-.15c.09-.25.2-.52.32-.8l.25-.63c.08-.23.15-.48.23-.77s.2-.9.28-1.42A21.78,21.78,0,0,0,193,90V89.2a2.71,2.71,0,0,0-.84-2l0,0a3,3,0,0,0-.61-.46l-.11-.07-.19-.1-.11-.06-.26-.13-.41-.19a.2.2,0,0,1-.09,0l0,0h0l0,0a2.4,2.4,0,0,1,.29-.38l1-1.17.12-.16.1-.13L192,84a2.59,2.59,0,0,1,.24-.28l0,0,.31-.24-.26.29,0,0c.06.06.11.13.17.2l.34-.2h0l-.31.24A2.18,2.18,0,0,0,192.73,84.28Z" transform="translate(-81.02 -7)"/><path d="M204.59,42.7a2.52,2.52,0,0,1-1.77-.74,2.46,2.46,0,0,1-.74-1.77,2.53,2.53,0,0,1,.74-1.77,2.59,2.59,0,0,1,3.54,0,2.53,2.53,0,0,1,.74,1.77,2.46,2.46,0,0,1-.74,1.77A2.5,2.5,0,0,1,204.59,42.7Z" transform="translate(-81.02 -7)"/><path d="M207.57,35.14a2.52,2.52,0,0,1-.54-3.51h0a2.48,2.48,0,0,1,3.49-.53h0a2.51,2.51,0,0,1,.54,3.51h0a2.51,2.51,0,0,1-2,1h0A2.58,2.58,0,0,1,207.57,35.14Zm93.19-.73a2.54,2.54,0,0,1,.52-3.52h0a2.5,2.5,0,0,1,3.51.53h0a2.49,2.49,0,0,1-.52,3.49h0a2.51,2.51,0,0,1-1.48.5h0A2.55,2.55,0,0,1,300.76,34.41Zm-88-5.87a2.52,2.52,0,0,1,0-3.55h0a2.51,2.51,0,0,1,3.54,0h0a2.51,2.51,0,0,1,0,3.55h0a2.5,2.5,0,0,1-1.79.75h0A2.54,2.54,0,0,1,212.73,28.54Zm82.82-.22a2.49,2.49,0,0,1,0-3.54h0a2.53,2.53,0,0,1,3.56,0h0a2.53,2.53,0,0,1,0,3.55h0a2.57,2.57,0,0,1-1.77.73h0A2.45,2.45,0,0,1,295.55,28.32Zm-76.78-5.58a2.5,2.5,0,0,1,.48-3.51h0a2.5,2.5,0,0,1,3.51.46h0a2.53,2.53,0,0,1-.46,3.53h0a2.53,2.53,0,0,1-1.53.5h0A2.51,2.51,0,0,1,218.77,22.74Zm70.73.32h0a2.5,2.5,0,0,1-.5-3.52h0a2.5,2.5,0,0,1,3.51-.48h0a2.51,2.51,0,0,1,.5,3.51h0a2.52,2.52,0,0,1-2,1h0A2.45,2.45,0,0,1,289.5,23.06Zm-63.91-5.2a2.51,2.51,0,0,1,1-3.41h0a2.51,2.51,0,0,1,3.41,1h0a2.53,2.53,0,0,1-1,3.42h0a2.62,2.62,0,0,1-1.22.3h0A2.48,2.48,0,0,1,225.59,17.86Zm57.18.85a2.53,2.53,0,0,1-1-3.41h0a2.52,2.52,0,0,1,3.41-1h0a2.51,2.51,0,0,1,1,3.41h0A2.52,2.52,0,0,1,284,19h0A2.44,2.44,0,0,1,282.77,18.71ZM233,14a2.52,2.52,0,0,1,1.45-3.24h0a2.51,2.51,0,0,1,3.23,1.47h0a2.49,2.49,0,0,1-1.45,3.23h0a2.46,2.46,0,0,1-.89.16h0A2.53,2.53,0,0,1,233,14Zm42.47,1.36h0A2.48,2.48,0,0,1,274,12.16h0a2.52,2.52,0,0,1,3.23-1.49h0a2.55,2.55,0,0,1,1.47,3.24h0a2.53,2.53,0,0,1-2.36,1.62h0A2.39,2.39,0,0,1,275.5,15.37Zm-34.56-4.1a2.5,2.5,0,0,1,1.91-3h0a2.5,2.5,0,0,1,3,1.92h0a2.51,2.51,0,0,1-1.91,3h0a2,2,0,0,1-.53.06h0A2.53,2.53,0,0,1,240.94,11.27Zm26.87,1.86a2.49,2.49,0,0,1-1.92-3h0a2.47,2.47,0,0,1,3-1.92h0a2.49,2.49,0,0,1,1.92,3h0a2.51,2.51,0,0,1-2.44,2h0A3.17,3.17,0,0,1,267.81,13.13ZM249.18,9.7A2.49,2.49,0,0,1,251.49,7h0a2.52,2.52,0,0,1,2.69,2.31h0A2.52,2.52,0,0,1,251.86,12h-.19A2.49,2.49,0,0,1,249.18,9.7ZM259.87,12a2.51,2.51,0,0,1-2.33-2.67h0A2.49,2.49,0,0,1,260.22,7h0a2.47,2.47,0,0,1,2.32,2.67h0A2.48,2.48,0,0,1,260.05,12h-.18Z" transform="translate(-81.02 -7)"/><path d="M307.3,42.5A2.53,2.53,0,0,1,304.79,40a2.53,2.53,0,0,1,.74-1.77,2.59,2.59,0,0,1,3.54,0,2.51,2.51,0,0,1-1.77,4.28Z" transform="translate(-81.02 -7)"/><path d="M256,505c-96.48,0-175-94.84-175-211.42C81,257,88.86,221,103.68,189.42a2.74,2.74,0,0,1,4.95,2.33c-14.48,30.87-22.14,66.08-22.14,101.83,0,113.56,76,206,169.51,206s169.51-92.39,169.51-205.95c0-35.72-7.65-70.91-22.11-101.77a2.73,2.73,0,0,1,5-2.32C423.15,221.07,431,257.06,431,293.58,431,410.16,352.48,505,256,505Z" transform="translate(-81.02 -7)"/><path d="M256,457.47c-70.4,0-127.67-72.71-127.67-162.07S185.6,133.33,256,133.33,383.67,206,383.67,295.4,326.4,457.47,256,457.47Zm0-321.4c-68.89,0-124.94,71.47-124.94,159.33S187.11,454.73,256,454.73,380.94,383.26,380.94,295.4,324.89,136.07,256,136.07Z" transform="translate(-81.02 -7)"/><path d="M188.22,457.59a.53.53,0,0,1,.33,0,.34.34,0,0,1,.19.18.28.28,0,0,1,0,.25.29.29,0,0,1-.22.17c-.49.15-1.15.37-2,.65s-1.77.56-2.8.83-2.16.48-3.35.67a18.28,18.28,0,0,1-3.62.18,15.19,15.19,0,0,1-3.63-.63,10.34,10.34,0,0,1-3.37-1.78,2,2,0,0,1-.7-1,3,3,0,0,1-.1-1.28,4.64,4.64,0,0,1,.39-1.38,5.63,5.63,0,0,1,2.43-2.7,26.86,26.86,0,0,1,2.57-1.4c1-.47,2-.94,3.17-1.4s2.28-.92,3.44-1.36,2.29-.88,3.39-1.29,2.1-.81,3-1.19,1.66-.71,2.28-1a3.92,3.92,0,0,0,1.22-.85c.05-.07.16,0,.32.18a2.36,2.36,0,0,1,.41.76,3,3,0,0,1,.18,1.06,1.73,1.73,0,0,1-.39,1.09,2.25,2.25,0,0,1-.73.48q-.55.26-1.35.57c-.53.2-1.12.4-1.76.62l-1.94.61c-1.53.46-3.23.94-5.12,1.45a6.23,6.23,0,0,1,1.49-.15,7.07,7.07,0,0,1,1.37.18,3.44,3.44,0,0,1,1.4.68,2.28,2.28,0,0,1,.84,1.1,2.58,2.58,0,0,1,.07,1.17,4.06,4.06,0,0,1-.42,1.16,11.72,11.72,0,0,1-.69,1,7.57,7.57,0,0,1-1.62,1.47,13.53,13.53,0,0,1-2.23,1.23,20.7,20.7,0,0,1-2.62.91,15.46,15.46,0,0,1-2.74.49,3.82,3.82,0,0,0,1.75.45,13.44,13.44,0,0,0,2.33-.09,26.11,26.11,0,0,0,2.59-.45c.9-.19,1.74-.39,2.54-.61s1.52-.42,2.17-.62Zm-17.6-.55a2.16,2.16,0,0,0,1.11.26,10.94,10.94,0,0,0,2-.08,22.6,22.6,0,0,0,2.5-.45,18.22,18.22,0,0,0,2.66-.84,15,15,0,0,0,2.46-1.27,7.54,7.54,0,0,0,1.91-1.71,2,2,0,0,0,.25-.43,2.19,2.19,0,0,0,.17-.49,1,1,0,0,0,0-.46.67.67,0,0,0-.25-.38,2.48,2.48,0,0,0-1.51-.4,11.72,11.72,0,0,0-2.28.25,21.77,21.77,0,0,0-2.64.71c-.92.3-1.79.64-2.61,1a19.92,19.92,0,0,0-2.18,1.14,5,5,0,0,0-1.33,1.08,3,3,0,0,0-.59,1.13A.86.86,0,0,0,170.62,457Z" transform="translate(-81.02 -7)"/><path d="M200.79,465.16a.47.47,0,0,1,.36,0,.4.4,0,0,1,.22.17.27.27,0,0,1,0,.23.38.38,0,0,1-.21.2,19,19,0,0,1-3.3,1.38,34.21,34.21,0,0,1-3.81.95c-1.34.25-2.73.45-4.17.59s-2.87.24-4.3.31c-1.25.57-2.54,1.13-3.85,1.67s-2.6,1-3.86,1.49-2.47.84-3.64,1.17A27,27,0,0,1,171,474a12,12,0,0,1-2.65.17,3.91,3.91,0,0,1-1.89-.52A2.86,2.86,0,0,1,165,471.8a3,3,0,0,1,.54-2.12,2.49,2.49,0,0,1,1.61-1,16.82,16.82,0,0,1,3-.4c1.2-.07,2.56-.09,4.09-.07s3.17,0,4.92,0c1.3-.47,2.55-.93,3.75-1.39l3.18-1.25,3-1.23-1,.36c-.45.17-1,.34-1.54.51s-1.2.35-1.85.5a13.26,13.26,0,0,1-1.92.32,8.82,8.82,0,0,1-1.78,0,3.27,3.27,0,0,1-1.44-.46,1.48,1.48,0,0,1-.78-1.18,2.56,2.56,0,0,1,.46-1.52,3.79,3.79,0,0,1,1.23-1.12,19.26,19.26,0,0,1,2-1.12c.76-.38,1.58-.77,2.45-1.17s1.71-.82,2.52-1.25a20,20,0,0,0,2.25-1.34,7.26,7.26,0,0,0,1.64-1.48c0-.07.16,0,.36.1a2.15,2.15,0,0,1,.57.59,2.55,2.55,0,0,1,.36.91,1.5,1.5,0,0,1-.24,1.06,4.76,4.76,0,0,1-1.45,1.3,25.22,25.22,0,0,1-2.35,1.35c-.87.44-1.76.87-2.68,1.29s-1.73.82-2.42,1.18a8.42,8.42,0,0,0-1.56,1c-.34.29-.38.52-.11.69a2.2,2.2,0,0,0,1.28.19,12.64,12.64,0,0,0,2-.33c.76-.19,1.59-.43,2.49-.73s1.82-.62,2.73-.95l2.69-1c.88-.34,1.69-.64,2.43-.91a6.39,6.39,0,0,0,1.1-.91,10.57,10.57,0,0,0,.86-1c.05-.07.17,0,.37.1a2.36,2.36,0,0,1,.57.6,2.45,2.45,0,0,1,.38.92,1.47,1.47,0,0,1-.24,1.05,4.12,4.12,0,0,1-1,.79c-.6.39-1.38.86-2.36,1.41s-2.1,1.16-3.38,1.82-2.64,1.33-4.09,2a61.64,61.64,0,0,0,6.74-.92A32.53,32.53,0,0,0,200.79,465.16Zm-34.23,6.21a2.29,2.29,0,0,0,1.37.14,19.43,19.43,0,0,0,2.38-.43c.93-.21,1.95-.5,3.07-.85s2.27-.74,3.45-1.14l-3.93,0c-1.22,0-2.29,0-3.22.07a16.42,16.42,0,0,0-2.29.26,1.73,1.73,0,0,0-1.14.58,1.18,1.18,0,0,0-.18.48,1,1,0,0,0,.06.44A1,1,0,0,0,166.56,471.37Z" transform="translate(-81.02 -7)"/><path d="M240.58,474.76a10.33,10.33,0,0,1,3.1,1.73,8,8,0,0,1,1,1.05,5.84,5.84,0,0,1,.83,1.33,5.37,5.37,0,0,1,.43,1.61,5.81,5.81,0,0,1-.12,1.92,9.38,9.38,0,0,1-1.21,2.94,13.06,13.06,0,0,1-2.11,2.56,16.79,16.79,0,0,1-2.71,2.08,16.4,16.4,0,0,1-3.05,1.47,13.73,13.73,0,0,1-3.11.73,8.76,8.76,0,0,1-2.87-.11,4.75,4.75,0,0,1-1.62-.7,5.33,5.33,0,0,1-1.3-1.25,4.45,4.45,0,0,1-.75-1.67,4.37,4.37,0,0,1,0-2,3.66,3.66,0,0,1,.59-1.31,5.75,5.75,0,0,1,1.06-1.16,10,10,0,0,1,1.36-.95,8.18,8.18,0,0,1,1.52-.67,7.68,7.68,0,0,1,1.5-.34,4,4,0,0,1,1.31,0,3,3,0,0,1,1,.36,1.44,1.44,0,0,1,.47.44.76.76,0,0,1,.14.44,2.27,2.27,0,0,1,0,.34c0,.18-.2.22-.48.11a7.08,7.08,0,0,0-1-.27,3.83,3.83,0,0,0-1.77.06,6.59,6.59,0,0,0-3.43,2.1,4,4,0,0,0-.88,1.73,2,2,0,0,0,.06,1.22,2.3,2.3,0,0,0,.6.87,3.28,3.28,0,0,0,.94.57,7.19,7.19,0,0,0,1.06.34,4.84,4.84,0,0,0,1.74,0,10,10,0,0,0,2.18-.61,15.84,15.84,0,0,0,2.35-1.2,12.69,12.69,0,0,0,2.21-1.75,12.84,12.84,0,0,0,1.8-2.27,9.26,9.26,0,0,0,1.11-2.79,7,7,0,0,0,.15-2.6,4.67,4.67,0,0,0-.64-1.81,4,4,0,0,0-1.13-1.18,6.57,6.57,0,0,0-1.31-.68,7.83,7.83,0,0,0-1.17-.35l-.73-.14a1.81,1.81,0,0,0-.56-.06,3,3,0,0,1-.46,0,.34.34,0,0,1-.27-.14.63.63,0,0,1,0-.44c0-.1.23-.17.64-.21l1.51-.17c.61-.07,1.27-.19,2-.34a8.55,8.55,0,0,0,2.08-.72,6.55,6.55,0,0,0,1.77-1.32,4.34,4.34,0,0,0,1.05-2.11,6,6,0,0,0,.14-1.28,4,4,0,0,0-.21-1.28,2.59,2.59,0,0,0-2-1.73,13.63,13.63,0,0,0-8.43.73,9.28,9.28,0,0,0-2.65,1.68,3.78,3.78,0,0,0-1.18,1.78,1.55,1.55,0,0,0,.1,1.25,1.13,1.13,0,0,0,.7.49,2.11,2.11,0,0,0,1.38-.15,7,7,0,0,0,1.37-.83c.46-.35.93-.74,1.39-1.16a13.86,13.86,0,0,1,1.42-1.16,6.42,6.42,0,0,1,1.5-.8,2.83,2.83,0,0,1,1.61-.1,2.74,2.74,0,0,1,.92.38,3.15,3.15,0,0,1,.59.52,1,1,0,0,1,.24.43q0,.19-.15.15a2.17,2.17,0,0,0-1.74.74,23.21,23.21,0,0,0-2.37,2.43q-1.35,1.53-3,3.5c-1.11,1.31-2.32,2.62-3.64,4a49.77,49.77,0,0,1-4.3,3.82,26,26,0,0,1-5,3.07,20.73,20.73,0,0,1-5.64,1.71,17.12,17.12,0,0,1-6.3-.26,13.51,13.51,0,0,1-4.22-1.63,9.28,9.28,0,0,1-2.82-2.63,8.59,8.59,0,0,1-1.38-3.41,10.59,10.59,0,0,1,.15-4,8.61,8.61,0,0,1,1.12-2.72,14.05,14.05,0,0,1,1.94-2.44,15.79,15.79,0,0,1,2.48-2,17.35,17.35,0,0,1,2.71-1.49,11.46,11.46,0,0,1,2.68-.8,5.91,5.91,0,0,1,2.34,0,4.49,4.49,0,0,1,1.7.66,2.64,2.64,0,0,1,.8.87,1.71,1.71,0,0,1,.2.88,4.85,4.85,0,0,1-.09.7.35.35,0,0,1-.29.31,1.37,1.37,0,0,1-.58-.05q-.36-.09-.78-.24a7.18,7.18,0,0,0-.87-.26,5.3,5.3,0,0,0-2,0,8.86,8.86,0,0,0-2.22.69,12.5,12.5,0,0,0-2.22,1.27,11.69,11.69,0,0,0-2,1.78,12.21,12.21,0,0,0-1.57,2.18,8.65,8.65,0,0,0-.95,2.45,7.26,7.26,0,0,0-.06,2.86,6.52,6.52,0,0,0,1.09,2.59,8,8,0,0,0,2.25,2.09,10.37,10.37,0,0,0,3.37,1.33,8.66,8.66,0,0,0,3.72,0,17,17,0,0,0,3.9-1.38,27.69,27.69,0,0,0,3.88-2.33q1.92-1.37,3.64-2.85a69.72,69.72,0,0,0,8-8.15,4,4,0,0,1-.72.36,3,3,0,0,1-.8.18,2.85,2.85,0,0,1-1-.05,3,3,0,0,1-2-1.16,2.62,2.62,0,0,1-.26-2.06,3.23,3.23,0,0,1,.9-1.58,7.1,7.1,0,0,1,1.8-1.34,12.87,12.87,0,0,1,2.43-1,21.3,21.3,0,0,1,2.81-.66,16.82,16.82,0,0,1,2.92-.22,14,14,0,0,1,2.79.3,7.82,7.82,0,0,1,2.38.89,5.67,5.67,0,0,1,1.57,1.35,4,4,0,0,1,.77,1.65,4.22,4.22,0,0,1,0,1.77,3.5,3.5,0,0,1-.55,1.3,5.67,5.67,0,0,1-.92,1,7,7,0,0,1-1.16.83c-.42.24-.84.45-1.26.64A16.16,16.16,0,0,1,240.58,474.76Z" transform="translate(-81.02 -7)"/><path d="M262.42,479.1a.48.48,0,0,1,.29-.18.34.34,0,0,1,.27,0,.27.27,0,0,1,.14.19.41.41,0,0,1-.09.28c-.32.4-.75,1-1.3,1.68s-1.16,1.49-1.87,2.32-1.47,1.68-2.29,2.53a26,26,0,0,1-2.56,2.31,14.41,14.41,0,0,1-2.66,1.66,5.66,5.66,0,0,1-2.63.58,3.78,3.78,0,0,1-2.32-1.05,3.83,3.83,0,0,1-.86-1.3,4.48,4.48,0,0,1-.28-1.9,7,7,0,0,1,.45-2.08,12.75,12.75,0,0,1,1.13-2.33,15.66,15.66,0,0,1,1.71-2.29,12.54,12.54,0,0,1,2.17-2,10.47,10.47,0,0,1,2.51-1.34,7,7,0,0,1,2.76-.44,2.36,2.36,0,0,1,1.74.58,1.88,1.88,0,0,1,.4,1.32,4.3,4.3,0,0,1-.73,2.18,6.4,6.4,0,0,1-1.81,1.78,9.42,9.42,0,0,1-2.64,1.21,10.74,10.74,0,0,1-3.19.41,16.17,16.17,0,0,0-.89,2.23,7.87,7.87,0,0,0-.37,2,2.4,2.4,0,0,0,.29,1.38,1.28,1.28,0,0,0,1.11.57,3.43,3.43,0,0,0,1.84-.61A16.48,16.48,0,0,0,255,487.2c.78-.67,1.55-1.41,2.34-2.22s1.5-1.61,2.18-2.38,1.28-1.49,1.81-2.12Zm-5.16-2a3.12,3.12,0,0,0-1.53.36,6.86,6.86,0,0,0-1.55,1.09,11.55,11.55,0,0,0-1.46,1.61,18.36,18.36,0,0,0-1.3,1.95,7.11,7.11,0,0,0,2.35-.33,7.91,7.91,0,0,0,1.89-.92,6.34,6.34,0,0,0,1.34-1.21,4.5,4.5,0,0,0,.76-1.21,1.4,1.4,0,0,0,.1-.94A.58.58,0,0,0,257.26,477.12Z" transform="translate(-81.02 -7)"/><path d="M265,488.38a2.09,2.09,0,0,0,1.11-.65,17.09,17.09,0,0,0,1.5-1.59c.54-.65,1.11-1.36,1.68-2.13s1.13-1.55,1.64-2.3,1-1.43,1.39-2l.94-1.4a.44.44,0,0,1,.27-.21.45.45,0,0,1,.26,0,.24.24,0,0,1,.16.18.31.31,0,0,1,0,.29l-1.14,1.8c-.48.77-1,1.59-1.6,2.47s-1.22,1.77-1.89,2.69-1.35,1.75-2,2.49a16.1,16.1,0,0,1-1.91,1.84,3.07,3.07,0,0,1-1.65.77,1.8,1.8,0,0,1-1.24-.31,2.15,2.15,0,0,1-.63-.8,3.6,3.6,0,0,1-.27-1.22,5.84,5.84,0,0,1,.3-2.3,17.16,17.16,0,0,1,.84-1.94c.31-.6.6-1.19.85-1.76a3.61,3.61,0,0,0,.33-1.77.79.79,0,0,0-.24-.57,3.51,3.51,0,0,0-.57-.42c-.22-.14-.46-.29-.71-.43a3.17,3.17,0,0,1-.72-.57,2.9,2.9,0,0,1-.59-.86,3.59,3.59,0,0,1-.29-1.32,3.63,3.63,0,0,1,.26-1.57,4.26,4.26,0,0,1,.82-1.32,4.14,4.14,0,0,1,1.21-.91,3.6,3.6,0,0,1,1.41-.37.94.94,0,0,1,.59.13.45.45,0,0,1,.24.35,1.08,1.08,0,0,1-.24.68l-.57.85a5.86,5.86,0,0,0-.55,1.06,3.1,3.1,0,0,0-.21,1.35,3,3,0,0,0,.28,1.21,2.24,2.24,0,0,0,.58.75,3,3,0,0,0,.74.45,7.28,7.28,0,0,1,.74.37,2.2,2.2,0,0,1,.57.47,1.22,1.22,0,0,1,.25.75,2.87,2.87,0,0,1-.27,1.18q-.3.75-.72,1.62l-.84,1.78a15.1,15.1,0,0,0-.64,1.64,2.48,2.48,0,0,0-.13,1.18C264.3,488.26,264.54,488.4,265,488.38Z" transform="translate(-81.02 -7)"/><path d="M279.89,488.81a1.73,1.73,0,0,1-1.27-.17,2.13,2.13,0,0,1-.74-.72,2.89,2.89,0,0,1-.4-1.18,5.3,5.3,0,0,1,.21-2.32,18.75,18.75,0,0,1,1-2.6c.4-.87.83-1.72,1.29-2.56s.83-1.55,1.14-2.17a5.17,5.17,0,0,0,.53-1.46c.06-.36-.12-.51-.54-.44a2.34,2.34,0,0,0-1.15.77,15.28,15.28,0,0,0-1.39,1.74c-.49.71-1,1.51-1.53,2.41s-1,1.8-1.53,2.72-1,1.83-1.47,2.71-.9,1.68-1.29,2.37-.72,1.25-1,1.68-.49.65-.62.67a1.62,1.62,0,0,1-.66,0,1.93,1.93,0,0,1-.57-.22,1.64,1.64,0,0,1-.39-.27.87.87,0,0,1-.16-.22,7.76,7.76,0,0,1,.37-1c.25-.59.56-1.35.94-2.27s.77-1.94,1.2-3.06.81-2.23,1.16-3.31.62-2.09.81-3a6.12,6.12,0,0,0,.16-2.2c0-.06.1-.11.32-.14a1.85,1.85,0,0,1,.78.08,2.36,2.36,0,0,1,.85.43,1.35,1.35,0,0,1,.5.91,4.08,4.08,0,0,1-.08,1.48c-.13.58-.28,1.15-.45,1.7s-.32,1-.45,1.41-.17.59-.12.58a2.4,2.4,0,0,0,.38-.56c.21-.36.5-.83.85-1.4s.74-1.17,1.2-1.83a21.73,21.73,0,0,1,1.45-1.87,10.73,10.73,0,0,1,1.59-1.52,3.74,3.74,0,0,1,1.62-.77,1.4,1.4,0,0,1,1.3.33,2.5,2.5,0,0,1,.62,1.4,4.05,4.05,0,0,1-.1,1.47,15,15,0,0,1-.59,1.8c-.25.64-.53,1.29-.86,2s-.64,1.33-.95,2-.6,1.22-.86,1.77a8.42,8.42,0,0,0-.57,1.43,1.7,1.7,0,0,0-.07.92c.07.2.27.28.6.23a2.11,2.11,0,0,0,1-.77,19.37,19.37,0,0,0,1.31-1.75c.47-.69,1-1.46,1.45-2.3s.94-1.65,1.37-2.46.81-1.53,1.16-2.19.59-1.15.76-1.48a.44.44,0,0,1,.25-.25.55.55,0,0,1,.28,0,.22.22,0,0,1,.16.16.4.4,0,0,1,0,.3c-.22.46-.53,1.1-.93,1.91s-.83,1.69-1.32,2.63-1,1.9-1.59,2.89-1.14,1.88-1.71,2.69a15.25,15.25,0,0,1-1.69,2A3,3,0,0,1,279.89,488.81Z" transform="translate(-81.02 -7)"/><path d="M303,470.55a.43.43,0,0,1,.22-.28.54.54,0,0,1,.27,0,.21.21,0,0,1,.18.14.38.38,0,0,1,0,.3l-.71,2q-.45,1.29-1,2.79c-.38,1-.8,2-1.25,3.08s-.92,2-1.38,2.89a15.18,15.18,0,0,1-1.39,2.23,2.91,2.91,0,0,1-1.32,1.11,1.68,1.68,0,0,1-1.3,0,1.91,1.91,0,0,1-.75-.68,3.45,3.45,0,0,1-.44-1.2,7.47,7.47,0,0,1-.64,1.53,6.56,6.56,0,0,1-.87,1.17,2.79,2.79,0,0,1-1.22.77,3.44,3.44,0,0,1-1.14.13,3.08,3.08,0,0,1-1.27-.31,3.42,3.42,0,0,1-1.15-.93,4.49,4.49,0,0,1-.85-1.68,7.14,7.14,0,0,1-.26-2.13,12.78,12.78,0,0,1,.29-2.6,16.39,16.39,0,0,1,.85-2.76,14.16,14.16,0,0,1,1.39-2.61,10.51,10.51,0,0,1,1.93-2.11,6.83,6.83,0,0,1,2.46-1.32,3,3,0,0,1,1.24-.14,2.1,2.1,0,0,1,.94.38,2.76,2.76,0,0,1,.69.78,5.47,5.47,0,0,1,.48,1.12,4.35,4.35,0,0,1,.14,1.4,2.71,2.71,0,0,1,.49,0l.52.07a3.07,3.07,0,0,1,.43.1c.12.05.19.1.21.17a4.2,4.2,0,0,1-.23.76q-.26.69-.6,1.68c-.23.65-.46,1.36-.68,2.1a20.47,20.47,0,0,0-.5,2,3.92,3.92,0,0,0-.07,1.45c.08.37.3.49.67.38a2,2,0,0,0,.92-.9,16.25,16.25,0,0,0,1.08-1.9q.57-1.12,1.14-2.46c.38-.9.73-1.77,1.05-2.62s.61-1.62.86-2.32S302.88,470.9,303,470.55Zm-11.75,14.53a2.42,2.42,0,0,0,1.18-.9,9.88,9.88,0,0,0,1-1.73,20.53,20.53,0,0,0,.9-2.2c.28-.79.54-1.57.79-2.32a5,5,0,0,1-.48-.33.87.87,0,0,1-.24-.22,1.75,1.75,0,0,1,.21-.49,8.63,8.63,0,0,0,.45-1.12,8.81,8.81,0,0,0,.35-1.49,3.77,3.77,0,0,0-.11-1.6,1.67,1.67,0,0,0-.51-.84.87.87,0,0,0-.84-.13,4.19,4.19,0,0,0-2.1,1.57,11,11,0,0,0-1.46,2.76,15.39,15.39,0,0,0-.8,3.26,15.09,15.09,0,0,0-.15,3.07,5.32,5.32,0,0,0,.55,2.16A1,1,0,0,0,291.26,485.08Z" transform="translate(-81.02 -7)"/><path d="M317.17,463.76a.46.46,0,0,1,.18-.3.48.48,0,0,1,.26-.09.23.23,0,0,1,.2.12.34.34,0,0,1,.05.29c-.1.51-.25,1.21-.44,2.1s-.42,1.85-.68,2.9-.55,2.11-.87,3.21-.66,2.13-1,3.06a18.66,18.66,0,0,1-1.13,2.39,2.81,2.81,0,0,1-1.15,1.26,1.8,1.8,0,0,1-1,.18,1.53,1.53,0,0,1-.73-.28,2.05,2.05,0,0,1-.5-.52c-.12-.2-.22-.39-.3-.56l-.13-.29a.35.35,0,0,1,0-.13,7.23,7.23,0,0,1-.44,1.6,6.51,6.51,0,0,1-.72,1.27,2.77,2.77,0,0,1-1.12.92,3.62,3.62,0,0,1-1.11.27,3.18,3.18,0,0,1-1.29-.15,3.55,3.55,0,0,1-1.27-.77,4.89,4.89,0,0,1-1-1.57,7.1,7.1,0,0,1-.52-2.08,12.62,12.62,0,0,1,0-2.62,15.51,15.51,0,0,1,.5-2.85,12.84,12.84,0,0,1,1.06-2.75,10.26,10.26,0,0,1,1.63-2.35,7,7,0,0,1,2.28-1.63,2.6,2.6,0,0,1,2-.21,1.86,1.86,0,0,1,1.11,1c.25-1.54.48-3,.68-4.47s.37-2.74.5-3.91.18-2.17.21-3a4.6,4.6,0,0,0-.16-1.62c-.1-.23,0-.38.18-.46a1.67,1.67,0,0,1,.86,0,3.19,3.19,0,0,1,1,.44,1.93,1.93,0,0,1,.77.86,3.86,3.86,0,0,1,0,1.48c-.08.79-.22,1.75-.41,2.89s-.41,2.4-.66,3.8-.5,2.8-.74,4.2-.45,2.78-.64,4.11-.31,2.5-.38,3.5a10.63,10.63,0,0,0,0,2.39c.1.59.31.84.64.77l.08,0,.07,0a2.12,2.12,0,0,0,.82-1,15.77,15.77,0,0,0,.85-2c.28-.79.55-1.65.83-2.59s.52-1.84.74-2.72.42-1.68.58-2.41S317.09,464.13,317.17,463.76ZM310.11,472a1.87,1.87,0,0,1-.45-.1,2.49,2.49,0,0,1-.33-.16.51.51,0,0,1-.23-.23,1.74,1.74,0,0,1,.22-.5,8.29,8.29,0,0,0,.44-1.14,7.63,7.63,0,0,0,.3-1.47,2.91,2.91,0,0,0-.25-1.55,1.57,1.57,0,0,0-.6-.76.83.83,0,0,0-.85,0,4.15,4.15,0,0,0-1.89,1.81,10.66,10.66,0,0,0-1.1,2.93,16,16,0,0,0-.4,3.33,15,15,0,0,0,.25,3.06,5,5,0,0,0,.81,2.07,1,1,0,0,0,1.3.4,2.14,2.14,0,0,0,.84-.71,5.25,5.25,0,0,0,.69-1.2,10.87,10.87,0,0,0,.56-1.56c.17-.58.32-1.18.46-1.82,0-.36.07-.74.1-1.13S310.06,472.43,310.11,472Z" transform="translate(-81.02 -7)"/><path d="M327.44,457.09a.54.54,0,0,1,.15-.31.42.42,0,0,1,.26-.11.29.29,0,0,1,.21.09.41.41,0,0,1,.07.28c-.05.51-.11,1.22-.19,2.11s-.18,1.88-.33,3-.35,2.2-.59,3.36a23.71,23.71,0,0,1-.91,3.32,14.84,14.84,0,0,1-1.36,2.83,5.47,5.47,0,0,1-1.91,1.89,3.35,3.35,0,0,1-1.12.39,3.48,3.48,0,0,1-1.4,0,3.86,3.86,0,0,1-1.43-.64,4.43,4.43,0,0,1-1.25-1.45,7.27,7.27,0,0,1-.74-2,13.05,13.05,0,0,1-.29-2.58,15.64,15.64,0,0,1,.21-2.85,13.13,13.13,0,0,1,.79-2.81,10.79,10.79,0,0,1,1.4-2.48,7.13,7.13,0,0,1,2.09-1.85,2.38,2.38,0,0,1,1.78-.44,1.85,1.85,0,0,1,1,.9,4.13,4.13,0,0,1,.56,2.22,6.7,6.7,0,0,1-.57,2.48,9.84,9.84,0,0,1-1.58,2.44,11.15,11.15,0,0,1-2.48,2.06,16.06,16.06,0,0,0,.45,2.35,7.67,7.67,0,0,0,.73,1.85,2.35,2.35,0,0,0,1,1,1.28,1.28,0,0,0,1.24-.12,3.47,3.47,0,0,0,1.23-1.49,17.71,17.71,0,0,0,1-2.57q.43-1.46.78-3.12c.22-1.1.41-2.17.57-3.18s.28-1.94.39-2.76S327.4,457.46,327.44,457.09ZM322,458.18a3.06,3.06,0,0,0-1.1,1.13,7.06,7.06,0,0,0-.73,1.74,11.59,11.59,0,0,0-.36,2.16,18.09,18.09,0,0,0-.06,2.33,6.86,6.86,0,0,0,1.81-1.54,7.74,7.74,0,0,0,1.1-1.78,6.56,6.56,0,0,0,.49-1.74,4.82,4.82,0,0,0,0-1.43,1.37,1.37,0,0,0-.42-.85A.58.58,0,0,0,322,458.18Z" transform="translate(-81.02 -7)"/><path d="M338,440.41c.08.11-.06.45-.41,1a21.11,21.11,0,0,1-1.56,2.12q-1,1.26-2.52,2.79t-3.27,3c0,1.26,0,2.58,0,4s.06,2.72.13,4,.16,2.49.29,3.6a16.62,16.62,0,0,0,.53,2.81,3.59,3.59,0,0,0,.85,1.6c.33.3.75.29,1.24-.06a1.76,1.76,0,0,0,.59-.85,9.82,9.82,0,0,0,.48-1.52c.15-.6.28-1.26.39-2s.22-1.48.3-2.24.15-1.54.21-2.3.11-1.49.15-2.15.07-1.27.09-1.79,0-.94.05-1.23a.57.57,0,0,1,.11-.31.36.36,0,0,1,.23-.13.3.3,0,0,1,.23.07.29.29,0,0,1,.11.26c0,.54,0,1.25,0,2.15s-.06,1.89-.12,3-.14,2.19-.26,3.33a31.84,31.84,0,0,1-.5,3.21,15.62,15.62,0,0,1-.79,2.66,3.5,3.5,0,0,1-1.16,1.62,3.13,3.13,0,0,1-1.47.61,3.06,3.06,0,0,1-1.29-.15,3.26,3.26,0,0,1-1-.62,4.4,4.4,0,0,1-.7-.77,6,6,0,0,1-.72-2.14,35,35,0,0,1-.43-3.52c-.1-1.35-.18-2.79-.23-4.34s-.08-3.07-.11-4.58a21.1,21.1,0,0,1-3.34,2,7.49,7.49,0,0,1-2.27.7,2.2,2.2,0,0,1-2.26-.93.68.68,0,0,1-.11-.7,1.14,1.14,0,0,1,.34-.47.74.74,0,0,1,.43,0,3.74,3.74,0,0,0,1,0,7.48,7.48,0,0,0,1.76-.39,13.37,13.37,0,0,0,2.61-1.24l.66-.42c.23-.14.47-.31.73-.49l.36-.24c0-1,0-1.93-.05-2.83s0-1.68-.08-2.37-.09-1.26-.15-1.71a2.37,2.37,0,0,0-.22-.88.29.29,0,0,1,.1-.48,1.71,1.71,0,0,1,.84-.15,3.45,3.45,0,0,1,1.12.25,2,2,0,0,1,.92.71,4.53,4.53,0,0,1,.28,1.78c0,1,.07,2.18.09,3.62,1.22-.95,2.24-1.8,3-2.57s1.47-1.43,2-2a17.06,17.06,0,0,0,1.12-1.34,3.06,3.06,0,0,1,.54-.61,4.07,4.07,0,0,1,.67-.4C337.78,440.3,337.92,440.3,338,440.41Z" transform="translate(-81.02 -7)"/><path d="M345,433.7c.08.1,0,.45-.34,1a20.81,20.81,0,0,1-1.41,2.22c-.63.89-1.4,1.88-2.32,3s-1.93,2.17-3,3.26c.1,1.25.21,2.57.33,3.94s.25,2.71.4,4,.34,2.48.55,3.58a16.91,16.91,0,0,0,.73,2.76,3.58,3.58,0,0,0,1,1.54c.35.28.76.23,1.24-.14a2,2,0,0,0,.52-.89,9.32,9.32,0,0,0,.37-1.55c.1-.61.19-1.28.25-2s.11-1.5.14-2.27,0-1.54.05-2.31v-2.15c0-.67,0-1.27,0-1.8s0-.93,0-1.22a.55.55,0,0,1,.09-.32.36.36,0,0,1,.22-.14.29.29,0,0,1,.24.05.34.34,0,0,1,.12.26c0,.53.08,1.24.12,2.14s.08,1.89.1,3,0,2.19,0,3.34a31.65,31.65,0,0,1-.27,3.24,16.33,16.33,0,0,1-.6,2.71,3.7,3.7,0,0,1-1,1.7,3.35,3.35,0,0,1-1.43.71,2.92,2.92,0,0,1-1.29-.07,3,3,0,0,1-1.08-.54,4.72,4.72,0,0,1-.75-.71,6.11,6.11,0,0,1-.87-2.09c-.25-1-.48-2.15-.68-3.49s-.37-2.76-.53-4.3-.3-3.06-.43-4.57a21.8,21.8,0,0,1-3.2,2.21,7.75,7.75,0,0,1-2.21.85,2.42,2.42,0,0,1-1.45-.09,2.59,2.59,0,0,1-.87-.67.7.7,0,0,1-.16-.7,1.08,1.08,0,0,1,.31-.48c.05-.05.19-.05.43,0a3.57,3.57,0,0,0,1,0,8.46,8.46,0,0,0,1.73-.51,13.49,13.49,0,0,0,2.51-1.43l.63-.46.69-.54.34-.27c-.08-1-.17-1.92-.24-2.81s-.17-1.68-.25-2.36-.18-1.25-.27-1.71a2.43,2.43,0,0,0-.28-.85q-.24-.3.06-.48a1.71,1.71,0,0,1,.83-.22,3.34,3.34,0,0,1,1.13.17,2,2,0,0,1,1,.65,4.4,4.4,0,0,1,.4,1.75c.12,1,.23,2.17.35,3.6,1.15-1,2.1-1.95,2.86-2.77s1.37-1.53,1.83-2.12.8-1.07,1-1.42a3.09,3.09,0,0,1,.49-.65,5.48,5.48,0,0,1,.65-.45C344.8,433.6,344.94,433.59,345,433.7Z" transform="translate(-81.02 -7)"/></svg>